G04*
G04 #@! TF.GenerationSoftware,Altium Limited,Altium Designer,18.1.9 (240)*
G04*
G04 Layer_Color=8421504*
%FSLAX44Y44*%
%MOMM*%
G71*
G01*
G75*
%ADD16R,0.8000X0.9000*%
%ADD17R,2.2500X1.1000*%
%ADD18R,0.9000X0.8000*%
%ADD19O,0.7000X2.5000*%
%ADD20R,0.6500X0.9000*%
%ADD21R,0.6500X1.1000*%
%ADD22R,1.1000X1.7000*%
%ADD23R,1.6000X0.8000*%
%ADD24R,1.0000X1.3000*%
D16*
X523002Y125000D02*
D03*
X537002D02*
D03*
X523002Y90000D02*
D03*
X537002D02*
D03*
X420502Y175000D02*
D03*
X434502D02*
D03*
X324502Y70000D02*
D03*
X338502D02*
D03*
X365498Y85000D02*
D03*
X351498D02*
D03*
X324502Y85000D02*
D03*
X338502D02*
D03*
X420502Y190000D02*
D03*
X434502D02*
D03*
D17*
X485000Y129500D02*
D03*
Y95500D02*
D03*
D18*
X492500Y145000D02*
D03*
Y159000D02*
D03*
X477500Y145000D02*
D03*
Y159000D02*
D03*
X447500Y175502D02*
D03*
Y189502D02*
D03*
X462500Y75000D02*
D03*
Y61000D02*
D03*
X447500Y75000D02*
D03*
Y61000D02*
D03*
X432500Y60502D02*
D03*
Y74502D02*
D03*
X405000Y134498D02*
D03*
Y120498D02*
D03*
X405000Y164498D02*
D03*
Y150498D02*
D03*
X380000Y166998D02*
D03*
Y152998D02*
D03*
X462500Y175502D02*
D03*
Y189502D02*
D03*
X187500Y90610D02*
D03*
Y104610D02*
D03*
X365498Y166998D02*
D03*
Y152998D02*
D03*
D19*
X459050Y149500D02*
D03*
X446350D02*
D03*
X433650D02*
D03*
X420950D02*
D03*
X459050Y100500D02*
D03*
X446350D02*
D03*
X433650D02*
D03*
X420950D02*
D03*
D20*
X349500Y167875D02*
D03*
X330500D02*
D03*
X404500Y105875D02*
D03*
X385500D02*
D03*
D21*
X340000Y147125D02*
D03*
X395000Y85125D02*
D03*
D22*
X357498Y127500D02*
D03*
X330498D02*
D03*
D23*
X328000Y105000D02*
D03*
X362000D02*
D03*
X304500D02*
D03*
X270500D02*
D03*
X304000Y80000D02*
D03*
X270000D02*
D03*
X210500Y105000D02*
D03*
X244500D02*
D03*
Y80000D02*
D03*
X210500D02*
D03*
D24*
X170500Y85000D02*
D03*
X154500D02*
D03*
X170500Y110000D02*
D03*
X154500D02*
D03*
M02*
