G04*
G04 #@! TF.GenerationSoftware,Altium Limited,Altium Designer,18.1.9 (240)*
G04*
G04 Layer_Color=8388736*
%FSLAX44Y44*%
%MOMM*%
G71*
G01*
G75*
%ADD25R,0.9000X1.0000*%
%ADD26R,2.3500X1.2000*%
%ADD27R,1.0000X0.9000*%
%ADD28O,0.8000X2.6000*%
%ADD29R,0.7500X1.0000*%
%ADD30R,0.7500X1.2000*%
%ADD31R,1.2000X1.8000*%
%ADD32R,1.7000X0.9000*%
%ADD33R,1.1000X1.4000*%
%ADD34R,1.7000X1.7000*%
%ADD35C,1.7000*%
%ADD36C,2.0000*%
%ADD37C,1.9000*%
D25*
X523002Y125000D02*
D03*
X537002D02*
D03*
X523002Y90000D02*
D03*
X537002D02*
D03*
X420502Y175000D02*
D03*
X434502D02*
D03*
X324502Y70000D02*
D03*
X338502D02*
D03*
X365498Y85000D02*
D03*
X351498D02*
D03*
X324502Y85000D02*
D03*
X338502D02*
D03*
X420502Y190000D02*
D03*
X434502D02*
D03*
D26*
X485000Y129500D02*
D03*
Y95500D02*
D03*
D27*
X492500Y145000D02*
D03*
Y159000D02*
D03*
X477500Y145000D02*
D03*
Y159000D02*
D03*
X447500Y175502D02*
D03*
Y189502D02*
D03*
X462500Y75000D02*
D03*
Y61000D02*
D03*
X447500Y75000D02*
D03*
Y61000D02*
D03*
X432500Y60502D02*
D03*
Y74502D02*
D03*
X405000Y134498D02*
D03*
Y120498D02*
D03*
X405000Y164498D02*
D03*
Y150498D02*
D03*
X380000Y166998D02*
D03*
Y152998D02*
D03*
X462500Y175502D02*
D03*
Y189502D02*
D03*
X187500Y90610D02*
D03*
Y104610D02*
D03*
X365498Y166998D02*
D03*
Y152998D02*
D03*
D28*
X459050Y149500D02*
D03*
X446350D02*
D03*
X433650D02*
D03*
X420950D02*
D03*
X459050Y100500D02*
D03*
X446350D02*
D03*
X433650D02*
D03*
X420950D02*
D03*
D29*
X349500Y167875D02*
D03*
X330500D02*
D03*
X404500Y105875D02*
D03*
X385500D02*
D03*
D30*
X340000Y147125D02*
D03*
X395000Y85125D02*
D03*
D31*
X357498Y127500D02*
D03*
X330498D02*
D03*
D32*
X328000Y105000D02*
D03*
X362000D02*
D03*
X304500D02*
D03*
X270500D02*
D03*
X304000Y80000D02*
D03*
X270000D02*
D03*
X210500Y105000D02*
D03*
X244500D02*
D03*
Y80000D02*
D03*
X210500D02*
D03*
D33*
X170500Y85000D02*
D03*
X154500D02*
D03*
X170500Y110000D02*
D03*
X154500D02*
D03*
D34*
X271506Y153489D02*
D03*
X187500Y152500D02*
D03*
D35*
X271506Y188489D02*
D03*
X187500Y187500D02*
D03*
D36*
X630000Y180000D02*
D03*
X580000Y145000D02*
D03*
X630000Y110000D02*
D03*
X580000Y75000D02*
D03*
X70000Y107500D02*
D03*
X120000Y72500D02*
D03*
X70000Y37500D02*
D03*
X120000Y200000D02*
D03*
X70000Y165000D02*
D03*
D37*
X310000Y127500D02*
D03*
M02*
