G04*
G04 #@! TF.GenerationSoftware,Altium Limited,Altium Designer,18.0.7 (293)*
G04*
G04 Layer_Physical_Order=2*
G04 Layer_Color=16711680*
%FSLAX44Y44*%
%MOMM*%
G71*
G01*
G75*
%ADD11C,0.3500*%
%ADD41C,2.0000*%
%ADD42C,0.6500*%
%ADD43C,0.5500*%
%ADD44C,6.0000*%
%ADD45C,1.6000*%
%ADD46R,1.6000X1.6000*%
%ADD47C,2.0000*%
%ADD48C,1.8000*%
%ADD49C,0.6000*%
G36*
X620925Y220478D02*
X620887Y220000D01*
X621338Y214272D01*
X622679Y208686D01*
X624878Y203378D01*
X627880Y198479D01*
X631611Y194111D01*
X635979Y190380D01*
X640878Y187378D01*
X646186Y185179D01*
X651773Y183838D01*
X657500Y183387D01*
X657978Y183425D01*
X658911Y182563D01*
Y31089D01*
X69937D01*
X69075Y32022D01*
X69113Y32500D01*
X68662Y38228D01*
X67321Y43814D01*
X65122Y49122D01*
X62120Y54021D01*
X58389Y58389D01*
X54021Y62120D01*
X49122Y65122D01*
X43814Y67321D01*
X38228Y68662D01*
X32500Y69113D01*
X32022Y69075D01*
X31089Y69937D01*
Y185541D01*
X50828D01*
X53185Y183606D01*
X56051Y182074D01*
X59161Y181131D01*
X62396Y180812D01*
X65631Y181131D01*
X68741Y182074D01*
X71607Y183606D01*
X74120Y185668D01*
X76182Y188181D01*
X77714Y191047D01*
X78657Y194157D01*
X78976Y197392D01*
X78657Y200627D01*
X77714Y203737D01*
X76182Y206603D01*
X74120Y209116D01*
X71607Y211178D01*
X68741Y212710D01*
X65631Y213653D01*
X62396Y213972D01*
X59161Y213653D01*
X56051Y212710D01*
X53185Y211178D01*
X50828Y209243D01*
X31089D01*
Y221411D01*
X620063D01*
X620925Y220478D01*
D02*
G37*
%LPC*%
G36*
X266506Y203114D02*
X262721Y202615D01*
X259194Y201154D01*
X256165Y198830D01*
X253841Y195801D01*
X252380Y192274D01*
X251881Y188489D01*
X252380Y184703D01*
X253841Y181176D01*
X256165Y178147D01*
X259194Y175823D01*
X262721Y174362D01*
X266506Y173864D01*
X270292Y174362D01*
X273819Y175823D01*
X276848Y178147D01*
X279172Y181176D01*
X280633Y184703D01*
X281131Y188489D01*
X280633Y192274D01*
X279172Y195801D01*
X276848Y198830D01*
X273819Y201154D01*
X270292Y202615D01*
X266506Y203114D01*
D02*
G37*
G36*
X182500Y202125D02*
X178715Y201627D01*
X175187Y200166D01*
X172159Y197841D01*
X169834Y194813D01*
X168373Y191285D01*
X167875Y187500D01*
X168373Y183715D01*
X169834Y180187D01*
X172159Y177158D01*
X175187Y174834D01*
X178715Y173373D01*
X182500Y172875D01*
X186285Y173373D01*
X189813Y174834D01*
X192841Y177158D01*
X195166Y180187D01*
X196627Y183715D01*
X197125Y187500D01*
X196627Y191285D01*
X195166Y194813D01*
X192841Y197841D01*
X189813Y200166D01*
X186285Y201627D01*
X182500Y202125D01*
D02*
G37*
G36*
X633604Y185247D02*
Y172465D01*
X646386D01*
X646373Y172602D01*
X645458Y175618D01*
X643972Y178397D01*
X641973Y180833D01*
X639536Y182833D01*
X636757Y184319D01*
X633741Y185233D01*
X633604Y185247D01*
D02*
G37*
G36*
X627604D02*
X627467Y185233D01*
X624451Y184319D01*
X621672Y182833D01*
X619235Y180833D01*
X617236Y178397D01*
X615750Y175618D01*
X614836Y172602D01*
X614822Y172465D01*
X627604D01*
Y185247D01*
D02*
G37*
G36*
X501998Y173872D02*
X446150D01*
X443711Y173387D01*
X441644Y172006D01*
X440263Y169939D01*
X440104Y169142D01*
X438889Y168773D01*
X438156Y169506D01*
X436089Y170887D01*
X433650Y171372D01*
X431211Y170887D01*
X429144Y169506D01*
X427763Y167439D01*
X427278Y165000D01*
X427763Y162561D01*
X429144Y160494D01*
X441644Y147994D01*
X443711Y146613D01*
X446150Y146128D01*
X522500D01*
X524939Y146613D01*
X527006Y147994D01*
X528387Y150061D01*
X528872Y152500D01*
X528387Y154939D01*
X527006Y157006D01*
X524939Y158387D01*
X522500Y158872D01*
X448789D01*
X447708Y159954D01*
X448194Y161128D01*
X501998D01*
X504437Y161613D01*
X506504Y162994D01*
X507886Y165061D01*
X508371Y167500D01*
X507886Y169939D01*
X506504Y172006D01*
X504437Y173387D01*
X501998Y173872D01*
D02*
G37*
G36*
X280506Y167489D02*
X269506D01*
Y156489D01*
X280506D01*
Y167489D01*
D02*
G37*
G36*
X263506D02*
X252507D01*
Y156489D01*
X263506D01*
Y167489D01*
D02*
G37*
G36*
X112604Y189118D02*
X109369Y188799D01*
X106259Y187856D01*
X103393Y186324D01*
X100880Y184262D01*
X98818Y181749D01*
X97286Y178883D01*
X96343Y175773D01*
X96024Y172538D01*
X96343Y169303D01*
X97286Y166193D01*
X98818Y163327D01*
X100880Y160814D01*
X103393Y158752D01*
X106259Y157220D01*
X109369Y156277D01*
X112604Y155958D01*
X115839Y156277D01*
X118949Y157220D01*
X121815Y158752D01*
X124328Y160814D01*
X126390Y163327D01*
X127922Y166193D01*
X128865Y169303D01*
X129184Y172538D01*
X128865Y175773D01*
X127922Y178883D01*
X126390Y181749D01*
X124328Y184262D01*
X121815Y186324D01*
X118949Y187856D01*
X115839Y188799D01*
X112604Y189118D01*
D02*
G37*
G36*
X196500Y166500D02*
X185500D01*
Y155500D01*
X196500D01*
Y166500D01*
D02*
G37*
G36*
X179500D02*
X168500D01*
Y155500D01*
X179500D01*
Y166500D01*
D02*
G37*
G36*
X646386Y166465D02*
X633604D01*
Y153683D01*
X633741Y153696D01*
X636757Y154612D01*
X639536Y156097D01*
X641973Y158097D01*
X643972Y160533D01*
X645458Y163312D01*
X646373Y166329D01*
X646386Y166465D01*
D02*
G37*
G36*
X627604D02*
X614822D01*
X614836Y166329D01*
X615750Y163312D01*
X617236Y160533D01*
X619235Y158097D01*
X621672Y156097D01*
X624451Y154612D01*
X627467Y153696D01*
X627604Y153683D01*
Y166465D01*
D02*
G37*
G36*
X280506Y150489D02*
X269506D01*
Y139489D01*
X280506D01*
Y150489D01*
D02*
G37*
G36*
X263506D02*
X252507D01*
Y139489D01*
X263506D01*
Y150489D01*
D02*
G37*
G36*
X196500Y149500D02*
X185500D01*
Y138500D01*
X196500D01*
Y149500D01*
D02*
G37*
G36*
X179500D02*
X168500D01*
Y138500D01*
X179500D01*
Y149500D01*
D02*
G37*
G36*
X62396Y160000D02*
X59133Y159570D01*
X56092Y158311D01*
X53481Y156307D01*
X51477Y153696D01*
X50218Y150655D01*
X49788Y147392D01*
X50218Y144129D01*
X51477Y141088D01*
X53481Y138477D01*
X56092Y136473D01*
X59133Y135214D01*
X62396Y134784D01*
X65659Y135214D01*
X68700Y136473D01*
X71311Y138477D01*
X73315Y141088D01*
X74574Y144129D01*
X75004Y147392D01*
X74574Y150655D01*
X73315Y153696D01*
X71311Y156307D01*
X68700Y158311D01*
X65659Y159570D01*
X62396Y160000D01*
D02*
G37*
G36*
X580396Y157181D02*
X577133Y156751D01*
X574092Y155492D01*
X571481Y153488D01*
X569477Y150877D01*
X568218Y147836D01*
X567788Y144573D01*
X568052Y142570D01*
X557794Y132312D01*
X448029D01*
X432671Y147671D01*
X431156Y148833D01*
X429393Y149563D01*
X427500Y149813D01*
X427500Y149812D01*
X419574D01*
X419563Y149891D01*
X418833Y151655D01*
X417671Y153169D01*
X416156Y154331D01*
X414393Y155062D01*
X412500Y155311D01*
X410607Y155062D01*
X408844Y154331D01*
X407329Y153169D01*
X406167Y151655D01*
X405437Y149891D01*
X405426Y149812D01*
X405000D01*
X403107Y149563D01*
X401344Y148833D01*
X399829Y147671D01*
X398667Y146156D01*
X397937Y144393D01*
X397687Y142500D01*
X397937Y140607D01*
X398667Y138844D01*
X399829Y137329D01*
X401344Y136167D01*
X403107Y135437D01*
X405000Y135188D01*
X424471D01*
X439829Y119829D01*
X439829Y119829D01*
X441344Y118667D01*
X443107Y117937D01*
X444054Y117812D01*
X445000Y117687D01*
X445000Y117688D01*
X560823D01*
X560823Y117687D01*
X562716Y117937D01*
X564479Y118667D01*
X565994Y119829D01*
X578393Y132229D01*
X580396Y131965D01*
X583659Y132395D01*
X586700Y133654D01*
X589311Y135658D01*
X591315Y138269D01*
X592574Y141310D01*
X593004Y144573D01*
X592574Y147836D01*
X591315Y150877D01*
X589311Y153488D01*
X586700Y155492D01*
X583659Y156751D01*
X580396Y157181D01*
D02*
G37*
G36*
X310000Y139099D02*
X306998Y138704D01*
X304200Y137545D01*
X301798Y135702D01*
X299955Y133300D01*
X298796Y130502D01*
X298401Y127500D01*
X298796Y124498D01*
X299955Y121700D01*
X301798Y119298D01*
X304200Y117455D01*
X306998Y116296D01*
X310000Y115901D01*
X313002Y116296D01*
X315800Y117455D01*
X318202Y119298D01*
X320045Y121700D01*
X321204Y124498D01*
X321599Y127500D01*
X321204Y130502D01*
X320045Y133300D01*
X318202Y135702D01*
X315800Y137545D01*
X313002Y138704D01*
X310000Y139099D01*
D02*
G37*
G36*
X112604Y135108D02*
X109341Y134678D01*
X106300Y133419D01*
X103689Y131415D01*
X101685Y128804D01*
X100426Y125763D01*
X99996Y122500D01*
X100426Y119237D01*
X101685Y116196D01*
X103689Y113585D01*
X106300Y111581D01*
X109341Y110322D01*
X112604Y109892D01*
X115867Y110322D01*
X118908Y111581D01*
X121519Y113585D01*
X123523Y116196D01*
X124782Y119237D01*
X125212Y122500D01*
X124782Y125763D01*
X123523Y128804D01*
X121519Y131415D01*
X118908Y133419D01*
X115867Y134678D01*
X112604Y135108D01*
D02*
G37*
G36*
X630604Y132289D02*
X627341Y131859D01*
X624300Y130600D01*
X621689Y128596D01*
X619685Y125985D01*
X618426Y122944D01*
X617996Y119681D01*
X618426Y116418D01*
X619685Y113377D01*
X621689Y110766D01*
X624300Y108762D01*
X627341Y107503D01*
X630604Y107073D01*
X633867Y107503D01*
X636908Y108762D01*
X639519Y110766D01*
X641523Y113377D01*
X642782Y116418D01*
X643212Y119681D01*
X642782Y122944D01*
X641523Y125985D01*
X639519Y128596D01*
X636908Y130600D01*
X633867Y131859D01*
X630604Y132289D01*
D02*
G37*
G36*
X349500Y111372D02*
X347061Y110887D01*
X344994Y109506D01*
X336395Y100907D01*
X210604D01*
X202006Y109506D01*
X199939Y110887D01*
X197500Y111372D01*
X195061Y110887D01*
X192994Y109506D01*
X191613Y107439D01*
X191128Y105000D01*
X191613Y102561D01*
X192994Y100494D01*
X203459Y90029D01*
X205526Y88648D01*
X207965Y88163D01*
X339035D01*
X341474Y88648D01*
X343541Y90029D01*
X354006Y100494D01*
X355387Y102561D01*
X355872Y105000D01*
X355387Y107439D01*
X354006Y109506D01*
X351939Y110887D01*
X349500Y111372D01*
D02*
G37*
G36*
X65396Y113390D02*
Y100608D01*
X78178D01*
X78165Y100745D01*
X77250Y103761D01*
X75764Y106540D01*
X73764Y108976D01*
X71328Y110976D01*
X68549Y112462D01*
X65532Y113377D01*
X65396Y113390D01*
D02*
G37*
G36*
X59396Y113390D02*
X59259Y113377D01*
X56243Y112462D01*
X53464Y110976D01*
X51027Y108976D01*
X49028Y106540D01*
X47542Y103761D01*
X46627Y100745D01*
X46614Y100608D01*
X59396D01*
Y113390D01*
D02*
G37*
G36*
X507500Y103872D02*
X446150D01*
X443711Y103387D01*
X441644Y102006D01*
X429144Y89506D01*
X427763Y87439D01*
X427278Y85000D01*
X427763Y82561D01*
X429144Y80494D01*
X431211Y79113D01*
X433650Y78628D01*
X436089Y79113D01*
X438156Y80494D01*
X448789Y91128D01*
X504860D01*
X510494Y85494D01*
X512561Y84113D01*
X515000Y83628D01*
X517439Y84113D01*
X519506Y85494D01*
X520887Y87561D01*
X521372Y90000D01*
X520887Y92439D01*
X519506Y94506D01*
X512006Y102006D01*
X509939Y103387D01*
X507500Y103872D01*
D02*
G37*
G36*
X580396Y107143D02*
X577133Y106713D01*
X574092Y105454D01*
X571481Y103450D01*
X569477Y100839D01*
X568218Y97798D01*
X567788Y94535D01*
X568218Y91272D01*
X569477Y88231D01*
X571481Y85620D01*
X574092Y83616D01*
X577133Y82357D01*
X580396Y81927D01*
X583659Y82357D01*
X586700Y83616D01*
X589311Y85620D01*
X591315Y88231D01*
X592574Y91272D01*
X593004Y94535D01*
X592574Y97798D01*
X591315Y100839D01*
X589311Y103450D01*
X586700Y105454D01*
X583659Y106713D01*
X580396Y107143D01*
D02*
G37*
G36*
X59396Y94608D02*
X46614D01*
X46627Y94472D01*
X47542Y91455D01*
X49028Y88676D01*
X51027Y86240D01*
X53464Y84240D01*
X56243Y82754D01*
X59259Y81840D01*
X59396Y81826D01*
Y94608D01*
D02*
G37*
G36*
X78178D02*
X65396D01*
Y81826D01*
X65532Y81840D01*
X68549Y82754D01*
X71328Y84240D01*
X73764Y86240D01*
X75764Y88676D01*
X77250Y91455D01*
X78165Y94472D01*
X78178Y94608D01*
D02*
G37*
%LPD*%
D11*
X647500Y75000D02*
Y134105D01*
X630604Y151001D02*
X647500Y134105D01*
X630604Y151001D02*
Y169465D01*
X68722Y72500D02*
X182500D01*
X62396Y78826D02*
X68722Y72500D01*
X62396Y78826D02*
Y97608D01*
X10108Y197392D02*
X12500D01*
X10108D02*
X12500Y195000D01*
X642500Y70000D02*
X647500Y75000D01*
X182500Y72500D02*
X210000D01*
X182500D02*
X182500Y72500D01*
Y152500D01*
X183489Y153489D01*
X266506D01*
X380000Y152500D02*
Y174552D01*
Y120500D02*
Y152500D01*
X379011Y153489D02*
X380000Y152500D01*
X266506Y153489D02*
X379011D01*
X380000Y120500D02*
X385500Y115000D01*
X380000Y174552D02*
X387948Y182500D01*
X395000D01*
X405000Y172500D01*
X415000Y182500D01*
X507500D01*
X520535Y169465D01*
X630604D01*
X462002Y85000D02*
X489875D01*
X505125Y70000D02*
X642500D01*
X490000Y85125D02*
X505125Y70000D01*
X489875Y85000D02*
X490000Y85125D01*
X437002Y60000D02*
X462002Y85000D01*
X425000Y60000D02*
X437002D01*
X408850Y76150D02*
X425000Y60000D01*
X365498Y76150D02*
X408850D01*
X365498Y94998D02*
X385500Y115000D01*
X365498Y76150D02*
Y94998D01*
X270000Y72500D02*
X361848D01*
X210000D02*
X270000D01*
X361848D02*
X365498Y76150D01*
X446150Y152500D02*
X522500D01*
X197500Y105000D02*
X207965Y94535D01*
X339035D01*
X349500Y105000D01*
X446150Y97500D02*
X507500D01*
X446150Y167500D02*
X501998D01*
X433650Y165000D02*
X446150Y152500D01*
X507500Y97500D02*
X515000Y90000D01*
X433650Y85000D02*
X446150Y97500D01*
D41*
X12500Y12500D02*
Y195000D01*
Y12500D02*
X677500D01*
X12500Y240000D02*
X677500D01*
Y12500D02*
Y240000D01*
X12500Y195000D02*
Y197392D01*
Y240000D01*
D42*
Y197392D02*
X62396D01*
D43*
X412500Y142500D02*
X427500D01*
X405000D02*
X412500D01*
Y147998D01*
X445000Y125000D02*
X560823D01*
X427500Y142500D02*
X445000Y125000D01*
X560823D02*
X580396Y144573D01*
D44*
X32500Y32500D02*
D03*
X657500Y220000D02*
D03*
D45*
X266506Y188489D02*
D03*
X182500Y187500D02*
D03*
D46*
X266506Y153489D02*
D03*
X182500Y152500D02*
D03*
D47*
X62396Y197392D02*
D03*
Y97608D02*
D03*
X112604Y122500D02*
D03*
X62396Y147392D02*
D03*
X112604Y172538D02*
D03*
X580396Y94535D02*
D03*
X630604Y119681D02*
D03*
X580396Y144573D02*
D03*
X630604Y169465D02*
D03*
D48*
X310000Y127500D02*
D03*
D49*
X653501Y151001D02*
D03*
Y81001D02*
D03*
X636001Y46001D02*
D03*
X601001Y186001D02*
D03*
X618501Y151001D02*
D03*
Y81001D02*
D03*
X601001Y46001D02*
D03*
X566001Y186001D02*
D03*
Y46001D02*
D03*
X531001Y186001D02*
D03*
X548501Y151001D02*
D03*
Y81001D02*
D03*
X531001Y46001D02*
D03*
X496001Y186001D02*
D03*
Y46001D02*
D03*
X461001D02*
D03*
X426001D02*
D03*
X408501Y81001D02*
D03*
X391001Y46001D02*
D03*
X356001D02*
D03*
X321001Y186001D02*
D03*
Y46001D02*
D03*
X303501Y151001D02*
D03*
X286001Y116001D02*
D03*
Y46001D02*
D03*
X251001D02*
D03*
X233501Y151001D02*
D03*
X216001Y116001D02*
D03*
Y46001D02*
D03*
X181001D02*
D03*
X163501Y151001D02*
D03*
X146001Y46001D02*
D03*
X128501Y151001D02*
D03*
X111001Y46001D02*
D03*
X93501Y151001D02*
D03*
Y81001D02*
D03*
X76001Y46001D02*
D03*
X41001Y116001D02*
D03*
X380000Y174552D02*
D03*
X490000Y85125D02*
D03*
X477500D02*
D03*
X467500Y108000D02*
D03*
X425000Y60000D02*
D03*
X405000Y172500D02*
D03*
X385500Y115000D02*
D03*
X365498Y76150D02*
D03*
X270000Y72500D02*
D03*
X244500Y112500D02*
D03*
X210000Y72500D02*
D03*
X405000Y142500D02*
D03*
X412500Y147998D02*
D03*
X522500Y152500D02*
D03*
X197500Y105000D02*
D03*
X349500D02*
D03*
X501998Y167500D02*
D03*
X446150D02*
D03*
X433650Y165000D02*
D03*
X515000Y90000D02*
D03*
X433650Y85000D02*
D03*
X462002Y85000D02*
D03*
M02*
