G04*
G04 #@! TF.GenerationSoftware,Altium Limited,Altium Designer,18.0.7 (293)*
G04*
G04 Layer_Color=2752767*
%FSLAX44Y44*%
%MOMM*%
G71*
G01*
G75*
%ADD52C,0.0508*%
%ADD53C,0.0677*%
D52*
X30468Y30468D02*
Y34532D01*
X34532D01*
Y30468D01*
X30468D01*
X62396Y195360D02*
X60364Y199424D01*
X64428D01*
X62396Y195360D01*
Y95576D02*
X60364Y99640D01*
X64428D01*
X62396Y95576D01*
X112604Y120468D02*
X110572Y124532D01*
X114636D01*
X112604Y120468D01*
X62396Y145360D02*
X60364Y149424D01*
X64428D01*
X62396Y145360D01*
X112604Y170506D02*
X110572Y174570D01*
X114636D01*
X112604Y170506D01*
X580396Y92503D02*
X578364Y96567D01*
X582428D01*
X580396Y92503D01*
X630604Y117649D02*
X628572Y121713D01*
X632636D01*
X630604Y117649D01*
X580396Y142541D02*
X578364Y146605D01*
X582428D01*
X580396Y142541D01*
X630604Y167433D02*
X628572Y171497D01*
X632636D01*
X630604Y167433D01*
X310000Y125468D02*
X311016Y126484D01*
X312032D01*
X311016Y127500D01*
X312032Y128516D01*
X311016D01*
X310000Y129532D01*
X308984Y128516D01*
X307968D01*
X308984Y127500D01*
X307968Y126484D01*
X308984D01*
X310000Y125468D01*
X655468Y217968D02*
Y222032D01*
X659532D01*
Y217968D01*
X655468D01*
X651469Y148969D02*
X652485Y151001D01*
X651469Y153033D01*
X653501Y152017D01*
X655533Y153033D01*
X654517Y151001D01*
X655533Y148969D01*
X653501Y149985D01*
X651469Y148969D01*
Y78969D02*
X652485Y81001D01*
X651469Y83033D01*
X653501Y82017D01*
X655533Y83033D01*
X654517Y81001D01*
X655533Y78969D01*
X653501Y79985D01*
X651469Y78969D01*
X633969Y43969D02*
X634985Y46001D01*
X633969Y48033D01*
X636001Y47017D01*
X638033Y48033D01*
X637017Y46001D01*
X638033Y43969D01*
X636001Y44985D01*
X633969Y43969D01*
X598969Y183969D02*
X599985Y186001D01*
X598969Y188033D01*
X601001Y187017D01*
X603033Y188033D01*
X602017Y186001D01*
X603033Y183969D01*
X601001Y184985D01*
X598969Y183969D01*
X616469Y148969D02*
X617485Y151001D01*
X616469Y153033D01*
X618501Y152017D01*
X620533Y153033D01*
X619517Y151001D01*
X620533Y148969D01*
X618501Y149985D01*
X616469Y148969D01*
Y78969D02*
X617485Y81001D01*
X616469Y83033D01*
X618501Y82017D01*
X620533Y83033D01*
X619517Y81001D01*
X620533Y78969D01*
X618501Y79985D01*
X616469Y78969D01*
X598969Y43969D02*
X599985Y46001D01*
X598969Y48033D01*
X601001Y47017D01*
X603033Y48033D01*
X602017Y46001D01*
X603033Y43969D01*
X601001Y44985D01*
X598969Y43969D01*
X563969Y183969D02*
X564985Y186001D01*
X563969Y188033D01*
X566001Y187017D01*
X568033Y188033D01*
X567017Y186001D01*
X568033Y183969D01*
X566001Y184985D01*
X563969Y183969D01*
Y43969D02*
X564985Y46001D01*
X563969Y48033D01*
X566001Y47017D01*
X568033Y48033D01*
X567017Y46001D01*
X568033Y43969D01*
X566001Y44985D01*
X563969Y43969D01*
X528969Y183969D02*
X529985Y186001D01*
X528969Y188033D01*
X531001Y187017D01*
X533033Y188033D01*
X532017Y186001D01*
X533033Y183969D01*
X531001Y184985D01*
X528969Y183969D01*
X546469Y148969D02*
X547485Y151001D01*
X546469Y153033D01*
X548501Y152017D01*
X550533Y153033D01*
X549517Y151001D01*
X550533Y148969D01*
X548501Y149985D01*
X546469Y148969D01*
Y78969D02*
X547485Y81001D01*
X546469Y83033D01*
X548501Y82017D01*
X550533Y83033D01*
X549517Y81001D01*
X550533Y78969D01*
X548501Y79985D01*
X546469Y78969D01*
X528969Y43969D02*
X529985Y46001D01*
X528969Y48033D01*
X531001Y47017D01*
X533033Y48033D01*
X532017Y46001D01*
X533033Y43969D01*
X531001Y44985D01*
X528969Y43969D01*
X493969Y183969D02*
X494985Y186001D01*
X493969Y188033D01*
X496001Y187017D01*
X498033Y188033D01*
X497017Y186001D01*
X498033Y183969D01*
X496001Y184985D01*
X493969Y183969D01*
Y43969D02*
X494985Y46001D01*
X493969Y48033D01*
X496001Y47017D01*
X498033Y48033D01*
X497017Y46001D01*
X498033Y43969D01*
X496001Y44985D01*
X493969Y43969D01*
X458969D02*
X459985Y46001D01*
X458969Y48033D01*
X461001Y47017D01*
X463033Y48033D01*
X462017Y46001D01*
X463033Y43969D01*
X461001Y44985D01*
X458969Y43969D01*
X423969D02*
X424985Y46001D01*
X423969Y48033D01*
X426001Y47017D01*
X428033Y48033D01*
X427017Y46001D01*
X428033Y43969D01*
X426001Y44985D01*
X423969Y43969D01*
X406469Y78969D02*
X407485Y81001D01*
X406469Y83033D01*
X408501Y82017D01*
X410533Y83033D01*
X409517Y81001D01*
X410533Y78969D01*
X408501Y79985D01*
X406469Y78969D01*
X388969Y43969D02*
X389985Y46001D01*
X388969Y48033D01*
X391001Y47017D01*
X393033Y48033D01*
X392017Y46001D01*
X393033Y43969D01*
X391001Y44985D01*
X388969Y43969D01*
X353969D02*
X354985Y46001D01*
X353969Y48033D01*
X356001Y47017D01*
X358033Y48033D01*
X357017Y46001D01*
X358033Y43969D01*
X356001Y44985D01*
X353969Y43969D01*
X318969Y183969D02*
X319985Y186001D01*
X318969Y188033D01*
X321001Y187017D01*
X323033Y188033D01*
X322017Y186001D01*
X323033Y183969D01*
X321001Y184985D01*
X318969Y183969D01*
Y43969D02*
X319985Y46001D01*
X318969Y48033D01*
X321001Y47017D01*
X323033Y48033D01*
X322017Y46001D01*
X323033Y43969D01*
X321001Y44985D01*
X318969Y43969D01*
X301469Y148969D02*
X302485Y151001D01*
X301469Y153033D01*
X303501Y152017D01*
X305533Y153033D01*
X304517Y151001D01*
X305533Y148969D01*
X303501Y149985D01*
X301469Y148969D01*
X283969Y113969D02*
X284985Y116001D01*
X283969Y118033D01*
X286001Y117017D01*
X288033Y118033D01*
X287017Y116001D01*
X288033Y113969D01*
X286001Y114985D01*
X283969Y113969D01*
Y43969D02*
X284985Y46001D01*
X283969Y48033D01*
X286001Y47017D01*
X288033Y48033D01*
X287017Y46001D01*
X288033Y43969D01*
X286001Y44985D01*
X283969Y43969D01*
X248969D02*
X249985Y46001D01*
X248969Y48033D01*
X251001Y47017D01*
X253033Y48033D01*
X252017Y46001D01*
X253033Y43969D01*
X251001Y44985D01*
X248969Y43969D01*
X231469Y148969D02*
X232485Y151001D01*
X231469Y153033D01*
X233501Y152017D01*
X235533Y153033D01*
X234517Y151001D01*
X235533Y148969D01*
X233501Y149985D01*
X231469Y148969D01*
X213969Y113969D02*
X214985Y116001D01*
X213969Y118033D01*
X216001Y117017D01*
X218033Y118033D01*
X217017Y116001D01*
X218033Y113969D01*
X216001Y114985D01*
X213969Y113969D01*
Y43969D02*
X214985Y46001D01*
X213969Y48033D01*
X216001Y47017D01*
X218033Y48033D01*
X217017Y46001D01*
X218033Y43969D01*
X216001Y44985D01*
X213969Y43969D01*
X178969D02*
X179985Y46001D01*
X178969Y48033D01*
X181001Y47017D01*
X183033Y48033D01*
X182017Y46001D01*
X183033Y43969D01*
X181001Y44985D01*
X178969Y43969D01*
X161469Y148969D02*
X162485Y151001D01*
X161469Y153033D01*
X163501Y152017D01*
X165533Y153033D01*
X164517Y151001D01*
X165533Y148969D01*
X163501Y149985D01*
X161469Y148969D01*
X143969Y43969D02*
X144985Y46001D01*
X143969Y48033D01*
X146001Y47017D01*
X148033Y48033D01*
X147017Y46001D01*
X148033Y43969D01*
X146001Y44985D01*
X143969Y43969D01*
X126469Y148969D02*
X127485Y151001D01*
X126469Y153033D01*
X128501Y152017D01*
X130533Y153033D01*
X129517Y151001D01*
X130533Y148969D01*
X128501Y149985D01*
X126469Y148969D01*
X108969Y43969D02*
X109985Y46001D01*
X108969Y48033D01*
X111001Y47017D01*
X113033Y48033D01*
X112017Y46001D01*
X113033Y43969D01*
X111001Y44985D01*
X108969Y43969D01*
X91469Y148969D02*
X92485Y151001D01*
X91469Y153033D01*
X93501Y152017D01*
X95533Y153033D01*
X94517Y151001D01*
X95533Y148969D01*
X93501Y149985D01*
X91469Y148969D01*
Y78969D02*
X92485Y81001D01*
X91469Y83033D01*
X93501Y82017D01*
X95533Y83033D01*
X94517Y81001D01*
X95533Y78969D01*
X93501Y79985D01*
X91469Y78969D01*
X73969Y43969D02*
X74985Y46001D01*
X73969Y48033D01*
X76001Y47017D01*
X78033Y48033D01*
X77017Y46001D01*
X78033Y43969D01*
X76001Y44985D01*
X73969Y43969D01*
X38969Y113969D02*
X39985Y116001D01*
X38969Y118033D01*
X41001Y117017D01*
X43033Y118033D01*
X42017Y116001D01*
X43033Y113969D01*
X41001Y114985D01*
X38969Y113969D01*
X377968Y172520D02*
X378984Y174552D01*
X377968Y176584D01*
X380000Y175568D01*
X382032Y176584D01*
X381016Y174552D01*
X382032Y172520D01*
X380000Y173536D01*
X377968Y172520D01*
X487968Y83093D02*
X488984Y85125D01*
X487968Y87157D01*
X490000Y86141D01*
X492032Y87157D01*
X491016Y85125D01*
X492032Y83093D01*
X490000Y84109D01*
X487968Y83093D01*
X475468D02*
X476484Y85125D01*
X475468Y87157D01*
X477500Y86141D01*
X479532Y87157D01*
X478516Y85125D01*
X479532Y83093D01*
X477500Y84109D01*
X475468Y83093D01*
X465468Y105968D02*
X466484Y108000D01*
X465468Y110032D01*
X467500Y109016D01*
X469532Y110032D01*
X468516Y108000D01*
X469532Y105968D01*
X467500Y106984D01*
X465468Y105968D01*
X422968Y57968D02*
X423984Y60000D01*
X422968Y62032D01*
X425000Y61016D01*
X427032Y62032D01*
X426016Y60000D01*
X427032Y57968D01*
X425000Y58984D01*
X422968Y57968D01*
X402968Y170468D02*
X403984Y172500D01*
X402968Y174532D01*
X405000Y173516D01*
X407032Y174532D01*
X406016Y172500D01*
X407032Y170468D01*
X405000Y171484D01*
X402968Y170468D01*
X383468Y112968D02*
X384484Y115000D01*
X383468Y117032D01*
X385500Y116016D01*
X387532Y117032D01*
X386516Y115000D01*
X387532Y112968D01*
X385500Y113984D01*
X383468Y112968D01*
X363466Y74118D02*
X364482Y76150D01*
X363466Y78182D01*
X365498Y77166D01*
X367530Y78182D01*
X366514Y76150D01*
X367530Y74118D01*
X365498Y75134D01*
X363466Y74118D01*
X267968Y70468D02*
X268984Y72500D01*
X267968Y74532D01*
X270000Y73516D01*
X272032Y74532D01*
X271016Y72500D01*
X272032Y70468D01*
X270000Y71484D01*
X267968Y70468D01*
X242468Y110468D02*
X243484Y112500D01*
X242468Y114532D01*
X244500Y113516D01*
X246532Y114532D01*
X245516Y112500D01*
X246532Y110468D01*
X244500Y111484D01*
X242468Y110468D01*
X207968Y70468D02*
X208984Y72500D01*
X207968Y74532D01*
X210000Y73516D01*
X212032Y74532D01*
X211016Y72500D01*
X212032Y70468D01*
X210000Y71484D01*
X207968Y70468D01*
X402968Y140468D02*
X403984Y142500D01*
X402968Y144532D01*
X405000Y143516D01*
X407032Y144532D01*
X406016Y142500D01*
X407032Y140468D01*
X405000Y141484D01*
X402968Y140468D01*
X410468Y145966D02*
X411484Y147998D01*
X410468Y150030D01*
X412500Y149014D01*
X414532Y150030D01*
X413516Y147998D01*
X414532Y145966D01*
X412500Y146982D01*
X410468Y145966D01*
X520468Y150468D02*
X521484Y152500D01*
X520468Y154532D01*
X522500Y153516D01*
X524532Y154532D01*
X523516Y152500D01*
X524532Y150468D01*
X522500Y151484D01*
X520468Y150468D01*
X195468Y102968D02*
X196484Y105000D01*
X195468Y107032D01*
X197500Y106016D01*
X199532Y107032D01*
X198516Y105000D01*
X199532Y102968D01*
X197500Y103984D01*
X195468Y102968D01*
X347468D02*
X348484Y105000D01*
X347468Y107032D01*
X349500Y106016D01*
X351532Y107032D01*
X350516Y105000D01*
X351532Y102968D01*
X349500Y103984D01*
X347468Y102968D01*
X499966Y165468D02*
X500982Y167500D01*
X499966Y169532D01*
X501998Y168516D01*
X504030Y169532D01*
X503014Y167500D01*
X504030Y165468D01*
X501998Y166484D01*
X499966Y165468D01*
X444118D02*
X445134Y167500D01*
X444118Y169532D01*
X446150Y168516D01*
X448182Y169532D01*
X447166Y167500D01*
X448182Y165468D01*
X446150Y166484D01*
X444118Y165468D01*
X431618Y162968D02*
X432634Y165000D01*
X431618Y167032D01*
X433650Y166016D01*
X435682Y167032D01*
X434666Y165000D01*
X435682Y162968D01*
X433650Y163984D01*
X431618Y162968D01*
X512968Y87968D02*
X513984Y90000D01*
X512968Y92032D01*
X515000Y91016D01*
X517032Y92032D01*
X516016Y90000D01*
X517032Y87968D01*
X515000Y88984D01*
X512968Y87968D01*
X431618Y82968D02*
X432634Y85000D01*
X431618Y87032D01*
X433650Y86016D01*
X435682Y87032D01*
X434666Y85000D01*
X435682Y82968D01*
X433650Y83984D01*
X431618Y82968D01*
X459970Y82968D02*
X460986Y85000D01*
X459970Y87032D01*
X462002Y86016D01*
X464034Y87032D01*
X463018Y85000D01*
X464034Y82968D01*
X462002Y83984D01*
X459970Y82968D01*
D53*
X268538Y188489D02*
G03*
X268538Y188489I-2032J0D01*
G01*
Y153489D02*
G03*
X268538Y153489I-2032J0D01*
G01*
X184532Y187500D02*
G03*
X184532Y187500I-2032J0D01*
G01*
Y152500D02*
G03*
X184532Y152500I-2032J0D01*
G01*
M02*
