G04*
G04 #@! TF.GenerationSoftware,Altium Limited,Altium Designer,18.1.9 (240)*
G04*
G04 Layer_Color=2752767*
%FSLAX44Y44*%
%MOMM*%
G71*
G01*
G75*
%ADD49C,0.0508*%
%ADD50C,0.0677*%
D49*
X269474Y151457D02*
Y155521D01*
X273538D01*
Y151457D01*
X269474D01*
Y186457D02*
Y190521D01*
X273538D01*
Y186457D01*
X269474D01*
X185468Y150468D02*
Y154532D01*
X189532D01*
Y150468D01*
X185468D01*
Y185468D02*
Y189532D01*
X189532D01*
Y185468D01*
X185468D01*
X310000Y125468D02*
X307968Y129532D01*
X312032D01*
X310000Y125468D01*
X505000Y165843D02*
X506016Y166859D01*
X507032D01*
X506016Y167875D01*
X507032Y168891D01*
X506016D01*
X505000Y169907D01*
X503984Y168891D01*
X502968D01*
X503984Y167875D01*
X502968Y166859D01*
X503984D01*
X505000Y165843D01*
X653501Y148969D02*
X654517Y149985D01*
X655533D01*
X654517Y151001D01*
X655533Y152017D01*
X654517D01*
X653501Y153033D01*
X652485Y152017D01*
X651469D01*
X652485Y151001D01*
X651469Y149985D01*
X652485D01*
X653501Y148969D01*
Y78969D02*
X654517Y79985D01*
X655533D01*
X654517Y81001D01*
X655533Y82017D01*
X654517D01*
X653501Y83033D01*
X652485Y82017D01*
X651469D01*
X652485Y81001D01*
X651469Y79985D01*
X652485D01*
X653501Y78969D01*
X636001Y43969D02*
X637017Y44985D01*
X638033D01*
X637017Y46001D01*
X638033Y47017D01*
X637017D01*
X636001Y48033D01*
X634985Y47017D01*
X633969D01*
X634985Y46001D01*
X633969Y44985D01*
X634985D01*
X636001Y43969D01*
X601001Y183969D02*
X602017Y184985D01*
X603033D01*
X602017Y186001D01*
X603033Y187017D01*
X602017D01*
X601001Y188033D01*
X599985Y187017D01*
X598969D01*
X599985Y186001D01*
X598969Y184985D01*
X599985D01*
X601001Y183969D01*
X618501Y148969D02*
X619517Y149985D01*
X620533D01*
X619517Y151001D01*
X620533Y152017D01*
X619517D01*
X618501Y153033D01*
X617485Y152017D01*
X616469D01*
X617485Y151001D01*
X616469Y149985D01*
X617485D01*
X618501Y148969D01*
Y78969D02*
X619517Y79985D01*
X620533D01*
X619517Y81001D01*
X620533Y82017D01*
X619517D01*
X618501Y83033D01*
X617485Y82017D01*
X616469D01*
X617485Y81001D01*
X616469Y79985D01*
X617485D01*
X618501Y78969D01*
X601001Y43969D02*
X602017Y44985D01*
X603033D01*
X602017Y46001D01*
X603033Y47017D01*
X602017D01*
X601001Y48033D01*
X599985Y47017D01*
X598969D01*
X599985Y46001D01*
X598969Y44985D01*
X599985D01*
X601001Y43969D01*
X566001Y183969D02*
X567017Y184985D01*
X568033D01*
X567017Y186001D01*
X568033Y187017D01*
X567017D01*
X566001Y188033D01*
X564985Y187017D01*
X563969D01*
X564985Y186001D01*
X563969Y184985D01*
X564985D01*
X566001Y183969D01*
Y43969D02*
X567017Y44985D01*
X568033D01*
X567017Y46001D01*
X568033Y47017D01*
X567017D01*
X566001Y48033D01*
X564985Y47017D01*
X563969D01*
X564985Y46001D01*
X563969Y44985D01*
X564985D01*
X566001Y43969D01*
X531001Y183969D02*
X532017Y184985D01*
X533033D01*
X532017Y186001D01*
X533033Y187017D01*
X532017D01*
X531001Y188033D01*
X529985Y187017D01*
X528969D01*
X529985Y186001D01*
X528969Y184985D01*
X529985D01*
X531001Y183969D01*
X548501Y148969D02*
X549517Y149985D01*
X550533D01*
X549517Y151001D01*
X550533Y152017D01*
X549517D01*
X548501Y153033D01*
X547485Y152017D01*
X546469D01*
X547485Y151001D01*
X546469Y149985D01*
X547485D01*
X548501Y148969D01*
Y78969D02*
X549517Y79985D01*
X550533D01*
X549517Y81001D01*
X550533Y82017D01*
X549517D01*
X548501Y83033D01*
X547485Y82017D01*
X546469D01*
X547485Y81001D01*
X546469Y79985D01*
X547485D01*
X548501Y78969D01*
X531001Y43969D02*
X532017Y44985D01*
X533033D01*
X532017Y46001D01*
X533033Y47017D01*
X532017D01*
X531001Y48033D01*
X529985Y47017D01*
X528969D01*
X529985Y46001D01*
X528969Y44985D01*
X529985D01*
X531001Y43969D01*
X496001Y183969D02*
X497017Y184985D01*
X498033D01*
X497017Y186001D01*
X498033Y187017D01*
X497017D01*
X496001Y188033D01*
X494985Y187017D01*
X493969D01*
X494985Y186001D01*
X493969Y184985D01*
X494985D01*
X496001Y183969D01*
Y43969D02*
X497017Y44985D01*
X498033D01*
X497017Y46001D01*
X498033Y47017D01*
X497017D01*
X496001Y48033D01*
X494985Y47017D01*
X493969D01*
X494985Y46001D01*
X493969Y44985D01*
X494985D01*
X496001Y43969D01*
X461001D02*
X462017Y44985D01*
X463033D01*
X462017Y46001D01*
X463033Y47017D01*
X462017D01*
X461001Y48033D01*
X459985Y47017D01*
X458969D01*
X459985Y46001D01*
X458969Y44985D01*
X459985D01*
X461001Y43969D01*
X426001D02*
X427017Y44985D01*
X428033D01*
X427017Y46001D01*
X428033Y47017D01*
X427017D01*
X426001Y48033D01*
X424985Y47017D01*
X423969D01*
X424985Y46001D01*
X423969Y44985D01*
X424985D01*
X426001Y43969D01*
X408501Y78969D02*
X409517Y79985D01*
X410533D01*
X409517Y81001D01*
X410533Y82017D01*
X409517D01*
X408501Y83033D01*
X407485Y82017D01*
X406469D01*
X407485Y81001D01*
X406469Y79985D01*
X407485D01*
X408501Y78969D01*
X391001Y43969D02*
X392017Y44985D01*
X393033D01*
X392017Y46001D01*
X393033Y47017D01*
X392017D01*
X391001Y48033D01*
X389985Y47017D01*
X388969D01*
X389985Y46001D01*
X388969Y44985D01*
X389985D01*
X391001Y43969D01*
X356001D02*
X357017Y44985D01*
X358033D01*
X357017Y46001D01*
X358033Y47017D01*
X357017D01*
X356001Y48033D01*
X354985Y47017D01*
X353969D01*
X354985Y46001D01*
X353969Y44985D01*
X354985D01*
X356001Y43969D01*
X321001Y183969D02*
X322017Y184985D01*
X323033D01*
X322017Y186001D01*
X323033Y187017D01*
X322017D01*
X321001Y188033D01*
X319985Y187017D01*
X318969D01*
X319985Y186001D01*
X318969Y184985D01*
X319985D01*
X321001Y183969D01*
Y43969D02*
X322017Y44985D01*
X323033D01*
X322017Y46001D01*
X323033Y47017D01*
X322017D01*
X321001Y48033D01*
X319985Y47017D01*
X318969D01*
X319985Y46001D01*
X318969Y44985D01*
X319985D01*
X321001Y43969D01*
X303501Y148969D02*
X304517Y149985D01*
X305533D01*
X304517Y151001D01*
X305533Y152017D01*
X304517D01*
X303501Y153033D01*
X302485Y152017D01*
X301469D01*
X302485Y151001D01*
X301469Y149985D01*
X302485D01*
X303501Y148969D01*
X286001Y113969D02*
X287017Y114985D01*
X288033D01*
X287017Y116001D01*
X288033Y117017D01*
X287017D01*
X286001Y118033D01*
X284985Y117017D01*
X283969D01*
X284985Y116001D01*
X283969Y114985D01*
X284985D01*
X286001Y113969D01*
Y43969D02*
X287017Y44985D01*
X288033D01*
X287017Y46001D01*
X288033Y47017D01*
X287017D01*
X286001Y48033D01*
X284985Y47017D01*
X283969D01*
X284985Y46001D01*
X283969Y44985D01*
X284985D01*
X286001Y43969D01*
X251001D02*
X252017Y44985D01*
X253033D01*
X252017Y46001D01*
X253033Y47017D01*
X252017D01*
X251001Y48033D01*
X249985Y47017D01*
X248969D01*
X249985Y46001D01*
X248969Y44985D01*
X249985D01*
X251001Y43969D01*
X233501Y148969D02*
X234517Y149985D01*
X235533D01*
X234517Y151001D01*
X235533Y152017D01*
X234517D01*
X233501Y153033D01*
X232485Y152017D01*
X231469D01*
X232485Y151001D01*
X231469Y149985D01*
X232485D01*
X233501Y148969D01*
X216001Y113969D02*
X217017Y114985D01*
X218033D01*
X217017Y116001D01*
X218033Y117017D01*
X217017D01*
X216001Y118033D01*
X214985Y117017D01*
X213969D01*
X214985Y116001D01*
X213969Y114985D01*
X214985D01*
X216001Y113969D01*
Y43969D02*
X217017Y44985D01*
X218033D01*
X217017Y46001D01*
X218033Y47017D01*
X217017D01*
X216001Y48033D01*
X214985Y47017D01*
X213969D01*
X214985Y46001D01*
X213969Y44985D01*
X214985D01*
X216001Y43969D01*
X181001D02*
X182017Y44985D01*
X183033D01*
X182017Y46001D01*
X183033Y47017D01*
X182017D01*
X181001Y48033D01*
X179985Y47017D01*
X178969D01*
X179985Y46001D01*
X178969Y44985D01*
X179985D01*
X181001Y43969D01*
X163501Y148969D02*
X164517Y149985D01*
X165533D01*
X164517Y151001D01*
X165533Y152017D01*
X164517D01*
X163501Y153033D01*
X162485Y152017D01*
X161469D01*
X162485Y151001D01*
X161469Y149985D01*
X162485D01*
X163501Y148969D01*
X146001Y43969D02*
X147017Y44985D01*
X148033D01*
X147017Y46001D01*
X148033Y47017D01*
X147017D01*
X146001Y48033D01*
X144985Y47017D01*
X143969D01*
X144985Y46001D01*
X143969Y44985D01*
X144985D01*
X146001Y43969D01*
X128501Y148969D02*
X129517Y149985D01*
X130533D01*
X129517Y151001D01*
X130533Y152017D01*
X129517D01*
X128501Y153033D01*
X127485Y152017D01*
X126469D01*
X127485Y151001D01*
X126469Y149985D01*
X127485D01*
X128501Y148969D01*
X111001Y43969D02*
X112017Y44985D01*
X113033D01*
X112017Y46001D01*
X113033Y47017D01*
X112017D01*
X111001Y48033D01*
X109985Y47017D01*
X108969D01*
X109985Y46001D01*
X108969Y44985D01*
X109985D01*
X111001Y43969D01*
X93501Y148969D02*
X94517Y149985D01*
X95533D01*
X94517Y151001D01*
X95533Y152017D01*
X94517D01*
X93501Y153033D01*
X92485Y152017D01*
X91469D01*
X92485Y151001D01*
X91469Y149985D01*
X92485D01*
X93501Y148969D01*
Y78969D02*
X94517Y79985D01*
X95533D01*
X94517Y81001D01*
X95533Y82017D01*
X94517D01*
X93501Y83033D01*
X92485Y82017D01*
X91469D01*
X92485Y81001D01*
X91469Y79985D01*
X92485D01*
X93501Y78969D01*
X41001Y113969D02*
X42017Y114985D01*
X43033D01*
X42017Y116001D01*
X43033Y117017D01*
X42017D01*
X41001Y118033D01*
X39985Y117017D01*
X38969D01*
X39985Y116001D01*
X38969Y114985D01*
X39985D01*
X41001Y113969D01*
X380000Y172520D02*
X381016Y173536D01*
X382032D01*
X381016Y174552D01*
X382032Y175568D01*
X381016D01*
X380000Y176584D01*
X378984Y175568D01*
X377968D01*
X378984Y174552D01*
X377968Y173536D01*
X378984D01*
X380000Y172520D01*
X490000Y83093D02*
X491016Y84109D01*
X492032D01*
X491016Y85125D01*
X492032Y86141D01*
X491016D01*
X490000Y87157D01*
X488984Y86141D01*
X487968D01*
X488984Y85125D01*
X487968Y84109D01*
X488984D01*
X490000Y83093D01*
X477500D02*
X478516Y84109D01*
X479532D01*
X478516Y85125D01*
X479532Y86141D01*
X478516D01*
X477500Y87157D01*
X476484Y86141D01*
X475468D01*
X476484Y85125D01*
X475468Y84109D01*
X476484D01*
X477500Y83093D01*
X467500Y105968D02*
X468516Y106984D01*
X469532D01*
X468516Y108000D01*
X469532Y109016D01*
X468516D01*
X467500Y110032D01*
X466484Y109016D01*
X465468D01*
X466484Y108000D01*
X465468Y106984D01*
X466484D01*
X467500Y105968D01*
X425000Y57968D02*
X426016Y58984D01*
X427032D01*
X426016Y60000D01*
X427032Y61016D01*
X426016D01*
X425000Y62032D01*
X423984Y61016D01*
X422968D01*
X423984Y60000D01*
X422968Y58984D01*
X423984D01*
X425000Y57968D01*
X405000Y170468D02*
X406016Y171484D01*
X407032D01*
X406016Y172500D01*
X407032Y173516D01*
X406016D01*
X405000Y174532D01*
X403984Y173516D01*
X402968D01*
X403984Y172500D01*
X402968Y171484D01*
X403984D01*
X405000Y170468D01*
X385500Y112968D02*
X386516Y113984D01*
X387532D01*
X386516Y115000D01*
X387532Y116016D01*
X386516D01*
X385500Y117032D01*
X384484Y116016D01*
X383468D01*
X384484Y115000D01*
X383468Y113984D01*
X384484D01*
X385500Y112968D01*
X365498Y74118D02*
X366514Y75134D01*
X367530D01*
X366514Y76150D01*
X367530Y77166D01*
X366514D01*
X365498Y78182D01*
X364482Y77166D01*
X363466D01*
X364482Y76150D01*
X363466Y75134D01*
X364482D01*
X365498Y74118D01*
X270000Y70468D02*
X271016Y71484D01*
X272032D01*
X271016Y72500D01*
X272032Y73516D01*
X271016D01*
X270000Y74532D01*
X268984Y73516D01*
X267968D01*
X268984Y72500D01*
X267968Y71484D01*
X268984D01*
X270000Y70468D01*
X244500Y110468D02*
X245516Y111484D01*
X246532D01*
X245516Y112500D01*
X246532Y113516D01*
X245516D01*
X244500Y114532D01*
X243484Y113516D01*
X242468D01*
X243484Y112500D01*
X242468Y111484D01*
X243484D01*
X244500Y110468D01*
X210000Y70468D02*
X211016Y71484D01*
X212032D01*
X211016Y72500D01*
X212032Y73516D01*
X211016D01*
X210000Y74532D01*
X208984Y73516D01*
X207968D01*
X208984Y72500D01*
X207968Y71484D01*
X208984D01*
X210000Y70468D01*
X405000Y140468D02*
X406016Y141484D01*
X407032D01*
X406016Y142500D01*
X407032Y143516D01*
X406016D01*
X405000Y144532D01*
X403984Y143516D01*
X402968D01*
X403984Y142500D01*
X402968Y141484D01*
X403984D01*
X405000Y140468D01*
X412500Y145966D02*
X413516Y146982D01*
X414532D01*
X413516Y147998D01*
X414532Y149014D01*
X413516D01*
X412500Y150030D01*
X411484Y149014D01*
X410468D01*
X411484Y147998D01*
X410468Y146982D01*
X411484D01*
X412500Y145966D01*
X522500Y150468D02*
X523516Y151484D01*
X524532D01*
X523516Y152500D01*
X524532Y153516D01*
X523516D01*
X522500Y154532D01*
X521484Y153516D01*
X520468D01*
X521484Y152500D01*
X520468Y151484D01*
X521484D01*
X522500Y150468D01*
X197500Y102968D02*
X198516Y103984D01*
X199532D01*
X198516Y105000D01*
X199532Y106016D01*
X198516D01*
X197500Y107032D01*
X196484Y106016D01*
X195468D01*
X196484Y105000D01*
X195468Y103984D01*
X196484D01*
X197500Y102968D01*
X349500D02*
X350516Y103984D01*
X351532D01*
X350516Y105000D01*
X351532Y106016D01*
X350516D01*
X349500Y107032D01*
X348484Y106016D01*
X347468D01*
X348484Y105000D01*
X347468Y103984D01*
X348484D01*
X349500Y102968D01*
X446150Y165468D02*
X447166Y166484D01*
X448182D01*
X447166Y167500D01*
X448182Y168516D01*
X447166D01*
X446150Y169532D01*
X445134Y168516D01*
X444118D01*
X445134Y167500D01*
X444118Y166484D01*
X445134D01*
X446150Y165468D01*
X433650Y162968D02*
X434666Y163984D01*
X435682D01*
X434666Y165000D01*
X435682Y166016D01*
X434666D01*
X433650Y167032D01*
X432634Y166016D01*
X431618D01*
X432634Y165000D01*
X431618Y163984D01*
X432634D01*
X433650Y162968D01*
X515000Y87968D02*
X516016Y88984D01*
X517032D01*
X516016Y90000D01*
X517032Y91016D01*
X516016D01*
X515000Y92032D01*
X513984Y91016D01*
X512968D01*
X513984Y90000D01*
X512968Y88984D01*
X513984D01*
X515000Y87968D01*
X433650Y82968D02*
X434666Y83984D01*
X435682D01*
X434666Y85000D01*
X435682Y86016D01*
X434666D01*
X433650Y87032D01*
X432634Y86016D01*
X431618D01*
X432634Y85000D01*
X431618Y83984D01*
X432634D01*
X433650Y82968D01*
X462002Y82968D02*
X463018Y83984D01*
X464034D01*
X463018Y85000D01*
X464034Y86016D01*
X463018D01*
X462002Y87032D01*
X460986Y86016D01*
X459970D01*
X460986Y85000D01*
X459970Y83984D01*
X460986D01*
X462002Y82968D01*
D50*
X632032Y180000D02*
G03*
X632032Y180000I-2032J0D01*
G01*
X582032Y145000D02*
G03*
X582032Y145000I-2032J0D01*
G01*
X632032Y110000D02*
G03*
X632032Y110000I-2032J0D01*
G01*
X582032Y75000D02*
G03*
X582032Y75000I-2032J0D01*
G01*
X72032Y107500D02*
G03*
X72032Y107500I-2032J0D01*
G01*
X122032Y72500D02*
G03*
X122032Y72500I-2032J0D01*
G01*
X72032Y37500D02*
G03*
X72032Y37500I-2032J0D01*
G01*
X122032Y200000D02*
G03*
X122032Y200000I-2032J0D01*
G01*
X72032Y165000D02*
G03*
X72032Y165000I-2032J0D01*
G01*
M02*
