G04*
G04 #@! TF.GenerationSoftware,Altium Limited,Altium Designer,18.1.9 (240)*
G04*
G04 Layer_Color=16711935*
%FSLAX44Y44*%
%MOMM*%
G71*
G01*
G75*
%ADD13C,0.2000*%
%ADD15C,0.2500*%
%ADD34R,1.7000X1.7000*%
%ADD35C,1.7000*%
%ADD36C,2.0000*%
%ADD37C,1.9000*%
G36*
X352500Y199756D02*
X349240D01*
X349147Y199767D01*
X349022Y199777D01*
X348886Y199798D01*
X348730Y199819D01*
X348563Y199850D01*
X348397Y199892D01*
X348209Y199944D01*
X348022Y199996D01*
X347835Y200069D01*
X347658Y200163D01*
X347470Y200256D01*
X347303Y200371D01*
X347137Y200506D01*
X347126Y200517D01*
X347106Y200537D01*
X347064Y200579D01*
X347012Y200642D01*
X346949Y200714D01*
X346887Y200808D01*
X346814Y200912D01*
X346731Y201027D01*
X346658Y201162D01*
X346585Y201308D01*
X346522Y201475D01*
X346460Y201641D01*
X346408Y201829D01*
X346366Y202027D01*
X346345Y202245D01*
X346335Y202464D01*
Y202474D01*
Y202516D01*
X346345Y202579D01*
Y202662D01*
X346366Y202766D01*
X346387Y202891D01*
X346418Y203016D01*
X346450Y203162D01*
X346502Y203318D01*
X346564Y203474D01*
X346637Y203641D01*
X346731Y203797D01*
X346835Y203964D01*
X346960Y204120D01*
X347106Y204266D01*
X347272Y204412D01*
X347262Y204422D01*
X347230Y204443D01*
X347178Y204474D01*
X347106Y204526D01*
X347022Y204589D01*
X346939Y204672D01*
X346835Y204766D01*
X346741Y204880D01*
X346637Y205016D01*
X346543Y205172D01*
X346460Y205338D01*
X346377Y205536D01*
X346304Y205744D01*
X346252Y205984D01*
X346220Y206234D01*
X346210Y206515D01*
Y206525D01*
Y206546D01*
Y206578D01*
X346220Y206630D01*
Y206692D01*
X346231Y206765D01*
X346262Y206942D01*
X346304Y207150D01*
X346366Y207379D01*
X346470Y207629D01*
X346595Y207879D01*
X346752Y208129D01*
X346845Y208254D01*
X346960Y208379D01*
X347074Y208494D01*
X347199Y208608D01*
X347345Y208713D01*
X347501Y208817D01*
X347668Y208910D01*
X347845Y208994D01*
X348043Y209067D01*
X348251Y209129D01*
X348480Y209171D01*
X348720Y209212D01*
X348980Y209233D01*
X349261Y209244D01*
X352500D01*
Y199756D01*
D02*
G37*
G36*
Y171767D02*
X349897D01*
X349813Y171777D01*
X349699Y171788D01*
X349563Y171798D01*
X349407Y171819D01*
X349230Y171850D01*
X349032Y171902D01*
X348824Y171954D01*
X348605Y172027D01*
X348376Y172111D01*
X348147Y172215D01*
X347918Y172329D01*
X347689Y172475D01*
X347460Y172631D01*
X347241Y172819D01*
X347230Y172829D01*
X347178Y172871D01*
X347116Y172944D01*
X347033Y173048D01*
X346928Y173173D01*
X346814Y173329D01*
X346689Y173506D01*
X346564Y173714D01*
X346439Y173943D01*
X346314Y174193D01*
X346199Y174475D01*
X346095Y174787D01*
X346012Y175110D01*
X345950Y175464D01*
X345897Y175839D01*
X345887Y176234D01*
Y176245D01*
Y176266D01*
Y176297D01*
Y176349D01*
Y176411D01*
X345897Y176484D01*
Y176568D01*
X345908Y176661D01*
X345929Y176870D01*
X345960Y177120D01*
X346002Y177390D01*
X346054Y177692D01*
X346127Y177994D01*
X346220Y178317D01*
X346335Y178650D01*
X346460Y178973D01*
X346616Y179286D01*
X346804Y179598D01*
X347012Y179879D01*
X347251Y180150D01*
X347262Y180161D01*
X347303Y180192D01*
X347366Y180254D01*
X347449Y180317D01*
X347553Y180400D01*
X347689Y180494D01*
X347835Y180598D01*
X348001Y180692D01*
X348189Y180796D01*
X348397Y180900D01*
X348616Y180994D01*
X348855Y181077D01*
X349105Y181139D01*
X349376Y181192D01*
X349657Y181233D01*
X349949Y181244D01*
X352500D01*
Y171767D01*
D02*
G37*
%LPC*%
G36*
X351115Y207827D02*
X349188D01*
X349105Y207817D01*
X349001Y207806D01*
X348876Y207786D01*
X348730Y207754D01*
X348584Y207713D01*
X348428Y207661D01*
X348272Y207588D01*
X348126Y207505D01*
X347980Y207400D01*
X347855Y207265D01*
X347751Y207119D01*
X347668Y206942D01*
X347616Y206734D01*
X347595Y206505D01*
Y206484D01*
Y206442D01*
X347605Y206380D01*
X347626Y206286D01*
X347647Y206182D01*
X347689Y206067D01*
X347741Y205932D01*
X347814Y205807D01*
X347907Y205672D01*
X348012Y205547D01*
X348157Y205432D01*
X348324Y205328D01*
X348522Y205234D01*
X348751Y205172D01*
X349022Y205120D01*
X349324Y205109D01*
X351115D01*
Y207827D01*
D02*
G37*
G36*
Y203693D02*
X349178D01*
X349095Y203682D01*
X349001Y203672D01*
X348886Y203651D01*
X348761Y203631D01*
X348626Y203589D01*
X348480Y203537D01*
X348334Y203474D01*
X348199Y203391D01*
X348074Y203287D01*
X347960Y203172D01*
X347855Y203026D01*
X347783Y202860D01*
X347741Y202672D01*
X347720Y202454D01*
Y202443D01*
Y202422D01*
Y202391D01*
X347730Y202349D01*
X347741Y202245D01*
X347772Y202100D01*
X347824Y201954D01*
X347907Y201798D01*
X348012Y201641D01*
X348157Y201506D01*
X348178Y201496D01*
X348241Y201454D01*
X348334Y201402D01*
X348470Y201339D01*
X348647Y201277D01*
X348855Y201225D01*
X349095Y201183D01*
X349376Y201173D01*
X351115D01*
Y203693D01*
D02*
G37*
G36*
Y179827D02*
X349844D01*
X349771Y179817D01*
X349678Y179806D01*
X349574Y179796D01*
X349459Y179775D01*
X349334Y179744D01*
X349063Y179671D01*
X348918Y179619D01*
X348761Y179557D01*
X348616Y179484D01*
X348470Y179390D01*
X348334Y179296D01*
X348199Y179182D01*
X348189Y179171D01*
X348157Y179130D01*
X348116Y179067D01*
X348053Y178984D01*
X347980Y178869D01*
X347907Y178734D01*
X347824Y178578D01*
X347730Y178401D01*
X347647Y178203D01*
X347564Y177974D01*
X347491Y177734D01*
X347418Y177474D01*
X347355Y177192D01*
X347314Y176891D01*
X347283Y176568D01*
X347272Y176234D01*
Y176214D01*
Y176172D01*
X347283Y176089D01*
Y175984D01*
X347303Y175860D01*
X347324Y175724D01*
X347345Y175557D01*
X347387Y175380D01*
X347428Y175203D01*
X347491Y175016D01*
X347564Y174818D01*
X347647Y174631D01*
X347751Y174433D01*
X347876Y174256D01*
X348012Y174079D01*
X348168Y173912D01*
X348178Y173902D01*
X348199Y173881D01*
X348241Y173850D01*
X348303Y173798D01*
X348376Y173745D01*
X348459Y173683D01*
X348563Y173620D01*
X348678Y173548D01*
X348803Y173485D01*
X348938Y173423D01*
X349084Y173360D01*
X349240Y173308D01*
X349407Y173256D01*
X349584Y173225D01*
X349771Y173204D01*
X349959Y173194D01*
X351115D01*
Y179827D01*
D02*
G37*
%LPD*%
D13*
X335000Y204500D02*
G03*
X335000Y204500I-2500J0D01*
G01*
X338000Y190500D02*
G03*
X338000Y190500I-2500J0D01*
G01*
X335000Y176500D02*
G03*
X335000Y176500I-2500J0D01*
G01*
D15*
X364500Y211500D02*
X366500D01*
Y169500D02*
Y211500D01*
X364500Y169500D02*
Y211500D01*
Y169500D02*
X366500D01*
X335500Y204500D02*
X342500D01*
X342500Y211500D02*
X355500D01*
Y197500D02*
Y211500D01*
X342500Y197500D02*
X355500D01*
X342500D02*
Y211500D01*
X338500Y190500D02*
X345500D01*
X342500Y169500D02*
Y183500D01*
Y169500D02*
X355500D01*
Y183500D01*
X342500D02*
X355500D01*
X335500Y176500D02*
X342500D01*
X353500Y187500D02*
Y193500D01*
X349500Y187500D02*
Y193500D01*
D34*
X271506Y153489D02*
D03*
X187500Y152500D02*
D03*
D35*
X271506Y188489D02*
D03*
X187500Y187500D02*
D03*
D36*
X630000Y180000D02*
D03*
X580000Y145000D02*
D03*
X630000Y110000D02*
D03*
X580000Y75000D02*
D03*
X70000Y107500D02*
D03*
X120000Y72500D02*
D03*
X70000Y37500D02*
D03*
X120000Y200000D02*
D03*
X70000Y165000D02*
D03*
D37*
X310000Y127500D02*
D03*
M02*
