M48
;Layer_Color=9474304
;FILE_FORMAT=4:4
METRIC,LZ
;TYPE=PLATED
T1F00S00C0.3000
T2F00S00C0.8000
T3F00S00C0.9500
T4F00S00C1.1000
T5F00S00C3.2000
%
T01
X00076001Y00046001
X00111001
X00146001
X00181001
X00216001
X0021Y000725
X001975Y00105
X00216001Y00116001
X002445Y001125
X00286001Y00116001
X00303501Y00151001
X00321001Y00186001
X0038Y00174552
X003495Y00105
X00365498Y0007615
X00356001Y00046001
X00321001
X00286001
X00251001
X0027Y000725
X00233501Y00151001
X00163501
X00128501
X00093501
Y00081001
X00041001Y00116001
X003855Y00115
X00405Y001425
X004125Y00147998
X00405Y001725
X0043365Y00165
X0044615Y001675
X00501998
X00496001Y00186001
X00531001
X00566001
X00601001
X00618501Y00151001
X00653501
Y00081001
X00618501
X00601001Y00046001
X00636001
X00566001
X00531001
X00496001
X00461001
X00426001
X00425Y0006
X0043365Y00085
X00462002Y00085
X004775Y00085125
X0049
X00515Y0009
X00548501Y00081001
Y00151001
X005225Y001525
X004675Y00108
X00408501Y00081001
X00391001Y00046001
T02
X001825Y001525
Y001875
X00266506Y00188489
Y00153489
T03
X0031Y001275
T04
X00062396Y00097608
Y00147392
Y00197392
X00112604Y00172538
Y001225
X00580396Y00144573
Y00094535
X00630604Y00119681
Y00169465
T05
X000325Y000325
X006575Y0022
M30
