G04*
G04 #@! TF.GenerationSoftware,Altium Limited,Altium Designer,18.1.9 (240)*
G04*
G04 Layer_Color=128*
%FSLAX44Y44*%
%MOMM*%
G71*
G01*
G75*
%ADD49C,0.0508*%
D49*
X267506Y153489D02*
X275506D01*
X271506Y149489D02*
Y157489D01*
X267506Y188489D02*
X275506D01*
X271506Y184489D02*
Y192489D01*
X183500Y152500D02*
X191500D01*
X187500Y148500D02*
Y156500D01*
X183500Y187500D02*
X191500D01*
X187500Y183500D02*
Y191500D01*
X624501Y180000D02*
X635499D01*
X630000Y174501D02*
Y185499D01*
X574501Y145000D02*
X585499D01*
X580000Y139501D02*
Y150499D01*
X624501Y110000D02*
X635499D01*
X630000Y104501D02*
Y115499D01*
X574501Y75000D02*
X585499D01*
X580000Y69501D02*
Y80499D01*
X305250Y127500D02*
X314750D01*
X310000Y122750D02*
Y132250D01*
X64501Y107500D02*
X75499D01*
X70000Y102001D02*
Y112999D01*
X114501Y72500D02*
X125499D01*
X120000Y67001D02*
Y77999D01*
X64501Y37500D02*
X75499D01*
X70000Y32001D02*
Y42999D01*
X114501Y200000D02*
X125499D01*
X120000Y194501D02*
Y205499D01*
X64501Y165000D02*
X75499D01*
X70000Y159501D02*
Y170499D01*
X503500Y167875D02*
X506500D01*
X505000Y166375D02*
Y169375D01*
X652001Y151001D02*
X655001D01*
X653501Y149501D02*
Y152501D01*
X652001Y81001D02*
X655001D01*
X653501Y79501D02*
Y82501D01*
X634501Y46001D02*
X637501D01*
X636001Y44501D02*
Y47501D01*
X599501Y186001D02*
X602501D01*
X601001Y184501D02*
Y187501D01*
X617001Y151001D02*
X620001D01*
X618501Y149501D02*
Y152501D01*
X617001Y81001D02*
X620001D01*
X618501Y79501D02*
Y82501D01*
X599501Y46001D02*
X602501D01*
X601001Y44501D02*
Y47501D01*
X564501Y186001D02*
X567501D01*
X566001Y184501D02*
Y187501D01*
X564501Y46001D02*
X567501D01*
X566001Y44501D02*
Y47501D01*
X529501Y186001D02*
X532501D01*
X531001Y184501D02*
Y187501D01*
X547001Y151001D02*
X550001D01*
X548501Y149501D02*
Y152501D01*
X547001Y81001D02*
X550001D01*
X548501Y79501D02*
Y82501D01*
X529501Y46001D02*
X532501D01*
X531001Y44501D02*
Y47501D01*
X494501Y186001D02*
X497501D01*
X496001Y184501D02*
Y187501D01*
X494501Y46001D02*
X497501D01*
X496001Y44501D02*
Y47501D01*
X459501Y46001D02*
X462501D01*
X461001Y44501D02*
Y47501D01*
X424501Y46001D02*
X427501D01*
X426001Y44501D02*
Y47501D01*
X407001Y81001D02*
X410001D01*
X408501Y79501D02*
Y82501D01*
X389501Y46001D02*
X392501D01*
X391001Y44501D02*
Y47501D01*
X354501Y46001D02*
X357501D01*
X356001Y44501D02*
Y47501D01*
X319501Y186001D02*
X322501D01*
X321001Y184501D02*
Y187501D01*
X319501Y46001D02*
X322501D01*
X321001Y44501D02*
Y47501D01*
X302001Y151001D02*
X305001D01*
X303501Y149501D02*
Y152501D01*
X284501Y116001D02*
X287501D01*
X286001Y114501D02*
Y117501D01*
X284501Y46001D02*
X287501D01*
X286001Y44501D02*
Y47501D01*
X249501Y46001D02*
X252501D01*
X251001Y44501D02*
Y47501D01*
X232001Y151001D02*
X235001D01*
X233501Y149501D02*
Y152501D01*
X214501Y116001D02*
X217501D01*
X216001Y114501D02*
Y117501D01*
X214501Y46001D02*
X217501D01*
X216001Y44501D02*
Y47501D01*
X179501Y46001D02*
X182501D01*
X181001Y44501D02*
Y47501D01*
X162001Y151001D02*
X165001D01*
X163501Y149501D02*
Y152501D01*
X144501Y46001D02*
X147501D01*
X146001Y44501D02*
Y47501D01*
X127001Y151001D02*
X130001D01*
X128501Y149501D02*
Y152501D01*
X109501Y46001D02*
X112501D01*
X111001Y44501D02*
Y47501D01*
X92001Y151001D02*
X95001D01*
X93501Y149501D02*
Y152501D01*
X92001Y81001D02*
X95001D01*
X93501Y79501D02*
Y82501D01*
X39501Y116001D02*
X42501D01*
X41001Y114501D02*
Y117501D01*
X378500Y174552D02*
X381500D01*
X380000Y173052D02*
Y176052D01*
X488500Y85125D02*
X491500D01*
X490000Y83625D02*
Y86625D01*
X476000Y85125D02*
X479000D01*
X477500Y83625D02*
Y86625D01*
X466000Y108000D02*
X469000D01*
X467500Y106500D02*
Y109500D01*
X423500Y60000D02*
X426500D01*
X425000Y58500D02*
Y61500D01*
X403500Y172500D02*
X406500D01*
X405000Y171000D02*
Y174000D01*
X384000Y115000D02*
X387000D01*
X385500Y113500D02*
Y116500D01*
X363998Y76150D02*
X366998D01*
X365498Y74650D02*
Y77650D01*
X268500Y72500D02*
X271500D01*
X270000Y71000D02*
Y74000D01*
X243000Y112500D02*
X246000D01*
X244500Y111000D02*
Y114000D01*
X208500Y72500D02*
X211500D01*
X210000Y71000D02*
Y74000D01*
X403500Y142500D02*
X406500D01*
X405000Y141000D02*
Y144000D01*
X411000Y147998D02*
X414000D01*
X412500Y146498D02*
Y149498D01*
X521000Y152500D02*
X524000D01*
X522500Y151000D02*
Y154000D01*
X196000Y105000D02*
X199000D01*
X197500Y103500D02*
Y106500D01*
X348000Y105000D02*
X351000D01*
X349500Y103500D02*
Y106500D01*
X444650Y167500D02*
X447650D01*
X446150Y166000D02*
Y169000D01*
X432150Y165000D02*
X435150D01*
X433650Y163500D02*
Y166500D01*
X513500Y90000D02*
X516500D01*
X515000Y88500D02*
Y91500D01*
X432150Y85000D02*
X435150D01*
X433650Y83500D02*
Y86500D01*
X460502Y85000D02*
X463502D01*
X462002Y83500D02*
Y86500D01*
M02*
