G04*
G04 #@! TF.GenerationSoftware,Altium Limited,Altium Designer,18.1.9 (240)*
G04*
G04 Layer_Physical_Order=1*
G04 Layer_Color=3162822*
%FSLAX44Y44*%
%MOMM*%
G71*
G01*
G75*
%ADD11C,0.3500*%
%ADD16R,0.8000X0.9000*%
%ADD17R,2.2500X1.1000*%
%ADD18R,0.9000X0.8000*%
%ADD19O,0.7000X2.5000*%
%ADD20R,0.6500X0.9000*%
%ADD21R,0.6500X1.1000*%
%ADD22R,1.1000X1.7000*%
%ADD23R,1.6000X0.8000*%
%ADD24R,1.0000X1.3000*%
%ADD37C,1.9000*%
%ADD38C,0.6500*%
%ADD39C,1.0000*%
%ADD40C,0.5500*%
%ADD41R,1.6000X1.6000*%
%ADD42C,1.6000*%
%ADD43C,1.8000*%
%ADD44C,0.6000*%
G36*
X663884Y26116D02*
X83617D01*
Y29033D01*
X84854Y31347D01*
X85768Y34364D01*
X86077Y37500D01*
X85768Y40637D01*
X84854Y43653D01*
X83368Y46432D01*
X81369Y48868D01*
X78932Y50868D01*
X76153Y52354D01*
X73137Y53268D01*
X70000Y53577D01*
X66863Y53268D01*
X63847Y52354D01*
X61068Y50868D01*
X58632Y48868D01*
X56632Y46432D01*
X55146Y43653D01*
X54232Y40637D01*
X53923Y37500D01*
X54232Y34364D01*
X55146Y31347D01*
X56384Y29033D01*
Y26116D01*
X26116D01*
Y195000D01*
Y197392D01*
Y226383D01*
X663884D01*
Y26116D01*
D02*
G37*
%LPC*%
G36*
X633000Y195280D02*
Y183000D01*
X645279D01*
X645276Y183039D01*
X644389Y185960D01*
X642950Y188653D01*
X641013Y191013D01*
X638653Y192950D01*
X635960Y194389D01*
X633038Y195276D01*
X633000Y195280D01*
D02*
G37*
G36*
X627000Y195280D02*
X626961Y195276D01*
X624040Y194389D01*
X621347Y192950D01*
X618987Y191013D01*
X617050Y188653D01*
X615611Y185960D01*
X614724Y183039D01*
X614720Y183000D01*
X627000D01*
Y195280D01*
D02*
G37*
G36*
X390500Y176998D02*
X383000D01*
Y169998D01*
X390500D01*
Y176998D01*
D02*
G37*
G36*
X73000Y180280D02*
Y168000D01*
X85280D01*
X85276Y168039D01*
X84389Y170960D01*
X82950Y173653D01*
X81013Y176013D01*
X78653Y177950D01*
X75960Y179389D01*
X73039Y180276D01*
X73000Y180280D01*
D02*
G37*
G36*
X67000Y180280D02*
X66961Y180276D01*
X64040Y179389D01*
X61347Y177950D01*
X58987Y176013D01*
X57050Y173653D01*
X55611Y170960D01*
X54724Y168039D01*
X54721Y168000D01*
X67000D01*
Y180280D01*
D02*
G37*
G36*
X402000Y174498D02*
X394500D01*
Y167498D01*
X402000D01*
Y174498D01*
D02*
G37*
G36*
X627000Y177000D02*
X614720D01*
X614724Y176961D01*
X615611Y174040D01*
X617050Y171347D01*
X618987Y168987D01*
X621347Y167050D01*
X624040Y165611D01*
X626961Y164724D01*
X627000Y164720D01*
Y177000D01*
D02*
G37*
G36*
X645279D02*
X633000D01*
Y164720D01*
X633038Y164724D01*
X635960Y165611D01*
X638653Y167050D01*
X641013Y168987D01*
X642950Y171347D01*
X644389Y174040D01*
X645276Y176961D01*
X645279Y177000D01*
D02*
G37*
G36*
X285506Y167489D02*
X274506D01*
Y156489D01*
X285506D01*
Y167489D01*
D02*
G37*
G36*
X268506D02*
X257506D01*
Y156489D01*
X268506D01*
Y167489D01*
D02*
G37*
G36*
X201500Y166500D02*
X190500D01*
Y155500D01*
X201500D01*
Y166500D01*
D02*
G37*
G36*
X184500D02*
X173500D01*
Y155500D01*
X184500D01*
Y166500D01*
D02*
G37*
G36*
X85280Y162000D02*
X73000D01*
Y149720D01*
X73039Y149724D01*
X75960Y150611D01*
X78653Y152050D01*
X81013Y153987D01*
X82950Y156347D01*
X84389Y159040D01*
X85276Y161961D01*
X85280Y162000D01*
D02*
G37*
G36*
X67000D02*
X54721D01*
X54724Y161961D01*
X55611Y159040D01*
X57050Y156347D01*
X58987Y153987D01*
X61347Y152050D01*
X64040Y150611D01*
X66961Y149724D01*
X67000Y149720D01*
Y162000D01*
D02*
G37*
G36*
X285506Y150489D02*
X274506D01*
Y139489D01*
X285506D01*
Y150489D01*
D02*
G37*
G36*
X268506D02*
X257506D01*
Y139489D01*
X268506D01*
Y150489D01*
D02*
G37*
G36*
X201500Y149500D02*
X190500D01*
Y138500D01*
X201500D01*
Y149500D01*
D02*
G37*
G36*
X184500D02*
X173500D01*
Y138500D01*
X184500D01*
Y149500D01*
D02*
G37*
G36*
X580000Y157104D02*
X576867Y156691D01*
X573948Y155482D01*
X571441Y153559D01*
X569518Y151052D01*
X568309Y148133D01*
X567896Y145000D01*
X568309Y141867D01*
X569518Y138948D01*
X571441Y136441D01*
X573948Y134518D01*
X576867Y133309D01*
X580000Y132896D01*
X583133Y133309D01*
X586052Y134518D01*
X588559Y136441D01*
X590482Y138948D01*
X591691Y141867D01*
X592104Y145000D01*
X591691Y148133D01*
X590482Y151052D01*
X588559Y153559D01*
X586052Y155482D01*
X583133Y156691D01*
X580000Y157104D01*
D02*
G37*
G36*
X394750Y116375D02*
X388500D01*
Y108875D01*
X394750D01*
Y116375D01*
D02*
G37*
G36*
X382500D02*
X376250D01*
Y108875D01*
X382500D01*
Y116375D01*
D02*
G37*
G36*
X258500Y115000D02*
X247500D01*
Y108000D01*
X258500D01*
Y115000D01*
D02*
G37*
G36*
X241500D02*
X230500D01*
Y108000D01*
X241500D01*
Y115000D01*
D02*
G37*
G36*
X522500Y158872D02*
X520061Y158387D01*
X517994Y157006D01*
X516613Y154939D01*
X516128Y152500D01*
Y125502D01*
X516502Y123621D01*
Y118000D01*
X529232D01*
X529502Y118000D01*
X530502D01*
X530772Y118000D01*
X543502D01*
Y118628D01*
X582360D01*
X595494Y105494D01*
X597561Y104113D01*
X600000Y103628D01*
X619764D01*
X621441Y101441D01*
X623948Y99518D01*
X626867Y98309D01*
X630000Y97896D01*
X633133Y98309D01*
X636052Y99518D01*
X638558Y101441D01*
X640482Y103948D01*
X641691Y106867D01*
X642103Y110000D01*
X641691Y113133D01*
X640482Y116052D01*
X638558Y118559D01*
X636052Y120482D01*
X633133Y121691D01*
X630000Y122104D01*
X626867Y121691D01*
X623948Y120482D01*
X621441Y118559D01*
X619764Y116372D01*
X602640D01*
X589506Y129506D01*
X587439Y130887D01*
X585000Y131372D01*
X543502D01*
Y132000D01*
X530772D01*
X530502Y132000D01*
X529502D01*
X528872Y133121D01*
Y152500D01*
X528387Y154939D01*
X527006Y157006D01*
X524939Y158387D01*
X522500Y158872D01*
D02*
G37*
G36*
X70000Y119604D02*
X66867Y119191D01*
X63948Y117982D01*
X61442Y116059D01*
X59518Y113552D01*
X58309Y110633D01*
X57896Y107500D01*
X58309Y104367D01*
X59518Y101448D01*
X61442Y98941D01*
X63948Y97018D01*
X66867Y95809D01*
X70000Y95396D01*
X73133Y95809D01*
X76052Y97018D01*
X78559Y98941D01*
X79515Y100188D01*
X152000D01*
X152000Y100188D01*
X153893Y100437D01*
X155253Y101000D01*
X161730D01*
X162000Y101000D01*
X163000D01*
X163270Y101000D01*
X175863D01*
X176759Y100104D01*
X178827Y98722D01*
X180500Y98390D01*
X180500Y98110D01*
Y97110D01*
X180500Y96840D01*
Y96383D01*
X178604Y95116D01*
X177488Y94000D01*
X163270D01*
X163000Y94000D01*
X162000D01*
X161730Y94000D01*
X147000D01*
Y92312D01*
X132500D01*
X132500Y92313D01*
X130607Y92063D01*
X128844Y91333D01*
X127329Y90171D01*
X127329Y90171D01*
X121557Y84399D01*
X120000Y84604D01*
X116867Y84191D01*
X113948Y82982D01*
X111441Y81059D01*
X109518Y78552D01*
X108309Y75633D01*
X107896Y72500D01*
X108309Y69367D01*
X109518Y66448D01*
X111441Y63941D01*
X113948Y62018D01*
X116867Y60809D01*
X120000Y60396D01*
X123133Y60809D01*
X126052Y62018D01*
X128558Y63941D01*
X130482Y66448D01*
X131691Y69367D01*
X132104Y72500D01*
X131898Y74057D01*
X135529Y77688D01*
X147000D01*
Y76000D01*
X161730D01*
X162000Y76000D01*
X163000D01*
X163270Y76000D01*
X178000D01*
Y78727D01*
X179939Y79113D01*
X182006Y80494D01*
X185622Y84110D01*
X194500D01*
Y84237D01*
X196500D01*
Y83000D01*
X224500D01*
Y84237D01*
X234000D01*
Y73500D01*
X255000D01*
X256000Y72848D01*
Y70000D01*
X267000D01*
Y80000D01*
X270000D01*
Y83000D01*
X284000D01*
Y90000D01*
X275130D01*
X274690Y91270D01*
X275887Y93061D01*
X276372Y95500D01*
Y98500D01*
X281000D01*
Y111500D01*
X260000D01*
Y98500D01*
X260933D01*
X261612Y97230D01*
X261446Y96982D01*
X258500D01*
Y102000D01*
X244500D01*
X230500D01*
Y96982D01*
X210145D01*
X210110Y98237D01*
X211431Y98500D01*
X221000D01*
Y111500D01*
X200000D01*
Y110982D01*
X194500D01*
Y111110D01*
X183777D01*
X180381Y114506D01*
X178314Y115887D01*
X178000Y115950D01*
Y119000D01*
X163270D01*
X163000Y119000D01*
X162000D01*
X161730Y119000D01*
X147000D01*
Y117312D01*
X125104D01*
X123211Y117063D01*
X121448Y116333D01*
X119933Y115171D01*
X119658Y114812D01*
X79515D01*
X78559Y116059D01*
X76052Y117982D01*
X73133Y119191D01*
X70000Y119604D01*
D02*
G37*
G36*
X284000Y77000D02*
X273000D01*
Y70000D01*
X284000D01*
Y77000D01*
D02*
G37*
G36*
X224500D02*
X213500D01*
Y70000D01*
X224500D01*
Y77000D01*
D02*
G37*
G36*
X207500D02*
X196500D01*
Y70000D01*
X207500D01*
Y77000D01*
D02*
G37*
G36*
X120000Y216077D02*
X116863Y215769D01*
X113847Y214854D01*
X111068Y213368D01*
X108631Y211369D01*
X106632Y208932D01*
X105146Y206153D01*
X104231Y203137D01*
X103923Y200000D01*
X104231Y196863D01*
X105146Y193847D01*
X106632Y191068D01*
X108631Y188632D01*
X111068Y186632D01*
X113847Y185146D01*
X116863Y184231D01*
X119242Y183997D01*
X124120Y179120D01*
X126574Y177236D01*
X129433Y176052D01*
X132500Y175648D01*
X179126D01*
X180187Y174834D01*
X183715Y173373D01*
X187500Y172875D01*
X191285Y173373D01*
X194813Y174834D01*
X195874Y175648D01*
X264615D01*
X267721Y174362D01*
X271506Y173864D01*
X275292Y174362D01*
X278398Y175648D01*
X287629D01*
X303783Y159495D01*
X303783Y159495D01*
X306237Y157611D01*
X309096Y156427D01*
X312163Y156024D01*
X330500D01*
X332357Y156268D01*
X333628Y155154D01*
Y153497D01*
X332500D01*
X330061Y153012D01*
X327994Y151631D01*
X325992Y149629D01*
X324611Y147562D01*
X324126Y145123D01*
Y138500D01*
X322498D01*
Y133872D01*
X319606D01*
X318202Y135702D01*
X315800Y137545D01*
X313002Y138704D01*
X310000Y139099D01*
X306998Y138704D01*
X304200Y137545D01*
X301798Y135702D01*
X299955Y133300D01*
X298796Y130502D01*
X298401Y127500D01*
X298796Y124498D01*
X299730Y122242D01*
X299494Y122006D01*
X298113Y119939D01*
X297628Y117500D01*
Y111500D01*
X294000D01*
Y98500D01*
X297628D01*
Y86500D01*
X293500D01*
Y73500D01*
X314500D01*
Y86500D01*
X310372D01*
Y98500D01*
X315000D01*
Y98628D01*
X317500D01*
Y98500D01*
X318129D01*
Y92000D01*
X318002D01*
Y78270D01*
X318002Y78000D01*
X318002D01*
Y77000D01*
X318002D01*
Y63000D01*
X330732D01*
X331002Y63000D01*
X332002D01*
X332272Y63000D01*
X345002D01*
Y76731D01*
X345002Y77000D01*
X345653Y78000D01*
X355498D01*
Y74500D01*
X362498D01*
Y85000D01*
X368498D01*
Y74500D01*
X375498D01*
Y85865D01*
X376672Y86351D01*
X382404Y80619D01*
X384471Y79238D01*
X386910Y78753D01*
X389250D01*
Y77125D01*
X400750D01*
Y82481D01*
X400887Y82686D01*
X401372Y85125D01*
X400887Y87564D01*
X400750Y87769D01*
Y93125D01*
X389250D01*
Y93125D01*
X388311Y92736D01*
X386845Y94202D01*
X387331Y95375D01*
X394750D01*
Y102875D01*
X376250D01*
Y101372D01*
X372500D01*
Y111500D01*
X351500D01*
Y111372D01*
X349500D01*
X347061Y110887D01*
X344994Y109506D01*
X343613Y107439D01*
X343128Y105000D01*
X343613Y102561D01*
X344994Y100494D01*
X346308Y99616D01*
X346895Y98663D01*
X346643Y97981D01*
X345611Y96437D01*
X345126Y93998D01*
Y93218D01*
X345002Y92000D01*
X332272D01*
X332002Y92000D01*
X330874Y92344D01*
Y98500D01*
X338500D01*
Y111500D01*
X334372D01*
Y116500D01*
X338498D01*
Y138500D01*
X339509Y139125D01*
X345750D01*
Y144481D01*
X345887Y144686D01*
X346372Y147125D01*
Y160875D01*
X349124D01*
X350377Y160626D01*
X358154D01*
X358498Y159498D01*
X358498Y159498D01*
X358498D01*
X358498Y159498D01*
Y147510D01*
X352992Y142004D01*
X351611Y139937D01*
X351325Y138500D01*
X349498D01*
Y116500D01*
X365498D01*
Y136486D01*
X370004Y140992D01*
X371386Y143060D01*
X371871Y145498D01*
Y146159D01*
X373000Y146498D01*
X373000Y146498D01*
Y146498D01*
X373000Y146498D01*
X387000D01*
Y156998D01*
X390500D01*
Y163998D01*
X380000D01*
Y166998D01*
X377000D01*
Y176998D01*
X369500D01*
Y173498D01*
X358498D01*
Y173371D01*
X355250D01*
Y174875D01*
X346372D01*
Y177360D01*
X352640Y183628D01*
X413374D01*
X414002Y183000D01*
Y182000D01*
X414002Y181730D01*
Y174498D01*
X408000D01*
Y164498D01*
X405000D01*
Y161498D01*
X394500D01*
Y154498D01*
X398000D01*
Y143998D01*
X398628D01*
Y140998D01*
X398000D01*
Y127998D01*
X398000D01*
Y126998D01*
X398000D01*
Y113998D01*
X398128D01*
Y105875D01*
X398613Y103436D01*
X398750Y103231D01*
Y98875D01*
X410250D01*
Y99503D01*
X414776D01*
X414832Y99219D01*
Y91500D01*
X415298Y89159D01*
X416624Y87174D01*
X418609Y85848D01*
X420950Y85382D01*
X423291Y85848D01*
X425276Y87174D01*
X426008Y88270D01*
X427278Y87884D01*
Y81002D01*
X425500D01*
Y70502D01*
X422000D01*
Y63502D01*
X432500D01*
Y60502D01*
X435500D01*
Y50502D01*
X443000D01*
Y54500D01*
X454500D01*
Y54500D01*
X455500D01*
Y54500D01*
X469500D01*
Y54628D01*
X492497D01*
X494935Y55113D01*
X497003Y56494D01*
X509506Y68997D01*
X510887Y71065D01*
X511372Y73503D01*
Y83560D01*
X512368Y84092D01*
X512642Y84096D01*
X515000Y83628D01*
X515000Y83628D01*
X516502D01*
Y83000D01*
X529232D01*
X529502Y83000D01*
X530502D01*
X530772Y83000D01*
X543502D01*
Y83628D01*
X562360D01*
X568256Y77732D01*
X567896Y75000D01*
X568309Y71867D01*
X569518Y68948D01*
X571441Y66441D01*
X573948Y64518D01*
X576867Y63309D01*
X580000Y62896D01*
X583133Y63309D01*
X586052Y64518D01*
X588559Y66441D01*
X590482Y68948D01*
X591691Y71867D01*
X592104Y75000D01*
X591691Y78133D01*
X590482Y81052D01*
X588559Y83559D01*
X586052Y85482D01*
X583133Y86691D01*
X580000Y87104D01*
X577268Y86744D01*
X569506Y94506D01*
X567439Y95887D01*
X565000Y96372D01*
X543502D01*
Y97000D01*
X530772D01*
X530502Y97000D01*
X529502D01*
X529232Y97000D01*
X516502D01*
Y96372D01*
X515000D01*
X512642Y95904D01*
X512368Y95908D01*
X511372Y96440D01*
Y167875D01*
X510887Y170314D01*
X509506Y172381D01*
X507439Y173762D01*
X505000Y174247D01*
X502561Y173762D01*
X500494Y172381D01*
X500142Y171855D01*
X498872Y172240D01*
Y175000D01*
X498387Y177439D01*
X497006Y179506D01*
X482504Y194008D01*
X480437Y195389D01*
X477998Y195874D01*
X469500D01*
Y196002D01*
X463866D01*
X462002Y196373D01*
X441002D01*
Y197000D01*
X428272D01*
X428002Y197000D01*
X427002D01*
X426732Y197000D01*
X414002D01*
Y196373D01*
X350000D01*
X347561Y195887D01*
X345494Y194506D01*
X335494Y184506D01*
X334113Y182439D01*
X333628Y180000D01*
X332357Y179482D01*
X330500Y179726D01*
X317072D01*
X300918Y195880D01*
X298464Y197764D01*
X295605Y198948D01*
X292538Y199351D01*
X281169D01*
X278819Y201154D01*
X275292Y202615D01*
X271506Y203114D01*
X267721Y202615D01*
X264194Y201154D01*
X261844Y199351D01*
X195874D01*
X194813Y200166D01*
X191285Y201627D01*
X187500Y202125D01*
X183715Y201627D01*
X180187Y200166D01*
X179126Y199351D01*
X157968D01*
X156556Y199936D01*
X153489Y200340D01*
X150421Y199936D01*
X149009Y199351D01*
X137409D01*
X136003Y200758D01*
X135768Y203137D01*
X134853Y206153D01*
X133368Y208932D01*
X131368Y211369D01*
X128932Y213368D01*
X126152Y214854D01*
X123137Y215769D01*
X120000Y216077D01*
D02*
G37*
G36*
X429500Y57502D02*
X422000D01*
Y50502D01*
X429500D01*
Y57502D01*
D02*
G37*
%LPD*%
G36*
X471250Y121500D02*
X498628D01*
Y107000D01*
X488000D01*
Y95500D01*
Y84000D01*
X498628D01*
Y76143D01*
X489857Y67372D01*
X473000D01*
Y72000D01*
X462500D01*
Y78000D01*
X473000D01*
Y84000D01*
X482000D01*
Y95500D01*
Y107000D01*
X468632D01*
Y109500D01*
X468305Y111980D01*
X467348Y114291D01*
X465825Y116276D01*
X463841Y117798D01*
X461530Y118756D01*
X459050Y119082D01*
X457138Y118830D01*
X456545Y120033D01*
X459640Y123128D01*
X471250D01*
Y121500D01*
D02*
G37*
D11*
X492500Y129500D02*
Y145000D01*
X477500Y129500D02*
Y145000D01*
X454500Y129500D02*
X477500D01*
X446350Y121350D02*
X454500Y129500D01*
X446350Y100500D02*
Y121350D01*
X492497Y61000D02*
X505000Y73503D01*
X462500Y61000D02*
X492497D01*
X505000Y73503D02*
Y167875D01*
X537002Y90000D02*
X565000D01*
X580000Y75000D01*
X600000Y110000D02*
X630000D01*
X585000Y125000D02*
X600000Y110000D01*
X537002Y125000D02*
X585000D01*
X10108Y197392D02*
X12500Y195000D01*
X10108Y197392D02*
X12500D01*
X379500Y167052D02*
X380000Y167552D01*
Y174552D01*
X490000Y85125D02*
Y92125D01*
X490500Y92625D01*
X477500Y85125D02*
Y92125D01*
X478000Y92625D01*
X460500Y108000D02*
X467500D01*
X460000Y108500D02*
X460500Y108000D01*
X425000Y60000D02*
X432000D01*
X432500Y59500D01*
X405000Y165500D02*
Y172500D01*
X404500Y165000D02*
X405000Y165500D01*
X385500Y108000D02*
Y115000D01*
X385000Y107500D02*
X385500Y108000D01*
X365498Y76150D02*
Y83150D01*
X365998Y83650D01*
X270000Y72500D02*
Y79500D01*
X270500Y80000D01*
X244500Y105500D02*
Y112500D01*
X244000Y105000D02*
X244500Y105500D01*
X210000Y79500D02*
X210500Y80000D01*
X210000Y72500D02*
Y79500D01*
X405000Y147998D02*
X412500D01*
X405000Y142500D02*
Y147998D01*
Y134498D02*
Y142500D01*
X412500Y147998D02*
X419448D01*
X522500Y125502D02*
Y152500D01*
Y125502D02*
X523002Y125000D01*
X187500Y104610D02*
X210110D01*
X349500Y105000D02*
X362000D01*
X386910Y85125D02*
X395000D01*
X377035Y95000D02*
X386910Y85125D01*
X352500Y95000D02*
X377035D01*
X351498Y93998D02*
X352500Y95000D01*
X351498Y85000D02*
Y93998D01*
X340000Y147125D02*
Y180000D01*
X350000Y190000D01*
X420502D01*
X446350Y149500D02*
Y174352D01*
X477500Y129500D02*
X485000D01*
X515000Y90000D02*
X515000Y90000D01*
X523002D01*
X433650Y85000D02*
Y100500D01*
Y75652D02*
Y85000D01*
X404500Y105875D02*
X420950D01*
Y100500D02*
Y105875D01*
X404500Y119998D02*
X405000Y120498D01*
X404500Y105875D02*
Y119998D01*
X462002Y75498D02*
Y85000D01*
Y75498D02*
X462500Y75000D01*
X447500Y61000D02*
X462500D01*
X446350Y76150D02*
X447500Y75000D01*
X446350Y76150D02*
Y100500D01*
X432500Y74502D02*
X433650Y75652D01*
X485000Y129500D02*
X492500D01*
X434502Y190000D02*
X462002D01*
X492500Y159000D02*
Y175000D01*
X477998Y189502D02*
X492500Y175000D01*
X462500Y189502D02*
X477998D01*
X459050Y157500D02*
Y164923D01*
Y149500D02*
Y157500D01*
X460550Y159000D02*
X477500D01*
X459050Y157500D02*
X460550Y159000D01*
X462002Y175003D02*
X462500Y175502D01*
X462002Y167875D02*
Y175003D01*
X459050Y164923D02*
X462002Y167875D01*
Y190000D02*
X462500Y189502D01*
X420502Y175000D02*
X420950Y174552D01*
Y149500D02*
Y174552D01*
X419448Y147998D02*
X420950Y149500D01*
X405000Y147998D02*
X405000Y147998D01*
X446350Y174352D02*
X447500Y175502D01*
X433650Y175498D02*
X433650Y175498D01*
X433650Y149500D02*
Y175498D01*
X304000Y80000D02*
Y117500D01*
X310000Y123500D02*
Y127500D01*
X304000Y117500D02*
X310000Y123500D01*
Y127500D02*
X330002D01*
X328000Y125002D02*
X330498Y127500D01*
X328000Y105000D02*
Y125002D01*
X322500Y105000D02*
X328000D01*
X349500Y167875D02*
X350377Y166998D01*
X365498D01*
Y152998D02*
X380000D01*
X365498Y145498D02*
Y152998D01*
X357498Y137498D02*
X365498Y145498D01*
X357498Y127500D02*
Y137498D01*
X351498Y85000D02*
X351498Y85000D01*
X338502Y85000D02*
X351498D01*
X338502Y70000D02*
Y85000D01*
X332500Y147125D02*
X340000D01*
X330498Y145123D02*
X332500Y147125D01*
X330498Y127500D02*
Y145123D01*
X304500Y105000D02*
X322500D01*
X324502Y85000D02*
Y102998D01*
Y70000D02*
Y85000D01*
X322500Y105000D02*
X324502Y102998D01*
X270000Y104500D02*
X270500Y105000D01*
X270000Y95500D02*
Y104500D01*
X265110Y90610D02*
X270000Y95500D01*
X244500Y90610D02*
X265110D01*
X244500Y80000D02*
Y90610D01*
X187500D02*
X244500D01*
X210110Y104610D02*
X210500Y105000D01*
X181265Y104610D02*
X187500D01*
X175875Y110000D02*
X181265Y104610D01*
X170500Y110000D02*
X175875D01*
X183110Y90610D02*
X187500D01*
X177500Y85000D02*
X183110Y90610D01*
X170500Y85000D02*
X177500D01*
D16*
X523002Y125000D02*
D03*
X537002D02*
D03*
X523002Y90000D02*
D03*
X537002D02*
D03*
X420502Y175000D02*
D03*
X434502D02*
D03*
X324502Y70000D02*
D03*
X338502D02*
D03*
X365498Y85000D02*
D03*
X351498D02*
D03*
X324502Y85000D02*
D03*
X338502D02*
D03*
X420502Y190000D02*
D03*
X434502D02*
D03*
D17*
X485000Y129500D02*
D03*
Y95500D02*
D03*
D18*
X492500Y145000D02*
D03*
Y159000D02*
D03*
X477500Y145000D02*
D03*
Y159000D02*
D03*
X447500Y175502D02*
D03*
Y189502D02*
D03*
X462500Y75000D02*
D03*
Y61000D02*
D03*
X447500Y75000D02*
D03*
Y61000D02*
D03*
X432500Y60502D02*
D03*
Y74502D02*
D03*
X405000Y134498D02*
D03*
Y120498D02*
D03*
X405000Y164498D02*
D03*
Y150498D02*
D03*
X380000Y166998D02*
D03*
Y152998D02*
D03*
X462500Y175502D02*
D03*
Y189502D02*
D03*
X187500Y90610D02*
D03*
Y104610D02*
D03*
X365498Y166998D02*
D03*
Y152998D02*
D03*
D19*
X459050Y149500D02*
D03*
X446350D02*
D03*
X433650D02*
D03*
X420950D02*
D03*
X459050Y100500D02*
D03*
X446350D02*
D03*
X433650D02*
D03*
X420950D02*
D03*
D20*
X349500Y167875D02*
D03*
X330500D02*
D03*
X404500Y105875D02*
D03*
X385500D02*
D03*
D21*
X340000Y147125D02*
D03*
X395000Y85125D02*
D03*
D22*
X357498Y127500D02*
D03*
X330498D02*
D03*
D23*
X328000Y105000D02*
D03*
X362000D02*
D03*
X304500D02*
D03*
X270500D02*
D03*
X304000Y80000D02*
D03*
X270000D02*
D03*
X210500Y105000D02*
D03*
X244500D02*
D03*
Y80000D02*
D03*
X210500D02*
D03*
D24*
X170500Y85000D02*
D03*
X154500D02*
D03*
X170500Y110000D02*
D03*
X154500D02*
D03*
D37*
X630000Y180000D02*
D03*
X580000Y145000D02*
D03*
X630000Y110000D02*
D03*
X580000Y75000D02*
D03*
X70000Y107500D02*
D03*
X120000Y72500D02*
D03*
X70000Y37500D02*
D03*
X120000Y200000D02*
D03*
X70000Y165000D02*
D03*
D38*
X292538Y187500D02*
X312163Y167875D01*
X187500Y187500D02*
X292538D01*
X152500D02*
X153489Y188489D01*
X152500Y187500D02*
X187500D01*
X132500D02*
X152500D01*
X120000Y200000D02*
X132500Y187500D01*
X312163Y167875D02*
X330500D01*
D39*
X65000Y12500D02*
X677500D01*
X12500D02*
X65000D01*
X70000Y17500D01*
Y37500D01*
X12500Y12500D02*
Y195000D01*
Y240000D02*
X677500D01*
Y12500D02*
Y240000D01*
X12500Y197392D02*
Y240000D01*
Y195000D02*
Y197392D01*
D40*
X70000Y107500D02*
X152000D01*
X154500Y110000D01*
X120000Y72500D02*
X132500Y85000D01*
X154500D01*
X125104Y110000D02*
X154500D01*
D41*
X271506Y153489D02*
D03*
X187500Y152500D02*
D03*
D42*
X271506Y188489D02*
D03*
X187500Y187500D02*
D03*
D43*
X310000Y127500D02*
D03*
D44*
X505000Y167875D02*
D03*
X653501Y151001D02*
D03*
Y81001D02*
D03*
X636001Y46001D02*
D03*
X601001Y186001D02*
D03*
X618501Y151001D02*
D03*
Y81001D02*
D03*
X601001Y46001D02*
D03*
X566001Y186001D02*
D03*
Y46001D02*
D03*
X531001Y186001D02*
D03*
X548501Y151001D02*
D03*
Y81001D02*
D03*
X531001Y46001D02*
D03*
X496001Y186001D02*
D03*
Y46001D02*
D03*
X461001D02*
D03*
X426001D02*
D03*
X408501Y81001D02*
D03*
X391001Y46001D02*
D03*
X356001D02*
D03*
X321001Y186001D02*
D03*
Y46001D02*
D03*
X303501Y151001D02*
D03*
X286001Y116001D02*
D03*
Y46001D02*
D03*
X251001D02*
D03*
X233501Y151001D02*
D03*
X216001Y116001D02*
D03*
Y46001D02*
D03*
X181001D02*
D03*
X163501Y151001D02*
D03*
X146001Y46001D02*
D03*
X128501Y151001D02*
D03*
X111001Y46001D02*
D03*
X93501Y151001D02*
D03*
Y81001D02*
D03*
X41001Y116001D02*
D03*
X380000Y174552D02*
D03*
X490000Y85125D02*
D03*
X477500D02*
D03*
X467500Y108000D02*
D03*
X425000Y60000D02*
D03*
X405000Y172500D02*
D03*
X385500Y115000D02*
D03*
X365498Y76150D02*
D03*
X270000Y72500D02*
D03*
X244500Y112500D02*
D03*
X210000Y72500D02*
D03*
X405000Y142500D02*
D03*
X412500Y147998D02*
D03*
X522500Y152500D02*
D03*
X197500Y105000D02*
D03*
X349500D02*
D03*
X446150Y167500D02*
D03*
X433650Y165000D02*
D03*
X515000Y90000D02*
D03*
X433650Y85000D02*
D03*
X462002Y85000D02*
D03*
M02*
