G04*
G04 #@! TF.GenerationSoftware,Altium Limited,Altium Designer,18.0.7 (293)*
G04*
G04 Layer_Color=8388736*
%FSLAX44Y44*%
%MOMM*%
G71*
G01*
G75*
%ADD27R,0.7500X1.2000*%
%ADD28R,0.7500X1.0000*%
%ADD29R,1.0000X0.9000*%
%ADD30R,1.2000X1.8000*%
%ADD31O,0.8000X2.6000*%
%ADD32R,2.3500X1.2000*%
%ADD33R,1.1000X1.4000*%
%ADD34R,0.9000X1.0000*%
%ADD35R,1.7000X0.9000*%
%ADD36C,6.1000*%
%ADD37C,1.7000*%
%ADD38R,1.7000X1.7000*%
%ADD39C,2.1000*%
%ADD40C,1.9000*%
D27*
X340000Y147125D02*
D03*
X395000Y85125D02*
D03*
D28*
X330500Y167875D02*
D03*
X349500D02*
D03*
X385500Y105875D02*
D03*
X404500D02*
D03*
D29*
X380000Y152998D02*
D03*
Y166998D02*
D03*
X365498Y152998D02*
D03*
Y166998D02*
D03*
X462500Y61000D02*
D03*
Y75000D02*
D03*
X447500Y61000D02*
D03*
Y75000D02*
D03*
X477500Y159000D02*
D03*
Y145000D02*
D03*
X492500Y159000D02*
D03*
Y145000D02*
D03*
X405000Y120498D02*
D03*
Y134498D02*
D03*
X447500Y189502D02*
D03*
Y175502D02*
D03*
X462500Y189502D02*
D03*
Y175502D02*
D03*
X432500Y74502D02*
D03*
Y60502D02*
D03*
X187500Y104610D02*
D03*
Y90610D02*
D03*
X405000Y150498D02*
D03*
Y164498D02*
D03*
D30*
X330498Y127500D02*
D03*
X357498D02*
D03*
D31*
X420950Y100500D02*
D03*
X433650D02*
D03*
X446350D02*
D03*
X459050D02*
D03*
X420950Y149500D02*
D03*
X433650D02*
D03*
X446350D02*
D03*
X459050D02*
D03*
D32*
X485000Y95500D02*
D03*
Y129500D02*
D03*
D33*
X154500Y85000D02*
D03*
X170500D02*
D03*
X154500Y110000D02*
D03*
X170500D02*
D03*
D34*
X537002Y125000D02*
D03*
X523002D02*
D03*
X434502Y190000D02*
D03*
X420502D02*
D03*
X434502Y175000D02*
D03*
X420502D02*
D03*
X537002Y90000D02*
D03*
X523002D02*
D03*
X338502Y85000D02*
D03*
X324502D02*
D03*
X338502Y70000D02*
D03*
X324502D02*
D03*
X351498Y85000D02*
D03*
X365498D02*
D03*
D35*
X362000Y105000D02*
D03*
X328000D02*
D03*
X244500D02*
D03*
X210500D02*
D03*
X270500D02*
D03*
X304500D02*
D03*
X270000Y80000D02*
D03*
X304000D02*
D03*
X210500D02*
D03*
X244500D02*
D03*
D36*
X32500Y32500D02*
D03*
X657500Y220000D02*
D03*
D37*
X266506Y188489D02*
D03*
X182500Y187500D02*
D03*
D38*
X266506Y153489D02*
D03*
X182500Y152500D02*
D03*
D39*
X62396Y197392D02*
D03*
Y97608D02*
D03*
X112604Y122500D02*
D03*
X62396Y147392D02*
D03*
X112604Y172538D02*
D03*
X580396Y94535D02*
D03*
X630604Y119681D02*
D03*
X580396Y144573D02*
D03*
X630604Y169465D02*
D03*
D40*
X310000Y127500D02*
D03*
M02*
