G04*
G04 #@! TF.GenerationSoftware,Altium Limited,Altium Designer,18.1.7 (191)*
G04*
G04 Layer_Physical_Order=3*
G04 Layer_Color=128*
%FSLAX44Y44*%
%MOMM*%
G71*
G01*
G75*
%ADD14C,0.5000*%
%ADD15C,0.3500*%
%ADD159C,1.8000*%
%ADD163C,2.0000*%
%ADD197C,2.8000*%
G04:AMPARAMS|DCode=198|XSize=1.9mm|YSize=1.9mm|CornerRadius=0mm|HoleSize=0mm|Usage=FLASHONLY|Rotation=0.000|XOffset=0mm|YOffset=0mm|HoleType=Round|Shape=Relief|Width=0.35mm|Gap=0.25mm|Entries=4|*
%AMTHD198*
7,0,0,1.9000,1.4000,0.3500,45*
%
%ADD198THD198*%
%ADD199C,2.2000*%
%ADD200C,2.1998*%
G04:AMPARAMS|DCode=201|XSize=1.95mm|YSize=1.95mm|CornerRadius=0mm|HoleSize=0mm|Usage=FLASHONLY|Rotation=0.000|XOffset=0mm|YOffset=0mm|HoleType=Round|Shape=Relief|Width=0.35mm|Gap=0.25mm|Entries=4|*
%AMTHD201*
7,0,0,1.9500,1.4500,0.3500,45*
%
%ADD201THD201*%
%ADD202C,2.0500*%
G04:AMPARAMS|DCode=203|XSize=2.4mm|YSize=2.4mm|CornerRadius=0mm|HoleSize=0mm|Usage=FLASHONLY|Rotation=0.000|XOffset=0mm|YOffset=0mm|HoleType=Round|Shape=Relief|Width=0.35mm|Gap=0.25mm|Entries=4|*
%AMTHD203*
7,0,0,2.4000,1.9000,0.3500,45*
%
%ADD203THD203*%
%ADD204C,2.5000*%
%ADD205C,2.4000*%
%ADD206C,2.0000*%
%ADD207C,2.9000*%
%ADD208C,4.3000*%
%ADD209C,1.4000*%
G36*
X362500Y540000D02*
X270000D01*
X270000Y610000D01*
X362500D01*
X362500Y540000D01*
D02*
G37*
G36*
X1130000Y512500D02*
X850000D01*
Y587500D01*
X1130000D01*
Y512500D01*
D02*
G37*
G36*
X62500Y455000D02*
X85000D01*
Y300000D01*
X-2500D01*
Y645000D01*
X62500D01*
Y455000D01*
D02*
G37*
G36*
X1190000Y400000D02*
Y272500D01*
X1135000D01*
X1117500Y255000D01*
Y142500D01*
X1082500Y107500D01*
X1020000Y107500D01*
X1010000Y117500D01*
X905000D01*
X890000Y107500D01*
X845000D01*
X807500Y145000D01*
Y307500D01*
X925000D01*
X930000Y312500D01*
Y395000D01*
X937500Y402500D01*
X1072500D01*
X1075000Y405000D01*
Y427500D01*
X1080000Y432500D01*
X1157500D01*
X1190000Y400000D01*
D02*
G37*
G36*
X1077500Y15000D02*
X872500D01*
X872500Y42500D01*
X1077500D01*
X1077500Y15000D01*
D02*
G37*
D14*
X980000Y142500D02*
Y152500D01*
X946400Y142500D02*
X980000D01*
X946400Y152500D02*
X980000D01*
X946400Y142500D02*
Y152500D01*
X893600Y179850D02*
X946400D01*
X893600D02*
Y189850D01*
X946400D01*
Y225150D02*
Y235150D01*
X893600Y225150D02*
X946400D01*
X893600Y235150D02*
X946400D01*
X893600Y225150D02*
Y235150D01*
X946400Y179850D02*
Y189850D01*
X1077500Y15000D02*
X1077500Y42500D01*
X872500Y15000D02*
X1077500D01*
X872500D02*
X872500Y42500D01*
X1077500D01*
X1130000Y512500D02*
Y587500D01*
X850000Y512500D02*
X1130000D01*
X850000D02*
Y587500D01*
X1130000D01*
X362500Y540000D02*
X362500Y610000D01*
X270000Y540000D02*
X362500D01*
X270000D02*
X270000Y610000D01*
X362500D01*
X0Y0D02*
X1500000D01*
X0D02*
Y850000D01*
X1500000D01*
Y0D02*
Y850000D01*
D15*
X1285000Y496000D02*
Y542500D01*
X1347500D01*
Y496000D02*
Y542500D01*
X1285000Y496000D02*
X1347500D01*
X1282500Y437500D02*
Y489000D01*
Y437500D02*
X1305000D01*
Y417500D02*
Y437500D01*
Y417500D02*
X1325000D01*
Y437500D01*
X1342500D01*
Y489000D01*
X1282500D02*
X1342500D01*
X1257500Y742500D02*
Y810000D01*
Y742500D02*
X1275000D01*
Y737500D02*
Y742500D01*
Y737500D02*
X1300000D01*
Y810000D01*
X1257500D02*
X1300000D01*
X1235000Y367500D02*
X1237500Y370000D01*
X1235000Y320000D02*
Y367500D01*
Y320000D02*
X1240000Y315000D01*
X1287500D01*
X1292500Y310000D01*
Y282500D02*
Y310000D01*
Y282500D02*
X1295000Y280000D01*
X1315000D01*
Y332500D01*
Y332500D01*
X1320000Y337500D01*
X1329000D01*
X1332500Y341000D01*
Y354500D01*
X1325000Y362000D02*
X1332500Y354500D01*
X1317000Y370000D02*
X1325000Y362000D01*
X1237500Y370000D02*
X1317000D01*
D159*
X1380000Y91000D02*
D03*
Y169000D02*
D03*
X120000Y681000D02*
D03*
Y759000D02*
D03*
D163*
X1355000Y155000D02*
D03*
Y130000D02*
D03*
Y105000D02*
D03*
X1405000Y155000D02*
D03*
Y130000D02*
D03*
Y105000D02*
D03*
X1380000Y33500D02*
D03*
Y226500D02*
D03*
X1405000Y33500D02*
D03*
X1430000D02*
D03*
Y226500D02*
D03*
X1405000D02*
D03*
X1355000D02*
D03*
X1330000D02*
D03*
Y33500D02*
D03*
X1355000D02*
D03*
X736100Y355200D02*
D03*
Y329800D02*
D03*
X761500Y355200D02*
D03*
X786900Y329800D02*
D03*
Y355200D02*
D03*
X812300Y329800D02*
D03*
Y355200D02*
D03*
X837700Y329800D02*
D03*
Y355200D02*
D03*
X863100Y329800D02*
D03*
Y355200D02*
D03*
X888500Y329800D02*
D03*
Y355200D02*
D03*
X913900Y329800D02*
D03*
Y355200D02*
D03*
X107800Y57000D02*
D03*
X133200D02*
D03*
X158600D02*
D03*
X184000D02*
D03*
X209400D02*
D03*
X234800D02*
D03*
X260200D02*
D03*
X82400D02*
D03*
X240000Y782700D02*
D03*
X879800Y492500D02*
D03*
X905200D02*
D03*
X930600D02*
D03*
X572300Y77500D02*
D03*
X597700D02*
D03*
X1200000Y650500D02*
D03*
Y574500D02*
D03*
X704800Y30000D02*
D03*
X145000Y816500D02*
D03*
X170000D02*
D03*
Y623500D02*
D03*
X145000D02*
D03*
X95000D02*
D03*
X70000D02*
D03*
Y816500D02*
D03*
X95000D02*
D03*
X120000Y623500D02*
D03*
Y816500D02*
D03*
X95000Y745000D02*
D03*
Y720000D02*
D03*
Y695000D02*
D03*
X145000Y745000D02*
D03*
Y720000D02*
D03*
Y695000D02*
D03*
D197*
X1380000Y65000D02*
D03*
X120000Y785000D02*
D03*
D198*
X761500Y329800D02*
D03*
X82400Y82400D02*
D03*
X240000Y757300D02*
D03*
X854400Y492500D02*
D03*
X730200Y30000D02*
D03*
D199*
X622646Y164792D02*
D03*
X597500Y215000D02*
D03*
X572608Y164792D02*
D03*
X547716Y215000D02*
D03*
X784892Y215104D02*
D03*
X685108D02*
D03*
X710000Y164896D02*
D03*
X734892Y215104D02*
D03*
X760038Y164896D02*
D03*
D200*
X870000Y242500D02*
D03*
X920000Y207500D02*
D03*
X870000Y172500D02*
D03*
X1117500Y290000D02*
D03*
X1167500Y325000D02*
D03*
X1117500Y360000D02*
D03*
D201*
X1180000Y472500D02*
D03*
X150000Y657500D02*
D03*
X1315000Y427500D02*
D03*
D202*
X1180000Y500000D02*
D03*
X1140000Y412000D02*
D03*
X1110000D02*
D03*
X175400Y657500D02*
D03*
X1345000Y557500D02*
D03*
X1315000D02*
D03*
D203*
X1010000Y455000D02*
D03*
X1035000Y480000D02*
D03*
X960000Y455000D02*
D03*
D204*
X1035000Y430000D02*
D03*
X985000D02*
D03*
Y480000D02*
D03*
D205*
X1141400Y170150D02*
D03*
X1039800D02*
D03*
X963600D02*
D03*
X989000Y246350D02*
D03*
X1141400D02*
D03*
D206*
X717500Y30000D02*
D03*
D207*
X1415000Y583000D02*
D03*
Y752000D02*
D03*
D208*
X310710Y420000D02*
D03*
X1190000D02*
D03*
X32500Y32500D02*
D03*
X1467500D02*
D03*
Y817500D02*
D03*
X32500D02*
D03*
D209*
X462500Y30000D02*
D03*
X983308Y109874D02*
D03*
X968750Y107815D02*
D03*
X975000Y115000D02*
D03*
X721000Y415000D02*
D03*
X870000Y825000D02*
D03*
X892500D02*
D03*
X1220000Y245000D02*
D03*
X1227500Y255000D02*
D03*
X1252500Y250000D02*
D03*
X1212500Y290000D02*
D03*
X489502Y37500D02*
D03*
X427500Y117500D02*
D03*
X7500Y157500D02*
D03*
Y700000D02*
D03*
X772500Y827500D02*
D03*
X697999Y827998D02*
D03*
X715999D02*
D03*
X707000Y833000D02*
D03*
X665000Y832500D02*
D03*
X1235000Y182500D02*
D03*
X725000Y832503D02*
D03*
X360000Y145000D02*
D03*
X420000Y100000D02*
D03*
Y40000D02*
D03*
X162500Y199250D02*
D03*
X316000Y160500D02*
D03*
X317999Y151000D02*
D03*
X130000Y490000D02*
D03*
Y505000D02*
D03*
X202500Y460000D02*
D03*
X187500D02*
D03*
X1142500Y91750D02*
D03*
X1004998Y60000D02*
D03*
X1021217Y55283D02*
D03*
X1072500Y62500D02*
D03*
X1092500Y77500D02*
D03*
X1014532Y62032D02*
D03*
X1001000Y70500D02*
D03*
X1000000Y80000D02*
D03*
X1435000Y395000D02*
D03*
Y402500D02*
D03*
X262000Y362000D02*
D03*
X252500Y365000D02*
D03*
X257000Y356001D02*
D03*
X260000Y225000D02*
D03*
X766500Y770000D02*
D03*
X756750Y769250D02*
D03*
X712499Y739998D02*
D03*
X702500Y737500D02*
D03*
X750000Y777500D02*
D03*
X753250Y685750D02*
D03*
X681500Y671000D02*
D03*
X672500Y677500D02*
D03*
X753250Y454250D02*
D03*
X237500Y245000D02*
D03*
X237500Y275000D02*
D03*
X440000Y125000D02*
D03*
X440165Y64835D02*
D03*
X1152500Y557500D02*
D03*
X1167500Y612500D02*
D03*
X847500Y800000D02*
D03*
X832500Y802500D02*
D03*
X830000Y792500D02*
D03*
X827500Y767500D02*
D03*
X700000Y65000D02*
D03*
X695000Y135000D02*
D03*
X839258Y94250D02*
D03*
X657500Y40000D02*
D03*
X678934Y78000D02*
D03*
X694999Y112500D02*
D03*
X692500Y337500D02*
D03*
X707500D02*
D03*
X490500Y362000D02*
D03*
Y327000D02*
D03*
X563250Y412500D02*
D03*
X340000Y507500D02*
D03*
X330000Y520000D02*
D03*
X320000D02*
D03*
X282500Y507500D02*
D03*
X257500Y697500D02*
D03*
X245000Y635000D02*
D03*
X280000Y452500D02*
D03*
X180000Y437500D02*
D03*
X170000Y365000D02*
D03*
X195000Y342000D02*
D03*
X212500Y342500D02*
D03*
X182500Y365000D02*
D03*
X182002Y320000D02*
D03*
Y307500D02*
D03*
X202500Y295000D02*
D03*
X192500D02*
D03*
X162500Y438500D02*
D03*
X122500Y390000D02*
D03*
X130000Y385000D02*
D03*
X157500Y342500D02*
D03*
Y332500D02*
D03*
Y352500D02*
D03*
X210000Y235000D02*
D03*
X197500Y210000D02*
D03*
X250000Y235000D02*
D03*
X375000Y212500D02*
D03*
X425000Y225000D02*
D03*
X447500D02*
D03*
X355000Y202500D02*
D03*
X315000D02*
D03*
X340000Y37500D02*
D03*
X500000Y142500D02*
D03*
X1275000Y722500D02*
D03*
X1292500Y725000D02*
D03*
X1352500Y772500D02*
D03*
Y805000D02*
D03*
Y742500D02*
D03*
Y755000D02*
D03*
Y790000D02*
D03*
X815000Y137500D02*
D03*
X800000D02*
D03*
X874998Y110000D02*
D03*
X850000Y115000D02*
D03*
X1250000Y150000D02*
D03*
Y115000D02*
D03*
Y102500D02*
D03*
Y165000D02*
D03*
Y132500D02*
D03*
X552500Y777500D02*
D03*
X162500Y767500D02*
D03*
X130000Y665000D02*
D03*
X155000Y732500D02*
D03*
X150001Y759998D02*
D03*
X316935Y708500D02*
D03*
X311000Y701000D02*
D03*
X460000Y730000D02*
D03*
X447500D02*
D03*
X475000Y742500D02*
D03*
X130000Y650000D02*
D03*
X95000Y772500D02*
D03*
X432500Y745000D02*
D03*
X435000Y755000D02*
D03*
X427500Y762500D02*
D03*
X90000Y795000D02*
D03*
X85000Y805000D02*
D03*
X389999Y764000D02*
D03*
X385000Y780000D02*
D03*
X392500Y787500D02*
D03*
X382066Y770500D02*
D03*
X184000Y746500D02*
D03*
X80000Y827500D02*
D03*
X530000Y825000D02*
D03*
X432500Y790000D02*
D03*
X347500Y792500D02*
D03*
X237500Y814998D02*
D03*
X442499Y779998D02*
D03*
X450000Y790000D02*
D03*
X457500Y782500D02*
D03*
X330000Y825000D02*
D03*
X250000Y822500D02*
D03*
X482500Y785000D02*
D03*
X202500Y722500D02*
D03*
X265000Y715000D02*
D03*
X330000Y792500D02*
D03*
X280000D02*
D03*
X217500Y755000D02*
D03*
X1147000Y761000D02*
D03*
X1136998Y760999D02*
D03*
X1137000Y686000D02*
D03*
X1136998Y727002D02*
D03*
X1091998D02*
D03*
X1092000Y686000D02*
D03*
X1085000Y761000D02*
D03*
X1075000Y760500D02*
D03*
X1136000Y713000D02*
D03*
X1093998Y712999D02*
D03*
X1156000Y699000D02*
D03*
X1074000Y713000D02*
D03*
X851044Y446953D02*
D03*
X855480Y437954D02*
D03*
X837998Y452999D02*
D03*
X850000Y430000D02*
D03*
X828000Y453000D02*
D03*
X712500Y775000D02*
D03*
X720000Y782500D02*
D03*
X705000Y767500D02*
D03*
X620000Y760307D02*
D03*
X573999D02*
D03*
X570000Y777500D02*
D03*
X590000Y765000D02*
D03*
X620807Y750807D02*
D03*
X564499Y759998D02*
D03*
X547500Y670000D02*
D03*
X577500Y750807D02*
D03*
X554000Y741500D02*
D03*
X491000D02*
D03*
X475000Y732500D02*
D03*
X544999Y764998D02*
D03*
X512500Y777500D02*
D03*
X527500Y770000D02*
D03*
X497500D02*
D03*
X585000Y785000D02*
D03*
X305000Y822500D02*
D03*
X217500Y737500D02*
D03*
X629999Y832498D02*
D03*
X1250000Y80000D02*
D03*
X1182500Y597500D02*
D03*
X1272500Y572500D02*
D03*
X867500Y505000D02*
D03*
X765000Y562500D02*
D03*
X775000Y297500D02*
D03*
X762500Y305000D02*
D03*
X573500Y628500D02*
D03*
X602500Y610000D02*
D03*
X610000Y617500D02*
D03*
X534997Y762500D02*
D03*
X505000D02*
D03*
X475000Y687500D02*
D03*
X617500Y567500D02*
D03*
X616500Y526000D02*
D03*
X642500Y555000D02*
D03*
X727500Y507500D02*
D03*
X720000Y515000D02*
D03*
X715000Y492500D02*
D03*
X706500Y500500D02*
D03*
X698000Y493000D02*
D03*
X544999Y483999D02*
D03*
X585000Y494000D02*
D03*
X882500Y472500D02*
D03*
X720000Y482500D02*
D03*
X707500Y465000D02*
D03*
X729998Y484999D02*
D03*
X688000Y787500D02*
D03*
X697500Y785000D02*
D03*
X692500Y722500D02*
D03*
X539999Y677499D02*
D03*
X738500Y471500D02*
D03*
X720000Y460000D02*
D03*
X544999Y529999D02*
D03*
X517500Y525000D02*
D03*
X552500Y522500D02*
D03*
X767500Y375000D02*
D03*
X775000Y390000D02*
D03*
X850000Y472500D02*
D03*
X837500Y430000D02*
D03*
X812500Y397500D02*
D03*
X412500Y90000D02*
D03*
X465000Y792500D02*
D03*
X672499Y135000D02*
D03*
X682500Y127500D02*
D03*
X412500Y47500D02*
D03*
X674999Y87500D02*
D03*
X400000Y60000D02*
D03*
Y85000D02*
D03*
X465000Y165000D02*
D03*
Y142500D02*
D03*
X585000Y477500D02*
D03*
X535000Y467500D02*
D03*
X537499Y477499D02*
D03*
X502500Y487500D02*
D03*
X505000Y502500D02*
D03*
X512500Y515000D02*
D03*
X392500Y442500D02*
D03*
X585000Y687500D02*
D03*
X589000Y641500D02*
D03*
X596000Y686000D02*
D03*
X602500Y635000D02*
D03*
X610000Y647500D02*
D03*
X617500Y660000D02*
D03*
X514999Y552499D02*
D03*
X507500Y545000D02*
D03*
X530000Y552500D02*
D03*
X540000Y557500D02*
D03*
X547000Y565808D02*
D03*
X574999Y589999D02*
D03*
X597499D02*
D03*
X605000Y582500D02*
D03*
X542500Y620000D02*
D03*
X542499Y629999D02*
D03*
X665000Y597500D02*
D03*
X634999Y547499D02*
D03*
X650000Y570000D02*
D03*
X635000Y572500D02*
D03*
X627500Y562500D02*
D03*
X657500Y542500D02*
D03*
X512499Y792498D02*
D03*
X493000Y475000D02*
D03*
X482153Y510347D02*
D03*
X442500Y552500D02*
D03*
Y537500D02*
D03*
X430000Y545000D02*
D03*
X435000Y530000D02*
D03*
X442500Y522500D02*
D03*
X429999Y674999D02*
D03*
X390000Y695000D02*
D03*
X387500Y682500D02*
D03*
X262500Y285000D02*
D03*
X275000D02*
D03*
X287500D02*
D03*
X300000D02*
D03*
X312500D02*
D03*
X325000D02*
D03*
X265000Y200000D02*
D03*
X227500Y202500D02*
D03*
X245000Y192500D02*
D03*
X262500Y255000D02*
D03*
X275000D02*
D03*
X287500D02*
D03*
X300000D02*
D03*
X312500D02*
D03*
X325000D02*
D03*
X315000Y132500D02*
D03*
X285000Y135000D02*
D03*
X305750Y141750D02*
D03*
X762500Y57500D02*
D03*
X282500Y75000D02*
D03*
X202500Y76998D02*
D03*
X282500Y155000D02*
D03*
X280000Y90000D02*
D03*
X167000Y76998D02*
D03*
X835000Y45000D02*
D03*
X289250Y166750D02*
D03*
X297500Y125000D02*
D03*
X138000Y77000D02*
D03*
X256999Y108000D02*
D03*
X332500Y105000D02*
D03*
X795000Y45000D02*
D03*
X127500Y77000D02*
D03*
X317499Y80000D02*
D03*
Y65000D02*
D03*
X212500Y107000D02*
D03*
X249500Y101117D02*
D03*
X436308Y498000D02*
D03*
X447499Y497499D02*
D03*
X432500Y507500D02*
D03*
X435000Y482500D02*
D03*
X392500Y492500D02*
D03*
Y480000D02*
D03*
Y467500D02*
D03*
Y455000D02*
D03*
X883250Y101000D02*
D03*
X825000Y32500D02*
D03*
X827500Y54571D02*
D03*
X787500Y52500D02*
D03*
X777500Y57500D02*
D03*
X177500Y76998D02*
D03*
X835000Y30000D02*
D03*
X190000Y76998D02*
D03*
X755000Y30000D02*
D03*
X795000Y30000D02*
D03*
X952500Y72500D02*
D03*
X967500Y77500D02*
D03*
X959611Y66176D02*
D03*
X930000Y82500D02*
D03*
X920000D02*
D03*
X940000D02*
D03*
X942500Y72500D02*
D03*
X825000Y90000D02*
D03*
X815000Y107500D02*
D03*
X880000Y82500D02*
D03*
X877498Y72500D02*
D03*
X1090000Y32500D02*
D03*
X1135000Y45000D02*
D03*
Y57500D02*
D03*
Y32500D02*
D03*
X1135000Y122500D02*
D03*
X1110000Y102500D02*
D03*
X1197500Y32500D02*
D03*
X907500Y657500D02*
D03*
X537500Y270000D02*
D03*
X525000Y327500D02*
D03*
X525000Y362500D02*
D03*
X105000Y146000D02*
D03*
Y133500D02*
D03*
X153000Y107000D02*
D03*
X173000Y459000D02*
D03*
X257000Y650000D02*
D03*
X225750Y675750D02*
D03*
X227000Y643000D02*
D03*
X223565Y653000D02*
D03*
X201000Y579000D02*
D03*
X187000D02*
D03*
X145000D02*
D03*
X152000Y588000D02*
D03*
X159000Y579000D02*
D03*
X166000Y588000D02*
D03*
X173000Y579000D02*
D03*
X225000Y714000D02*
D03*
Y701500D02*
D03*
Y664000D02*
D03*
Y689000D02*
D03*
X348000Y707500D02*
D03*
X347502Y695000D02*
D03*
Y682500D02*
D03*
Y670000D02*
D03*
Y657500D02*
D03*
X348694Y636500D02*
D03*
X290000Y650000D02*
D03*
X289000Y669000D02*
D03*
X311000Y675000D02*
D03*
X289000Y682000D02*
D03*
X311000Y689000D02*
D03*
X289000Y695000D02*
D03*
X515000Y147500D02*
D03*
X475000Y610000D02*
D03*
X485000Y677500D02*
D03*
X465000Y620000D02*
D03*
X450000Y652500D02*
D03*
X427500Y570000D02*
D03*
X310000Y630000D02*
D03*
X452500Y692500D02*
D03*
X442500Y605000D02*
D03*
X382500Y657500D02*
D03*
X377500Y670000D02*
D03*
X395000Y587500D02*
D03*
X672500Y782500D02*
D03*
X390000Y632500D02*
D03*
Y645000D02*
D03*
X377500Y695000D02*
D03*
Y707500D02*
D03*
X907498Y614999D02*
D03*
X917498D02*
D03*
X924998Y622499D02*
D03*
X934998D02*
D03*
X942500Y615000D02*
D03*
X997498Y669999D02*
D03*
X987498D02*
D03*
X1012500Y627500D02*
D03*
X1022500D02*
D03*
X1062500Y695000D02*
D03*
X1044998Y694999D02*
D03*
X1037500Y687500D02*
D03*
X1019998Y697499D02*
D03*
X977500Y670000D02*
D03*
X977498Y659999D02*
D03*
X952498Y614999D02*
D03*
X962500Y605000D02*
D03*
X972500D02*
D03*
X992500D02*
D03*
X990000Y627500D02*
D03*
X905000Y605000D02*
D03*
X1009998Y697499D02*
D03*
X1002500Y690000D02*
D03*
Y680000D02*
D03*
X455000Y515000D02*
D03*
X447500Y475000D02*
D03*
X440000Y467500D02*
D03*
X342500Y202500D02*
D03*
X395000D02*
D03*
X380000D02*
D03*
X327500D02*
D03*
X427500Y410000D02*
D03*
X397500Y230000D02*
D03*
X437500Y220000D02*
D03*
X713500Y415000D02*
D03*
X559500Y360000D02*
D03*
X567000D02*
D03*
X729750Y405000D02*
D03*
X630500Y360000D02*
D03*
X737250Y405000D02*
D03*
X623000Y360000D02*
D03*
X980000Y627500D02*
D03*
X895000Y605000D02*
D03*
X982500D02*
D03*
X1070000Y687500D02*
D03*
X1052498Y687499D02*
D03*
X689999Y560999D02*
D03*
X275000Y164000D02*
D03*
X626500Y319000D02*
D03*
X900000Y425000D02*
D03*
X887500Y460000D02*
D03*
M02*
