G04*
G04 #@! TF.GenerationSoftware,Altium Limited,Altium Designer,18.1.7 (191)*
G04*
G04 Layer_Color=128*
%FSLAX44Y44*%
%MOMM*%
G71*
G01*
G75*
%ADD24R,0.8000X0.9000*%
%ADD59R,0.9000X0.8000*%
%ADD195C,5.0000*%
%ADD198R,0.5500X0.2000*%
%ADD199R,0.7500X1.5000*%
D24*
X643002Y832500D02*
D03*
X657002D02*
D03*
X678002D02*
D03*
X692002D02*
D03*
X816998Y832500D02*
D03*
X802998D02*
D03*
X633002Y22500D02*
D03*
X647002D02*
D03*
X603002Y22500D02*
D03*
X617002D02*
D03*
X878002Y832500D02*
D03*
X892002D02*
D03*
D59*
X25000Y78002D02*
D03*
Y92002D02*
D03*
X25000Y108002D02*
D03*
Y122002D02*
D03*
X1480000Y399498D02*
D03*
Y385498D02*
D03*
X1480000Y431998D02*
D03*
Y417998D02*
D03*
X990000Y52998D02*
D03*
Y66998D02*
D03*
X977500Y52998D02*
D03*
Y66998D02*
D03*
D195*
X1415000Y667500D02*
D03*
D198*
X740000Y835000D02*
D03*
Y830000D02*
D03*
Y825000D02*
D03*
Y820000D02*
D03*
X760000D02*
D03*
Y825000D02*
D03*
Y830000D02*
D03*
Y835000D02*
D03*
D199*
X750000Y827500D02*
D03*
M02*
