G04*
G04 #@! TF.GenerationSoftware,Altium Limited,Altium Designer,18.1.7 (191)*
G04*
G04 Layer_Color=8388736*
%FSLAX44Y44*%
%MOMM*%
G71*
G01*
G75*
%ADD13C,0.2500*%
%ADD19C,0.2000*%
%ADD91R,0.9000X1.0000*%
%ADD92R,1.4000X1.1000*%
%ADD93O,1.4500X0.5000*%
%ADD94R,0.4000X1.3000*%
%ADD95R,2.8000X3.1000*%
%ADD96R,0.7000X2.3000*%
%ADD97R,1.9000X2.7000*%
%ADD98R,1.0500X7.4000*%
%ADD99R,0.6600X2.2500*%
G04:AMPARAMS|DCode=100|XSize=0.35mm|YSize=0.8mm|CornerRadius=0.1125mm|HoleSize=0mm|Usage=FLASHONLY|Rotation=90.000|XOffset=0mm|YOffset=0mm|HoleType=Round|Shape=RoundedRectangle|*
%AMROUNDEDRECTD100*
21,1,0.3500,0.5750,0,0,90.0*
21,1,0.1250,0.8000,0,0,90.0*
1,1,0.2250,0.2875,0.0625*
1,1,0.2250,0.2875,-0.0625*
1,1,0.2250,-0.2875,-0.0625*
1,1,0.2250,-0.2875,0.0625*
%
%ADD100ROUNDEDRECTD100*%
%ADD101R,5.5000X6.3000*%
%ADD102R,3.1000X1.6000*%
%ADD103R,2.1000X0.8000*%
%ADD104R,2.5000X3.1000*%
%ADD105R,2.8432X2.7162*%
%ADD106R,2.8000X3.1000*%
%ADD107O,2.6000X0.8000*%
%ADD108R,2.1000X0.6300*%
%ADD109R,2.7162X2.8432*%
%ADD110O,0.8000X2.6000*%
%ADD111R,1.9000X1.5000*%
%ADD112R,1.5000X2.0000*%
%ADD113R,0.9000X1.6000*%
%ADD114R,5.2500X5.2500*%
%ADD115O,0.4500X1.1500*%
%ADD116O,1.1500X0.4500*%
%ADD117R,0.6000X2.4000*%
%ADD118R,2.4000X0.6000*%
%ADD119R,2.4000X2.4000*%
%ADD120R,1.5000X5.3000*%
%ADD121R,2.3500X1.9000*%
%ADD122R,1.9000X2.3500*%
%ADD123R,1.8000X1.2000*%
%ADD124R,1.1000X1.4000*%
%ADD125R,1.0000X0.9000*%
%ADD126R,0.6000X0.7000*%
%ADD127R,0.7000X0.6000*%
%ADD128R,1.1500X2.3000*%
%ADD129R,1.1000X1.1500*%
%ADD130R,0.7500X1.0000*%
%ADD131R,0.7500X1.2000*%
%ADD132R,0.9000X1.7000*%
%ADD133R,1.0000X0.7500*%
%ADD134R,1.2000X0.7500*%
%ADD135R,1.6000X3.5000*%
%ADD136R,2.8000X4.2000*%
%ADD137R,0.8100X0.8100*%
%ADD138R,0.4600X0.8100*%
%ADD139R,0.8100X0.4600*%
%ADD140R,1.0600X1.0600*%
%ADD141R,2.5000X3.4000*%
%ADD142R,2.5000X1.1000*%
%ADD143R,0.6000X1.3000*%
%ADD144R,0.8000X2.1000*%
%ADD145R,2.1000X0.9000*%
%ADD146R,1.2498X1.4995*%
%ADD147R,0.9000X1.1500*%
%ADD148R,4.3000X2.7000*%
%ADD149R,2.7000X1.2000*%
%ADD150R,1.2000X1.8000*%
G04:AMPARAMS|DCode=151|XSize=0.6mm|YSize=0.7mm|CornerRadius=0mm|HoleSize=0mm|Usage=FLASHONLY|Rotation=135.000|XOffset=0mm|YOffset=0mm|HoleType=Round|Shape=Rectangle|*
%AMROTATEDRECTD151*
4,1,4,0.4596,0.0354,-0.0354,-0.4596,-0.4596,-0.0354,0.0354,0.4596,0.4596,0.0354,0.0*
%
%ADD151ROTATEDRECTD151*%

G04:AMPARAMS|DCode=152|XSize=0.6mm|YSize=0.7mm|CornerRadius=0mm|HoleSize=0mm|Usage=FLASHONLY|Rotation=225.000|XOffset=0mm|YOffset=0mm|HoleType=Round|Shape=Rectangle|*
%AMROTATEDRECTD152*
4,1,4,-0.0354,0.4596,0.4596,-0.0354,0.0354,-0.4596,-0.4596,0.0354,-0.0354,0.4596,0.0*
%
%ADD152ROTATEDRECTD152*%

%ADD153R,2.0000X2.9000*%
%ADD154R,3.1000X0.8000*%
%ADD155R,2.0000X3.5000*%
%ADD156R,1.9000X1.1000*%
%ADD157C,1.5000*%
%ADD158C,1.3000*%
%ADD159C,1.8000*%
%ADD160C,1.6000*%
%ADD161R,1.6000X1.6000*%
%ADD162C,2.1000*%
%ADD163C,2.0000*%
%ADD164C,1.9000*%
%ADD165R,1.6000X1.6000*%
%ADD166C,1.7000*%
%ADD167C,2.4000*%
%ADD168O,1.1000X2.1000*%
%ADD169O,1.1000X2.1000*%
%ADD170C,3.1000*%
%ADD171C,5.1000*%
%ADD172C,6.1000*%
G36*
X1337098Y809493D02*
X1337192Y809464D01*
X1337279Y809418D01*
X1337355Y809355D01*
X1337418Y809279D01*
X1337464Y809192D01*
X1337493Y809098D01*
X1337502Y809000D01*
Y772500D01*
Y736000D01*
X1337493Y735902D01*
X1337464Y735808D01*
X1337418Y735721D01*
X1337355Y735645D01*
X1337279Y735582D01*
X1337192Y735536D01*
X1337098Y735507D01*
X1337000Y735498D01*
X1320500D01*
X1320402Y735507D01*
X1320308Y735536D01*
X1320221Y735582D01*
X1320145Y735645D01*
X1320082Y735721D01*
X1320036Y735808D01*
X1320007Y735902D01*
X1319998Y736000D01*
Y747500D01*
X1320001Y747532D01*
X1320002Y747563D01*
X1320005Y747580D01*
X1320007Y747598D01*
X1320016Y747628D01*
X1320023Y747659D01*
X1320031Y747675D01*
X1320036Y747692D01*
X1320051Y747720D01*
X1320063Y747749D01*
X1320074Y747763D01*
X1320082Y747779D01*
X1320102Y747804D01*
X1320121Y747829D01*
X1320133Y747841D01*
X1320145Y747855D01*
X1320169Y747875D01*
X1320192Y747897D01*
X1320207Y747906D01*
X1320221Y747918D01*
X1320248Y747933D01*
X1320275Y747949D01*
X1323240Y749432D01*
X1326697Y751901D01*
X1329164Y753875D01*
X1329625Y754336D01*
X1331587Y756787D01*
X1333059Y759242D01*
X1334041Y761206D01*
X1335021Y763655D01*
X1335513Y765622D01*
X1336004Y767587D01*
X1336495Y772502D01*
X1336003Y777916D01*
X1335026Y781825D01*
X1332571Y786735D01*
X1329631Y790654D01*
X1326196Y793599D01*
X1323247Y795565D01*
X1320275Y797051D01*
X1320248Y797067D01*
X1320221Y797082D01*
X1320207Y797094D01*
X1320192Y797103D01*
X1320169Y797125D01*
X1320145Y797145D01*
X1320133Y797159D01*
X1320121Y797171D01*
X1320102Y797196D01*
X1320082Y797221D01*
X1320074Y797237D01*
X1320063Y797251D01*
X1320051Y797280D01*
X1320036Y797308D01*
X1320031Y797325D01*
X1320023Y797341D01*
X1320016Y797372D01*
X1320007Y797402D01*
X1320005Y797420D01*
X1320002Y797437D01*
X1320001Y797468D01*
X1319998Y797500D01*
Y809000D01*
X1320007Y809098D01*
X1320036Y809192D01*
X1320082Y809279D01*
X1320145Y809355D01*
X1320221Y809418D01*
X1320308Y809464D01*
X1320402Y809493D01*
X1320500Y809502D01*
X1337000D01*
X1337098Y809493D01*
D02*
G37*
G36*
X1299598D02*
X1299692Y809464D01*
X1299779Y809418D01*
X1299855Y809355D01*
X1299918Y809279D01*
X1299964Y809192D01*
X1299993Y809098D01*
X1300002Y809000D01*
Y797500D01*
X1299999Y797468D01*
X1299998Y797437D01*
X1299995Y797420D01*
X1299993Y797402D01*
X1299984Y797372D01*
X1299977Y797341D01*
X1299969Y797325D01*
X1299964Y797308D01*
X1299949Y797280D01*
X1299937Y797251D01*
X1299926Y797237D01*
X1299918Y797221D01*
X1299898Y797196D01*
X1299879Y797171D01*
X1299867Y797159D01*
X1299855Y797145D01*
X1299831Y797125D01*
X1299808Y797103D01*
X1299793Y797094D01*
X1299779Y797082D01*
X1299752Y797067D01*
X1299725Y797051D01*
X1295753Y795065D01*
X1294301Y794097D01*
X1291354Y791641D01*
X1288412Y788209D01*
X1286443Y784763D01*
X1284974Y781825D01*
X1284490Y779890D01*
X1283997Y777426D01*
X1283505Y772498D01*
X1283995Y767104D01*
X1285965Y761193D01*
X1286941Y759242D01*
X1288409Y756795D01*
X1291351Y753363D01*
X1293808Y751397D01*
X1295765Y749929D01*
X1299725Y747949D01*
X1299752Y747933D01*
X1299779Y747918D01*
X1299793Y747906D01*
X1299808Y747897D01*
X1299831Y747875D01*
X1299855Y747855D01*
X1299867Y747841D01*
X1299879Y747829D01*
X1299898Y747804D01*
X1299918Y747779D01*
X1299926Y747763D01*
X1299937Y747749D01*
X1299949Y747720D01*
X1299964Y747692D01*
X1299969Y747675D01*
X1299977Y747659D01*
X1299984Y747628D01*
X1299993Y747598D01*
X1299995Y747580D01*
X1299998Y747563D01*
X1299999Y747532D01*
X1300002Y747500D01*
Y736000D01*
X1299993Y735902D01*
X1299964Y735808D01*
X1299918Y735721D01*
X1299855Y735645D01*
X1299779Y735582D01*
X1299692Y735536D01*
X1299598Y735507D01*
X1299500Y735498D01*
X1283000D01*
X1282902Y735507D01*
X1282808Y735536D01*
X1282721Y735582D01*
X1282645Y735645D01*
X1282582Y735721D01*
X1282536Y735808D01*
X1282507Y735902D01*
X1282498Y736000D01*
Y772500D01*
Y809000D01*
X1282507Y809098D01*
X1282536Y809192D01*
X1282582Y809279D01*
X1282645Y809355D01*
X1282721Y809418D01*
X1282808Y809464D01*
X1282902Y809493D01*
X1283000Y809502D01*
X1299500D01*
X1299598Y809493D01*
D02*
G37*
G36*
X1335187Y682223D02*
X1335301Y682212D01*
X1335437Y682202D01*
X1335593Y682181D01*
X1335770Y682150D01*
X1335968Y682098D01*
X1336176Y682046D01*
X1336395Y681973D01*
X1336624Y681889D01*
X1336853Y681785D01*
X1337082Y681671D01*
X1337311Y681525D01*
X1337540Y681369D01*
X1337759Y681181D01*
X1337769Y681171D01*
X1337822Y681129D01*
X1337884Y681056D01*
X1337967Y680952D01*
X1338071Y680827D01*
X1338186Y680671D01*
X1338311Y680494D01*
X1338436Y680286D01*
X1338561Y680057D01*
X1338686Y679807D01*
X1338801Y679526D01*
X1338905Y679213D01*
X1338988Y678890D01*
X1339050Y678536D01*
X1339102Y678161D01*
X1339113Y677766D01*
Y677755D01*
Y677734D01*
Y677703D01*
Y677651D01*
Y677589D01*
X1339102Y677516D01*
Y677432D01*
X1339092Y677339D01*
X1339071Y677130D01*
X1339040Y676880D01*
X1338998Y676610D01*
X1338946Y676308D01*
X1338873Y676006D01*
X1338780Y675683D01*
X1338665Y675350D01*
X1338540Y675027D01*
X1338384Y674714D01*
X1338197Y674402D01*
X1337988Y674121D01*
X1337749Y673850D01*
X1337738Y673839D01*
X1337697Y673808D01*
X1337634Y673746D01*
X1337551Y673683D01*
X1337447Y673600D01*
X1337311Y673506D01*
X1337166Y673402D01*
X1336999Y673308D01*
X1336811Y673204D01*
X1336603Y673100D01*
X1336384Y673006D01*
X1336145Y672923D01*
X1335895Y672861D01*
X1335624Y672809D01*
X1335343Y672767D01*
X1335051Y672756D01*
X1332500D01*
Y682233D01*
X1335103D01*
X1335187Y682223D01*
D02*
G37*
G36*
X1312063Y679366D02*
X1312125Y679345D01*
X1312208Y679324D01*
X1312281Y679283D01*
X1312365Y679231D01*
X1312437Y679158D01*
X1312448Y679147D01*
X1312469Y679116D01*
X1312500Y679075D01*
X1312531Y679012D01*
X1312563Y678939D01*
X1312594Y678856D01*
X1312614Y678762D01*
X1312625Y678658D01*
Y678637D01*
X1312614Y678585D01*
X1312604Y678502D01*
X1312583Y678408D01*
X1312542Y678314D01*
X1312479Y678210D01*
X1312385Y678137D01*
X1312271Y678075D01*
X1310886Y677513D01*
Y673264D01*
X1312188Y672764D01*
X1312208Y672753D01*
X1312260Y672732D01*
X1312323Y672691D01*
X1312406Y672618D01*
X1312490Y672535D01*
X1312552Y672430D01*
X1312604Y672295D01*
X1312625Y672129D01*
Y672076D01*
X1312614Y672024D01*
X1312604Y671951D01*
X1312583Y671879D01*
X1312542Y671795D01*
X1312500Y671702D01*
X1312437Y671618D01*
X1312427Y671608D01*
X1312406Y671587D01*
X1312365Y671556D01*
X1312302Y671514D01*
X1312240Y671472D01*
X1312156Y671441D01*
X1312063Y671420D01*
X1311958Y671410D01*
X1311948D01*
X1311938D01*
X1311875Y671420D01*
X1311792Y671431D01*
X1311698Y671452D01*
X1303461Y674524D01*
X1303450D01*
X1303440Y674534D01*
X1303377Y674565D01*
X1303294Y674617D01*
X1303190Y674701D01*
X1303096Y674805D01*
X1303013Y674940D01*
X1302950Y675107D01*
X1302940Y675211D01*
X1302930Y675315D01*
Y675378D01*
X1302940Y675419D01*
X1302950Y675523D01*
X1302992Y675648D01*
X1303044Y675784D01*
X1303127Y675909D01*
X1303242Y676023D01*
X1303315Y676075D01*
X1303398Y676107D01*
X1311688Y679324D01*
X1311698D01*
X1311709Y679335D01*
X1311771Y679356D01*
X1311865Y679366D01*
X1311958Y679377D01*
X1311969D01*
X1312010D01*
X1312063Y679366D01*
D02*
G37*
G36*
X1311761Y669088D02*
X1311844Y669067D01*
X1311938Y669035D01*
X1312031Y668994D01*
X1312135Y668931D01*
X1312229Y668848D01*
X1312240Y668838D01*
X1312260Y668806D01*
X1312302Y668754D01*
X1312344Y668681D01*
X1312385Y668598D01*
X1312427Y668494D01*
X1312448Y668379D01*
X1312458Y668254D01*
Y668192D01*
X1312448Y668130D01*
X1312427Y668046D01*
X1312406Y667952D01*
X1312365Y667859D01*
X1312302Y667755D01*
X1312229Y667661D01*
X1312219Y667651D01*
X1312188Y667630D01*
X1312135Y667588D01*
X1312063Y667546D01*
X1311979Y667505D01*
X1311875Y667463D01*
X1311761Y667442D01*
X1311636Y667432D01*
X1311625D01*
X1311573D01*
X1311511Y667442D01*
X1311438Y667463D01*
X1311344Y667484D01*
X1311240Y667525D01*
X1311146Y667588D01*
X1311052Y667661D01*
X1311042Y667671D01*
X1311011Y667702D01*
X1310969Y667755D01*
X1310927Y667828D01*
X1310886Y667911D01*
X1310844Y668015D01*
X1310813Y668130D01*
X1310802Y668254D01*
Y668317D01*
X1310813Y668379D01*
X1310834Y668463D01*
X1310865Y668546D01*
X1310907Y668650D01*
X1310969Y668754D01*
X1311052Y668848D01*
X1311063Y668858D01*
X1311094Y668890D01*
X1311146Y668931D01*
X1311219Y668973D01*
X1311302Y669015D01*
X1311407Y669056D01*
X1311511Y669088D01*
X1311636Y669098D01*
X1311646D01*
X1311698D01*
X1311761Y669088D01*
D02*
G37*
G36*
X1305512Y665661D02*
X1305585Y665641D01*
X1312229Y663766D01*
X1312250Y663756D01*
X1312292Y663735D01*
X1312354Y663693D01*
X1312427Y663631D01*
X1312510Y663527D01*
X1312573Y663401D01*
X1312594Y663318D01*
X1312614Y663224D01*
X1312635Y663131D01*
Y662964D01*
X1312625Y662923D01*
X1312614Y662818D01*
X1312594Y662693D01*
X1312542Y662568D01*
X1312479Y662454D01*
X1312396Y662360D01*
X1312333Y662318D01*
X1312271Y662298D01*
X1305616Y660194D01*
X1305606D01*
X1305596D01*
X1305543Y660184D01*
X1305460Y660173D01*
X1305366Y660163D01*
X1305356D01*
X1305314D01*
X1305262Y660173D01*
X1305200Y660194D01*
X1305127Y660215D01*
X1305044Y660246D01*
X1304960Y660298D01*
X1304887Y660371D01*
X1304877Y660381D01*
X1304856Y660413D01*
X1304825Y660454D01*
X1304783Y660507D01*
X1304752Y660579D01*
X1304721Y660663D01*
X1304700Y660756D01*
X1304689Y660850D01*
Y660871D01*
X1304700Y660933D01*
X1304710Y661006D01*
X1304742Y661111D01*
X1304783Y661215D01*
X1304856Y661308D01*
X1304950Y661392D01*
X1305085Y661444D01*
X1310386Y662995D01*
X1305200Y664318D01*
X1305189D01*
X1305179Y664328D01*
X1305116Y664349D01*
X1305033Y664391D01*
X1304939Y664443D01*
X1304846Y664526D01*
X1304773Y664641D01*
X1304710Y664776D01*
X1304700Y664859D01*
X1304689Y664943D01*
Y664985D01*
X1304700Y665036D01*
X1304710Y665109D01*
X1304742Y665182D01*
X1304773Y665266D01*
X1304825Y665359D01*
X1304898Y665443D01*
X1304908Y665453D01*
X1304939Y665474D01*
X1304981Y665516D01*
X1305033Y665557D01*
X1305106Y665599D01*
X1305200Y665641D01*
X1305293Y665661D01*
X1305398Y665672D01*
X1305419D01*
X1305460D01*
X1305512Y665661D01*
D02*
G37*
G36*
X1311906Y658767D02*
X1312021Y658736D01*
X1312146Y658694D01*
X1312281Y658601D01*
X1312333Y658549D01*
X1312385Y658476D01*
X1312437Y658403D01*
X1312469Y658299D01*
X1312490Y658195D01*
X1312500Y658070D01*
Y653498D01*
X1304700D01*
Y658132D01*
X1304710Y658184D01*
X1304742Y658299D01*
X1304783Y658424D01*
X1304866Y658559D01*
X1304929Y658611D01*
X1304991Y658663D01*
X1305075Y658715D01*
X1305168Y658746D01*
X1305273Y658767D01*
X1305398Y658778D01*
X1305408D01*
X1305429D01*
X1305460D01*
X1305502Y658767D01*
X1305616Y658736D01*
X1305741Y658694D01*
X1305866Y658601D01*
X1305929Y658549D01*
X1305981Y658476D01*
X1306022Y658403D01*
X1306054Y658299D01*
X1306075Y658195D01*
X1306085Y658070D01*
Y654852D01*
X1307512D01*
Y657934D01*
X1307522Y657976D01*
X1307553Y658090D01*
X1307595Y658215D01*
X1307678Y658340D01*
X1307741Y658403D01*
X1307803Y658455D01*
X1307887Y658496D01*
X1307980Y658528D01*
X1308085Y658549D01*
X1308209Y658559D01*
X1308220D01*
X1308241D01*
X1308272D01*
X1308314Y658549D01*
X1308428Y658528D01*
X1308553Y658476D01*
X1308689Y658392D01*
X1308741Y658340D01*
X1308793Y658267D01*
X1308845Y658195D01*
X1308876Y658101D01*
X1308897Y657997D01*
X1308907Y657872D01*
Y654852D01*
X1311104D01*
Y658132D01*
X1311115Y658184D01*
X1311146Y658299D01*
X1311188Y658424D01*
X1311271Y658559D01*
X1311334Y658611D01*
X1311396Y658663D01*
X1311479Y658715D01*
X1311573Y658746D01*
X1311677Y658767D01*
X1311802Y658778D01*
X1311813D01*
X1311833D01*
X1311865D01*
X1311906Y658767D01*
D02*
G37*
G36*
X1312000Y651832D02*
X1312063Y651811D01*
X1312146Y651790D01*
X1312229Y651748D01*
X1312312Y651696D01*
X1312396Y651623D01*
X1312406Y651613D01*
X1312427Y651582D01*
X1312458Y651540D01*
X1312500Y651478D01*
X1312542Y651405D01*
X1312573Y651321D01*
X1312594Y651228D01*
X1312604Y651123D01*
Y651113D01*
X1312594Y651071D01*
X1312583Y651009D01*
X1312563Y650936D01*
X1312531Y650842D01*
X1312469Y650759D01*
X1312396Y650665D01*
X1312292Y650582D01*
X1308564Y647958D01*
Y646395D01*
X1311896D01*
X1311906D01*
X1311927D01*
X1311958D01*
X1312010Y646385D01*
X1312115Y646354D01*
X1312250Y646312D01*
X1312375Y646218D01*
X1312437Y646166D01*
X1312490Y646094D01*
X1312542Y646021D01*
X1312573Y645916D01*
X1312594Y645812D01*
X1312604Y645687D01*
Y645625D01*
X1312594Y645583D01*
X1312563Y645469D01*
X1312510Y645344D01*
X1312479Y645281D01*
X1312427Y645219D01*
X1312375Y645156D01*
X1312302Y645104D01*
X1312219Y645062D01*
X1312125Y645031D01*
X1312010Y645010D01*
X1311886Y645000D01*
X1303034D01*
Y649166D01*
X1303044Y649239D01*
X1303055Y649343D01*
X1303075Y649457D01*
X1303096Y649582D01*
X1303127Y649717D01*
X1303169Y649863D01*
X1303211Y650020D01*
X1303273Y650186D01*
X1303346Y650342D01*
X1303429Y650509D01*
X1303533Y650676D01*
X1303638Y650832D01*
X1303773Y650988D01*
X1303784Y650999D01*
X1303815Y651030D01*
X1303856Y651071D01*
X1303919Y651123D01*
X1304002Y651186D01*
X1304096Y651259D01*
X1304210Y651332D01*
X1304335Y651415D01*
X1304481Y651498D01*
X1304637Y651571D01*
X1304804Y651644D01*
X1304991Y651707D01*
X1305189Y651759D01*
X1305398Y651811D01*
X1305616Y651832D01*
X1305856Y651842D01*
X1305877D01*
X1305918D01*
X1305991Y651832D01*
X1306095Y651821D01*
X1306220Y651800D01*
X1306366Y651779D01*
X1306522Y651738D01*
X1306689Y651696D01*
X1306866Y651623D01*
X1307054Y651550D01*
X1307241Y651446D01*
X1307428Y651332D01*
X1307605Y651196D01*
X1307782Y651030D01*
X1307949Y650842D01*
X1308105Y650634D01*
X1308126Y650613D01*
X1308178Y650561D01*
X1308251Y650467D01*
X1308334Y650342D01*
X1308418Y650176D01*
X1308491Y649988D01*
X1308543Y649780D01*
X1308553Y649666D01*
X1308564Y649540D01*
Y649551D01*
X1311469Y651696D01*
X1311479Y651707D01*
X1311511Y651717D01*
X1311552Y651738D01*
X1311604Y651769D01*
X1311740Y651821D01*
X1311813Y651832D01*
X1311896Y651842D01*
X1311906D01*
X1311948D01*
X1312000Y651832D01*
D02*
G37*
G36*
X1335853Y654233D02*
X1335978Y654223D01*
X1336114Y654202D01*
X1336270Y654181D01*
X1336436Y654150D01*
X1336603Y654108D01*
X1336791Y654056D01*
X1336978Y654004D01*
X1337166Y653931D01*
X1337343Y653837D01*
X1337530Y653744D01*
X1337697Y653629D01*
X1337863Y653494D01*
X1337874Y653483D01*
X1337894Y653463D01*
X1337936Y653421D01*
X1337988Y653358D01*
X1338051Y653286D01*
X1338113Y653192D01*
X1338186Y653088D01*
X1338269Y652973D01*
X1338342Y652838D01*
X1338415Y652692D01*
X1338478Y652525D01*
X1338540Y652359D01*
X1338592Y652171D01*
X1338634Y651973D01*
X1338655Y651755D01*
X1338665Y651536D01*
Y651525D01*
Y651484D01*
X1338655Y651421D01*
Y651338D01*
X1338634Y651234D01*
X1338613Y651109D01*
X1338582Y650984D01*
X1338551Y650838D01*
X1338499Y650682D01*
X1338436Y650526D01*
X1338363Y650359D01*
X1338269Y650203D01*
X1338165Y650036D01*
X1338040Y649880D01*
X1337894Y649734D01*
X1337728Y649588D01*
X1337738Y649578D01*
X1337769Y649557D01*
X1337822Y649526D01*
X1337894Y649474D01*
X1337978Y649411D01*
X1338061Y649328D01*
X1338165Y649234D01*
X1338259Y649120D01*
X1338363Y648985D01*
X1338457Y648828D01*
X1338540Y648662D01*
X1338623Y648464D01*
X1338696Y648255D01*
X1338748Y648016D01*
X1338780Y647766D01*
X1338790Y647485D01*
Y647474D01*
Y647454D01*
Y647422D01*
X1338780Y647370D01*
Y647308D01*
X1338769Y647235D01*
X1338738Y647058D01*
X1338696Y646850D01*
X1338634Y646620D01*
X1338530Y646371D01*
X1338405Y646121D01*
X1338248Y645871D01*
X1338155Y645746D01*
X1338040Y645621D01*
X1337926Y645506D01*
X1337801Y645392D01*
X1337655Y645287D01*
X1337499Y645183D01*
X1337332Y645090D01*
X1337155Y645006D01*
X1336957Y644933D01*
X1336749Y644871D01*
X1336520Y644829D01*
X1336280Y644788D01*
X1336020Y644767D01*
X1335739Y644756D01*
X1332500D01*
Y654243D01*
X1335760D01*
X1335853Y654233D01*
D02*
G37*
G36*
X1234598Y169493D02*
X1234692Y169464D01*
X1234779Y169418D01*
X1234855Y169355D01*
X1234918Y169279D01*
X1234964Y169192D01*
X1234993Y169098D01*
X1235002Y169000D01*
Y132500D01*
Y96000D01*
X1234993Y95902D01*
X1234964Y95808D01*
X1234918Y95721D01*
X1234855Y95645D01*
X1234779Y95582D01*
X1234692Y95536D01*
X1234598Y95507D01*
X1234500Y95498D01*
X1218000D01*
X1217902Y95507D01*
X1217808Y95536D01*
X1217721Y95582D01*
X1217645Y95645D01*
X1217582Y95721D01*
X1217536Y95808D01*
X1217507Y95902D01*
X1217498Y96000D01*
Y107500D01*
X1217501Y107531D01*
X1217502Y107563D01*
X1217505Y107580D01*
X1217507Y107598D01*
X1217516Y107628D01*
X1217523Y107659D01*
X1217531Y107675D01*
X1217536Y107692D01*
X1217551Y107720D01*
X1217563Y107749D01*
X1217574Y107763D01*
X1217582Y107779D01*
X1217602Y107804D01*
X1217620Y107829D01*
X1217633Y107841D01*
X1217645Y107855D01*
X1217669Y107875D01*
X1217692Y107897D01*
X1217707Y107907D01*
X1217721Y107918D01*
X1217748Y107932D01*
X1217775Y107949D01*
X1221747Y109935D01*
X1223199Y110903D01*
X1226146Y113359D01*
X1229088Y116791D01*
X1231057Y120237D01*
X1232526Y123175D01*
X1233010Y125110D01*
X1233503Y127574D01*
X1233995Y132502D01*
X1233505Y137896D01*
X1231535Y143807D01*
X1230559Y145758D01*
X1229091Y148205D01*
X1226149Y151637D01*
X1223692Y153603D01*
X1221735Y155071D01*
X1217775Y157051D01*
X1217748Y157067D01*
X1217721Y157082D01*
X1217707Y157093D01*
X1217692Y157103D01*
X1217669Y157125D01*
X1217645Y157145D01*
X1217633Y157159D01*
X1217620Y157171D01*
X1217602Y157196D01*
X1217582Y157221D01*
X1217574Y157237D01*
X1217563Y157251D01*
X1217551Y157280D01*
X1217536Y157308D01*
X1217531Y157325D01*
X1217523Y157341D01*
X1217516Y157372D01*
X1217507Y157402D01*
X1217505Y157420D01*
X1217502Y157437D01*
X1217501Y157468D01*
X1217498Y157500D01*
Y169000D01*
X1217507Y169098D01*
X1217536Y169192D01*
X1217582Y169279D01*
X1217645Y169355D01*
X1217721Y169418D01*
X1217808Y169464D01*
X1217902Y169493D01*
X1218000Y169502D01*
X1234500D01*
X1234598Y169493D01*
D02*
G37*
G36*
X1197098D02*
X1197192Y169464D01*
X1197279Y169418D01*
X1197355Y169355D01*
X1197418Y169279D01*
X1197464Y169192D01*
X1197493Y169098D01*
X1197502Y169000D01*
Y157500D01*
X1197499Y157468D01*
X1197498Y157437D01*
X1197495Y157420D01*
X1197493Y157402D01*
X1197484Y157372D01*
X1197477Y157341D01*
X1197469Y157325D01*
X1197464Y157308D01*
X1197449Y157280D01*
X1197437Y157251D01*
X1197426Y157237D01*
X1197418Y157221D01*
X1197398Y157196D01*
X1197380Y157171D01*
X1197367Y157159D01*
X1197355Y157145D01*
X1197331Y157125D01*
X1197308Y157103D01*
X1197293Y157093D01*
X1197279Y157082D01*
X1197252Y157067D01*
X1197225Y157051D01*
X1194260Y155568D01*
X1190803Y153099D01*
X1188336Y151125D01*
X1187875Y150664D01*
X1185913Y148212D01*
X1184441Y145758D01*
X1183459Y143794D01*
X1182479Y141345D01*
X1181987Y139378D01*
X1181496Y137414D01*
X1181005Y132498D01*
X1181497Y127084D01*
X1182474Y123175D01*
X1184929Y118265D01*
X1187869Y114346D01*
X1191304Y111401D01*
X1194253Y109435D01*
X1197225Y107949D01*
X1197252Y107932D01*
X1197279Y107918D01*
X1197293Y107907D01*
X1197308Y107897D01*
X1197331Y107875D01*
X1197355Y107855D01*
X1197367Y107841D01*
X1197380Y107829D01*
X1197398Y107804D01*
X1197418Y107779D01*
X1197426Y107763D01*
X1197437Y107749D01*
X1197449Y107720D01*
X1197464Y107692D01*
X1197469Y107675D01*
X1197477Y107659D01*
X1197484Y107628D01*
X1197493Y107598D01*
X1197495Y107580D01*
X1197498Y107563D01*
X1197499Y107531D01*
X1197502Y107500D01*
Y96000D01*
X1197493Y95902D01*
X1197464Y95808D01*
X1197418Y95721D01*
X1197355Y95645D01*
X1197279Y95582D01*
X1197192Y95536D01*
X1197098Y95507D01*
X1197000Y95498D01*
X1180500D01*
X1180402Y95507D01*
X1180308Y95536D01*
X1180221Y95582D01*
X1180145Y95645D01*
X1180082Y95721D01*
X1180036Y95808D01*
X1180007Y95902D01*
X1179998Y96000D01*
Y132500D01*
Y169000D01*
X1180007Y169098D01*
X1180036Y169192D01*
X1180082Y169279D01*
X1180145Y169355D01*
X1180221Y169418D01*
X1180308Y169464D01*
X1180402Y169493D01*
X1180500Y169502D01*
X1197000D01*
X1197098Y169493D01*
D02*
G37*
%LPC*%
G36*
X1335041Y680806D02*
X1333885D01*
Y674173D01*
X1335156D01*
X1335228Y674183D01*
X1335322Y674193D01*
X1335426Y674204D01*
X1335541Y674225D01*
X1335666Y674256D01*
X1335937Y674329D01*
X1336082Y674381D01*
X1336239Y674444D01*
X1336384Y674516D01*
X1336530Y674610D01*
X1336666Y674704D01*
X1336801Y674818D01*
X1336811Y674829D01*
X1336843Y674871D01*
X1336884Y674933D01*
X1336947Y675016D01*
X1337020Y675131D01*
X1337093Y675266D01*
X1337176Y675422D01*
X1337270Y675599D01*
X1337353Y675797D01*
X1337436Y676026D01*
X1337509Y676266D01*
X1337582Y676526D01*
X1337645Y676807D01*
X1337686Y677110D01*
X1337717Y677432D01*
X1337728Y677766D01*
Y677786D01*
Y677828D01*
X1337717Y677911D01*
Y678016D01*
X1337697Y678140D01*
X1337676Y678276D01*
X1337655Y678443D01*
X1337613Y678620D01*
X1337572Y678796D01*
X1337509Y678984D01*
X1337436Y679182D01*
X1337353Y679369D01*
X1337249Y679567D01*
X1337124Y679744D01*
X1336988Y679921D01*
X1336832Y680088D01*
X1336822Y680098D01*
X1336801Y680119D01*
X1336759Y680150D01*
X1336697Y680202D01*
X1336624Y680255D01*
X1336541Y680317D01*
X1336436Y680379D01*
X1336322Y680452D01*
X1336197Y680515D01*
X1336062Y680577D01*
X1335916Y680640D01*
X1335760Y680692D01*
X1335593Y680744D01*
X1335416Y680775D01*
X1335228Y680796D01*
X1335041Y680806D01*
D02*
G37*
G36*
X1309469Y677023D02*
X1305012Y675315D01*
X1309469Y673732D01*
Y677023D01*
D02*
G37*
G36*
X1305845Y650457D02*
X1305835D01*
X1305814D01*
X1305783D01*
X1305741Y650446D01*
X1305616Y650436D01*
X1305470Y650415D01*
X1305304Y650363D01*
X1305137Y650301D01*
X1304971Y650217D01*
X1304825Y650092D01*
X1304804Y650072D01*
X1304762Y650009D01*
X1304700Y649915D01*
X1304627Y649790D01*
X1304554Y649634D01*
X1304492Y649457D01*
X1304450Y649259D01*
X1304429Y649051D01*
Y646395D01*
X1307147D01*
Y649582D01*
X1307137Y649634D01*
X1307116Y649697D01*
X1307085Y649780D01*
X1307043Y649863D01*
X1306991Y649957D01*
X1306908Y650061D01*
X1306887Y650082D01*
X1306835Y650124D01*
X1306752Y650186D01*
X1306637Y650259D01*
X1306491Y650332D01*
X1306304Y650395D01*
X1306095Y650436D01*
X1305845Y650457D01*
D02*
G37*
G36*
X1335624Y652827D02*
X1333885D01*
Y650307D01*
X1335822D01*
X1335905Y650318D01*
X1335999Y650328D01*
X1336114Y650349D01*
X1336239Y650369D01*
X1336374Y650411D01*
X1336520Y650463D01*
X1336666Y650526D01*
X1336801Y650609D01*
X1336926Y650713D01*
X1337041Y650828D01*
X1337145Y650974D01*
X1337218Y651140D01*
X1337259Y651328D01*
X1337280Y651546D01*
Y651557D01*
Y651578D01*
Y651609D01*
X1337270Y651650D01*
X1337259Y651755D01*
X1337228Y651900D01*
X1337176Y652046D01*
X1337093Y652202D01*
X1336988Y652359D01*
X1336843Y652494D01*
X1336822Y652504D01*
X1336759Y652546D01*
X1336666Y652598D01*
X1336530Y652661D01*
X1336353Y652723D01*
X1336145Y652775D01*
X1335905Y652817D01*
X1335624Y652827D01*
D02*
G37*
G36*
X1335676Y648891D02*
X1333885D01*
Y646173D01*
X1335812D01*
X1335895Y646183D01*
X1335999Y646193D01*
X1336124Y646214D01*
X1336270Y646246D01*
X1336416Y646287D01*
X1336572Y646339D01*
X1336728Y646412D01*
X1336874Y646496D01*
X1337020Y646600D01*
X1337145Y646735D01*
X1337249Y646881D01*
X1337332Y647058D01*
X1337384Y647266D01*
X1337405Y647495D01*
Y647516D01*
Y647558D01*
X1337395Y647620D01*
X1337374Y647714D01*
X1337353Y647818D01*
X1337311Y647933D01*
X1337259Y648068D01*
X1337186Y648193D01*
X1337093Y648328D01*
X1336988Y648453D01*
X1336843Y648568D01*
X1336676Y648672D01*
X1336478Y648766D01*
X1336249Y648828D01*
X1335978Y648880D01*
X1335676Y648891D01*
D02*
G37*
%LPD*%
D13*
X1335500Y660500D02*
Y666500D01*
X1331500Y660500D02*
Y666500D01*
X1342500Y677500D02*
X1349500D01*
X1329500Y670500D02*
X1342500D01*
X1329500D02*
Y684500D01*
X1342500D01*
Y670500D02*
Y684500D01*
X1339500Y663500D02*
X1346500D01*
X1342500Y642500D02*
Y656500D01*
X1329500D02*
X1342500D01*
X1329500Y642500D02*
Y656500D01*
Y642500D02*
X1342500D01*
X1342500Y649500D02*
X1349500D01*
X1318500Y684500D02*
X1320500D01*
Y642500D02*
Y684500D01*
X1318500Y642500D02*
Y684500D01*
Y642500D02*
X1320500D01*
D19*
X1355000Y677500D02*
G03*
X1355000Y677500I-2500J0D01*
G01*
X1352000Y663500D02*
G03*
X1352000Y663500I-2500J0D01*
G01*
X1355000Y649500D02*
G03*
X1355000Y649500I-2500J0D01*
G01*
D91*
X828002Y115000D02*
D03*
X842002D02*
D03*
X475502Y30000D02*
D03*
X489502D02*
D03*
X987998Y390000D02*
D03*
X1001998D02*
D03*
X384498Y492500D02*
D03*
X370498D02*
D03*
X1138002Y137500D02*
D03*
X1152002D02*
D03*
X856998Y32500D02*
D03*
X842998D02*
D03*
X776998D02*
D03*
X762998D02*
D03*
X776998Y47500D02*
D03*
X762998D02*
D03*
X856998D02*
D03*
X842998D02*
D03*
X816998Y32500D02*
D03*
X802998D02*
D03*
X816998Y47500D02*
D03*
X802998D02*
D03*
X1194498Y85000D02*
D03*
X1180498D02*
D03*
X1100502Y47500D02*
D03*
X1114502D02*
D03*
X1100502Y32500D02*
D03*
X1114502D02*
D03*
X1100502Y62500D02*
D03*
X1114502D02*
D03*
X1143002Y32500D02*
D03*
X1157002D02*
D03*
X1143002Y45000D02*
D03*
X1157002D02*
D03*
X1143002Y57500D02*
D03*
X1157002D02*
D03*
X1100502Y77500D02*
D03*
X1114502D02*
D03*
X990500Y112500D02*
D03*
X1004500D02*
D03*
X938002Y112500D02*
D03*
X952002D02*
D03*
X924498Y112500D02*
D03*
X910498D02*
D03*
X562998Y832500D02*
D03*
X576998D02*
D03*
X677998Y828500D02*
D03*
X691998D02*
D03*
X642998Y832500D02*
D03*
X656998D02*
D03*
X665498Y52500D02*
D03*
X679498D02*
D03*
X217002Y714000D02*
D03*
X203002D02*
D03*
X217002Y689000D02*
D03*
X203002D02*
D03*
X217002Y676500D02*
D03*
X203002D02*
D03*
X217002Y664000D02*
D03*
X203002D02*
D03*
X217002Y701500D02*
D03*
X203002D02*
D03*
X371002Y633000D02*
D03*
X357002D02*
D03*
X302002Y630000D02*
D03*
X288002D02*
D03*
X339502Y645000D02*
D03*
X325502D02*
D03*
X369502Y657500D02*
D03*
X355502D02*
D03*
X369502Y670000D02*
D03*
X355502D02*
D03*
X369502Y682500D02*
D03*
X355502D02*
D03*
X369502Y695000D02*
D03*
X355502D02*
D03*
X369502Y707500D02*
D03*
X355502D02*
D03*
X370498Y442500D02*
D03*
X384498D02*
D03*
X339502Y632500D02*
D03*
X325502D02*
D03*
X339502Y707500D02*
D03*
X325502D02*
D03*
X339502Y682500D02*
D03*
X325502D02*
D03*
X339502Y657500D02*
D03*
X325502D02*
D03*
X339502Y670000D02*
D03*
X325502D02*
D03*
X339502Y695000D02*
D03*
X325502D02*
D03*
X152002Y385000D02*
D03*
X138002D02*
D03*
X384502Y517500D02*
D03*
X370502D02*
D03*
X260498Y495000D02*
D03*
X274498D02*
D03*
X274502Y520000D02*
D03*
X260502D02*
D03*
X370498Y455000D02*
D03*
X384498D02*
D03*
X370498Y467500D02*
D03*
X384498D02*
D03*
X370498Y480000D02*
D03*
X384498D02*
D03*
X369502Y720000D02*
D03*
X355502D02*
D03*
X282998Y179000D02*
D03*
X296998D02*
D03*
X250998D02*
D03*
X264998D02*
D03*
X679502Y27500D02*
D03*
X665502D02*
D03*
X257002Y715000D02*
D03*
X243002D02*
D03*
X287998Y715000D02*
D03*
X301998D02*
D03*
X370498Y505000D02*
D03*
X384498D02*
D03*
X274502Y507500D02*
D03*
X260502D02*
D03*
X182002Y295000D02*
D03*
X168002D02*
D03*
X1414502Y782500D02*
D03*
X1400502D02*
D03*
X1289502Y450000D02*
D03*
X1275502D02*
D03*
X1289502Y532500D02*
D03*
X1275502D02*
D03*
X1327998Y345000D02*
D03*
X1341998D02*
D03*
X1042998Y390000D02*
D03*
X1056998D02*
D03*
X710502Y115000D02*
D03*
X724502D02*
D03*
X549498Y70000D02*
D03*
X535498D02*
D03*
X251002Y123000D02*
D03*
X265002D02*
D03*
X126998Y121000D02*
D03*
X112998D02*
D03*
X126998Y133500D02*
D03*
X112998D02*
D03*
X264998Y149000D02*
D03*
X250998D02*
D03*
X126998Y146000D02*
D03*
X112998D02*
D03*
X264998Y136000D02*
D03*
X250998D02*
D03*
X695502Y50000D02*
D03*
X709502D02*
D03*
X723002Y50000D02*
D03*
X737002D02*
D03*
X709498Y100000D02*
D03*
X695498D02*
D03*
X679498Y40000D02*
D03*
X665498D02*
D03*
X1215502Y217500D02*
D03*
X1229502D02*
D03*
X195502Y740000D02*
D03*
X209502D02*
D03*
X209498Y755000D02*
D03*
X195498D02*
D03*
X508002Y85000D02*
D03*
X522002D02*
D03*
X857002Y471500D02*
D03*
X871002D02*
D03*
X890502D02*
D03*
X904502D02*
D03*
X486998Y165000D02*
D03*
X472998D02*
D03*
X508002Y70000D02*
D03*
X522002D02*
D03*
X549498Y85000D02*
D03*
X535498D02*
D03*
D92*
X440000Y30500D02*
D03*
Y14500D02*
D03*
X250500Y225500D02*
D03*
Y209500D02*
D03*
X780000Y130500D02*
D03*
Y114500D02*
D03*
X274000Y362000D02*
D03*
Y378000D02*
D03*
X1435000Y364500D02*
D03*
Y380500D02*
D03*
X347500Y828000D02*
D03*
Y812000D02*
D03*
X236500Y99000D02*
D03*
Y83000D02*
D03*
X181000Y428000D02*
D03*
Y412000D02*
D03*
X1257500Y395500D02*
D03*
Y379500D02*
D03*
X1292500Y715500D02*
D03*
Y699500D02*
D03*
X750000Y114500D02*
D03*
Y130500D02*
D03*
X277000Y225000D02*
D03*
Y209000D02*
D03*
D93*
X350250Y455750D02*
D03*
Y462250D02*
D03*
Y468750D02*
D03*
Y475250D02*
D03*
Y481750D02*
D03*
Y488250D02*
D03*
Y494750D02*
D03*
Y501250D02*
D03*
Y507750D02*
D03*
Y514250D02*
D03*
X294750Y455750D02*
D03*
Y462250D02*
D03*
Y468750D02*
D03*
Y475250D02*
D03*
Y481750D02*
D03*
Y488250D02*
D03*
Y494750D02*
D03*
Y501250D02*
D03*
Y507750D02*
D03*
Y514250D02*
D03*
X300250Y643250D02*
D03*
Y649750D02*
D03*
Y656250D02*
D03*
Y662750D02*
D03*
Y669250D02*
D03*
Y675750D02*
D03*
Y682250D02*
D03*
Y688750D02*
D03*
Y695250D02*
D03*
Y701750D02*
D03*
X244750Y643250D02*
D03*
Y649750D02*
D03*
Y656250D02*
D03*
Y662750D02*
D03*
Y669250D02*
D03*
Y675750D02*
D03*
Y682250D02*
D03*
Y688750D02*
D03*
Y695250D02*
D03*
Y701750D02*
D03*
D94*
X295000Y779900D02*
D03*
X300000D02*
D03*
X305000D02*
D03*
X310000D02*
D03*
X315000D02*
D03*
X320000D02*
D03*
X325000D02*
D03*
X330000D02*
D03*
X335000D02*
D03*
X340000D02*
D03*
X1032500Y95600D02*
D03*
X1027500D02*
D03*
X1022500D02*
D03*
X992500D02*
D03*
X957500D02*
D03*
X952500D02*
D03*
X917500D02*
D03*
X922500D02*
D03*
X927500D02*
D03*
X932500D02*
D03*
X937500D02*
D03*
X942500D02*
D03*
X947500D02*
D03*
X962500D02*
D03*
X967500D02*
D03*
X972500D02*
D03*
X977500D02*
D03*
X982500D02*
D03*
X987500D02*
D03*
X997500D02*
D03*
X1002500D02*
D03*
X1007500D02*
D03*
X1012500D02*
D03*
X1017500D02*
D03*
X892500Y647400D02*
D03*
X897501D02*
D03*
X902499D02*
D03*
X907501D02*
D03*
X912499D02*
D03*
X917501D02*
D03*
X1072499D02*
D03*
X1077501D02*
D03*
X1082499D02*
D03*
X1087500D02*
D03*
X982499D02*
D03*
X992499D02*
D03*
X987501D02*
D03*
X977501D02*
D03*
X972499D02*
D03*
X967501D02*
D03*
X962499D02*
D03*
X957501D02*
D03*
X952499D02*
D03*
X947501D02*
D03*
X942499D02*
D03*
X937501D02*
D03*
X932499D02*
D03*
X927501D02*
D03*
X922499D02*
D03*
X997501D02*
D03*
X1002499D02*
D03*
X1007501D02*
D03*
X1012499D02*
D03*
X1017501D02*
D03*
X1022499D02*
D03*
X1027501D02*
D03*
X1032499D02*
D03*
X1037501D02*
D03*
X1042499D02*
D03*
X1047501D02*
D03*
X1052499D02*
D03*
X1057501D02*
D03*
X1062499D02*
D03*
X1067501D02*
D03*
D95*
X275700Y760100D02*
D03*
X359300D02*
D03*
D96*
X965000Y749000D02*
D03*
X955000D02*
D03*
X945000D02*
D03*
X935000D02*
D03*
D97*
X991000Y773000D02*
D03*
X909000D02*
D03*
D98*
X1341750Y772500D02*
D03*
X1278250D02*
D03*
X1175750Y132500D02*
D03*
X1239250D02*
D03*
D99*
X1250000Y735000D02*
D03*
D100*
X1241250Y727500D02*
D03*
Y732500D02*
D03*
Y737500D02*
D03*
Y742500D02*
D03*
X1258750D02*
D03*
Y737500D02*
D03*
Y732500D02*
D03*
Y727500D02*
D03*
D101*
X1391250Y492500D02*
D03*
D102*
X1321750Y469500D02*
D03*
Y515500D02*
D03*
D103*
X1307000Y404050D02*
D03*
Y391350D02*
D03*
Y378650D02*
D03*
Y365950D02*
D03*
X1363000D02*
D03*
Y404050D02*
D03*
Y391350D02*
D03*
Y378650D02*
D03*
D104*
X1335000Y385000D02*
D03*
D105*
X1182500Y238495D02*
D03*
Y191505D02*
D03*
X635000Y113495D02*
D03*
Y66505D02*
D03*
X955000Y326505D02*
D03*
Y373495D02*
D03*
X1265000Y289005D02*
D03*
Y335995D02*
D03*
D106*
X898200Y77000D02*
D03*
X1051800D02*
D03*
D107*
X857000Y63450D02*
D03*
Y76150D02*
D03*
Y88850D02*
D03*
Y101550D02*
D03*
X808000Y63450D02*
D03*
Y76150D02*
D03*
Y88850D02*
D03*
Y101550D02*
D03*
D108*
X768600Y69800D02*
D03*
Y82500D02*
D03*
Y95200D02*
D03*
X731400D02*
D03*
Y82500D02*
D03*
Y69800D02*
D03*
D109*
X516505Y115000D02*
D03*
X563495D02*
D03*
X516505Y40000D02*
D03*
X563495D02*
D03*
D110*
X450950Y53000D02*
D03*
X463650D02*
D03*
X476350D02*
D03*
X489050D02*
D03*
X450950Y102000D02*
D03*
X463650D02*
D03*
X476350D02*
D03*
X489050D02*
D03*
D111*
X302749Y155749D02*
D03*
X359650D02*
D03*
D112*
X286749Y25749D02*
D03*
X418250Y14251D02*
D03*
D113*
X294649Y52750D02*
D03*
X305650D02*
D03*
X316650Y50751D02*
D03*
X327649Y52750D02*
D03*
X338649Y50751D02*
D03*
X349650Y52750D02*
D03*
X360651Y56750D02*
D03*
X371649Y52750D02*
D03*
D114*
X195000Y156000D02*
D03*
D115*
X167500Y191500D02*
D03*
X172500D02*
D03*
X177500D02*
D03*
X182500D02*
D03*
X187500D02*
D03*
X192500D02*
D03*
X197500D02*
D03*
X202500D02*
D03*
X207500D02*
D03*
X212500D02*
D03*
X217500D02*
D03*
X222500D02*
D03*
Y120500D02*
D03*
X217500D02*
D03*
X212500D02*
D03*
X207500D02*
D03*
X202500D02*
D03*
X197500D02*
D03*
X192500D02*
D03*
X187500D02*
D03*
X182500D02*
D03*
X177500D02*
D03*
X172500D02*
D03*
X167500D02*
D03*
D116*
X230500Y183500D02*
D03*
Y178500D02*
D03*
Y173500D02*
D03*
Y168500D02*
D03*
Y163500D02*
D03*
Y158500D02*
D03*
Y153500D02*
D03*
Y148500D02*
D03*
Y143500D02*
D03*
Y138500D02*
D03*
Y133500D02*
D03*
Y128500D02*
D03*
X159500D02*
D03*
Y133500D02*
D03*
Y138500D02*
D03*
Y143500D02*
D03*
Y148500D02*
D03*
Y153500D02*
D03*
Y158500D02*
D03*
Y163500D02*
D03*
Y168500D02*
D03*
Y173500D02*
D03*
Y178500D02*
D03*
Y183500D02*
D03*
D117*
X737500Y436500D02*
D03*
X729500D02*
D03*
X649500Y808500D02*
D03*
X641500D02*
D03*
X761500D02*
D03*
X433500Y436500D02*
D03*
X441500D02*
D03*
X449500D02*
D03*
X457500D02*
D03*
X465500D02*
D03*
X473500D02*
D03*
X481500D02*
D03*
X489500D02*
D03*
X497500D02*
D03*
X505500D02*
D03*
X513500D02*
D03*
X521500D02*
D03*
X529500D02*
D03*
X537500D02*
D03*
X545500D02*
D03*
X553500D02*
D03*
X561500D02*
D03*
X569500D02*
D03*
X577500D02*
D03*
X585500D02*
D03*
X593500D02*
D03*
X601500D02*
D03*
X609500D02*
D03*
X617500D02*
D03*
X625500D02*
D03*
X633500D02*
D03*
X641500D02*
D03*
X649500D02*
D03*
X657500D02*
D03*
X665500D02*
D03*
X673500D02*
D03*
X681500D02*
D03*
X689500D02*
D03*
X697500D02*
D03*
X705500D02*
D03*
X713500D02*
D03*
X721500D02*
D03*
X745500D02*
D03*
X753500D02*
D03*
X761500D02*
D03*
X753500Y808500D02*
D03*
X745500D02*
D03*
X737500D02*
D03*
X729500D02*
D03*
X721500D02*
D03*
X713500D02*
D03*
X705500D02*
D03*
X697500D02*
D03*
X689500D02*
D03*
X681500D02*
D03*
X673500D02*
D03*
X665500D02*
D03*
X657500D02*
D03*
X601500D02*
D03*
X593500D02*
D03*
X585500D02*
D03*
X577500D02*
D03*
X569500D02*
D03*
X561500D02*
D03*
X553500D02*
D03*
X545500D02*
D03*
X537500D02*
D03*
X529500D02*
D03*
X521500D02*
D03*
X513500D02*
D03*
X505500D02*
D03*
X497500D02*
D03*
X489500D02*
D03*
X481500D02*
D03*
X473500D02*
D03*
X465500D02*
D03*
X457500D02*
D03*
X449500D02*
D03*
X441500D02*
D03*
X433500D02*
D03*
X609500D02*
D03*
X617500D02*
D03*
X625500D02*
D03*
X633500D02*
D03*
D118*
X411500Y458500D02*
D03*
Y466500D02*
D03*
Y474500D02*
D03*
Y482500D02*
D03*
Y490500D02*
D03*
Y498500D02*
D03*
Y506500D02*
D03*
Y514500D02*
D03*
Y522500D02*
D03*
Y530500D02*
D03*
Y538500D02*
D03*
Y546500D02*
D03*
Y554500D02*
D03*
Y562500D02*
D03*
Y570500D02*
D03*
Y578500D02*
D03*
Y586500D02*
D03*
Y594500D02*
D03*
Y602500D02*
D03*
Y610500D02*
D03*
Y618500D02*
D03*
Y626500D02*
D03*
Y634500D02*
D03*
Y642500D02*
D03*
Y650500D02*
D03*
Y658500D02*
D03*
Y666500D02*
D03*
Y674500D02*
D03*
Y682500D02*
D03*
Y690500D02*
D03*
Y698500D02*
D03*
Y706500D02*
D03*
Y714500D02*
D03*
Y722500D02*
D03*
Y730500D02*
D03*
Y738500D02*
D03*
Y746500D02*
D03*
Y754500D02*
D03*
Y762500D02*
D03*
Y770500D02*
D03*
Y778500D02*
D03*
Y786500D02*
D03*
X783500Y458500D02*
D03*
Y466500D02*
D03*
Y474500D02*
D03*
Y482500D02*
D03*
Y490500D02*
D03*
Y498500D02*
D03*
Y506500D02*
D03*
Y514500D02*
D03*
Y522500D02*
D03*
Y530500D02*
D03*
Y538500D02*
D03*
Y546500D02*
D03*
Y554500D02*
D03*
Y562500D02*
D03*
Y570500D02*
D03*
Y578500D02*
D03*
Y586500D02*
D03*
Y594500D02*
D03*
Y602500D02*
D03*
Y610500D02*
D03*
Y618500D02*
D03*
Y626500D02*
D03*
Y634500D02*
D03*
Y642500D02*
D03*
Y650500D02*
D03*
Y658500D02*
D03*
Y666500D02*
D03*
Y674500D02*
D03*
Y682500D02*
D03*
Y690500D02*
D03*
Y698500D02*
D03*
Y706500D02*
D03*
Y714500D02*
D03*
Y722500D02*
D03*
Y730500D02*
D03*
Y738500D02*
D03*
Y746500D02*
D03*
Y754500D02*
D03*
Y762500D02*
D03*
Y770500D02*
D03*
Y778500D02*
D03*
Y786500D02*
D03*
D119*
Y808500D02*
D03*
X783500Y436500D02*
D03*
X411500Y808500D02*
D03*
Y436500D02*
D03*
D120*
X1437500Y110000D02*
D03*
X1487500D02*
D03*
D121*
X1302500Y58250D02*
D03*
Y16750D02*
D03*
X515000Y161750D02*
D03*
Y203250D02*
D03*
D122*
X1441750Y200000D02*
D03*
X1483250D02*
D03*
Y170150D02*
D03*
X1441750D02*
D03*
D123*
X1275000Y14000D02*
D03*
Y41000D02*
D03*
X812500Y831000D02*
D03*
Y804000D02*
D03*
X297000Y377500D02*
D03*
Y350500D02*
D03*
X201000Y427500D02*
D03*
Y400500D02*
D03*
X274000Y318500D02*
D03*
Y345500D02*
D03*
X1392500Y276500D02*
D03*
Y303500D02*
D03*
X1280000Y406000D02*
D03*
Y379000D02*
D03*
X367500Y801500D02*
D03*
Y828500D02*
D03*
X297000Y208500D02*
D03*
Y235500D02*
D03*
D124*
X9500Y167500D02*
D03*
X25500D02*
D03*
X9500Y690000D02*
D03*
X25500D02*
D03*
X250000Y164000D02*
D03*
X266000D02*
D03*
X778000Y277500D02*
D03*
X762000D02*
D03*
X1274500Y515000D02*
D03*
X1290500D02*
D03*
D125*
X882500Y810498D02*
D03*
Y824498D02*
D03*
X262500Y263002D02*
D03*
Y277002D02*
D03*
X325000Y263002D02*
D03*
Y277002D02*
D03*
X312500Y263002D02*
D03*
Y277002D02*
D03*
X275000Y263002D02*
D03*
Y277002D02*
D03*
X287500Y263002D02*
D03*
Y277002D02*
D03*
X300000Y263002D02*
D03*
Y277002D02*
D03*
X815000Y129498D02*
D03*
Y115498D02*
D03*
X800000Y129498D02*
D03*
Y115498D02*
D03*
X1120000Y103002D02*
D03*
Y117002D02*
D03*
X1250000Y71998D02*
D03*
Y57998D02*
D03*
X1200000Y475502D02*
D03*
Y489502D02*
D03*
X210500Y224502D02*
D03*
Y210502D02*
D03*
X825000Y422002D02*
D03*
Y408002D02*
D03*
X912500Y452002D02*
D03*
Y438002D02*
D03*
X812500Y422002D02*
D03*
Y408002D02*
D03*
X887500Y452002D02*
D03*
Y438002D02*
D03*
X875000Y422002D02*
D03*
Y408002D02*
D03*
Y452002D02*
D03*
Y438002D02*
D03*
X862500Y422002D02*
D03*
Y408002D02*
D03*
X862500Y452002D02*
D03*
Y438002D02*
D03*
X810000Y754502D02*
D03*
Y740502D02*
D03*
X887500Y422002D02*
D03*
Y408002D02*
D03*
X900000Y452002D02*
D03*
Y438002D02*
D03*
X1297500Y572998D02*
D03*
Y586998D02*
D03*
X832500Y823502D02*
D03*
Y809502D02*
D03*
X1282500Y572998D02*
D03*
Y586998D02*
D03*
X272000Y417998D02*
D03*
Y431998D02*
D03*
Y391998D02*
D03*
Y405998D02*
D03*
X500000Y327000D02*
D03*
Y313000D02*
D03*
Y362000D02*
D03*
Y348000D02*
D03*
X455000Y29502D02*
D03*
Y15502D02*
D03*
X507500Y242002D02*
D03*
Y228002D02*
D03*
X522500Y242002D02*
D03*
Y228002D02*
D03*
X1460000Y414502D02*
D03*
Y400502D02*
D03*
X1385000Y392002D02*
D03*
Y378002D02*
D03*
X305000Y814502D02*
D03*
Y800502D02*
D03*
X317500Y814502D02*
D03*
Y800502D02*
D03*
X330000Y814502D02*
D03*
Y800502D02*
D03*
X292500Y814502D02*
D03*
Y800502D02*
D03*
X385000Y752002D02*
D03*
Y738002D02*
D03*
X1147000Y712998D02*
D03*
Y726998D02*
D03*
X1147000Y699502D02*
D03*
Y685502D02*
D03*
X1128000Y699502D02*
D03*
Y685502D02*
D03*
X1128000Y712998D02*
D03*
Y726998D02*
D03*
X1082000Y699502D02*
D03*
Y685502D02*
D03*
X1082000Y712998D02*
D03*
Y726998D02*
D03*
X1102000Y712998D02*
D03*
Y726998D02*
D03*
X1102000Y699502D02*
D03*
Y685502D02*
D03*
X1205000Y695498D02*
D03*
Y709498D02*
D03*
X1235000Y709502D02*
D03*
Y695502D02*
D03*
X1250000Y695498D02*
D03*
Y709498D02*
D03*
X1205000Y747002D02*
D03*
Y733002D02*
D03*
X1220000Y747002D02*
D03*
Y733002D02*
D03*
X60000Y111498D02*
D03*
Y125498D02*
D03*
X60000Y155502D02*
D03*
Y141502D02*
D03*
X210000Y242998D02*
D03*
Y256998D02*
D03*
X163000Y207998D02*
D03*
Y221998D02*
D03*
X188000Y210498D02*
D03*
Y224498D02*
D03*
X152500Y98002D02*
D03*
Y84002D02*
D03*
X215000Y98002D02*
D03*
Y84002D02*
D03*
X235500Y210498D02*
D03*
Y224498D02*
D03*
X223000Y210498D02*
D03*
Y224498D02*
D03*
X124000Y399998D02*
D03*
Y413998D02*
D03*
X166000Y429002D02*
D03*
Y415002D02*
D03*
X218000Y429002D02*
D03*
Y415002D02*
D03*
X515000Y399502D02*
D03*
Y385502D02*
D03*
X675000Y399502D02*
D03*
Y385502D02*
D03*
X257000Y347002D02*
D03*
Y333002D02*
D03*
X810000Y784502D02*
D03*
Y770502D02*
D03*
X1372500Y302002D02*
D03*
Y288002D02*
D03*
X280000Y814502D02*
D03*
Y800502D02*
D03*
X1220000Y709502D02*
D03*
Y695502D02*
D03*
X907500Y682002D02*
D03*
Y668002D02*
D03*
X1205000Y762998D02*
D03*
Y776998D02*
D03*
X1275000Y714502D02*
D03*
Y700502D02*
D03*
X385000Y815498D02*
D03*
Y829498D02*
D03*
X1445000Y414502D02*
D03*
Y400502D02*
D03*
X515000Y327000D02*
D03*
Y313000D02*
D03*
Y362000D02*
D03*
Y348000D02*
D03*
X120000Y664498D02*
D03*
Y650498D02*
D03*
X162500Y709498D02*
D03*
Y695498D02*
D03*
Y759498D02*
D03*
Y745498D02*
D03*
X120000Y695502D02*
D03*
Y709502D02*
D03*
X315000Y210502D02*
D03*
Y224502D02*
D03*
X930000Y471998D02*
D03*
Y457998D02*
D03*
X202500Y97998D02*
D03*
Y83998D02*
D03*
X190000Y97998D02*
D03*
Y83998D02*
D03*
X177500Y97998D02*
D03*
Y83998D02*
D03*
X165000Y97998D02*
D03*
Y83998D02*
D03*
X140000Y97998D02*
D03*
Y83998D02*
D03*
X127500Y97998D02*
D03*
Y83998D02*
D03*
X115000Y97998D02*
D03*
Y83998D02*
D03*
X445000Y194498D02*
D03*
Y180498D02*
D03*
X420000Y194498D02*
D03*
Y180498D02*
D03*
X395000Y194498D02*
D03*
Y180498D02*
D03*
X380000Y194498D02*
D03*
Y180498D02*
D03*
X342500Y194498D02*
D03*
Y180498D02*
D03*
X327500Y194498D02*
D03*
Y180498D02*
D03*
X457500Y194498D02*
D03*
Y180498D02*
D03*
X432500Y194498D02*
D03*
Y180498D02*
D03*
X355000Y194498D02*
D03*
Y180498D02*
D03*
X315000Y194498D02*
D03*
Y180498D02*
D03*
X407500Y194498D02*
D03*
Y180498D02*
D03*
X692500Y315502D02*
D03*
Y329502D02*
D03*
X707500Y315502D02*
D03*
Y329502D02*
D03*
X850000Y421998D02*
D03*
Y407998D02*
D03*
X837500Y421998D02*
D03*
Y407998D02*
D03*
X1247500Y196998D02*
D03*
Y182998D02*
D03*
X472500Y194498D02*
D03*
Y180498D02*
D03*
X487500Y194498D02*
D03*
Y180498D02*
D03*
X457500Y128002D02*
D03*
Y142002D02*
D03*
X490000Y128002D02*
D03*
Y142002D02*
D03*
D126*
X83500Y461000D02*
D03*
Y471000D02*
D03*
D127*
X150000Y372000D02*
D03*
X140000D02*
D03*
X93500Y559000D02*
D03*
X103500D02*
D03*
X93500Y461000D02*
D03*
X103500D02*
D03*
D128*
X40250Y277500D02*
D03*
X69750D02*
D03*
X67750Y500000D02*
D03*
X97250D02*
D03*
X67750Y587500D02*
D03*
X97250D02*
D03*
D129*
X55000Y262250D02*
D03*
X82500Y484750D02*
D03*
Y572250D02*
D03*
D130*
X1135500Y102125D02*
D03*
X1154500D02*
D03*
X1283000Y602125D02*
D03*
X1302000D02*
D03*
X1213000Y202875D02*
D03*
X1232000D02*
D03*
D131*
X1145000Y122875D02*
D03*
X1292500Y622875D02*
D03*
X1222500Y182125D02*
D03*
D132*
X1230000Y67000D02*
D03*
Y33000D02*
D03*
X1207500D02*
D03*
Y67000D02*
D03*
X1185000D02*
D03*
Y33000D02*
D03*
D133*
X194625Y789500D02*
D03*
Y770500D02*
D03*
X847125Y827000D02*
D03*
Y808000D02*
D03*
X687125Y65500D02*
D03*
Y84500D02*
D03*
D134*
X215375Y780000D02*
D03*
X867875Y817500D02*
D03*
X707875Y75000D02*
D03*
D135*
X1155500Y612500D02*
D03*
X1244500D02*
D03*
D136*
X873201Y622500D02*
D03*
X1106799D02*
D03*
D137*
X240250Y569750D02*
D03*
X119750D02*
D03*
Y450250D02*
D03*
X240250D02*
D03*
D138*
X229000Y569750D02*
D03*
X222000D02*
D03*
X215000D02*
D03*
X208000D02*
D03*
X201000D02*
D03*
X194000D02*
D03*
X187000D02*
D03*
X180000D02*
D03*
X173000D02*
D03*
X166000D02*
D03*
X159000D02*
D03*
X152000D02*
D03*
X145000D02*
D03*
X138000D02*
D03*
X131000D02*
D03*
Y450250D02*
D03*
X138000D02*
D03*
X145000D02*
D03*
X152000D02*
D03*
X159000D02*
D03*
X166000D02*
D03*
X173000D02*
D03*
X180000D02*
D03*
X187000D02*
D03*
X194000D02*
D03*
X201000D02*
D03*
X208000D02*
D03*
X215000D02*
D03*
X222000D02*
D03*
X229000D02*
D03*
D139*
X119750Y559000D02*
D03*
X240250Y461000D02*
D03*
X119750Y552000D02*
D03*
Y545000D02*
D03*
Y538000D02*
D03*
Y531000D02*
D03*
Y524000D02*
D03*
Y517000D02*
D03*
Y510000D02*
D03*
Y503000D02*
D03*
Y496000D02*
D03*
Y489000D02*
D03*
Y482000D02*
D03*
Y475000D02*
D03*
Y468000D02*
D03*
Y461000D02*
D03*
X240250Y468000D02*
D03*
Y475000D02*
D03*
Y482000D02*
D03*
Y489000D02*
D03*
Y496000D02*
D03*
Y503000D02*
D03*
Y510000D02*
D03*
Y517000D02*
D03*
Y524000D02*
D03*
Y531000D02*
D03*
Y538000D02*
D03*
Y545000D02*
D03*
Y552000D02*
D03*
Y559000D02*
D03*
D140*
X204500Y548500D02*
D03*
X190500D02*
D03*
X169500D02*
D03*
X155500D02*
D03*
X141500D02*
D03*
Y534500D02*
D03*
Y520500D02*
D03*
X218500Y534500D02*
D03*
X204500D02*
D03*
X190500D02*
D03*
X218500Y520500D02*
D03*
X204500D02*
D03*
X190500D02*
D03*
X169500D02*
D03*
Y534500D02*
D03*
X155500D02*
D03*
Y520500D02*
D03*
X218500Y499500D02*
D03*
Y485500D02*
D03*
Y471500D02*
D03*
X204500Y499500D02*
D03*
X190500D02*
D03*
X204500Y485500D02*
D03*
X190500D02*
D03*
X204500Y471500D02*
D03*
X190500D02*
D03*
X169500Y499500D02*
D03*
Y485500D02*
D03*
Y471500D02*
D03*
X155500Y499500D02*
D03*
X141500D02*
D03*
X155500Y485500D02*
D03*
X141500D02*
D03*
X155500Y471500D02*
D03*
X141500D02*
D03*
X218500Y548500D02*
D03*
D141*
X176000Y342000D02*
D03*
D142*
X234000Y365000D02*
D03*
Y342000D02*
D03*
Y319000D02*
D03*
D143*
X235500Y396500D02*
D03*
X245000D02*
D03*
X254500D02*
D03*
Y425500D02*
D03*
X235500D02*
D03*
D144*
X626750Y303200D02*
D03*
X601350D02*
D03*
X588650D02*
D03*
X563250D02*
D03*
X639450Y391800D02*
D03*
X626750D02*
D03*
X614050D02*
D03*
X601350D02*
D03*
X588650D02*
D03*
X575950D02*
D03*
X563250D02*
D03*
X550550D02*
D03*
X575950Y303200D02*
D03*
X550550D02*
D03*
X639450D02*
D03*
X614050D02*
D03*
D145*
X1051000Y333000D02*
D03*
Y357000D02*
D03*
X994000Y333000D02*
D03*
Y357000D02*
D03*
D146*
X167499Y249002D02*
D03*
X183501D02*
D03*
X167499Y270998D02*
D03*
X183501D02*
D03*
D147*
X151000Y427250D02*
D03*
Y400750D02*
D03*
X139000D02*
D03*
Y427250D02*
D03*
D148*
X1435000Y332000D02*
D03*
Y268000D02*
D03*
D149*
X1227500Y791000D02*
D03*
Y764000D02*
D03*
D150*
X241500Y292000D02*
D03*
X214500D02*
D03*
X1261500Y470000D02*
D03*
X1288500D02*
D03*
D151*
X116035Y181036D02*
D03*
X108965Y173965D02*
D03*
X123965Y188964D02*
D03*
X131036Y196035D02*
D03*
X93965Y171465D02*
D03*
X101036Y178535D02*
D03*
X61465Y221465D02*
D03*
X68536Y228535D02*
D03*
X76465Y206465D02*
D03*
X83536Y213535D02*
D03*
X91465Y191464D02*
D03*
X98535Y198535D02*
D03*
X138965Y203964D02*
D03*
X146035Y211035D02*
D03*
D152*
X93965Y216035D02*
D03*
X101035Y208965D02*
D03*
X78965Y231035D02*
D03*
X86035Y223964D02*
D03*
X118965Y211035D02*
D03*
X126035Y203965D02*
D03*
X108965Y201035D02*
D03*
X116035Y193965D02*
D03*
X63965Y246035D02*
D03*
X71035Y238964D02*
D03*
D153*
X1307000Y302500D02*
D03*
X1348000D02*
D03*
D154*
X1144000Y472500D02*
D03*
X1096000D02*
D03*
D155*
X700500Y287500D02*
D03*
X739500D02*
D03*
D156*
X80000Y146000D02*
D03*
Y121000D02*
D03*
D157*
X1355000Y155000D02*
D03*
Y130000D02*
D03*
Y105000D02*
D03*
X1405000Y155000D02*
D03*
Y130000D02*
D03*
Y105000D02*
D03*
X1380000Y33500D02*
D03*
Y226500D02*
D03*
X1405000Y33500D02*
D03*
X1430000D02*
D03*
Y226500D02*
D03*
X1405000D02*
D03*
X1355000D02*
D03*
X1330000D02*
D03*
Y33500D02*
D03*
X1355000D02*
D03*
X145000Y816500D02*
D03*
X170000D02*
D03*
Y623500D02*
D03*
X145000D02*
D03*
X95000D02*
D03*
X70000D02*
D03*
Y816500D02*
D03*
X95000D02*
D03*
X120000Y623500D02*
D03*
Y816500D02*
D03*
X95000Y745000D02*
D03*
Y720000D02*
D03*
Y695000D02*
D03*
X145000Y745000D02*
D03*
Y720000D02*
D03*
Y695000D02*
D03*
D158*
X1380000Y91000D02*
D03*
Y169000D02*
D03*
X120000Y681000D02*
D03*
Y759000D02*
D03*
D159*
X1380000Y65000D02*
D03*
X120000Y785000D02*
D03*
D160*
X736100Y355200D02*
D03*
Y329800D02*
D03*
X761500D02*
D03*
Y355200D02*
D03*
X786900Y329800D02*
D03*
Y355200D02*
D03*
X812300Y329800D02*
D03*
Y355200D02*
D03*
X837700Y329800D02*
D03*
Y355200D02*
D03*
X863100Y329800D02*
D03*
Y355200D02*
D03*
X888500Y329800D02*
D03*
Y355200D02*
D03*
X913900Y329800D02*
D03*
X133200Y57000D02*
D03*
X158600D02*
D03*
X184000D02*
D03*
X209400D02*
D03*
X234800D02*
D03*
X260200D02*
D03*
X82400Y82400D02*
D03*
X240000Y757300D02*
D03*
X879800Y492500D02*
D03*
X905200D02*
D03*
X930600D02*
D03*
X572300Y77500D02*
D03*
D161*
X913900Y355200D02*
D03*
X107800Y57000D02*
D03*
X854400Y492500D02*
D03*
X597700Y77500D02*
D03*
D162*
X622646Y164792D02*
D03*
X597500Y215000D02*
D03*
X572608Y164792D02*
D03*
X547716Y215000D02*
D03*
X784892Y215104D02*
D03*
X685108D02*
D03*
X710000Y164896D02*
D03*
X734892Y215104D02*
D03*
X760038Y164896D02*
D03*
D163*
X870000Y242500D02*
D03*
X920000Y207500D02*
D03*
X870000Y172500D02*
D03*
X1117500Y290000D02*
D03*
X1167500Y325000D02*
D03*
X1117500Y360000D02*
D03*
D164*
X1180000Y472500D02*
D03*
Y500000D02*
D03*
X1140000Y412000D02*
D03*
X1110000D02*
D03*
X175400Y657500D02*
D03*
X150000D02*
D03*
X1010000Y455000D02*
D03*
X1035000Y430000D02*
D03*
X985000D02*
D03*
Y480000D02*
D03*
X1035000D02*
D03*
X960000Y455000D02*
D03*
X1345000Y557500D02*
D03*
X1315000D02*
D03*
Y427500D02*
D03*
D165*
X82400Y57000D02*
D03*
X240000Y782700D02*
D03*
D166*
X1200000Y650500D02*
D03*
Y574500D02*
D03*
D167*
X1141400Y170150D02*
D03*
X1039800D02*
D03*
X963600D02*
D03*
X989000Y246350D02*
D03*
X1141400D02*
D03*
D168*
X730200Y30000D02*
D03*
X704800D02*
D03*
D169*
X717500D02*
D03*
D170*
X1415000Y583000D02*
D03*
Y752000D02*
D03*
D171*
X310710Y420000D02*
D03*
X1190000D02*
D03*
X1467500Y32500D02*
D03*
X32500Y817500D02*
D03*
D172*
Y32500D02*
D03*
X1467500Y817500D02*
D03*
M02*
