G04*
G04 #@! TF.GenerationSoftware,Altium Limited,Altium Designer,18.0.7 (293)*
G04*
G04 Layer_Color=16711935*
%FSLAX44Y44*%
%MOMM*%
G71*
G01*
G75*
%ADD13C,0.2500*%
%ADD19C,0.2000*%
%ADD123R,1.0000X0.9000*%
%ADD128R,0.9000X1.0000*%
%ADD157C,1.5000*%
%ADD158C,1.3000*%
%ADD159C,1.8000*%
%ADD160C,1.6000*%
%ADD161R,1.6000X1.6000*%
%ADD162C,2.1000*%
%ADD163C,2.0000*%
%ADD164C,1.9000*%
%ADD165R,1.6000X1.6000*%
%ADD166C,1.7000*%
%ADD167C,2.4000*%
%ADD168O,1.1000X2.1000*%
%ADD169O,1.1000X2.1000*%
%ADD170C,3.1000*%
%ADD171C,5.1000*%
%ADD172C,6.1000*%
%ADD200C,1.1000*%
%ADD201R,0.6500X0.3000*%
%ADD202R,0.8500X1.6000*%
G36*
X1202500Y44755D02*
X1199248D01*
X1198976Y44765D01*
X1198714Y44784D01*
X1198470Y44821D01*
X1198245Y44877D01*
X1198039Y44933D01*
X1197842Y45008D01*
X1197654Y45093D01*
X1197495Y45187D01*
X1197336Y45280D01*
X1197195Y45393D01*
X1197073Y45505D01*
X1196951Y45618D01*
X1196848Y45739D01*
X1196755Y45871D01*
X1196670Y45992D01*
X1196586Y46124D01*
X1196464Y46377D01*
X1196370Y46630D01*
X1196305Y46855D01*
X1196258Y47061D01*
X1196239Y47155D01*
X1196230Y47239D01*
X1196220Y47314D01*
Y47370D01*
X1196211Y47427D01*
Y47464D01*
Y47483D01*
Y47492D01*
X1196220Y47773D01*
X1196258Y48026D01*
X1196305Y48261D01*
X1196380Y48476D01*
X1196455Y48673D01*
X1196548Y48842D01*
X1196642Y48992D01*
X1196745Y49123D01*
X1196848Y49245D01*
X1196942Y49338D01*
X1197036Y49423D01*
X1197111Y49479D01*
X1197176Y49535D01*
X1197233Y49563D01*
X1197270Y49582D01*
X1197279Y49592D01*
X1197111Y49732D01*
X1196970Y49882D01*
X1196839Y50041D01*
X1196736Y50201D01*
X1196642Y50370D01*
X1196567Y50529D01*
X1196501Y50688D01*
X1196455Y50838D01*
X1196408Y50988D01*
X1196380Y51119D01*
X1196361Y51232D01*
X1196352Y51344D01*
X1196342Y51429D01*
X1196333Y51485D01*
Y51532D01*
Y51541D01*
X1196342Y51766D01*
X1196370Y51982D01*
X1196408Y52178D01*
X1196455Y52366D01*
X1196520Y52544D01*
X1196586Y52703D01*
X1196661Y52853D01*
X1196736Y52984D01*
X1196811Y53106D01*
X1196886Y53209D01*
X1196951Y53303D01*
X1197017Y53378D01*
X1197064Y53434D01*
X1197101Y53472D01*
X1197130Y53500D01*
X1197139Y53509D01*
X1197298Y53641D01*
X1197467Y53753D01*
X1197654Y53856D01*
X1197832Y53941D01*
X1198020Y54006D01*
X1198207Y54072D01*
X1198385Y54119D01*
X1198564Y54156D01*
X1198732Y54184D01*
X1198882Y54212D01*
X1199013Y54231D01*
X1199135Y54240D01*
X1199238Y54250D01*
X1202500D01*
Y44755D01*
D02*
G37*
G36*
Y72755D02*
X1199941D01*
X1199651Y72765D01*
X1199370Y72802D01*
X1199098Y72859D01*
X1198845Y72924D01*
X1198610Y73008D01*
X1198385Y73102D01*
X1198189Y73205D01*
X1198001Y73308D01*
X1197832Y73402D01*
X1197682Y73505D01*
X1197551Y73599D01*
X1197448Y73683D01*
X1197364Y73749D01*
X1197298Y73805D01*
X1197261Y73843D01*
X1197251Y73852D01*
X1197008Y74114D01*
X1196801Y74405D01*
X1196614Y74714D01*
X1196464Y75033D01*
X1196323Y75361D01*
X1196220Y75689D01*
X1196127Y76008D01*
X1196052Y76317D01*
X1195995Y76617D01*
X1195958Y76889D01*
X1195920Y77132D01*
X1195911Y77245D01*
X1195902Y77348D01*
X1195892Y77442D01*
Y77526D01*
Y77601D01*
X1195883Y77657D01*
Y77704D01*
Y77742D01*
Y77760D01*
Y77770D01*
X1195902Y78163D01*
X1195939Y78538D01*
X1196005Y78894D01*
X1196098Y79222D01*
X1196202Y79522D01*
X1196314Y79804D01*
X1196436Y80057D01*
X1196558Y80291D01*
X1196689Y80497D01*
X1196811Y80675D01*
X1196923Y80825D01*
X1197026Y80956D01*
X1197120Y81050D01*
X1197186Y81125D01*
X1197223Y81163D01*
X1197242Y81181D01*
X1197458Y81369D01*
X1197682Y81528D01*
X1197917Y81669D01*
X1198142Y81791D01*
X1198376Y81894D01*
X1198601Y81978D01*
X1198817Y82044D01*
X1199023Y82100D01*
X1199220Y82147D01*
X1199398Y82175D01*
X1199557Y82203D01*
X1199698Y82212D01*
X1199810Y82222D01*
X1199885Y82231D01*
X1202500D01*
Y72755D01*
D02*
G37*
G36*
X1223137Y79369D02*
X1223222Y79360D01*
X1223259Y79351D01*
X1223287Y79341D01*
X1223306Y79332D01*
X1223315D01*
X1231601Y76117D01*
X1231685Y76080D01*
X1231760Y76033D01*
X1231816Y75976D01*
X1231873Y75920D01*
X1231957Y75789D01*
X1232013Y75658D01*
X1232041Y75536D01*
X1232060Y75423D01*
X1232069Y75386D01*
Y75330D01*
X1232060Y75217D01*
X1232051Y75124D01*
X1231985Y74945D01*
X1231901Y74805D01*
X1231807Y74702D01*
X1231713Y74617D01*
X1231629Y74561D01*
X1231563Y74533D01*
X1231554Y74524D01*
X1231545D01*
X1223297Y71449D01*
X1223203Y71431D01*
X1223128Y71421D01*
X1223062Y71412D01*
X1223053D01*
X1223044D01*
X1222941Y71421D01*
X1222847Y71449D01*
X1222762Y71478D01*
X1222697Y71524D01*
X1222641Y71562D01*
X1222603Y71590D01*
X1222575Y71618D01*
X1222566Y71627D01*
X1222500Y71712D01*
X1222453Y71796D01*
X1222425Y71881D01*
X1222406Y71965D01*
X1222387Y72031D01*
X1222378Y72087D01*
Y72134D01*
X1222387Y72218D01*
X1222397Y72293D01*
X1222444Y72424D01*
X1222519Y72537D01*
X1222603Y72621D01*
X1222678Y72687D01*
X1222753Y72733D01*
X1222800Y72762D01*
X1222819Y72771D01*
X1224121Y73258D01*
Y77513D01*
X1222809Y78020D01*
X1222734Y78057D01*
X1222669Y78095D01*
X1222556Y78188D01*
X1222481Y78301D01*
X1222434Y78404D01*
X1222397Y78507D01*
X1222387Y78591D01*
X1222378Y78648D01*
Y78666D01*
X1222387Y78769D01*
X1222406Y78854D01*
X1222434Y78938D01*
X1222472Y79013D01*
X1222500Y79069D01*
X1222528Y79116D01*
X1222547Y79144D01*
X1222556Y79154D01*
X1222631Y79229D01*
X1222716Y79285D01*
X1222791Y79322D01*
X1222875Y79351D01*
X1222941Y79369D01*
X1222997Y79379D01*
X1223034D01*
X1223044D01*
X1223137Y79369D01*
D02*
G37*
G36*
X1223493Y69088D02*
X1223597Y69060D01*
X1223700Y69013D01*
X1223784Y68975D01*
X1223850Y68928D01*
X1223896Y68881D01*
X1223934Y68853D01*
X1223943Y68844D01*
X1224028Y68750D01*
X1224093Y68647D01*
X1224131Y68553D01*
X1224168Y68460D01*
X1224187Y68385D01*
X1224196Y68319D01*
Y68263D01*
X1224187Y68132D01*
X1224159Y68019D01*
X1224112Y67916D01*
X1224075Y67822D01*
X1224028Y67757D01*
X1223981Y67710D01*
X1223953Y67672D01*
X1223943Y67663D01*
X1223850Y67588D01*
X1223756Y67532D01*
X1223653Y67485D01*
X1223568Y67457D01*
X1223484Y67438D01*
X1223428Y67429D01*
X1223390D01*
X1223372D01*
X1223240Y67438D01*
X1223128Y67466D01*
X1223025Y67504D01*
X1222931Y67551D01*
X1222866Y67588D01*
X1222819Y67625D01*
X1222781Y67654D01*
X1222772Y67663D01*
X1222697Y67757D01*
X1222641Y67860D01*
X1222594Y67954D01*
X1222566Y68047D01*
X1222547Y68132D01*
X1222538Y68207D01*
Y68263D01*
X1222547Y68385D01*
X1222575Y68497D01*
X1222613Y68591D01*
X1222659Y68685D01*
X1222697Y68750D01*
X1222734Y68797D01*
X1222762Y68835D01*
X1222772Y68844D01*
X1222866Y68928D01*
X1222969Y68994D01*
X1223062Y69031D01*
X1223156Y69069D01*
X1223240Y69088D01*
X1223315Y69097D01*
X1223353D01*
X1223372D01*
X1223493Y69088D01*
D02*
G37*
G36*
X1229717Y65657D02*
X1229811Y65629D01*
X1229895Y65592D01*
X1229970Y65554D01*
X1230026Y65517D01*
X1230073Y65479D01*
X1230101Y65451D01*
X1230110Y65442D01*
X1230176Y65357D01*
X1230232Y65264D01*
X1230270Y65179D01*
X1230289Y65104D01*
X1230307Y65039D01*
X1230317Y64982D01*
Y64935D01*
X1230307Y64851D01*
X1230298Y64767D01*
X1230251Y64636D01*
X1230176Y64532D01*
X1230092Y64448D01*
X1230007Y64392D01*
X1229942Y64354D01*
X1229886Y64336D01*
X1229876Y64326D01*
X1229867D01*
X1224646Y62986D01*
X1229923Y61215D01*
X1229989Y61233D01*
X1230054D01*
X1230110Y61224D01*
X1230148Y61205D01*
X1230223Y61149D01*
X1230270Y61074D01*
X1230298Y60999D01*
X1230307Y60924D01*
X1230317Y60868D01*
Y60849D01*
X1230307Y60746D01*
X1230289Y60662D01*
X1230251Y60577D01*
X1230223Y60502D01*
X1230185Y60446D01*
X1230148Y60399D01*
X1230129Y60371D01*
X1230120Y60362D01*
X1230045Y60296D01*
X1229961Y60240D01*
X1229876Y60202D01*
X1229801Y60184D01*
X1229736Y60165D01*
X1229679Y60156D01*
X1229642D01*
X1229632D01*
X1229529Y60165D01*
X1229445Y60174D01*
X1229408Y60184D01*
X1229380D01*
X1229361Y60193D01*
X1229351D01*
X1222716Y62292D01*
X1222650Y62321D01*
X1222594Y62358D01*
X1222509Y62452D01*
X1222444Y62574D01*
X1222406Y62695D01*
X1222378Y62817D01*
X1222369Y62920D01*
X1222359Y62958D01*
Y63014D01*
X1222369Y63127D01*
X1222378Y63220D01*
X1222406Y63314D01*
X1222434Y63398D01*
X1222509Y63530D01*
X1222594Y63623D01*
X1222678Y63698D01*
X1222753Y63745D01*
X1222809Y63764D01*
X1222819Y63773D01*
X1222828D01*
X1229426Y65638D01*
X1229492Y65657D01*
X1229548Y65667D01*
X1229595D01*
X1229614D01*
X1229717Y65657D01*
D02*
G37*
G36*
X1229726Y58759D02*
X1229829Y58740D01*
X1229923Y58703D01*
X1230007Y58656D01*
X1230073Y58609D01*
X1230129Y58553D01*
X1230176Y58487D01*
X1230214Y58422D01*
X1230260Y58290D01*
X1230289Y58187D01*
X1230298Y58140D01*
Y53492D01*
X1222500D01*
Y58075D01*
X1222509Y58197D01*
X1222528Y58300D01*
X1222566Y58393D01*
X1222613Y58478D01*
X1222659Y58543D01*
X1222725Y58600D01*
X1222791Y58646D01*
X1222856Y58684D01*
X1222978Y58731D01*
X1223091Y58759D01*
X1223137Y58768D01*
X1223175D01*
X1223194D01*
X1223203D01*
X1223325Y58759D01*
X1223428Y58740D01*
X1223522Y58703D01*
X1223606Y58656D01*
X1223672Y58609D01*
X1223728Y58553D01*
X1223775Y58487D01*
X1223812Y58422D01*
X1223859Y58290D01*
X1223887Y58187D01*
X1223896Y58140D01*
Y54851D01*
X1226090D01*
Y57869D01*
X1226099Y57990D01*
X1226118Y58094D01*
X1226155Y58187D01*
X1226202Y58262D01*
X1226249Y58328D01*
X1226315Y58384D01*
X1226380Y58431D01*
X1226446Y58468D01*
X1226568Y58515D01*
X1226680Y58543D01*
X1226727Y58553D01*
X1226765D01*
X1226783D01*
X1226793D01*
X1226915Y58543D01*
X1227018Y58525D01*
X1227111Y58487D01*
X1227196Y58450D01*
X1227261Y58393D01*
X1227318Y58337D01*
X1227364Y58272D01*
X1227402Y58215D01*
X1227449Y58084D01*
X1227477Y57972D01*
X1227486Y57934D01*
Y54851D01*
X1228911D01*
Y58075D01*
X1228920Y58197D01*
X1228939Y58300D01*
X1228977Y58393D01*
X1229023Y58478D01*
X1229070Y58543D01*
X1229126Y58600D01*
X1229192Y58646D01*
X1229258Y58684D01*
X1229389Y58731D01*
X1229492Y58759D01*
X1229539Y58768D01*
X1229576D01*
X1229595D01*
X1229604D01*
X1229726Y58759D01*
D02*
G37*
G36*
X1229398Y51833D02*
X1229623Y51804D01*
X1229829Y51767D01*
X1230026Y51711D01*
X1230214Y51645D01*
X1230382Y51570D01*
X1230542Y51495D01*
X1230682Y51420D01*
X1230814Y51336D01*
X1230926Y51261D01*
X1231020Y51186D01*
X1231095Y51120D01*
X1231160Y51064D01*
X1231207Y51027D01*
X1231235Y50999D01*
X1231245Y50989D01*
X1231376Y50839D01*
X1231488Y50680D01*
X1231582Y50511D01*
X1231666Y50352D01*
X1231741Y50192D01*
X1231798Y50024D01*
X1231844Y49874D01*
X1231882Y49724D01*
X1231910Y49583D01*
X1231938Y49461D01*
X1231957Y49349D01*
X1231966Y49246D01*
X1231976Y49171D01*
Y45000D01*
X1223109D01*
X1222978Y45009D01*
X1222875Y45028D01*
X1222772Y45066D01*
X1222697Y45113D01*
X1222622Y45159D01*
X1222566Y45216D01*
X1222519Y45281D01*
X1222481Y45347D01*
X1222425Y45478D01*
X1222397Y45581D01*
Y45628D01*
X1222387Y45665D01*
Y45694D01*
X1222397Y45815D01*
X1222416Y45928D01*
X1222453Y46022D01*
X1222500Y46097D01*
X1222556Y46172D01*
X1222613Y46228D01*
X1222678Y46275D01*
X1222753Y46312D01*
X1222884Y46359D01*
X1222997Y46387D01*
X1223044Y46396D01*
X1223081D01*
X1223100D01*
X1223109D01*
X1226446D01*
Y47952D01*
X1222706Y50577D01*
X1222603Y50661D01*
X1222519Y50755D01*
X1222462Y50848D01*
X1222425Y50933D01*
X1222406Y51008D01*
X1222397Y51073D01*
X1222387Y51111D01*
Y51130D01*
X1222397Y51233D01*
X1222425Y51317D01*
X1222453Y51402D01*
X1222500Y51476D01*
X1222538Y51533D01*
X1222566Y51580D01*
X1222594Y51608D01*
X1222603Y51617D01*
X1222687Y51692D01*
X1222772Y51748D01*
X1222856Y51786D01*
X1222941Y51814D01*
X1223006Y51833D01*
X1223062Y51842D01*
X1223100D01*
X1223109D01*
X1223184D01*
X1223259Y51823D01*
X1223325Y51804D01*
X1223390Y51786D01*
X1223437Y51767D01*
X1223475Y51748D01*
X1223493Y51739D01*
X1223503Y51729D01*
X1226446Y49546D01*
X1226455Y49668D01*
X1226465Y49780D01*
X1226521Y49996D01*
X1226596Y50183D01*
X1226680Y50342D01*
X1226765Y50464D01*
X1226830Y50558D01*
X1226886Y50614D01*
X1226896Y50633D01*
X1226905D01*
X1227055Y50848D01*
X1227224Y51036D01*
X1227402Y51195D01*
X1227589Y51336D01*
X1227777Y51448D01*
X1227964Y51551D01*
X1228152Y51626D01*
X1228330Y51692D01*
X1228499Y51739D01*
X1228658Y51776D01*
X1228798Y51804D01*
X1228920Y51823D01*
X1229023Y51833D01*
X1229098Y51842D01*
X1229145D01*
X1229164D01*
X1229398Y51833D01*
D02*
G37*
%LPC*%
G36*
X1201122Y52835D02*
X1199370D01*
X1199098Y52816D01*
X1198854Y52778D01*
X1198639Y52731D01*
X1198470Y52666D01*
X1198395Y52638D01*
X1198329Y52600D01*
X1198273Y52572D01*
X1198235Y52553D01*
X1198198Y52525D01*
X1198170Y52516D01*
X1198160Y52497D01*
X1198151D01*
X1198076Y52432D01*
X1198001Y52366D01*
X1197898Y52216D01*
X1197814Y52057D01*
X1197767Y51907D01*
X1197729Y51766D01*
X1197720Y51663D01*
X1197711Y51616D01*
Y51588D01*
Y51569D01*
Y51560D01*
X1197729Y51335D01*
X1197776Y51147D01*
X1197851Y50979D01*
X1197945Y50838D01*
X1198067Y50716D01*
X1198198Y50613D01*
X1198329Y50529D01*
X1198470Y50463D01*
X1198620Y50407D01*
X1198751Y50370D01*
X1198882Y50341D01*
X1198995Y50323D01*
X1199098Y50313D01*
X1199173Y50304D01*
X1201122D01*
Y52835D01*
D02*
G37*
G36*
Y48889D02*
X1199163D01*
X1199013Y48870D01*
X1198882Y48851D01*
X1198751Y48832D01*
X1198517Y48757D01*
X1198320Y48673D01*
X1198151Y48570D01*
X1198010Y48448D01*
X1197898Y48326D01*
X1197804Y48195D01*
X1197729Y48064D01*
X1197682Y47942D01*
X1197645Y47820D01*
X1197617Y47717D01*
X1197598Y47633D01*
X1197589Y47558D01*
Y47520D01*
Y47502D01*
Y47380D01*
X1197607Y47267D01*
X1197664Y47061D01*
X1197739Y46883D01*
X1197851Y46733D01*
X1197973Y46602D01*
X1198114Y46499D01*
X1198264Y46405D01*
X1198413Y46339D01*
X1198573Y46283D01*
X1198723Y46246D01*
X1198863Y46208D01*
X1198985Y46189D01*
X1199098Y46180D01*
X1199173Y46171D01*
X1201122D01*
Y48889D01*
D02*
G37*
G36*
Y80806D02*
X1199960D01*
X1199773Y80797D01*
X1199585Y80778D01*
X1199407Y80741D01*
X1199248Y80694D01*
X1199088Y80638D01*
X1198938Y80582D01*
X1198798Y80516D01*
X1198676Y80450D01*
X1198564Y80385D01*
X1198460Y80319D01*
X1198367Y80263D01*
X1198292Y80207D01*
X1198235Y80160D01*
X1198198Y80122D01*
X1198170Y80104D01*
X1198160Y80094D01*
X1198001Y79935D01*
X1197860Y79757D01*
X1197739Y79569D01*
X1197636Y79382D01*
X1197551Y79185D01*
X1197476Y78988D01*
X1197420Y78801D01*
X1197373Y78623D01*
X1197336Y78444D01*
X1197308Y78285D01*
X1197289Y78145D01*
X1197270Y78013D01*
Y77910D01*
X1197261Y77835D01*
Y77788D01*
Y77770D01*
X1197270Y77432D01*
X1197298Y77114D01*
X1197345Y76814D01*
X1197401Y76533D01*
X1197476Y76261D01*
X1197551Y76017D01*
X1197636Y75801D01*
X1197720Y75595D01*
X1197814Y75417D01*
X1197898Y75258D01*
X1197973Y75127D01*
X1198039Y75014D01*
X1198104Y74920D01*
X1198151Y74864D01*
X1198179Y74817D01*
X1198189Y74808D01*
X1198320Y74696D01*
X1198470Y74602D01*
X1198610Y74517D01*
X1198760Y74442D01*
X1198910Y74377D01*
X1199051Y74330D01*
X1199332Y74255D01*
X1199454Y74227D01*
X1199576Y74208D01*
X1199679Y74189D01*
X1199763Y74180D01*
X1199838Y74171D01*
X1201122D01*
Y80806D01*
D02*
G37*
G36*
X1225537Y77026D02*
Y73736D01*
X1229989Y75320D01*
X1225537Y77026D01*
D02*
G37*
G36*
X1229230Y50464D02*
X1229192D01*
X1229173D01*
X1229164D01*
X1229033D01*
X1228911Y50445D01*
X1228667Y50399D01*
X1228442Y50324D01*
X1228255Y50249D01*
X1228170Y50202D01*
X1228095Y50164D01*
X1228030Y50127D01*
X1227974Y50089D01*
X1227927Y50061D01*
X1227899Y50042D01*
X1227880Y50033D01*
X1227870Y50024D01*
X1227861Y49855D01*
Y46396D01*
X1230579D01*
Y49068D01*
X1230560Y49274D01*
X1230523Y49471D01*
X1230467Y49639D01*
X1230401Y49780D01*
X1230326Y49893D01*
X1230270Y49977D01*
X1230232Y50033D01*
X1230214Y50052D01*
X1230139Y50127D01*
X1230054Y50192D01*
X1229886Y50286D01*
X1229707Y50361D01*
X1229539Y50417D01*
X1229389Y50445D01*
X1229333Y50455D01*
X1229276D01*
X1229230Y50464D01*
D02*
G37*
%LPD*%
D13*
X1214500Y42500D02*
X1216500D01*
Y84500D01*
X1214500Y42500D02*
Y84500D01*
X1216500D01*
X1185500Y49500D02*
X1192500D01*
X1192500Y42500D02*
X1205500D01*
Y56500D01*
X1192500D02*
X1205500D01*
X1192500Y42500D02*
Y56500D01*
X1188500Y63500D02*
X1195500D01*
X1192500Y70500D02*
Y84500D01*
X1205500D01*
Y70500D02*
Y84500D01*
X1192500Y70500D02*
X1205500D01*
X1185500Y77500D02*
X1192500D01*
X1203500Y60500D02*
Y66500D01*
X1199500Y60500D02*
Y66500D01*
D19*
X1185000Y49500D02*
G03*
X1185000Y49500I-2500J0D01*
G01*
X1188000Y63500D02*
G03*
X1188000Y63500I-2500J0D01*
G01*
X1185000Y77500D02*
G03*
X1185000Y77500I-2500J0D01*
G01*
D123*
X25000Y78002D02*
D03*
Y92002D02*
D03*
X25000Y108002D02*
D03*
Y122002D02*
D03*
X1480000Y399498D02*
D03*
Y385498D02*
D03*
X1480000Y431998D02*
D03*
Y417998D02*
D03*
X990000Y52998D02*
D03*
Y66998D02*
D03*
X977500Y52998D02*
D03*
Y66998D02*
D03*
D128*
X643002Y832500D02*
D03*
X657002D02*
D03*
X678002D02*
D03*
X692002D02*
D03*
X816998Y832500D02*
D03*
X802998D02*
D03*
X633002Y22500D02*
D03*
X647002D02*
D03*
X603002Y22500D02*
D03*
X617002D02*
D03*
X878002Y832500D02*
D03*
X892002D02*
D03*
D157*
X1355000Y155000D02*
D03*
Y130000D02*
D03*
Y105000D02*
D03*
X1405000Y155000D02*
D03*
Y130000D02*
D03*
Y105000D02*
D03*
X1380000Y33500D02*
D03*
Y226500D02*
D03*
X1405000Y33500D02*
D03*
X1430000D02*
D03*
Y226500D02*
D03*
X1405000D02*
D03*
X1355000D02*
D03*
X1330000D02*
D03*
Y33500D02*
D03*
X1355000D02*
D03*
X145000Y816500D02*
D03*
X170000D02*
D03*
Y623500D02*
D03*
X145000D02*
D03*
X95000D02*
D03*
X70000D02*
D03*
Y816500D02*
D03*
X95000D02*
D03*
X120000Y623500D02*
D03*
Y816500D02*
D03*
X95000Y745000D02*
D03*
Y720000D02*
D03*
Y695000D02*
D03*
X145000Y745000D02*
D03*
Y720000D02*
D03*
Y695000D02*
D03*
D158*
X1380000Y91000D02*
D03*
Y169000D02*
D03*
X120000Y681000D02*
D03*
Y759000D02*
D03*
D159*
X1380000Y65000D02*
D03*
X120000Y785000D02*
D03*
D160*
X736100Y355200D02*
D03*
Y329800D02*
D03*
X761500D02*
D03*
Y355200D02*
D03*
X786900Y329800D02*
D03*
Y355200D02*
D03*
X812300Y329800D02*
D03*
Y355200D02*
D03*
X837700Y329800D02*
D03*
Y355200D02*
D03*
X863100Y329800D02*
D03*
Y355200D02*
D03*
X888500Y329800D02*
D03*
Y355200D02*
D03*
X913900Y329800D02*
D03*
X133200Y57000D02*
D03*
X158600D02*
D03*
X184000D02*
D03*
X209400D02*
D03*
X234800D02*
D03*
X260200D02*
D03*
X82400Y82400D02*
D03*
X240000Y757300D02*
D03*
X879800Y492500D02*
D03*
X905200D02*
D03*
X930600D02*
D03*
X572300Y77500D02*
D03*
D161*
X913900Y355200D02*
D03*
X107800Y57000D02*
D03*
X854400Y492500D02*
D03*
X597700Y77500D02*
D03*
D162*
X622646Y164792D02*
D03*
X597500Y215000D02*
D03*
X572608Y164792D02*
D03*
X547716Y215000D02*
D03*
X784892Y215104D02*
D03*
X685108D02*
D03*
X710000Y164896D02*
D03*
X734892Y215104D02*
D03*
X760038Y164896D02*
D03*
D163*
X870000Y242500D02*
D03*
X920000Y207500D02*
D03*
X870000Y172500D02*
D03*
X1117500Y290000D02*
D03*
X1167500Y325000D02*
D03*
X1117500Y360000D02*
D03*
D164*
X1180000Y472500D02*
D03*
Y500000D02*
D03*
X1140000Y412000D02*
D03*
X1110000D02*
D03*
X175400Y657500D02*
D03*
X150000D02*
D03*
X1010000Y455000D02*
D03*
X1035000Y430000D02*
D03*
X985000D02*
D03*
Y480000D02*
D03*
X1035000D02*
D03*
X960000Y455000D02*
D03*
X1345000Y557500D02*
D03*
X1315000D02*
D03*
Y427500D02*
D03*
D165*
X82400Y57000D02*
D03*
X240000Y782700D02*
D03*
D166*
X1200000Y650500D02*
D03*
Y574500D02*
D03*
D167*
X1141400Y170150D02*
D03*
X1039800D02*
D03*
X963600D02*
D03*
X989000Y246350D02*
D03*
X1141400D02*
D03*
D168*
X730200Y30000D02*
D03*
X704800D02*
D03*
D169*
X717500D02*
D03*
D170*
X1415000Y583000D02*
D03*
Y752000D02*
D03*
D171*
Y667500D02*
D03*
X310710Y420000D02*
D03*
X1190000D02*
D03*
X1467500Y32500D02*
D03*
X32500Y817500D02*
D03*
D172*
Y32500D02*
D03*
X1467500Y817500D02*
D03*
D200*
X127500Y490000D02*
D03*
Y505000D02*
D03*
X200000Y460000D02*
D03*
X185000D02*
D03*
D201*
X740000Y835000D02*
D03*
Y830000D02*
D03*
Y825000D02*
D03*
Y820000D02*
D03*
X760000D02*
D03*
Y825000D02*
D03*
Y830000D02*
D03*
Y835000D02*
D03*
D202*
X750000Y827500D02*
D03*
M02*
