M48
;Layer_Color=9474304
;FILE_FORMAT=4:4
METRIC,LZ
;TYPE=PLATED
T1F00S00C0.3000
T2F00S00C0.7000
T3F00S00C0.9000
T4F00S00C0.9500
T5F00S00C1.0998
T6F00S00C1.1000
T7F00S00C1.3000
T8F00S00C1.4000
T9F00S00C1.8000
T10F00S00C3.2000
;TYPE=NON_PLATED
T11F00S00C1.7000
%
T01
X01425Y000875
Y0011
Y00133
X01480994Y00065593
X0131Y000725
X01295Y000725
X0128Y0005
X0127Y0005
X0125
X012375Y000325
X011975
X01165Y000325
Y00045
Y000575
X01135Y000575
Y00045
Y000325
X01122498Y0003
Y00045
Y0006
X011225Y000775
X010925Y000775
X010725Y000625
X0109Y000325
X0111Y001025
X0112Y00125
X01135Y001225
X011425Y0009175
X011625Y001375
X0125Y001325
Y00115
Y001025
Y0008
Y0015
Y00165
X0101225Y0011025
X01Y0008
X01001Y000705
X01004998Y0006
X01014532Y00062032
X01021217Y00055283
X00989998Y00085
X009675Y000775
X00959611Y00066176
X009525Y000725
X009425
X0094Y000825
X0093
X0092
X0088
X00877498Y000725
X0088325Y00101
X00874998Y0011
X0085Y00115
X00839258Y0009425
X0084Y000775
X00825Y0009
X00815Y001075
Y001375
X008
X007325Y00115
X00694999Y001125
X00695Y00135
X006825Y001275
X00672499Y00135
X00674999Y000875
X00678934Y00078
X007Y00065
X00745Y000825
X007625Y000575
X007775
X007875Y000525
X00795Y00045
Y0003
X00825Y000325
X00835Y0003
Y00045
X008275Y00054571
X00866Y00023809
X00755Y0003
X006575Y000275
Y0004
X006475Y000325
X009025Y001125
X0096Y001125
X0096875Y00107815
X00975Y00115
X00983308Y00109874
X00525Y001325
X005075
X005Y001425
X00515Y001475
X00465Y001425
Y00165
X0044Y00125
X004275Y001175
X0042Y001
X004125Y0009
X004Y00085
Y0006
X004125Y000475
X0042Y0004
X0044
X004425Y00055
X00440165Y00064835
X004625Y0003
X00475Y000225
X00489502Y000375
X0051Y000225
X0052
X00525Y000575
X005075
X0034Y000375
X00315Y0004
X00317499Y00065
Y0008
X002825Y00075
X0028Y0009
X00256999Y00108
X002495Y00101117
X00245Y0007
X00223751Y00066251
X002125Y00107
X00215Y00136
Y00146
Y00156
Y00166
X00205
Y00156
Y00146
Y00136
X00285Y00135
X002825Y00155
X00275Y00164
X0028925Y0016675
X00307499Y0017
X00316Y001605
X00317999Y00151
X00315Y001325
X0030575Y0014175
X002975Y00125
X003325Y00105
X0036Y00145
X00195Y00146
Y00156
Y00166
X00185
Y00156
Y00146
Y00136
X00195
X00175
Y00146
Y00156
Y00166
X00153Y00107
X001525Y00077
X00138
X001275
X00167Y00076998
X001775
X0019
X002025
X00105Y001335
Y00146
X000875Y00165
X00035Y001675
X00025Y001575
X000075
X00025Y0013
X00040993Y00129593
X0006Y00133
X00085Y00185
X0007Y002
X00055Y00215
X00040993Y00193593
X00024993Y00225593
X00040993Y00257593
X00072993
X00104993
X00136993
X00139571Y002175
X00155Y002225
X00168Y002375
X00188Y002325
X001975Y0021
X00195Y00176
X00185
X00175
X001625Y0019925
X00120993Y00225593
Y00289593
X00088993
X00084Y00296
X00072
X0006
X00048
X00034
X0002
X00024993Y00289593
X00006Y00296
X0009Y00305
Y00317
Y00329
Y00341
Y00355
Y00369
Y00383
Y00397
Y00411
X00104993Y00385593
X001225Y0039
X0013Y00385
Y00372
X0017Y00365
X001825
X00195Y00342
X00182002Y0032
Y003075
X001925Y00295
X002025
X00193Y0027
X0016Y00295
X001575Y003325
Y003425
Y003525
X00166Y00407
X00177Y00402
X00185
X00196Y00391
X0018Y004375
X001625Y004385
X00151Y00436
X00131Y00441
X0011975Y0044275
X00104993Y00449593
X0011Y00475
Y00482
Y00489
X0013Y0049
Y00505
X001415Y004995
Y004855
X001555
Y004995
X001695
Y004855
Y004715
X001555
X001415
X00127Y00468
X001625Y004625
X00173Y00459
X001875Y0046
X001905Y004715
Y004855
Y004995
X002045
Y004855
Y004715
X002025Y0046
X002045Y005205
Y005345
X001905
Y005485
X002045
X00194Y005625
X0018
X001695Y005485
Y005345
Y005205
X001555
X001415
Y005345
X001555
Y005485
X001415
X00138Y005625
X0011Y0056975
Y00545
Y00524
Y00517
X00065Y00515
Y005275
Y005475
Y005675
X00088993Y00545593
X00065Y00485
Y004725
X00124Y00422
X00104993Y00321593
X001905Y005205
X002185
Y005345
Y005485
X00231Y00552
Y00538
Y00524
Y00496
X00231Y00489
X002185Y004855
Y004995
Y004715
X00229Y00459
X0025Y00449999
X0028Y004525
X002625Y00414999
Y00407499
X00245Y00406
X00218Y00407
X00206Y00391
X002125Y003425
X00218Y00319
X0025
X00257Y00326
X00269Y00308
X00278
X00275Y00285
X002625
X00251Y00288
Y00297
X002375Y00275
X002375Y00245
X00235Y002325
X002225
X0021Y00235
X0021Y00265
X002625Y00255
X00275
X002875
X003
X003125
X00325
X003225Y00235
Y00225
X003275Y002025
X00315
X003425
X00355
X0038
X00375Y002125
X00395Y002025
X003975Y0023
X00425Y00225
X004375Y0022
X004475Y00225
X004725Y002025
X004875
X005375Y0027
X00525Y003275
X004905Y00327
Y00362
X00525Y003625
X00515Y003775
X005595Y0036
X00567
X0056325Y004125
X005925Y004575
X00585Y004775
Y00494
X00544999Y00483999
X00537499Y00477499
X00535Y004675
X00493Y00475
X005025Y004875
X00505Y005025
X005125Y00515
X005175Y00525
X00514999Y00552499
X005075Y00545
X0053Y005525
X0054Y005575
X00547Y00565808
X00544999Y00529999
X005525Y005225
X00482153Y00510347
X00455Y00515
X004425Y005225
Y005375
X00435Y0053
X0043Y00545
X004425Y005525
X004275Y0057
X004325Y005075
X00436308Y00498
X00447499Y00497499
X004475Y00475
X0044Y004675
X00435Y004825
X003925Y0048
Y004925
Y00505
X00392725Y00517273
X003925Y004675
Y00455
Y004425
X003875Y0043
X004025Y0042
X004125
X004275Y0041
X003375Y00455
X0034Y005075
X0033Y0052
X0032
X00282503Y0052
X002825Y005075
X002525Y005075
X00252497Y00495
X002475Y0056975
X002525Y00365
X00262Y00362
X00257Y00356001
X00292Y00341
X00302
X003Y00285
X002875
X003125
X00325
X0025Y00235
X0026Y00225
X00265Y002
X00245Y001925
X002275Y002025
X00215Y00176
X00205
X00271999Y00179
X006265Y00319
X00623Y0036
X006305
X00675Y00375
X006925Y003375
X007075
X007135Y00415
X00721
X0072975Y00405
X0073725
X00775Y0039
X007675Y00375
X00784Y0042
X00791
X0079Y0045
X007825
X0075325Y0045425
X007385Y004715
X00729998Y00484999
X0072Y004825
X00715Y004925
X007065Y005005
X00698Y00493
X007075Y00465
X0072Y0046
X007275Y005075
X0072Y00515
X00689999Y00560999
X0065Y0057
X006425Y00555
X00634999Y00547499
X006275Y005625
X006175Y005675
X006165Y00526
X00615Y0051
Y004925
X006025Y004575
X006575Y005425
X00765Y005625
X008675Y00505
X008825Y004725
X008875Y0046
X009Y00425
X0093Y0045
X00851044Y00446953
X0085548Y00437954
X0085Y0043
X008375
X00837998Y00452999
X00828Y00453
X0085Y004725
X008125Y003975
X00775Y002975
X007625Y00305
X012125Y0029
X012475Y002975
Y0028
X01255Y0027
X01265
X01275
Y003075
X01265
X01255
X012475Y0032699
Y0034449
X01255Y0035449
X01265
X01275
X012925Y003925
X01285Y00415
X01275
X012575Y00405
X012675Y0045
X012975
Y004575
X013125
X013225
X013325
Y004825
X013225
X013125
X01312Y00503
X01322
X01332
Y00528
X01322
X01312
X012975Y00525
Y005325
X012675
X01265Y00515
X012525Y00475
Y00465
X013Y0047
X0137Y004775
X0138
X0139
Y004625
X0138
X0137
Y004925
X0138
X0139
Y005075
X0138
X0137
Y005225
X0138
X0139
X01385Y0037
X01343Y00375
X01335
X01327
Y00385
X01335
X01343
Y00395
X01335
X01327
X013725Y0028
X013875Y002675
X012525Y0025
X012275Y00255
X0122Y00245
X012075Y002175
X0122Y002025
X01235Y001825
X012Y004675
X011525Y005575
X014Y005225
X0141
X0142
X0143
X0144
Y005075
X0143
X0142
X0141
X014
Y004925
X0141
X0142
X0143
X0144
Y004775
X0143
X0142
X0141
X014
Y004625
X0141
X0142
X0143
X0144
X01435Y004025
Y00395
X0146Y003925
X01461Y00384
X0145Y0025
X0144
X0143
X0142
X013975Y002675
X01480994Y00769593
X013925Y007825
X013525Y0079
Y00805
Y007725
Y00755
Y007425
X012925Y00725
X01275Y007225
X01267Y00736
X0125Y0072
Y007525
X012675Y007725
X012375Y008
X012275
X012175
X01205Y00785
X01147Y00761
X01136998Y00760999
X01136998Y00727002
X01136Y00713
X01137Y00686
X01156Y00699
X01205Y006875
X0122Y006875
X01275Y006925
X012925Y0069
X01295Y006025
X013075Y005725
X012725
X011825Y005975
X011675Y006125
X01067499Y00627499
X01032498Y00627499
X010225Y006275
X010125
X010025Y0068
Y0069
X01009998Y00697499
X01019998
X01044998Y00694999
X010375Y006875
X01052498Y00687499
X0107Y006875
X010625Y00695
X01074Y00713
X01093998Y00712999
X01091998Y00727002
X01085Y00761
X01075Y007605
X01092Y00686
X013825Y006675
X00997498Y00669999
X00987498
X009775Y0067
X00977498Y00659999
X0098Y006275
X0099
X009925Y00605
X009825
X009725
X009625
X00952498Y00614999
X009425Y00615
X00934998Y00622499
X00924998
X00917498Y00614999
X00907498
X00905Y00605
X00895
X00885Y006575
X009075
Y0069
X00874961Y0079125
X008475Y008
X008325Y008025
X0083Y007925
X008275Y007675
X008175Y0077
X007665
X0075675Y0076925
X0075Y007775
X0072Y007825
X007125Y00775
X00705Y007675
X006975Y00785
X00688Y007875
X006725Y007825
X006625Y00765
Y00736
Y0072
X00633002Y0072
Y00736
X00620807Y00750807
X0062Y00760307
X00633002Y00765
X00603002Y00735
Y0072
X006175Y0066
X0061Y006475
X006025Y00635
Y0061
X0061Y006175
X00605Y005825
X00635Y005725
X0065Y005975
X00665
X0066Y006775
X006725
X006815Y00671
X00645Y006775
X006925Y007225
X007025Y007375
X00712499Y00739998
X00715999Y00827998
X00725Y00832503
X00707Y00833
X00697999Y00827998
X00665Y008325
X00629999Y00832498
X006025Y00825
X007725Y008275
X007869Y0083475
X008Y00814998
X00824403Y00833097
X0087Y00825
X008925
X0075325Y0068575
X00767462Y00617538
X00799Y00618
Y00627
X00589Y006415
X005735Y006285
X00542499Y00629999
X005425Y0062
X005475Y0067
X00539999Y00677499
X00505Y006975
Y0072
X00491Y007415
X00475Y007425
Y007325
X0046Y0073
X004475
X004325Y00745
X00435Y00755
X004275Y007625
X00442499Y00779998
X0045Y0079
X004575Y007825
X00465Y007925
X004825Y00785
X004975Y0077
X00505Y007625
X005125Y007775
X00512499Y00792498
X005275Y0077
X00534997Y007625
X00544999Y00764998
X005525Y007775
X0057
X00573999Y00760307
X00564499Y00759998
X005775Y00750807
X0059Y00765
X00585Y00785
X005925Y00825
X00585Y008325
X0053Y00825
X00554Y007415
X00585Y006875
X00596Y00686
X00597499Y00589999
X00574999
X00475Y0061
X00465Y0062
X004525Y006225
X004425Y00605
X0045Y006525
X00429999Y00674999
X004525Y006925
X00475Y006875
X00485Y006775
X003875Y006825
X0039Y00695
X003775
Y007075
X00348Y007075
X00347502Y00695
Y006825
Y0067
Y006575
X00348694Y006365
X00325Y006225
X0031Y0063
X00312Y0064
X0029Y0065
X00289Y00669
Y00682
Y00695
X00311Y00701
Y00689
Y00675
X00316935Y007085
X0031Y00715
X00265
X002575Y006975
X00225Y007015
Y00714
X00235Y00715
X00225Y00689
X0022575Y0067575
X00225Y00664
X00223565Y00653
X00227Y00643
X00245Y00635
X00257Y0065
X0024025Y00577
X00395Y005875
X0039Y006325
Y00645
X003825Y006575
X003775Y0067
X00382066Y007705
X00385Y0078
X003825Y007925
X003925Y007875
X00389999Y00764
X003675Y007925
X003475
X0033
Y00825
X00305Y008225
X0028
X0025
X002375Y00814998
X0028Y007925
X003Y00765
X00305Y0076
X00325Y00764998
X002175Y00755
Y007375
X004325Y0079
X00184Y007465
X001625Y007675
X00150001Y00759998
X00155Y007325
X001625Y007175
X002025Y007225
X0013Y00665
Y0065
X00131Y005795
X0011975
X00145Y00579
X00159
X00173
X00187
X00201
X00166Y00588
X00152
X00088993Y00609593
X00065Y006075
X0006Y00648
X00048
X00034
X0002
X00006
X00024993Y00673593
X00025Y007
X000075
X00035Y0069
X00040993Y00705593
X00024993Y00737593
X00056993
X00040993Y00769593
X00095Y007725
X0009Y00795
X00085Y00805
X0008Y008275
X00056993Y00673593
T02
X0138Y00091
Y00169
X0012Y00681
Y00759
T03
X01405Y000335
X0143
X01405Y00105
Y0013
Y00155
X01355
Y0013
Y00105
Y000335
X0138
X0133
X007302Y0003
X007175
X007048
X005977Y000775
X005723
X002602Y00057
X002348
X002094
X00184
X001586
X001332
X001078
X000824
Y000824
X007361Y003298
Y003552
X007615
Y003298
X007869
Y003552
X008123
Y003298
X008377
Y003552
X008631
Y003298
X008885
Y003552
X009139
Y003298
X009052Y004925
X008798
X008544
X009306
X0133Y002265
X01355
X0138
X01405
X0143
X012Y005745
Y006505
X0024Y007573
Y007827
X0017Y008165
X00145
X0012
X00095
X0007
X00095Y00745
Y0072
Y00695
X00145
Y0072
Y00745
Y006235
X0017
X0012
X00095
X0007
T04
X0111Y00412
X0114
X0118Y004725
Y005
X01315Y005575
X01345
X01315Y004275
X001754Y006575
X0015
T05
X0087Y001725
Y002425
X0092Y002075
X011175Y0029
Y0036
X011675Y00325
T06
X00622646Y00164792
X0071Y00164896
X00760038
X00572608Y00164792
X005975Y00215
X00547716
X00685108Y00215104
X00734892
X00784892
T07
X010398Y0017015
X011414
X009636
X00989Y0024635
X011414
T08
X00985Y0043
Y0048
X0096Y00455
X0101
X01035Y0043
Y0048
T09
X01415Y00583
Y00752
T10
X014675Y000325
X000325
X0031071Y0042
X0119
X014675Y008175
X000325
T11
X0138Y00065
X0012Y00785
M30
