G04*
G04 #@! TF.GenerationSoftware,Altium Limited,Altium Designer,18.1.7 (191)*
G04*
G04 Layer_Color=2752767*
%FSLAX44Y44*%
%MOMM*%
G71*
G01*
G75*
%ADD206C,0.0508*%
%ADD207C,0.0677*%
%ADD208C,0.0339*%
D206*
X1352968Y152968D02*
Y157032D01*
X1357032D01*
Y152968D01*
X1352968D01*
Y127968D02*
Y132032D01*
X1357032D01*
Y127968D01*
X1352968D01*
Y102968D02*
Y107032D01*
X1357032D01*
Y102968D01*
X1352968D01*
X1402968Y152968D02*
Y157032D01*
X1407032D01*
Y152968D01*
X1402968D01*
Y127968D02*
Y132032D01*
X1407032D01*
Y127968D01*
X1402968D01*
Y102968D02*
Y107032D01*
X1407032D01*
Y102968D01*
X1402968D01*
X1377968Y31468D02*
Y35532D01*
X1382032D01*
Y31468D01*
X1377968D01*
Y224468D02*
Y228532D01*
X1382032D01*
Y224468D01*
X1377968D01*
X1402968Y31468D02*
Y35532D01*
X1407032D01*
Y31468D01*
X1402968D01*
X1427968D02*
Y35532D01*
X1432032D01*
Y31468D01*
X1427968D01*
Y224468D02*
Y228532D01*
X1432032D01*
Y224468D01*
X1427968D01*
X1402968D02*
Y228532D01*
X1407032D01*
Y224468D01*
X1402968D01*
X1352968D02*
Y228532D01*
X1357032D01*
Y224468D01*
X1352968D01*
X1327968D02*
Y228532D01*
X1332032D01*
Y224468D01*
X1327968D01*
Y31468D02*
Y35532D01*
X1332032D01*
Y31468D01*
X1327968D01*
X1352968D02*
Y35532D01*
X1357032D01*
Y31468D01*
X1352968D01*
X1380000Y62968D02*
X1377968Y67032D01*
X1382032D01*
X1380000Y62968D01*
X734068Y353168D02*
Y357232D01*
X738132D01*
Y353168D01*
X734068D01*
Y327768D02*
Y331832D01*
X738132D01*
Y327768D01*
X734068D01*
X759468D02*
Y331832D01*
X763532D01*
Y327768D01*
X759468D01*
Y353168D02*
Y357232D01*
X763532D01*
Y353168D01*
X759468D01*
X784868Y327768D02*
Y331832D01*
X788932D01*
Y327768D01*
X784868D01*
Y353168D02*
Y357232D01*
X788932D01*
Y353168D01*
X784868D01*
X810268Y327768D02*
Y331832D01*
X814332D01*
Y327768D01*
X810268D01*
Y353168D02*
Y357232D01*
X814332D01*
Y353168D01*
X810268D01*
X835668Y327768D02*
Y331832D01*
X839732D01*
Y327768D01*
X835668D01*
Y353168D02*
Y357232D01*
X839732D01*
Y353168D01*
X835668D01*
X861068Y327768D02*
Y331832D01*
X865132D01*
Y327768D01*
X861068D01*
Y353168D02*
Y357232D01*
X865132D01*
Y353168D01*
X861068D01*
X886468Y327768D02*
Y331832D01*
X890532D01*
Y327768D01*
X886468D01*
Y353168D02*
Y357232D01*
X890532D01*
Y353168D01*
X886468D01*
X911868Y327768D02*
Y331832D01*
X915932D01*
Y327768D01*
X911868D01*
Y353168D02*
Y357232D01*
X915932D01*
Y353168D01*
X911868D01*
X622646Y162760D02*
X623662Y163776D01*
X624678D01*
X623662Y164792D01*
X624678Y165808D01*
X623662D01*
X622646Y166824D01*
X621630Y165808D01*
X620614D01*
X621630Y164792D01*
X620614Y163776D01*
X621630D01*
X622646Y162760D01*
X597500Y212968D02*
X598516Y213984D01*
X599532D01*
X598516Y215000D01*
X599532Y216016D01*
X598516D01*
X597500Y217032D01*
X596484Y216016D01*
X595468D01*
X596484Y215000D01*
X595468Y213984D01*
X596484D01*
X597500Y212968D01*
X572608Y162760D02*
X573624Y163776D01*
X574640D01*
X573624Y164792D01*
X574640Y165808D01*
X573624D01*
X572608Y166824D01*
X571592Y165808D01*
X570576D01*
X571592Y164792D01*
X570576Y163776D01*
X571592D01*
X572608Y162760D01*
X547716Y212968D02*
X548732Y213984D01*
X549748D01*
X548732Y215000D01*
X549748Y216016D01*
X548732D01*
X547716Y217032D01*
X546700Y216016D01*
X545684D01*
X546700Y215000D01*
X545684Y213984D01*
X546700D01*
X547716Y212968D01*
X867968Y240468D02*
X868984Y242500D01*
X867968Y244532D01*
X870000Y243516D01*
X872032Y244532D01*
X871016Y242500D01*
X872032Y240468D01*
X870000Y241484D01*
X867968Y240468D01*
X917968Y205468D02*
X918984Y207500D01*
X917968Y209532D01*
X920000Y208516D01*
X922032Y209532D01*
X921016Y207500D01*
X922032Y205468D01*
X920000Y206484D01*
X917968Y205468D01*
X867968Y170468D02*
X868984Y172500D01*
X867968Y174532D01*
X870000Y173516D01*
X872032Y174532D01*
X871016Y172500D01*
X872032Y170468D01*
X870000Y171484D01*
X867968Y170468D01*
X1178984Y471484D02*
Y470468D01*
X1181016D01*
Y471484D01*
X1182032D01*
Y473516D01*
X1181016D01*
Y474532D01*
X1178984D01*
Y473516D01*
X1177968D01*
Y471484D01*
X1178984D01*
Y498984D02*
Y497968D01*
X1181016D01*
Y498984D01*
X1182032D01*
Y501016D01*
X1181016D01*
Y502032D01*
X1178984D01*
Y501016D01*
X1177968D01*
Y498984D01*
X1178984D01*
X1138984Y410984D02*
Y409968D01*
X1141016D01*
Y410984D01*
X1142032D01*
Y413016D01*
X1141016D01*
Y414032D01*
X1138984D01*
Y413016D01*
X1137968D01*
Y410984D01*
X1138984D01*
X1108984D02*
Y409968D01*
X1111016D01*
Y410984D01*
X1112032D01*
Y413016D01*
X1111016D01*
Y414032D01*
X1108984D01*
Y413016D01*
X1107968D01*
Y410984D01*
X1108984D01*
X105768Y54968D02*
Y59032D01*
X109832D01*
Y54968D01*
X105768D01*
X131168D02*
Y59032D01*
X135232D01*
Y54968D01*
X131168D01*
X156568D02*
Y59032D01*
X160632D01*
Y54968D01*
X156568D01*
X181968D02*
Y59032D01*
X186032D01*
Y54968D01*
X181968D01*
X207368D02*
Y59032D01*
X211432D01*
Y54968D01*
X207368D01*
X232768D02*
Y59032D01*
X236832D01*
Y54968D01*
X232768D01*
X258168D02*
Y59032D01*
X262232D01*
Y54968D01*
X258168D01*
X80368D02*
Y59032D01*
X84432D01*
Y54968D01*
X80368D01*
Y80368D02*
Y84432D01*
X84432D01*
Y80368D01*
X80368D01*
X237968Y755268D02*
Y759332D01*
X242032D01*
Y755268D01*
X237968D01*
Y780668D02*
Y784732D01*
X242032D01*
Y780668D01*
X237968D01*
X174384Y656484D02*
Y655468D01*
X176416D01*
Y656484D01*
X177432D01*
Y658516D01*
X176416D01*
Y659532D01*
X174384D01*
Y658516D01*
X173368D01*
Y656484D01*
X174384D01*
X148984D02*
Y655468D01*
X151016D01*
Y656484D01*
X152032D01*
Y658516D01*
X151016D01*
Y659532D01*
X148984D01*
Y658516D01*
X147968D01*
Y656484D01*
X148984D01*
X852368Y490468D02*
Y494532D01*
X856432D01*
Y490468D01*
X852368D01*
X877768D02*
Y494532D01*
X881832D01*
Y490468D01*
X877768D01*
X903168D02*
Y494532D01*
X907232D01*
Y490468D01*
X903168D01*
X928568D02*
Y494532D01*
X932632D01*
Y490468D01*
X928568D01*
X1007968Y452968D02*
X1008984D01*
X1010000Y453984D01*
X1011016Y452968D01*
X1012032D01*
Y453984D01*
X1011016Y455000D01*
X1012032Y456016D01*
Y457032D01*
X1011016D01*
X1010000Y456016D01*
X1008984Y457032D01*
X1007968D01*
Y456016D01*
X1008984Y455000D01*
X1007968Y453984D01*
Y452968D01*
X1032968Y427968D02*
X1033984D01*
X1035000Y428984D01*
X1036016Y427968D01*
X1037032D01*
Y428984D01*
X1036016Y430000D01*
X1037032Y431016D01*
Y432032D01*
X1036016D01*
X1035000Y431016D01*
X1033984Y432032D01*
X1032968D01*
Y431016D01*
X1033984Y430000D01*
X1032968Y428984D01*
Y427968D01*
X982968D02*
X983984D01*
X985000Y428984D01*
X986016Y427968D01*
X987032D01*
Y428984D01*
X986016Y430000D01*
X987032Y431016D01*
Y432032D01*
X986016D01*
X985000Y431016D01*
X983984Y432032D01*
X982968D01*
Y431016D01*
X983984Y430000D01*
X982968Y428984D01*
Y427968D01*
Y477968D02*
X983984D01*
X985000Y478984D01*
X986016Y477968D01*
X987032D01*
Y478984D01*
X986016Y480000D01*
X987032Y481016D01*
Y482032D01*
X986016D01*
X985000Y481016D01*
X983984Y482032D01*
X982968D01*
Y481016D01*
X983984Y480000D01*
X982968Y478984D01*
Y477968D01*
X1032968D02*
X1033984D01*
X1035000Y478984D01*
X1036016Y477968D01*
X1037032D01*
Y478984D01*
X1036016Y480000D01*
X1037032Y481016D01*
Y482032D01*
X1036016D01*
X1035000Y481016D01*
X1033984Y482032D01*
X1032968D01*
Y481016D01*
X1033984Y480000D01*
X1032968Y478984D01*
Y477968D01*
X957968Y452968D02*
X958984D01*
X960000Y453984D01*
X961016Y452968D01*
X962032D01*
Y453984D01*
X961016Y455000D01*
X962032Y456016D01*
Y457032D01*
X961016D01*
X960000Y456016D01*
X958984Y457032D01*
X957968D01*
Y456016D01*
X958984Y455000D01*
X957968Y453984D01*
Y452968D01*
X1343984Y556484D02*
Y555468D01*
X1346016D01*
Y556484D01*
X1347032D01*
Y558516D01*
X1346016D01*
Y559532D01*
X1343984D01*
Y558516D01*
X1342968D01*
Y556484D01*
X1343984D01*
X1313984D02*
Y555468D01*
X1316016D01*
Y556484D01*
X1317032D01*
Y558516D01*
X1316016D01*
Y559532D01*
X1313984D01*
Y558516D01*
X1312968D01*
Y556484D01*
X1313984D01*
X1367968Y522500D02*
X1370000Y524532D01*
X1372032Y522500D01*
X1370000Y520468D01*
X1367968Y522500D01*
X1377968D02*
X1380000Y524532D01*
X1382032Y522500D01*
X1380000Y520468D01*
X1377968Y522500D01*
X1387968D02*
X1390000Y524532D01*
X1392032Y522500D01*
X1390000Y520468D01*
X1387968Y522500D01*
X1397968D02*
X1400000Y524532D01*
X1402032Y522500D01*
X1400000Y520468D01*
X1397968Y522500D01*
X1407968D02*
X1410000Y524532D01*
X1412032Y522500D01*
X1410000Y520468D01*
X1407968Y522500D01*
X1417968D02*
X1420000Y524532D01*
X1422032Y522500D01*
X1420000Y520468D01*
X1417968Y522500D01*
X1427968D02*
X1430000Y524532D01*
X1432032Y522500D01*
X1430000Y520468D01*
X1427968Y522500D01*
X1437968D02*
X1440000Y524532D01*
X1442032Y522500D01*
X1440000Y520468D01*
X1437968Y522500D01*
X1367968Y507500D02*
X1370000Y509532D01*
X1372032Y507500D01*
X1370000Y505468D01*
X1367968Y507500D01*
X1377968D02*
X1380000Y509532D01*
X1382032Y507500D01*
X1380000Y505468D01*
X1377968Y507500D01*
X1387968D02*
X1390000Y509532D01*
X1392032Y507500D01*
X1390000Y505468D01*
X1387968Y507500D01*
X1397968D02*
X1400000Y509532D01*
X1402032Y507500D01*
X1400000Y505468D01*
X1397968Y507500D01*
X1407968D02*
X1410000Y509532D01*
X1412032Y507500D01*
X1410000Y505468D01*
X1407968Y507500D01*
X1417968D02*
X1420000Y509532D01*
X1422032Y507500D01*
X1420000Y505468D01*
X1417968Y507500D01*
X1427968D02*
X1430000Y509532D01*
X1432032Y507500D01*
X1430000Y505468D01*
X1427968Y507500D01*
X1437968D02*
X1440000Y509532D01*
X1442032Y507500D01*
X1440000Y505468D01*
X1437968Y507500D01*
X1367968Y492500D02*
X1370000Y494532D01*
X1372032Y492500D01*
X1370000Y490468D01*
X1367968Y492500D01*
X1377968D02*
X1380000Y494532D01*
X1382032Y492500D01*
X1380000Y490468D01*
X1377968Y492500D01*
X1387968D02*
X1390000Y494532D01*
X1392032Y492500D01*
X1390000Y490468D01*
X1387968Y492500D01*
X1397968D02*
X1400000Y494532D01*
X1402032Y492500D01*
X1400000Y490468D01*
X1397968Y492500D01*
X1407968D02*
X1410000Y494532D01*
X1412032Y492500D01*
X1410000Y490468D01*
X1407968Y492500D01*
X1417968D02*
X1420000Y494532D01*
X1422032Y492500D01*
X1420000Y490468D01*
X1417968Y492500D01*
X1427968D02*
X1430000Y494532D01*
X1432032Y492500D01*
X1430000Y490468D01*
X1427968Y492500D01*
X1437968D02*
X1440000Y494532D01*
X1442032Y492500D01*
X1440000Y490468D01*
X1437968Y492500D01*
X1367968Y477500D02*
X1370000Y479532D01*
X1372032Y477500D01*
X1370000Y475468D01*
X1367968Y477500D01*
X1377968D02*
X1380000Y479532D01*
X1382032Y477500D01*
X1380000Y475468D01*
X1377968Y477500D01*
X1387968D02*
X1390000Y479532D01*
X1392032Y477500D01*
X1390000Y475468D01*
X1387968Y477500D01*
X1397968D02*
X1400000Y479532D01*
X1402032Y477500D01*
X1400000Y475468D01*
X1397968Y477500D01*
X1407968D02*
X1410000Y479532D01*
X1412032Y477500D01*
X1410000Y475468D01*
X1407968Y477500D01*
X1417968D02*
X1420000Y479532D01*
X1422032Y477500D01*
X1420000Y475468D01*
X1417968Y477500D01*
X1427968D02*
X1430000Y479532D01*
X1432032Y477500D01*
X1430000Y475468D01*
X1427968Y477500D01*
X1437968D02*
X1440000Y479532D01*
X1442032Y477500D01*
X1440000Y475468D01*
X1437968Y477500D01*
Y462500D02*
X1440000Y464532D01*
X1442032Y462500D01*
X1440000Y460468D01*
X1437968Y462500D01*
X1427968D02*
X1430000Y464532D01*
X1432032Y462500D01*
X1430000Y460468D01*
X1427968Y462500D01*
X1417968D02*
X1420000Y464532D01*
X1422032Y462500D01*
X1420000Y460468D01*
X1417968Y462500D01*
X1407968D02*
X1410000Y464532D01*
X1412032Y462500D01*
X1410000Y460468D01*
X1407968Y462500D01*
X1397968D02*
X1400000Y464532D01*
X1402032Y462500D01*
X1400000Y460468D01*
X1397968Y462500D01*
X1387968D02*
X1390000Y464532D01*
X1392032Y462500D01*
X1390000Y460468D01*
X1387968Y462500D01*
X1377968D02*
X1380000Y464532D01*
X1382032Y462500D01*
X1380000Y460468D01*
X1377968Y462500D01*
X1367968D02*
X1370000Y464532D01*
X1372032Y462500D01*
X1370000Y460468D01*
X1367968Y462500D01*
X1313984Y426484D02*
Y425468D01*
X1316016D01*
Y426484D01*
X1317032D01*
Y428516D01*
X1316016D01*
Y429532D01*
X1313984D01*
Y428516D01*
X1312968D01*
Y426484D01*
X1313984D01*
X1340968Y375000D02*
X1343000Y377032D01*
X1345032Y375000D01*
X1343000Y372968D01*
X1340968Y375000D01*
X1332968D02*
X1335000Y377032D01*
X1337032Y375000D01*
X1335000Y372968D01*
X1332968Y375000D01*
X1324968D02*
X1327000Y377032D01*
X1329032Y375000D01*
X1327000Y372968D01*
X1324968Y375000D01*
X1340968Y385000D02*
X1343000Y387032D01*
X1345032Y385000D01*
X1343000Y382968D01*
X1340968Y385000D01*
X1332968D02*
X1335000Y387032D01*
X1337032Y385000D01*
X1335000Y382968D01*
X1332968Y385000D01*
X1324968D02*
X1327000Y387032D01*
X1329032Y385000D01*
X1327000Y382968D01*
X1324968Y385000D01*
X1340968Y395000D02*
X1343000Y397032D01*
X1345032Y395000D01*
X1343000Y392968D01*
X1340968Y395000D01*
X1332968D02*
X1335000Y397032D01*
X1337032Y395000D01*
X1335000Y392968D01*
X1332968Y395000D01*
X1324968D02*
X1327000Y397032D01*
X1329032Y395000D01*
X1327000Y392968D01*
X1324968Y395000D01*
X784892Y213072D02*
X785908Y214088D01*
X786924D01*
X785908Y215104D01*
X786924Y216120D01*
X785908D01*
X784892Y217136D01*
X783876Y216120D01*
X782860D01*
X783876Y215104D01*
X782860Y214088D01*
X783876D01*
X784892Y213072D01*
X685108D02*
X686124Y214088D01*
X687140D01*
X686124Y215104D01*
X687140Y216120D01*
X686124D01*
X685108Y217136D01*
X684092Y216120D01*
X683076D01*
X684092Y215104D01*
X683076Y214088D01*
X684092D01*
X685108Y213072D01*
X710000Y162864D02*
X711016Y163880D01*
X712032D01*
X711016Y164896D01*
X712032Y165912D01*
X711016D01*
X710000Y166928D01*
X708984Y165912D01*
X707968D01*
X708984Y164896D01*
X707968Y163880D01*
X708984D01*
X710000Y162864D01*
X734892Y213072D02*
X735908Y214088D01*
X736924D01*
X735908Y215104D01*
X736924Y216120D01*
X735908D01*
X734892Y217136D01*
X733876Y216120D01*
X732860D01*
X733876Y215104D01*
X732860Y214088D01*
X733876D01*
X734892Y213072D01*
X760038Y162864D02*
X761054Y163880D01*
X762070D01*
X761054Y164896D01*
X762070Y165912D01*
X761054D01*
X760038Y166928D01*
X759022Y165912D01*
X758006D01*
X759022Y164896D01*
X758006Y163880D01*
X759022D01*
X760038Y162864D01*
X570268Y75468D02*
Y79532D01*
X574332D01*
Y75468D01*
X570268D01*
X595668D02*
Y79532D01*
X599732D01*
Y75468D01*
X595668D01*
X212968Y166000D02*
X215000Y168032D01*
X217032Y166000D01*
X215000Y163968D01*
X212968Y166000D01*
Y156000D02*
X215000Y158032D01*
X217032Y156000D01*
X215000Y153968D01*
X212968Y156000D01*
Y146000D02*
X215000Y148032D01*
X217032Y146000D01*
X215000Y143968D01*
X212968Y146000D01*
Y136000D02*
X215000Y138032D01*
X217032Y136000D01*
X215000Y133968D01*
X212968Y136000D01*
X202968Y166000D02*
X205000Y168032D01*
X207032Y166000D01*
X205000Y163968D01*
X202968Y166000D01*
Y156000D02*
X205000Y158032D01*
X207032Y156000D01*
X205000Y153968D01*
X202968Y156000D01*
Y146000D02*
X205000Y148032D01*
X207032Y146000D01*
X205000Y143968D01*
X202968Y146000D01*
Y136000D02*
X205000Y138032D01*
X207032Y136000D01*
X205000Y133968D01*
X202968Y136000D01*
X192968Y166000D02*
X195000Y168032D01*
X197032Y166000D01*
X195000Y163968D01*
X192968Y166000D01*
Y156000D02*
X195000Y158032D01*
X197032Y156000D01*
X195000Y153968D01*
X192968Y156000D01*
Y146000D02*
X195000Y148032D01*
X197032Y146000D01*
X195000Y143968D01*
X192968Y146000D01*
Y136000D02*
X195000Y138032D01*
X197032Y136000D01*
X195000Y133968D01*
X192968Y136000D01*
X182968Y166000D02*
X185000Y168032D01*
X187032Y166000D01*
X185000Y163968D01*
X182968Y166000D01*
Y156000D02*
X185000Y158032D01*
X187032Y156000D01*
X185000Y153968D01*
X182968Y156000D01*
Y146000D02*
X185000Y148032D01*
X187032Y146000D01*
X185000Y143968D01*
X182968Y146000D01*
Y136000D02*
X185000Y138032D01*
X187032Y136000D01*
X185000Y133968D01*
X182968Y136000D01*
X172968D02*
X175000Y138032D01*
X177032Y136000D01*
X175000Y133968D01*
X172968Y136000D01*
Y146000D02*
X175000Y148032D01*
X177032Y146000D01*
X175000Y143968D01*
X172968Y146000D01*
Y156000D02*
X175000Y158032D01*
X177032Y156000D01*
X175000Y153968D01*
X172968Y156000D01*
Y166000D02*
X175000Y168032D01*
X177032Y166000D01*
X175000Y163968D01*
X172968Y166000D01*
X212968Y176000D02*
X215000Y178032D01*
X217032Y176000D01*
X215000Y173968D01*
X212968Y176000D01*
X202968D02*
X205000Y178032D01*
X207032Y176000D01*
X205000Y173968D01*
X202968Y176000D01*
X192968D02*
X195000Y178032D01*
X197032Y176000D01*
X195000Y173968D01*
X192968Y176000D01*
X182968D02*
X185000Y178032D01*
X187032Y176000D01*
X185000Y173968D01*
X182968Y176000D01*
X172968D02*
X175000Y178032D01*
X177032Y176000D01*
X175000Y173968D01*
X172968Y176000D01*
X1115468Y287968D02*
X1116484Y290000D01*
X1115468Y292032D01*
X1117500Y291016D01*
X1119532Y292032D01*
X1118516Y290000D01*
X1119532Y287968D01*
X1117500Y288984D01*
X1115468Y287968D01*
X1165468Y322968D02*
X1166484Y325000D01*
X1165468Y327032D01*
X1167500Y326016D01*
X1169532Y327032D01*
X1168516Y325000D01*
X1169532Y322968D01*
X1167500Y323984D01*
X1165468Y322968D01*
X1115468Y357968D02*
X1116484Y360000D01*
X1115468Y362032D01*
X1117500Y361016D01*
X1119532Y362032D01*
X1118516Y360000D01*
X1119532Y357968D01*
X1117500Y358984D01*
X1115468Y357968D01*
X1197968Y648468D02*
Y652532D01*
X1202032D01*
Y648468D01*
X1197968D01*
Y572468D02*
Y576532D01*
X1202032D01*
Y572468D01*
X1197968D01*
X1139368Y168118D02*
Y172182D01*
X1143432D01*
Y168118D01*
X1139368D01*
X1140384Y169134D02*
Y171166D01*
X1142416D01*
Y169134D01*
X1140384D01*
X1037768Y168118D02*
Y172182D01*
X1041832D01*
Y168118D01*
X1037768D01*
X1038784Y169134D02*
Y171166D01*
X1040816D01*
Y169134D01*
X1038784D01*
X961568Y168118D02*
Y172182D01*
X965632D01*
Y168118D01*
X961568D01*
X962584Y169134D02*
Y171166D01*
X964616D01*
Y169134D01*
X962584D01*
X986968Y244318D02*
Y248382D01*
X991032D01*
Y244318D01*
X986968D01*
X987984Y245334D02*
Y247366D01*
X990016D01*
Y245334D01*
X987984D01*
X1139368Y244318D02*
Y248382D01*
X1143432D01*
Y244318D01*
X1139368D01*
X1140384Y245334D02*
Y247366D01*
X1142416D01*
Y245334D01*
X1140384D01*
X728168Y27968D02*
Y32032D01*
X732232D01*
Y27968D01*
X728168D01*
X715468D02*
Y32032D01*
X719532D01*
Y27968D01*
X715468D01*
X702768D02*
Y32032D01*
X706832D01*
Y27968D01*
X702768D01*
X120000Y782968D02*
X117968Y787032D01*
X122032D01*
X120000Y782968D01*
X142968Y814468D02*
Y818532D01*
X147032D01*
Y814468D01*
X142968D01*
X167968D02*
Y818532D01*
X172032D01*
Y814468D01*
X167968D01*
Y621468D02*
Y625532D01*
X172032D01*
Y621468D01*
X167968D01*
X142968D02*
Y625532D01*
X147032D01*
Y621468D01*
X142968D01*
X92968D02*
Y625532D01*
X97032D01*
Y621468D01*
X92968D01*
X67968D02*
Y625532D01*
X72032D01*
Y621468D01*
X67968D01*
Y814468D02*
Y818532D01*
X72032D01*
Y814468D01*
X67968D01*
X92968D02*
Y818532D01*
X97032D01*
Y814468D01*
X92968D01*
X117968Y621468D02*
Y625532D01*
X122032D01*
Y621468D01*
X117968D01*
Y814468D02*
Y818532D01*
X122032D01*
Y814468D01*
X117968D01*
X92968Y742968D02*
Y747032D01*
X97032D01*
Y742968D01*
X92968D01*
Y717968D02*
Y722032D01*
X97032D01*
Y717968D01*
X92968D01*
Y692968D02*
Y697032D01*
X97032D01*
Y692968D01*
X92968D01*
X142968Y742968D02*
Y747032D01*
X147032D01*
Y742968D01*
X142968D01*
Y717968D02*
Y722032D01*
X147032D01*
Y717968D01*
X142968D01*
Y692968D02*
Y697032D01*
X147032D01*
Y692968D01*
X142968D01*
X310710Y417968D02*
X308678Y422032D01*
X312742D01*
X310710Y417968D01*
Y418984D02*
X309694Y421016D01*
X311726D01*
X310710Y418984D01*
X1190000Y417968D02*
X1187968Y422032D01*
X1192032D01*
X1190000Y417968D01*
Y418984D02*
X1188984Y421016D01*
X1191016D01*
X1190000Y418984D01*
X32500Y30468D02*
X30468Y34532D01*
X34532D01*
X32500Y30468D01*
Y31484D02*
X31484Y33516D01*
X33516D01*
X32500Y31484D01*
X1467500Y30468D02*
X1465468Y34532D01*
X1469532D01*
X1467500Y30468D01*
Y31484D02*
X1466484Y33516D01*
X1468516D01*
X1467500Y31484D01*
Y815468D02*
X1465468Y819532D01*
X1469532D01*
X1467500Y815468D01*
Y816484D02*
X1466484Y818516D01*
X1468516D01*
X1467500Y816484D01*
X32500Y815468D02*
X30468Y819532D01*
X34532D01*
X32500Y815468D01*
Y816484D02*
X31484Y818516D01*
X33516D01*
X32500Y816484D01*
X460468Y30000D02*
X462500Y32032D01*
X464532Y30000D01*
X462500Y27968D01*
X460468Y30000D01*
X502968Y697500D02*
X505000Y699532D01*
X507032Y697500D01*
X505000Y695468D01*
X502968Y697500D01*
Y720000D02*
X505000Y722032D01*
X507032Y720000D01*
X505000Y717968D01*
X502968Y720000D01*
X630970Y765000D02*
X633002Y767032D01*
X635034Y765000D01*
X633002Y762968D01*
X630970Y765000D01*
X660468D02*
X662500Y767032D01*
X664532Y765000D01*
X662500Y762968D01*
X660468Y765000D01*
Y736000D02*
X662500Y738032D01*
X664532Y736000D01*
X662500Y733968D01*
X660468Y736000D01*
X600970Y735000D02*
X603002Y737032D01*
X605034Y735000D01*
X603002Y732968D01*
X600970Y735000D01*
X630970Y736000D02*
X633002Y738032D01*
X635034Y736000D01*
X633002Y733968D01*
X630970Y736000D01*
Y720000D02*
X633002Y722032D01*
X635034Y720000D01*
X633002Y717968D01*
X630970Y720000D01*
X600970D02*
X603002Y722032D01*
X605034Y720000D01*
X603002Y717968D01*
X600970Y720000D01*
X660468Y720000D02*
X662500Y722032D01*
X664532Y720000D01*
X662500Y717968D01*
X660468Y720000D01*
X642968Y677500D02*
X645000Y679532D01*
X647032Y677500D01*
X645000Y675468D01*
X642968Y677500D01*
X657968D02*
X660000Y679532D01*
X662032Y677500D01*
X660000Y675468D01*
X657968Y677500D01*
X647968Y597500D02*
X650000Y599532D01*
X652032Y597500D01*
X650000Y595468D01*
X647968Y597500D01*
X612968Y492500D02*
X615000Y494532D01*
X617032Y492500D01*
X615000Y490468D01*
X612968Y492500D01*
Y510000D02*
X615000Y512032D01*
X617032Y510000D01*
X615000Y507968D01*
X612968Y510000D01*
X1010218Y110250D02*
X1012250Y112282D01*
X1014282Y110250D01*
X1012250Y108218D01*
X1010218Y110250D01*
X981276Y109874D02*
X983308Y111905D01*
X985340Y109874D01*
X983308Y107842D01*
X981276Y109874D01*
X966718Y107815D02*
X968750Y109847D01*
X970782Y107815D01*
X968750Y105783D01*
X966718Y107815D01*
X972968Y115000D02*
X975000Y117032D01*
X977032Y115000D01*
X975000Y112968D01*
X972968Y115000D01*
X957968Y112500D02*
X960000Y114532D01*
X962032Y112500D01*
X960000Y110468D01*
X957968Y112500D01*
X1478962Y769593D02*
X1480994Y771625D01*
X1483026Y769593D01*
X1480994Y767561D01*
X1478962Y769593D01*
Y65593D02*
X1480994Y67625D01*
X1483026Y65593D01*
X1480994Y63561D01*
X1478962Y65593D01*
X118961Y289593D02*
X120993Y291625D01*
X123025Y289593D01*
X120993Y287561D01*
X118961Y289593D01*
X134961Y257593D02*
X136993Y259625D01*
X139025Y257593D01*
X136993Y255561D01*
X134961Y257593D01*
X118961Y225593D02*
X120993Y227625D01*
X123025Y225593D01*
X120993Y223561D01*
X118961Y225593D01*
X86961Y609593D02*
X88993Y611625D01*
X91025Y609593D01*
X88993Y607561D01*
X86961Y609593D01*
Y545593D02*
X88993Y547625D01*
X91025Y545593D01*
X88993Y543561D01*
X86961Y545593D01*
X102961Y449593D02*
X104993Y451625D01*
X107025Y449593D01*
X104993Y447561D01*
X102961Y449593D01*
Y385593D02*
X104993Y387625D01*
X107025Y385593D01*
X104993Y383561D01*
X102961Y385593D01*
Y321593D02*
X104993Y323625D01*
X107025Y321593D01*
X104993Y319561D01*
X102961Y321593D01*
X86961Y289593D02*
X88993Y291625D01*
X91025Y289593D01*
X88993Y287561D01*
X86961Y289593D01*
X102961Y257593D02*
X104993Y259625D01*
X107025Y257593D01*
X104993Y255561D01*
X102961Y257593D01*
X54961Y737593D02*
X56993Y739625D01*
X59025Y737593D01*
X56993Y735561D01*
X54961Y737593D01*
Y673593D02*
X56993Y675625D01*
X59025Y673593D01*
X56993Y671561D01*
X54961Y673593D01*
X70961Y257593D02*
X72993Y259625D01*
X75025Y257593D01*
X72993Y255561D01*
X70961Y257593D01*
X38961Y769593D02*
X40993Y771625D01*
X43025Y769593D01*
X40993Y767561D01*
X38961Y769593D01*
X22961Y737593D02*
X24993Y739625D01*
X27025Y737593D01*
X24993Y735561D01*
X22961Y737593D01*
X38961Y705593D02*
X40993Y707625D01*
X43025Y705593D01*
X40993Y703561D01*
X38961Y705593D01*
X22961Y673593D02*
X24993Y675625D01*
X27025Y673593D01*
X24993Y671561D01*
X22961Y673593D01*
Y289593D02*
X24993Y291625D01*
X27025Y289593D01*
X24993Y287561D01*
X22961Y289593D01*
X38961Y257593D02*
X40993Y259625D01*
X43025Y257593D01*
X40993Y255561D01*
X38961Y257593D01*
X22961Y225593D02*
X24993Y227625D01*
X27025Y225593D01*
X24993Y223561D01*
X22961Y225593D01*
X38961Y193593D02*
X40993Y195625D01*
X43025Y193593D01*
X40993Y191561D01*
X38961Y193593D01*
Y129593D02*
X40993Y131625D01*
X43025Y129593D01*
X40993Y127561D01*
X38961Y129593D01*
X87968Y411000D02*
X90000Y413032D01*
X92032Y411000D01*
X90000Y408968D01*
X87968Y411000D01*
X117718Y442750D02*
X119750Y444782D01*
X121782Y442750D01*
X119750Y440718D01*
X117718Y442750D01*
X87968Y397000D02*
X90000Y399032D01*
X92032Y397000D01*
X90000Y394968D01*
X87968Y397000D01*
Y329000D02*
X90000Y331032D01*
X92032Y329000D01*
X90000Y326968D01*
X87968Y329000D01*
Y341000D02*
X90000Y343032D01*
X92032Y341000D01*
X90000Y338968D01*
X87968Y341000D01*
Y355000D02*
X90000Y357032D01*
X92032Y355000D01*
X90000Y352968D01*
X87968Y355000D01*
Y369000D02*
X90000Y371032D01*
X92032Y369000D01*
X90000Y366968D01*
X87968Y369000D01*
Y383000D02*
X90000Y385032D01*
X92032Y383000D01*
X90000Y380968D01*
X87968Y383000D01*
Y317000D02*
X90000Y319032D01*
X92032Y317000D01*
X90000Y314968D01*
X87968Y317000D01*
Y305000D02*
X90000Y307032D01*
X92032Y305000D01*
X90000Y302968D01*
X87968Y305000D01*
X81968Y296000D02*
X84000Y298032D01*
X86032Y296000D01*
X84000Y293968D01*
X81968Y296000D01*
X69968D02*
X72000Y298032D01*
X74032Y296000D01*
X72000Y293968D01*
X69968Y296000D01*
X3968D02*
X6000Y298032D01*
X8032Y296000D01*
X6000Y293968D01*
X3968Y296000D01*
X17968D02*
X20000Y298032D01*
X22032Y296000D01*
X20000Y293968D01*
X17968Y296000D01*
X31968D02*
X34000Y298032D01*
X36032Y296000D01*
X34000Y293968D01*
X31968Y296000D01*
X45968D02*
X48000Y298032D01*
X50032Y296000D01*
X48000Y293968D01*
X45968Y296000D01*
X57968D02*
X60000Y298032D01*
X62032Y296000D01*
X60000Y293968D01*
X57968Y296000D01*
Y648000D02*
X60000Y650032D01*
X62032Y648000D01*
X60000Y645968D01*
X57968Y648000D01*
X45968D02*
X48000Y650032D01*
X50032Y648000D01*
X48000Y645968D01*
X45968Y648000D01*
X31968D02*
X34000Y650032D01*
X36032Y648000D01*
X34000Y645968D01*
X31968Y648000D01*
X17968D02*
X20000Y650032D01*
X22032Y648000D01*
X20000Y645968D01*
X17968Y648000D01*
X3968D02*
X6000Y650032D01*
X8032Y648000D01*
X6000Y645968D01*
X3968Y648000D01*
X62968Y567500D02*
X65000Y569532D01*
X67032Y567500D01*
X65000Y565468D01*
X62968Y567500D01*
Y515000D02*
X65000Y517032D01*
X67032Y515000D01*
X65000Y512968D01*
X62968Y515000D01*
Y485000D02*
X65000Y487032D01*
X67032Y485000D01*
X65000Y482968D01*
X62968Y485000D01*
Y472500D02*
X65000Y474532D01*
X67032Y472500D01*
X65000Y470468D01*
X62968Y472500D01*
Y527500D02*
X65000Y529532D01*
X67032Y527500D01*
X65000Y525468D01*
X62968Y527500D01*
Y547500D02*
X65000Y549532D01*
X67032Y547500D01*
X65000Y545468D01*
X62968Y547500D01*
Y607500D02*
X65000Y609532D01*
X67032Y607500D01*
X65000Y605468D01*
X62968Y607500D01*
X1265468Y772500D02*
X1267500Y774532D01*
X1269532Y772500D01*
X1267500Y770468D01*
X1265468Y772500D01*
X718968Y415000D02*
X721000Y417032D01*
X723032Y415000D01*
X721000Y412968D01*
X718968Y415000D01*
X472968Y22500D02*
X475000Y24532D01*
X477032Y22500D01*
X475000Y20468D01*
X472968Y22500D01*
X867968Y825000D02*
X870000Y827032D01*
X872032Y825000D01*
X870000Y822968D01*
X867968Y825000D01*
X890468D02*
X892500Y827032D01*
X894532Y825000D01*
X892500Y822968D01*
X890468Y825000D01*
X1422968Y110000D02*
X1425000Y112032D01*
X1427032Y110000D01*
X1425000Y107968D01*
X1422968Y110000D01*
Y87500D02*
X1425000Y89532D01*
X1427032Y87500D01*
X1425000Y85468D01*
X1422968Y87500D01*
Y133000D02*
X1425000Y135032D01*
X1427032Y133000D01*
X1425000Y130968D01*
X1422968Y133000D01*
X1307968Y72500D02*
X1310000Y74532D01*
X1312032Y72500D01*
X1310000Y70468D01*
X1307968Y72500D01*
X1292968Y72500D02*
X1295000Y74532D01*
X1297032Y72500D01*
X1295000Y70468D01*
X1292968Y72500D01*
X1277968Y50000D02*
X1280000Y52032D01*
X1282032Y50000D01*
X1280000Y47968D01*
X1277968Y50000D01*
X1267968Y50000D02*
X1270000Y52032D01*
X1272032Y50000D01*
X1270000Y47968D01*
X1267968Y50000D01*
X1217968Y245000D02*
X1220000Y247032D01*
X1222032Y245000D01*
X1220000Y242968D01*
X1217968Y245000D01*
X1225468Y255000D02*
X1227500Y257032D01*
X1229532Y255000D01*
X1227500Y252968D01*
X1225468Y255000D01*
X1250468Y250000D02*
X1252500Y252032D01*
X1254532Y250000D01*
X1252500Y247968D01*
X1250468Y250000D01*
X1210468Y290000D02*
X1212500Y292032D01*
X1214532Y290000D01*
X1212500Y287968D01*
X1210468Y290000D01*
X487470Y37500D02*
X489502Y39532D01*
X491534Y37500D01*
X489502Y35468D01*
X487470Y37500D01*
X425468Y117500D02*
X427500Y119532D01*
X429532Y117500D01*
X427500Y115468D01*
X425468Y117500D01*
X5468Y157500D02*
X7500Y159532D01*
X9532Y157500D01*
X7500Y155468D01*
X5468Y157500D01*
Y700000D02*
X7500Y702032D01*
X9532Y700000D01*
X7500Y697968D01*
X5468Y700000D01*
X822371Y833097D02*
X824403Y835129D01*
X826435Y833097D01*
X824403Y831065D01*
X822371Y833097D01*
X784868Y834750D02*
X786900Y836782D01*
X788932Y834750D01*
X786900Y832718D01*
X784868Y834750D01*
X770468Y827500D02*
X772500Y829532D01*
X774532Y827500D01*
X772500Y825468D01*
X770468Y827500D01*
X797968Y814998D02*
X800000Y817030D01*
X802032Y814998D01*
X800000Y812966D01*
X797968Y814998D01*
X872930Y791250D02*
X874961Y793282D01*
X876993Y791250D01*
X874961Y789218D01*
X872930Y791250D01*
X695967Y827998D02*
X697999Y830030D01*
X700031Y827998D01*
X697999Y825966D01*
X695967Y827998D01*
X713967D02*
X715999Y830030D01*
X718031Y827998D01*
X715999Y825966D01*
X713967Y827998D01*
X704968Y833000D02*
X707000Y835032D01*
X709032Y833000D01*
X707000Y830968D01*
X704968Y833000D01*
X662968Y832500D02*
X665000Y834532D01*
X667032Y832500D01*
X665000Y830468D01*
X662968Y832500D01*
X1205468Y217500D02*
X1207500Y219532D01*
X1209532Y217500D01*
X1207500Y215468D01*
X1205468Y217500D01*
X1232968Y182500D02*
X1235000Y184532D01*
X1237032Y182500D01*
X1235000Y180468D01*
X1232968Y182500D01*
X22968Y700000D02*
X25000Y702032D01*
X27032Y700000D01*
X25000Y697968D01*
X22968Y700000D01*
X32968Y690000D02*
X35000Y692032D01*
X37032Y690000D01*
X35000Y687968D01*
X32968Y690000D01*
Y167500D02*
X35000Y169532D01*
X37032Y167500D01*
X35000Y165468D01*
X32968Y167500D01*
X22968Y157500D02*
X25000Y159532D01*
X27032Y157500D01*
X25000Y155468D01*
X22968Y157500D01*
X1458968Y384000D02*
X1461000Y386032D01*
X1463032Y384000D01*
X1461000Y381968D01*
X1458968Y384000D01*
X722968Y832503D02*
X725000Y834535D01*
X727032Y832503D01*
X725000Y830471D01*
X722968Y832503D01*
X1120466Y30000D02*
X1122498Y32032D01*
X1124530Y30000D01*
X1122498Y27968D01*
X1120466Y30000D01*
Y45000D02*
X1122498Y47032D01*
X1124530Y45000D01*
X1122498Y42968D01*
X1120466Y45000D01*
Y60000D02*
X1122498Y62032D01*
X1124530Y60000D01*
X1122498Y57968D01*
X1120466Y60000D01*
X245468Y569750D02*
X247500Y571782D01*
X249532Y569750D01*
X247500Y567718D01*
X245468Y569750D01*
X238218Y577000D02*
X240250Y579032D01*
X242282Y577000D01*
X240250Y574968D01*
X238218Y577000D01*
X191968Y562500D02*
X194000Y564532D01*
X196032Y562500D01*
X194000Y560468D01*
X191968Y562500D01*
X177968D02*
X180000Y564532D01*
X182032Y562500D01*
X180000Y560468D01*
X177968Y562500D01*
X357968Y145000D02*
X360000Y147032D01*
X362032Y145000D01*
X360000Y142968D01*
X357968Y145000D01*
X417968Y100000D02*
X420000Y102032D01*
X422032Y100000D01*
X420000Y97968D01*
X417968Y100000D01*
Y40000D02*
X420000Y42032D01*
X422032Y40000D01*
X420000Y37968D01*
X417968Y40000D01*
X22968Y130000D02*
X25000Y132032D01*
X27032Y130000D01*
X25000Y127968D01*
X22968Y130000D01*
X137539Y217500D02*
X139571Y219532D01*
X141603Y217500D01*
X139571Y215468D01*
X137539Y217500D01*
X85468Y165000D02*
X87500Y167032D01*
X89532Y165000D01*
X87500Y162968D01*
X85468Y165000D01*
X82968Y185000D02*
X85000Y187032D01*
X87032Y185000D01*
X85000Y182968D01*
X82968Y185000D01*
X67968Y200000D02*
X70000Y202032D01*
X72032Y200000D01*
X70000Y197968D01*
X67968Y200000D01*
X52968Y215000D02*
X55000Y217032D01*
X57032Y215000D01*
X55000Y212968D01*
X52968Y215000D01*
X160468Y199250D02*
X162500Y201282D01*
X164532Y199250D01*
X162500Y197218D01*
X160468Y199250D01*
X313968Y160500D02*
X316000Y162532D01*
X318032Y160500D01*
X316000Y158468D01*
X313968Y160500D01*
X315967Y151000D02*
X317999Y153032D01*
X320031Y151000D01*
X317999Y148968D01*
X315967Y151000D01*
X135968Y562500D02*
X138000Y564532D01*
X140032Y562500D01*
X138000Y560468D01*
X135968Y562500D01*
X128968Y579500D02*
X131000Y581532D01*
X133032Y579500D01*
X131000Y577468D01*
X128968Y579500D01*
X117718D02*
X119750Y581532D01*
X121782Y579500D01*
X119750Y577468D01*
X117718Y579500D01*
X107968Y569750D02*
X110000Y571782D01*
X112032Y569750D01*
X110000Y567718D01*
X107968Y569750D01*
Y545000D02*
X110000Y547032D01*
X112032Y545000D01*
X110000Y542968D01*
X107968Y545000D01*
Y524000D02*
X110000Y526032D01*
X112032Y524000D01*
X110000Y521968D01*
X107968Y524000D01*
Y517000D02*
X110000Y519032D01*
X112032Y517000D01*
X110000Y514968D01*
X107968Y517000D01*
Y489000D02*
X110000Y491032D01*
X112032Y489000D01*
X110000Y486968D01*
X107968Y489000D01*
Y482000D02*
X110000Y484032D01*
X112032Y482000D01*
X110000Y479968D01*
X107968Y482000D01*
Y475000D02*
X110000Y477032D01*
X112032Y475000D01*
X110000Y472968D01*
X107968Y475000D01*
X127968Y490000D02*
X130000Y492032D01*
X132032Y490000D01*
X130000Y487968D01*
X127968Y490000D01*
Y505000D02*
X130000Y507032D01*
X132032Y505000D01*
X130000Y502968D01*
X127968Y505000D01*
X124968Y468000D02*
X127000Y470032D01*
X129032Y468000D01*
X127000Y465968D01*
X124968Y468000D01*
X128968Y441000D02*
X131000Y443032D01*
X133032Y441000D01*
X131000Y438968D01*
X128968Y441000D01*
X247967Y449999D02*
X250000Y452031D01*
X252031Y449999D01*
X250000Y447967D01*
X247967Y449999D01*
X226968Y459000D02*
X229000Y461032D01*
X231032Y459000D01*
X229000Y456968D01*
X226968Y459000D01*
X160468Y462500D02*
X162500Y464532D01*
X164532Y462500D01*
X162500Y460468D01*
X160468Y462500D01*
X200468Y460000D02*
X202500Y462032D01*
X204532Y460000D01*
X202500Y457968D01*
X200468Y460000D01*
X185468D02*
X187500Y462032D01*
X189532Y460000D01*
X187500Y457968D01*
X185468Y460000D01*
X188468Y499500D02*
X190500Y501532D01*
X192532Y499500D01*
X190500Y497468D01*
X188468Y499500D01*
Y485500D02*
X190500Y487532D01*
X192532Y485500D01*
X190500Y483468D01*
X188468Y485500D01*
X202468D02*
X204500Y487532D01*
X206532Y485500D01*
X204500Y483468D01*
X202468Y485500D01*
Y499500D02*
X204500Y501532D01*
X206532Y499500D01*
X204500Y497468D01*
X202468Y499500D01*
X216468D02*
X218500Y501532D01*
X220532Y499500D01*
X218500Y497468D01*
X216468Y499500D01*
Y485500D02*
X218500Y487532D01*
X220532Y485500D01*
X218500Y483468D01*
X216468Y485500D01*
X188468Y471500D02*
X190500Y473532D01*
X192532Y471500D01*
X190500Y469468D01*
X188468Y471500D01*
X202468D02*
X204500Y473532D01*
X206532Y471500D01*
X204500Y469468D01*
X202468Y471500D01*
X216468D02*
X218500Y473532D01*
X220532Y471500D01*
X218500Y469468D01*
X216468Y471500D01*
X139468Y499500D02*
X141500Y501532D01*
X143532Y499500D01*
X141500Y497468D01*
X139468Y499500D01*
Y485500D02*
X141500Y487532D01*
X143532Y485500D01*
X141500Y483468D01*
X139468Y485500D01*
X153468D02*
X155500Y487532D01*
X157532Y485500D01*
X155500Y483468D01*
X153468Y485500D01*
Y499500D02*
X155500Y501532D01*
X157532Y499500D01*
X155500Y497468D01*
X153468Y499500D01*
X167468D02*
X169500Y501532D01*
X171532Y499500D01*
X169500Y497468D01*
X167468Y499500D01*
Y485500D02*
X169500Y487532D01*
X171532Y485500D01*
X169500Y483468D01*
X167468Y485500D01*
X139468Y471500D02*
X141500Y473532D01*
X143532Y471500D01*
X141500Y469468D01*
X139468Y471500D01*
X153468D02*
X155500Y473532D01*
X157532Y471500D01*
X155500Y469468D01*
X153468Y471500D01*
X167468D02*
X169500Y473532D01*
X171532Y471500D01*
X169500Y469468D01*
X167468Y471500D01*
X188468Y548500D02*
X190500Y550532D01*
X192532Y548500D01*
X190500Y546468D01*
X188468Y548500D01*
Y534500D02*
X190500Y536532D01*
X192532Y534500D01*
X190500Y532468D01*
X188468Y534500D01*
X202468D02*
X204500Y536532D01*
X206532Y534500D01*
X204500Y532468D01*
X202468Y534500D01*
Y548500D02*
X204500Y550532D01*
X206532Y548500D01*
X204500Y546468D01*
X202468Y548500D01*
X216468D02*
X218500Y550532D01*
X220532Y548500D01*
X218500Y546468D01*
X216468Y548500D01*
Y534500D02*
X218500Y536532D01*
X220532Y534500D01*
X218500Y532468D01*
X216468Y534500D01*
X188468Y520500D02*
X190500Y522532D01*
X192532Y520500D01*
X190500Y518468D01*
X188468Y520500D01*
X202468D02*
X204500Y522532D01*
X206532Y520500D01*
X204500Y518468D01*
X202468Y520500D01*
X216468D02*
X218500Y522532D01*
X220532Y520500D01*
X218500Y518468D01*
X216468Y520500D01*
X167468D02*
X169500Y522532D01*
X171532Y520500D01*
X169500Y518468D01*
X167468Y520500D01*
X153468D02*
X155500Y522532D01*
X157532Y520500D01*
X155500Y518468D01*
X153468Y520500D01*
X139468D02*
X141500Y522532D01*
X143532Y520500D01*
X141500Y518468D01*
X139468Y520500D01*
X167468Y534500D02*
X169500Y536532D01*
X171532Y534500D01*
X169500Y532468D01*
X167468Y534500D01*
Y548500D02*
X169500Y550532D01*
X171532Y548500D01*
X169500Y546468D01*
X167468Y548500D01*
X153468D02*
X155500Y550532D01*
X157532Y548500D01*
X155500Y546468D01*
X153468Y548500D01*
Y534500D02*
X155500Y536532D01*
X157532Y534500D01*
X155500Y532468D01*
X153468Y534500D01*
X139468D02*
X141500Y536532D01*
X143532Y534500D01*
X141500Y532468D01*
X139468Y534500D01*
Y548500D02*
X141500Y550532D01*
X143532Y548500D01*
X141500Y546468D01*
X139468Y548500D01*
X1140468Y91750D02*
X1142500Y93782D01*
X1144532Y91750D01*
X1142500Y89718D01*
X1140468Y91750D01*
X1002966Y60000D02*
X1004998Y62032D01*
X1007030Y60000D01*
X1004998Y57968D01*
X1002966Y60000D01*
X1019185Y55283D02*
X1021217Y57315D01*
X1023250Y55283D01*
X1021217Y53250D01*
X1019185Y55283D01*
X1070468Y62500D02*
X1072500Y64532D01*
X1074532Y62500D01*
X1072500Y60468D01*
X1070468Y62500D01*
X1090468Y77500D02*
X1092500Y79532D01*
X1094532Y77500D01*
X1092500Y75468D01*
X1090468Y77500D01*
X1012501Y62032D02*
X1014532Y64064D01*
X1016564Y62032D01*
X1014532Y60000D01*
X1012501Y62032D01*
X998968Y70500D02*
X1001000Y72532D01*
X1003032Y70500D01*
X1001000Y68468D01*
X998968Y70500D01*
X997968Y80000D02*
X1000000Y82032D01*
X1002032Y80000D01*
X1000000Y77968D01*
X997968Y80000D01*
X1432968Y395000D02*
X1435000Y397032D01*
X1437032Y395000D01*
X1435000Y392968D01*
X1432968Y395000D01*
Y402500D02*
X1435000Y404532D01*
X1437032Y402500D01*
X1435000Y400468D01*
X1432968Y402500D01*
X600468Y825000D02*
X602500Y827032D01*
X604532Y825000D01*
X602500Y822968D01*
X600468Y825000D01*
X590468D02*
X592500Y827032D01*
X594532Y825000D01*
X592500Y822968D01*
X590468Y825000D01*
X450468Y622500D02*
X452500Y624532D01*
X454532Y622500D01*
X452500Y620468D01*
X450468Y622500D01*
X390693Y517273D02*
X392725Y519305D01*
X394757Y517273D01*
X392725Y515241D01*
X390693Y517273D01*
X259968Y362000D02*
X262000Y364032D01*
X264032Y362000D01*
X262000Y359968D01*
X259968Y362000D01*
X250468Y365000D02*
X252500Y367032D01*
X254532Y365000D01*
X252500Y362968D01*
X250468Y365000D01*
X254968Y356001D02*
X257000Y358033D01*
X259032Y356001D01*
X257000Y353969D01*
X254968Y356001D01*
X257968Y225000D02*
X260000Y227032D01*
X262032Y225000D01*
X260000Y222968D01*
X257968Y225000D01*
X764468Y770000D02*
X766500Y772032D01*
X768532Y770000D01*
X766500Y767968D01*
X764468Y770000D01*
X754718Y769250D02*
X756750Y771282D01*
X758782Y769250D01*
X756750Y767218D01*
X754718Y769250D01*
X710467Y739998D02*
X712499Y742030D01*
X714531Y739998D01*
X712499Y737967D01*
X710467Y739998D01*
X700468Y737500D02*
X702500Y739532D01*
X704532Y737500D01*
X702500Y735468D01*
X700468Y737500D01*
X747968Y777500D02*
X750000Y779532D01*
X752032Y777500D01*
X750000Y775468D01*
X747968Y777500D01*
X751218Y685750D02*
X753250Y687782D01*
X755282Y685750D01*
X753250Y683718D01*
X751218Y685750D01*
X679468Y671000D02*
X681500Y673032D01*
X683532Y671000D01*
X681500Y668968D01*
X679468Y671000D01*
X670468Y677500D02*
X672500Y679532D01*
X674532Y677500D01*
X672500Y675468D01*
X670468Y677500D01*
X751218Y454250D02*
X753250Y456282D01*
X755282Y454250D01*
X753250Y452218D01*
X751218Y454250D01*
X235468Y245000D02*
X237500Y247032D01*
X239532Y245000D01*
X237500Y242968D01*
X235468Y245000D01*
X235467Y275000D02*
X237500Y277031D01*
X239531Y275000D01*
X237500Y272967D01*
X235467Y275000D01*
X437968Y125000D02*
X440000Y127032D01*
X442032Y125000D01*
X440000Y122968D01*
X437968Y125000D01*
X438133Y64835D02*
X440165Y66867D01*
X442197Y64835D01*
X440165Y62803D01*
X438133Y64835D01*
X645468Y32500D02*
X647500Y34532D01*
X649532Y32500D01*
X647500Y30468D01*
X645468Y32500D01*
X1150468Y557500D02*
X1152500Y559532D01*
X1154532Y557500D01*
X1152500Y555468D01*
X1150468Y557500D01*
X1380468Y667500D02*
X1382500Y669532D01*
X1384532Y667500D01*
X1382500Y665468D01*
X1380468Y667500D01*
X1165468Y612500D02*
X1167500Y614532D01*
X1169532Y612500D01*
X1167500Y610468D01*
X1165468Y612500D01*
X1457968Y392500D02*
X1460000Y394532D01*
X1462032Y392500D01*
X1460000Y390468D01*
X1457968Y392500D01*
X845468Y800000D02*
X847500Y802032D01*
X849532Y800000D01*
X847500Y797968D01*
X845468Y800000D01*
X830468Y802500D02*
X832500Y804532D01*
X834532Y802500D01*
X832500Y800468D01*
X830468Y802500D01*
X815468Y770000D02*
X817500Y772032D01*
X819532Y770000D01*
X817500Y767968D01*
X815468Y770000D01*
X827968Y792500D02*
X830000Y794532D01*
X832032Y792500D01*
X830000Y790468D01*
X827968Y792500D01*
X825468Y767500D02*
X827500Y769532D01*
X829532Y767500D01*
X827500Y765468D01*
X825468Y767500D01*
X1264968Y736000D02*
X1267000Y738032D01*
X1269032Y736000D01*
X1267000Y733968D01*
X1264968Y736000D01*
X697968Y65000D02*
X700000Y67032D01*
X702032Y65000D01*
X700000Y62968D01*
X697968Y65000D01*
X692968Y135000D02*
X695000Y137032D01*
X697032Y135000D01*
X695000Y132968D01*
X692968Y135000D01*
X837968Y77500D02*
X840000Y79532D01*
X842032Y77500D01*
X840000Y75468D01*
X837968Y77500D01*
X837226Y94250D02*
X839258Y96282D01*
X841290Y94250D01*
X839258Y92218D01*
X837226Y94250D01*
X863968Y23809D02*
X866000Y25841D01*
X868032Y23809D01*
X866000Y21777D01*
X863968Y23809D01*
X655468Y40000D02*
X657500Y42032D01*
X659532Y40000D01*
X657500Y37968D01*
X655468Y40000D01*
X676902Y78000D02*
X678934Y80032D01*
X680966Y78000D01*
X678934Y75968D01*
X676902Y78000D01*
X692967Y112500D02*
X694999Y114532D01*
X697031Y112500D01*
X694999Y110468D01*
X692967Y112500D01*
X730468Y115000D02*
X732500Y117032D01*
X734532Y115000D01*
X732500Y112968D01*
X730468Y115000D01*
X690468Y337500D02*
X692500Y339532D01*
X694532Y337500D01*
X692500Y335468D01*
X690468Y337500D01*
X705468D02*
X707500Y339532D01*
X709532Y337500D01*
X707500Y335468D01*
X705468Y337500D01*
X488468Y362000D02*
X490500Y364032D01*
X492532Y362000D01*
X490500Y359968D01*
X488468Y362000D01*
Y327000D02*
X490500Y329032D01*
X492532Y327000D01*
X490500Y324968D01*
X488468Y327000D01*
X561218Y412500D02*
X563250Y414532D01*
X565282Y412500D01*
X563250Y410468D01*
X561218Y412500D01*
X337968Y507500D02*
X340000Y509532D01*
X342032Y507500D01*
X340000Y505468D01*
X337968Y507500D01*
X327968Y520000D02*
X330000Y522032D01*
X332032Y520000D01*
X330000Y517968D01*
X327968Y520000D01*
X317968D02*
X320000Y522032D01*
X322032Y520000D01*
X320000Y517968D01*
X317968Y520000D01*
X280468Y507500D02*
X282500Y509532D01*
X284532Y507500D01*
X282500Y505468D01*
X280468Y507500D01*
X335468Y455000D02*
X337500Y457032D01*
X339532Y455000D01*
X337500Y452968D01*
X335468Y455000D01*
X410468Y420000D02*
X412500Y422032D01*
X414532Y420000D01*
X412500Y417968D01*
X410468Y420000D01*
X400468D02*
X402500Y422032D01*
X404532Y420000D01*
X402500Y417968D01*
X400468Y420000D01*
X385468Y430000D02*
X387500Y432032D01*
X389532Y430000D01*
X387500Y427968D01*
X385468Y430000D01*
X600468Y457500D02*
X602500Y459532D01*
X604532Y457500D01*
X602500Y455468D01*
X600468Y457500D01*
X590468D02*
X592500Y459532D01*
X594532Y457500D01*
X592500Y455468D01*
X590468Y457500D01*
X927968Y450000D02*
X930000Y452032D01*
X932032Y450000D01*
X930000Y447968D01*
X927968Y450000D01*
X905468Y690000D02*
X907500Y692032D01*
X909532Y690000D01*
X907500Y687968D01*
X905468Y690000D01*
X882968Y657500D02*
X885000Y659532D01*
X887032Y657500D01*
X885000Y655468D01*
X882968Y657500D01*
X322968Y622500D02*
X325000Y624532D01*
X327032Y622500D01*
X325000Y620468D01*
X322968Y622500D01*
X255468Y697500D02*
X257500Y699532D01*
X259532Y697500D01*
X257500Y695468D01*
X255468Y697500D01*
X242968Y635000D02*
X245000Y637032D01*
X247032Y635000D01*
X245000Y632968D01*
X242968Y635000D01*
X277968Y452500D02*
X280000Y454532D01*
X282032Y452500D01*
X280000Y450468D01*
X277968Y452500D01*
X177968Y437500D02*
X180000Y439532D01*
X182032Y437500D01*
X180000Y435468D01*
X177968Y437500D01*
X167968Y365000D02*
X170000Y367032D01*
X172032Y365000D01*
X170000Y362968D01*
X167968Y365000D01*
X192968Y342000D02*
X195000Y344032D01*
X197032Y342000D01*
X195000Y339968D01*
X192968Y342000D01*
X210468Y342500D02*
X212500Y344532D01*
X214532Y342500D01*
X212500Y340468D01*
X210468Y342500D01*
X180468Y365000D02*
X182500Y367032D01*
X184532Y365000D01*
X182500Y362968D01*
X180468Y365000D01*
X179970Y320000D02*
X182002Y322032D01*
X184034Y320000D01*
X182002Y317968D01*
X179970Y320000D01*
Y307500D02*
X182002Y309532D01*
X184034Y307500D01*
X182002Y305468D01*
X179970Y307500D01*
X200468Y295000D02*
X202500Y297032D01*
X204532Y295000D01*
X202500Y292968D01*
X200468Y295000D01*
X190468D02*
X192500Y297032D01*
X194532Y295000D01*
X192500Y292968D01*
X190468Y295000D01*
X160468Y438500D02*
X162500Y440532D01*
X164532Y438500D01*
X162500Y436468D01*
X160468Y438500D01*
X120468Y390000D02*
X122500Y392032D01*
X124532Y390000D01*
X122500Y387968D01*
X120468Y390000D01*
X127968Y385000D02*
X130000Y387032D01*
X132032Y385000D01*
X130000Y382968D01*
X127968Y385000D01*
X155468Y342500D02*
X157500Y344532D01*
X159532Y342500D01*
X157500Y340468D01*
X155468Y342500D01*
Y332500D02*
X157500Y334532D01*
X159532Y332500D01*
X157500Y330468D01*
X155468Y332500D01*
Y352500D02*
X157500Y354532D01*
X159532Y352500D01*
X157500Y350468D01*
X155468Y352500D01*
X320468Y235000D02*
X322500Y237032D01*
X324532Y235000D01*
X322500Y232968D01*
X320468Y235000D01*
X207968Y265000D02*
X210000Y267032D01*
X212032Y265000D01*
X210000Y262968D01*
X207968Y265000D01*
X207968Y235000D02*
X210000Y237032D01*
X212032Y235000D01*
X210000Y232968D01*
X207968Y235000D01*
X220468Y232500D02*
X222500Y234532D01*
X224532Y232500D01*
X222500Y230468D01*
X220468Y232500D01*
X232968D02*
X235000Y234532D01*
X237032Y232500D01*
X235000Y230468D01*
X232968Y232500D01*
X195468Y210000D02*
X197500Y212032D01*
X199532Y210000D01*
X197500Y207968D01*
X195468Y210000D01*
X152968Y222500D02*
X155000Y224532D01*
X157032Y222500D01*
X155000Y220468D01*
X152968Y222500D01*
X247968Y235000D02*
X250000Y237032D01*
X252032Y235000D01*
X250000Y232968D01*
X247968Y235000D01*
X305467Y170000D02*
X307499Y172032D01*
X309531Y170000D01*
X307499Y167968D01*
X305467Y170000D01*
X372968Y212500D02*
X375000Y214532D01*
X377032Y212500D01*
X375000Y210468D01*
X372968Y212500D01*
X422968Y225000D02*
X425000Y227032D01*
X427032Y225000D01*
X425000Y222968D01*
X422968Y225000D01*
X445468D02*
X447500Y227032D01*
X449532Y225000D01*
X447500Y222968D01*
X445468Y225000D01*
X352968Y202500D02*
X355000Y204532D01*
X357032Y202500D01*
X355000Y200468D01*
X352968Y202500D01*
X320468Y225000D02*
X322500Y227032D01*
X324532Y225000D01*
X322500Y222968D01*
X320468Y225000D01*
X312968Y202500D02*
X315000Y204532D01*
X317032Y202500D01*
X315000Y200468D01*
X312968Y202500D01*
X337968Y37500D02*
X340000Y39532D01*
X342032Y37500D01*
X340000Y35468D01*
X337968Y37500D01*
X485468Y202500D02*
X487500Y204532D01*
X489532Y202500D01*
X487500Y200468D01*
X485468Y202500D01*
X470468D02*
X472500Y204532D01*
X474532Y202500D01*
X472500Y200468D01*
X470468Y202500D01*
X497968Y142500D02*
X500000Y144532D01*
X502032Y142500D01*
X500000Y140468D01*
X497968Y142500D01*
X522968Y132500D02*
X525000Y134532D01*
X527032Y132500D01*
X525000Y130468D01*
X522968Y132500D01*
X505468D02*
X507500Y134532D01*
X509532Y132500D01*
X507500Y130468D01*
X505468Y132500D01*
Y57500D02*
X507500Y59532D01*
X509532Y57500D01*
X507500Y55468D01*
X505468Y57500D01*
X522968D02*
X525000Y59532D01*
X527032Y57500D01*
X525000Y55468D01*
X522968Y57500D01*
X517968Y22500D02*
X520000Y24532D01*
X522032Y22500D01*
X520000Y20468D01*
X517968Y22500D01*
X507968D02*
X510000Y24532D01*
X512032Y22500D01*
X510000Y20468D01*
X507968Y22500D01*
X440468Y55000D02*
X442500Y57032D01*
X444532Y55000D01*
X442500Y52968D01*
X440468Y55000D01*
X1295468Y532500D02*
X1297500Y534532D01*
X1299532Y532500D01*
X1297500Y530468D01*
X1295468Y532500D01*
Y525000D02*
X1297500Y527032D01*
X1299532Y525000D01*
X1297500Y522968D01*
X1295468Y525000D01*
X1329968Y503000D02*
X1332000Y505032D01*
X1334032Y503000D01*
X1332000Y500968D01*
X1329968Y503000D01*
X1319968D02*
X1322000Y505032D01*
X1324032Y503000D01*
X1322000Y500968D01*
X1319968Y503000D01*
X1309968D02*
X1312000Y505032D01*
X1314032Y503000D01*
X1312000Y500968D01*
X1309968Y503000D01*
X1329968Y528000D02*
X1332000Y530032D01*
X1334032Y528000D01*
X1332000Y525968D01*
X1329968Y528000D01*
X1319968D02*
X1322000Y530032D01*
X1324032Y528000D01*
X1322000Y525968D01*
X1319968Y528000D01*
X1309968D02*
X1312000Y530032D01*
X1314032Y528000D01*
X1312000Y525968D01*
X1309968Y528000D01*
X1310468Y482500D02*
X1312500Y484532D01*
X1314532Y482500D01*
X1312500Y480468D01*
X1310468Y482500D01*
X1320468D02*
X1322500Y484532D01*
X1324532Y482500D01*
X1322500Y480468D01*
X1320468Y482500D01*
X1330468D02*
X1332500Y484532D01*
X1334532Y482500D01*
X1332500Y480468D01*
X1330468Y482500D01*
X1310468Y457500D02*
X1312500Y459532D01*
X1314532Y457500D01*
X1312500Y455468D01*
X1310468Y457500D01*
X1320468D02*
X1322500Y459532D01*
X1324532Y457500D01*
X1322500Y455468D01*
X1320468Y457500D01*
X1330468D02*
X1332500Y459532D01*
X1334532Y457500D01*
X1332500Y455468D01*
X1330468Y457500D01*
X1295468D02*
X1297500Y459532D01*
X1299532Y457500D01*
X1297500Y455468D01*
X1295468Y457500D01*
Y450000D02*
X1297500Y452032D01*
X1299532Y450000D01*
X1297500Y447968D01*
X1295468Y450000D01*
X1297968Y470000D02*
X1300000Y472032D01*
X1302032Y470000D01*
X1300000Y467968D01*
X1297968Y470000D01*
X1272968Y722500D02*
X1275000Y724532D01*
X1277032Y722500D01*
X1275000Y720468D01*
X1272968Y722500D01*
X1290468Y725000D02*
X1292500Y727032D01*
X1294532Y725000D01*
X1292500Y722968D01*
X1290468Y725000D01*
X1350468Y772500D02*
X1352500Y774532D01*
X1354532Y772500D01*
X1352500Y770468D01*
X1350468Y772500D01*
Y805000D02*
X1352500Y807032D01*
X1354532Y805000D01*
X1352500Y802968D01*
X1350468Y805000D01*
Y742500D02*
X1352500Y744532D01*
X1354532Y742500D01*
X1352500Y740468D01*
X1350468Y742500D01*
Y755000D02*
X1352500Y757032D01*
X1354532Y755000D01*
X1352500Y752968D01*
X1350468Y755000D01*
Y790000D02*
X1352500Y792032D01*
X1354532Y790000D01*
X1352500Y787968D01*
X1350468Y790000D01*
X1390468Y782500D02*
X1392500Y784532D01*
X1394532Y782500D01*
X1392500Y780468D01*
X1390468Y782500D01*
X1217968Y202500D02*
X1220000Y204532D01*
X1222032Y202500D01*
X1220000Y200468D01*
X1217968Y202500D01*
X812968Y137500D02*
X815000Y139532D01*
X817032Y137500D01*
X815000Y135468D01*
X812968Y137500D01*
X797968D02*
X800000Y139532D01*
X802032Y137500D01*
X800000Y135468D01*
X797968Y137500D01*
X872966Y110000D02*
X874998Y112032D01*
X877030Y110000D01*
X874998Y107968D01*
X872966Y110000D01*
X847968Y115000D02*
X850000Y117032D01*
X852032Y115000D01*
X850000Y112968D01*
X847968Y115000D01*
X1160468Y137500D02*
X1162500Y139532D01*
X1164532Y137500D01*
X1162500Y135468D01*
X1160468Y137500D01*
X1247968Y150000D02*
X1250000Y152032D01*
X1252032Y150000D01*
X1250000Y147968D01*
X1247968Y150000D01*
Y115000D02*
X1250000Y117032D01*
X1252032Y115000D01*
X1250000Y112968D01*
X1247968Y115000D01*
Y102500D02*
X1250000Y104532D01*
X1252032Y102500D01*
X1250000Y100468D01*
X1247968Y102500D01*
Y165000D02*
X1250000Y167032D01*
X1252032Y165000D01*
X1250000Y162968D01*
X1247968Y165000D01*
Y132500D02*
X1250000Y134532D01*
X1252032Y132500D01*
X1250000Y130468D01*
X1247968Y132500D01*
X550468Y777500D02*
X552500Y779532D01*
X554532Y777500D01*
X552500Y775468D01*
X550468Y777500D01*
X582968Y832500D02*
X585000Y834532D01*
X587032Y832500D01*
X585000Y830468D01*
X582968Y832500D01*
X160468Y767500D02*
X162500Y769532D01*
X164532Y767500D01*
X162500Y765468D01*
X160468Y767500D01*
Y717500D02*
X162500Y719532D01*
X164532Y717500D01*
X162500Y715468D01*
X160468Y717500D01*
X127968Y665000D02*
X130000Y667032D01*
X132032Y665000D01*
X130000Y662968D01*
X127968Y665000D01*
X152968Y732500D02*
X155000Y734532D01*
X157032Y732500D01*
X155000Y730468D01*
X152968Y732500D01*
X147970Y759998D02*
X150001Y762030D01*
X152034Y759998D01*
X150001Y757967D01*
X147970Y759998D01*
X314903Y708500D02*
X316935Y710532D01*
X318967Y708500D01*
X316935Y706468D01*
X314903Y708500D01*
X308968Y701000D02*
X311000Y703032D01*
X313032Y701000D01*
X311000Y698968D01*
X308968Y701000D01*
X307968Y715000D02*
X310000Y717032D01*
X312032Y715000D01*
X310000Y712968D01*
X307968Y715000D01*
X232968D02*
X235000Y717032D01*
X237032Y715000D01*
X235000Y712968D01*
X232968Y715000D01*
X457968Y730000D02*
X460000Y732032D01*
X462032Y730000D01*
X460000Y727968D01*
X457968Y730000D01*
X445468D02*
X447500Y732032D01*
X449532Y730000D01*
X447500Y727968D01*
X445468Y730000D01*
X472968Y742500D02*
X475000Y744532D01*
X477032Y742500D01*
X475000Y740468D01*
X472968Y742500D01*
X127968Y650000D02*
X130000Y652032D01*
X132032Y650000D01*
X130000Y647968D01*
X127968Y650000D01*
X92968Y772500D02*
X95000Y774532D01*
X97032Y772500D01*
X95000Y770468D01*
X92968Y772500D01*
X430468Y745000D02*
X432500Y747032D01*
X434532Y745000D01*
X432500Y742968D01*
X430468Y745000D01*
X432968Y755000D02*
X435000Y757032D01*
X437032Y755000D01*
X435000Y752968D01*
X432968Y755000D01*
X425468Y762500D02*
X427500Y764532D01*
X429532Y762500D01*
X427500Y760468D01*
X425468Y762500D01*
X87968Y795000D02*
X90000Y797032D01*
X92032Y795000D01*
X90000Y792968D01*
X87968Y795000D01*
X82968Y805000D02*
X85000Y807032D01*
X87032Y805000D01*
X85000Y802968D01*
X82968Y805000D01*
X387967Y764000D02*
X389999Y766032D01*
X392031Y764000D01*
X389999Y761968D01*
X387967Y764000D01*
X382968Y780000D02*
X385000Y782032D01*
X387032Y780000D01*
X385000Y777968D01*
X382968Y780000D01*
X390468Y787500D02*
X392500Y789532D01*
X394532Y787500D01*
X392500Y785468D01*
X390468Y787500D01*
X380034Y770500D02*
X382066Y772532D01*
X384098Y770500D01*
X382066Y768468D01*
X380034Y770500D01*
X380468Y792500D02*
X382500Y794532D01*
X384532Y792500D01*
X382500Y790468D01*
X380468Y792500D01*
X181968Y746500D02*
X184000Y748532D01*
X186032Y746500D01*
X184000Y744468D01*
X181968Y746500D01*
X77968Y827500D02*
X80000Y829532D01*
X82032Y827500D01*
X80000Y825468D01*
X77968Y827500D01*
X527968Y825000D02*
X530000Y827032D01*
X532032Y825000D01*
X530000Y822968D01*
X527968Y825000D01*
X430468Y790000D02*
X432500Y792032D01*
X434532Y790000D01*
X432500Y787968D01*
X430468Y790000D01*
X345468Y792500D02*
X347500Y794532D01*
X349532Y792500D01*
X347500Y790468D01*
X345468Y792500D01*
X235467Y814998D02*
X237500Y817030D01*
X239531Y814998D01*
X237500Y812966D01*
X235467Y814998D01*
X440467Y779998D02*
X442499Y782030D01*
X444531Y779998D01*
X442499Y777966D01*
X440467Y779998D01*
X447968Y790000D02*
X450000Y792032D01*
X452032Y790000D01*
X450000Y787968D01*
X447968Y790000D01*
X455468Y782500D02*
X457500Y784532D01*
X459532Y782500D01*
X457500Y780468D01*
X455468Y782500D01*
X327968Y825000D02*
X330000Y827032D01*
X332032Y825000D01*
X330000Y822968D01*
X327968Y825000D01*
X247968Y822500D02*
X250000Y824532D01*
X252032Y822500D01*
X250000Y820468D01*
X247968Y822500D01*
X277968D02*
X280000Y824532D01*
X282032Y822500D01*
X280000Y820468D01*
X277968Y822500D01*
X480468Y785000D02*
X482500Y787032D01*
X484532Y785000D01*
X482500Y782968D01*
X480468Y785000D01*
X200468Y722500D02*
X202500Y724532D01*
X204532Y722500D01*
X202500Y720468D01*
X200468Y722500D01*
X262968Y715000D02*
X265000Y717032D01*
X267032Y715000D01*
X265000Y712968D01*
X262968Y715000D01*
X365468Y792500D02*
X367500Y794532D01*
X369532Y792500D01*
X367500Y790468D01*
X365468Y792500D01*
X322968Y764998D02*
X325000Y767030D01*
X327032Y764998D01*
X325000Y762966D01*
X322968Y764998D01*
X327968Y792500D02*
X330000Y794532D01*
X332032Y792500D01*
X330000Y790468D01*
X327968Y792500D01*
X302968Y760000D02*
X305000Y762032D01*
X307032Y760000D01*
X305000Y757968D01*
X302968Y760000D01*
X297968Y765000D02*
X300000Y767032D01*
X302032Y765000D01*
X300000Y762968D01*
X297968Y765000D01*
X277968Y792500D02*
X280000Y794532D01*
X282032Y792500D01*
X280000Y790468D01*
X277968Y792500D01*
X215468Y755000D02*
X217500Y757032D01*
X219532Y755000D01*
X217500Y752968D01*
X215468Y755000D01*
X1144968Y761000D02*
X1147000Y763032D01*
X1149032Y761000D01*
X1147000Y758968D01*
X1144968Y761000D01*
X1134966Y760999D02*
X1136998Y763030D01*
X1139030Y760999D01*
X1136998Y758967D01*
X1134966Y760999D01*
X1134968Y686000D02*
X1137000Y688032D01*
X1139032Y686000D01*
X1137000Y683968D01*
X1134968Y686000D01*
X1134966Y727002D02*
X1136998Y729034D01*
X1139030Y727002D01*
X1136998Y724970D01*
X1134966Y727002D01*
X1089966D02*
X1091998Y729034D01*
X1094030Y727002D01*
X1091998Y724970D01*
X1089966Y727002D01*
X1089968Y686000D02*
X1092000Y688032D01*
X1094032Y686000D01*
X1092000Y683968D01*
X1089968Y686000D01*
X1082968Y761000D02*
X1085000Y763032D01*
X1087032Y761000D01*
X1085000Y758968D01*
X1082968Y761000D01*
X1072968Y760500D02*
X1075000Y762532D01*
X1077032Y760500D01*
X1075000Y758468D01*
X1072968Y760500D01*
X1133968Y713000D02*
X1136000Y715032D01*
X1138032Y713000D01*
X1136000Y710968D01*
X1133968Y713000D01*
X1091966Y712999D02*
X1093998Y715031D01*
X1096030Y712999D01*
X1093998Y710967D01*
X1091966Y712999D01*
X1153968Y699000D02*
X1156000Y701032D01*
X1158032Y699000D01*
X1156000Y696968D01*
X1153968Y699000D01*
X1071968Y713000D02*
X1074000Y715032D01*
X1076032Y713000D01*
X1074000Y710968D01*
X1071968Y713000D01*
X849012Y446953D02*
X851044Y448985D01*
X853076Y446953D01*
X851044Y444921D01*
X849012Y446953D01*
X853448Y437954D02*
X855480Y439986D01*
X857513Y437954D01*
X855480Y435923D01*
X853448Y437954D01*
X835966Y452999D02*
X837998Y455031D01*
X840030Y452999D01*
X837998Y450967D01*
X835966Y452999D01*
X847968Y430000D02*
X850000Y432032D01*
X852032Y430000D01*
X850000Y427968D01*
X847968Y430000D01*
X825968Y453000D02*
X828000Y455032D01*
X830032Y453000D01*
X828000Y450968D01*
X825968Y453000D01*
X710468Y775000D02*
X712500Y777032D01*
X714532Y775000D01*
X712500Y772968D01*
X710468Y775000D01*
X717968Y782500D02*
X720000Y784532D01*
X722032Y782500D01*
X720000Y780468D01*
X717968Y782500D01*
X702968Y767500D02*
X705000Y769532D01*
X707032Y767500D01*
X705000Y765468D01*
X702968Y767500D01*
X617968Y760307D02*
X620000Y762339D01*
X622032Y760307D01*
X620000Y758275D01*
X617968Y760307D01*
X571967D02*
X573999Y762339D01*
X576031Y760307D01*
X573999Y758275D01*
X571967Y760307D01*
X567968Y777500D02*
X570000Y779532D01*
X572032Y777500D01*
X570000Y775468D01*
X567968Y777500D01*
X587968Y765000D02*
X590000Y767032D01*
X592032Y765000D01*
X590000Y762968D01*
X587968Y765000D01*
X618775Y750807D02*
X620807Y752839D01*
X622839Y750807D01*
X620807Y748775D01*
X618775Y750807D01*
X562467Y759998D02*
X564499Y762030D01*
X566531Y759998D01*
X564499Y757967D01*
X562467Y759998D01*
X545468Y670000D02*
X547500Y672032D01*
X549532Y670000D01*
X547500Y667968D01*
X545468Y670000D01*
X575468Y750807D02*
X577500Y752839D01*
X579532Y750807D01*
X577500Y748775D01*
X575468Y750807D01*
X551968Y741500D02*
X554000Y743532D01*
X556032Y741500D01*
X554000Y739468D01*
X551968Y741500D01*
X488968D02*
X491000Y743532D01*
X493032Y741500D01*
X491000Y739468D01*
X488968Y741500D01*
X472968Y732500D02*
X475000Y734532D01*
X477032Y732500D01*
X475000Y730468D01*
X472968Y732500D01*
X542967Y764998D02*
X544999Y767030D01*
X547031Y764998D01*
X544999Y762967D01*
X542967Y764998D01*
X510468Y777500D02*
X512500Y779532D01*
X514532Y777500D01*
X512500Y775468D01*
X510468Y777500D01*
X525468Y770000D02*
X527500Y772032D01*
X529532Y770000D01*
X527500Y767968D01*
X525468Y770000D01*
X495468D02*
X497500Y772032D01*
X499532Y770000D01*
X497500Y767968D01*
X495468Y770000D01*
X582968Y785000D02*
X585000Y787032D01*
X587032Y785000D01*
X585000Y782968D01*
X582968Y785000D01*
X302968Y822500D02*
X305000Y824532D01*
X307032Y822500D01*
X305000Y820468D01*
X302968Y822500D01*
X215468Y737500D02*
X217500Y739532D01*
X219532Y737500D01*
X217500Y735468D01*
X215468Y737500D01*
X627967Y832498D02*
X629999Y834530D01*
X632031Y832498D01*
X629999Y830466D01*
X627967Y832498D01*
X1247968Y80000D02*
X1250000Y82032D01*
X1252032Y80000D01*
X1250000Y77968D01*
X1247968Y80000D01*
X1305468Y572500D02*
X1307500Y574532D01*
X1309532Y572500D01*
X1307500Y570468D01*
X1305468Y572500D01*
X1292968Y602500D02*
X1295000Y604532D01*
X1297032Y602500D01*
X1295000Y600468D01*
X1292968Y602500D01*
X1180468Y597500D02*
X1182500Y599532D01*
X1184532Y597500D01*
X1182500Y595468D01*
X1180468Y597500D01*
X1270468Y572500D02*
X1272500Y574532D01*
X1274532Y572500D01*
X1272500Y570468D01*
X1270468Y572500D01*
X865468Y505000D02*
X867500Y507032D01*
X869532Y505000D01*
X867500Y502968D01*
X865468Y505000D01*
X762968Y562500D02*
X765000Y564532D01*
X767032Y562500D01*
X765000Y560468D01*
X762968Y562500D01*
X772968Y297500D02*
X775000Y299532D01*
X777032Y297500D01*
X775000Y295468D01*
X772968Y297500D01*
X760468Y305000D02*
X762500Y307032D01*
X764532Y305000D01*
X762500Y302968D01*
X760468Y305000D01*
X787968Y450000D02*
X790000Y452032D01*
X792032Y450000D01*
X790000Y447968D01*
X787968Y450000D01*
X780468D02*
X782500Y452032D01*
X784532Y450000D01*
X782500Y447968D01*
X780468Y450000D01*
X571468Y628500D02*
X573500Y630532D01*
X575532Y628500D01*
X573500Y626468D01*
X571468Y628500D01*
X600468Y610000D02*
X602500Y612032D01*
X604532Y610000D01*
X602500Y607968D01*
X600468Y610000D01*
X607968Y617500D02*
X610000Y619532D01*
X612032Y617500D01*
X610000Y615468D01*
X607968Y617500D01*
X532965Y762500D02*
X534997Y764532D01*
X537029Y762500D01*
X534997Y760468D01*
X532965Y762500D01*
X502968D02*
X505000Y764532D01*
X507032Y762500D01*
X505000Y760468D01*
X502968Y762500D01*
X472968Y687500D02*
X475000Y689532D01*
X477032Y687500D01*
X475000Y685468D01*
X472968Y687500D01*
X615468Y567500D02*
X617500Y569532D01*
X619532Y567500D01*
X617500Y565468D01*
X615468Y567500D01*
X614468Y526000D02*
X616500Y528032D01*
X618532Y526000D01*
X616500Y523968D01*
X614468Y526000D01*
X640468Y555000D02*
X642500Y557032D01*
X644532Y555000D01*
X642500Y552968D01*
X640468Y555000D01*
X725468Y507500D02*
X727500Y509532D01*
X729532Y507500D01*
X727500Y505468D01*
X725468Y507500D01*
X717968Y515000D02*
X720000Y517032D01*
X722032Y515000D01*
X720000Y512968D01*
X717968Y515000D01*
X712968Y492500D02*
X715000Y494532D01*
X717032Y492500D01*
X715000Y490468D01*
X712968Y492500D01*
X704468Y500500D02*
X706500Y502532D01*
X708532Y500500D01*
X706500Y498468D01*
X704468Y500500D01*
X695968Y493000D02*
X698000Y495032D01*
X700032Y493000D01*
X698000Y490968D01*
X695968Y493000D01*
X542967Y483999D02*
X544999Y486031D01*
X547031Y483999D01*
X544999Y481967D01*
X542967Y483999D01*
X582968Y494000D02*
X585000Y496032D01*
X587032Y494000D01*
X585000Y491968D01*
X582968Y494000D01*
X880468Y472500D02*
X882500Y474532D01*
X884532Y472500D01*
X882500Y470468D01*
X880468Y472500D01*
X717968Y482500D02*
X720000Y484532D01*
X722032Y482500D01*
X720000Y480468D01*
X717968Y482500D01*
X705468Y465000D02*
X707500Y467032D01*
X709532Y465000D01*
X707500Y462968D01*
X705468Y465000D01*
X727967Y484999D02*
X729998Y487031D01*
X732030Y484999D01*
X729998Y482967D01*
X727967Y484999D01*
X685968Y787500D02*
X688000Y789532D01*
X690032Y787500D01*
X688000Y785468D01*
X685968Y787500D01*
X695468Y785000D02*
X697500Y787032D01*
X699532Y785000D01*
X697500Y782968D01*
X695468Y785000D01*
X690468Y722500D02*
X692500Y724532D01*
X694532Y722500D01*
X692500Y720468D01*
X690468Y722500D01*
X537967Y677499D02*
X539999Y679531D01*
X542031Y677499D01*
X539999Y675467D01*
X537967Y677499D01*
X736468Y471500D02*
X738500Y473532D01*
X740532Y471500D01*
X738500Y469468D01*
X736468Y471500D01*
X717968Y460000D02*
X720000Y462032D01*
X722032Y460000D01*
X720000Y457968D01*
X717968Y460000D01*
X542967Y529999D02*
X544999Y532031D01*
X547031Y529999D01*
X544999Y527967D01*
X542967Y529999D01*
X515468Y525000D02*
X517500Y527032D01*
X519532Y525000D01*
X517500Y522968D01*
X515468Y525000D01*
X550468Y522500D02*
X552500Y524532D01*
X554532Y522500D01*
X552500Y520468D01*
X550468Y522500D01*
X765468Y375000D02*
X767500Y377032D01*
X769532Y375000D01*
X767500Y372968D01*
X765468Y375000D01*
X772968Y390000D02*
X775000Y392032D01*
X777032Y390000D01*
X775000Y387968D01*
X772968Y390000D01*
X847968Y472500D02*
X850000Y474532D01*
X852032Y472500D01*
X850000Y470468D01*
X847968Y472500D01*
X835468Y430000D02*
X837500Y432032D01*
X839532Y430000D01*
X837500Y427968D01*
X835468Y430000D01*
X810468Y397500D02*
X812500Y399532D01*
X814532Y397500D01*
X812500Y395468D01*
X810468Y397500D01*
X410468Y90000D02*
X412500Y92032D01*
X414532Y90000D01*
X412500Y87968D01*
X410468Y90000D01*
X462968Y792500D02*
X465000Y794532D01*
X467032Y792500D01*
X465000Y790468D01*
X462968Y792500D01*
X670467Y135000D02*
X672499Y137032D01*
X674531Y135000D01*
X672499Y132968D01*
X670467Y135000D01*
X680468Y127500D02*
X682500Y129532D01*
X684532Y127500D01*
X682500Y125468D01*
X680468Y127500D01*
X410468Y47500D02*
X412500Y49532D01*
X414532Y47500D01*
X412500Y45468D01*
X410468Y47500D01*
X672967Y87500D02*
X674999Y89532D01*
X677031Y87500D01*
X674999Y85468D01*
X672967Y87500D01*
X655468Y27500D02*
X657500Y29532D01*
X659532Y27500D01*
X657500Y25468D01*
X655468Y27500D01*
X397968Y60000D02*
X400000Y62032D01*
X402032Y60000D01*
X400000Y57968D01*
X397968Y60000D01*
Y85000D02*
X400000Y87032D01*
X402032Y85000D01*
X400000Y82968D01*
X397968Y85000D01*
X462968Y165000D02*
X465000Y167032D01*
X467032Y165000D01*
X465000Y162968D01*
X462968Y165000D01*
Y142500D02*
X465000Y144532D01*
X467032Y142500D01*
X465000Y140468D01*
X462968Y142500D01*
X437968Y40000D02*
X440000Y42032D01*
X442032Y40000D01*
X440000Y37968D01*
X437968Y40000D01*
X582968Y477500D02*
X585000Y479532D01*
X587032Y477500D01*
X585000Y475468D01*
X582968Y477500D01*
X532968Y467500D02*
X535000Y469532D01*
X537032Y467500D01*
X535000Y465468D01*
X532968Y467500D01*
X535467Y477499D02*
X537499Y479531D01*
X539531Y477499D01*
X537499Y475467D01*
X535467Y477499D01*
X500468Y487500D02*
X502500Y489532D01*
X504532Y487500D01*
X502500Y485468D01*
X500468Y487500D01*
X502968Y502500D02*
X505000Y504532D01*
X507032Y502500D01*
X505000Y500468D01*
X502968Y502500D01*
X510468Y515000D02*
X512500Y517032D01*
X514532Y515000D01*
X512500Y512968D01*
X510468Y515000D01*
X390468Y442500D02*
X392500Y444532D01*
X394532Y442500D01*
X392500Y440468D01*
X390468Y442500D01*
X582968Y687500D02*
X585000Y689532D01*
X587032Y687500D01*
X585000Y685468D01*
X582968Y687500D01*
X586968Y641500D02*
X589000Y643532D01*
X591032Y641500D01*
X589000Y639468D01*
X586968Y641500D01*
X593968Y686000D02*
X596000Y688032D01*
X598032Y686000D01*
X596000Y683968D01*
X593968Y686000D01*
X600468Y635000D02*
X602500Y637032D01*
X604532Y635000D01*
X602500Y632968D01*
X600468Y635000D01*
X607968Y647500D02*
X610000Y649532D01*
X612032Y647500D01*
X610000Y645468D01*
X607968Y647500D01*
X615468Y660000D02*
X617500Y662032D01*
X619532Y660000D01*
X617500Y657968D01*
X615468Y660000D01*
X512967Y552499D02*
X514999Y554531D01*
X517031Y552499D01*
X514999Y550467D01*
X512967Y552499D01*
X505468Y545000D02*
X507500Y547032D01*
X509532Y545000D01*
X507500Y542968D01*
X505468Y545000D01*
X527968Y552500D02*
X530000Y554532D01*
X532032Y552500D01*
X530000Y550468D01*
X527968Y552500D01*
X537968Y557500D02*
X540000Y559532D01*
X542032Y557500D01*
X540000Y555468D01*
X537968Y557500D01*
X544968Y565808D02*
X547000Y567840D01*
X549032Y565808D01*
X547000Y563776D01*
X544968Y565808D01*
X572967Y589999D02*
X574999Y592031D01*
X577031Y589999D01*
X574999Y587967D01*
X572967Y589999D01*
X595467D02*
X597499Y592031D01*
X599531Y589999D01*
X597499Y587967D01*
X595467Y589999D01*
X602968Y582500D02*
X605000Y584532D01*
X607032Y582500D01*
X605000Y580468D01*
X602968Y582500D01*
X540468Y620000D02*
X542500Y622032D01*
X544532Y620000D01*
X542500Y617968D01*
X540468Y620000D01*
X540467Y629999D02*
X542499Y632031D01*
X544531Y629999D01*
X542499Y627967D01*
X540467Y629999D01*
X662968Y597500D02*
X665000Y599532D01*
X667032Y597500D01*
X665000Y595468D01*
X662968Y597500D01*
X632967Y547499D02*
X634999Y549531D01*
X637031Y547499D01*
X634999Y545467D01*
X632967Y547499D01*
X647968Y570000D02*
X650000Y572032D01*
X652032Y570000D01*
X650000Y567968D01*
X647968Y570000D01*
X632968Y572500D02*
X635000Y574532D01*
X637032Y572500D01*
X635000Y570468D01*
X632968Y572500D01*
X625468Y562500D02*
X627500Y564532D01*
X629532Y562500D01*
X627500Y560468D01*
X625468Y562500D01*
X655468Y542500D02*
X657500Y544532D01*
X659532Y542500D01*
X657500Y540468D01*
X655468Y542500D01*
X260467Y407499D02*
X262500Y409531D01*
X264531Y407499D01*
X262500Y405467D01*
X260467Y407499D01*
Y414999D02*
X262500Y417031D01*
X264531Y414999D01*
X262500Y412967D01*
X260467Y414999D01*
X510467Y792498D02*
X512499Y794530D01*
X514531Y792498D01*
X512499Y790466D01*
X510467Y792498D01*
X490968Y475000D02*
X493000Y477032D01*
X495032Y475000D01*
X493000Y472968D01*
X490968Y475000D01*
X480121Y510347D02*
X482153Y512379D01*
X484185Y510347D01*
X482153Y508315D01*
X480121Y510347D01*
X440468Y552500D02*
X442500Y554532D01*
X444532Y552500D01*
X442500Y550468D01*
X440468Y552500D01*
Y537500D02*
X442500Y539532D01*
X444532Y537500D01*
X442500Y535468D01*
X440468Y537500D01*
X427968Y545000D02*
X430000Y547032D01*
X432032Y545000D01*
X430000Y542968D01*
X427968Y545000D01*
X432968Y530000D02*
X435000Y532032D01*
X437032Y530000D01*
X435000Y527968D01*
X432968Y530000D01*
X440468Y522500D02*
X442500Y524532D01*
X444532Y522500D01*
X442500Y520468D01*
X440468Y522500D01*
X390468Y505000D02*
X392500Y507032D01*
X394532Y505000D01*
X392500Y502968D01*
X390468Y505000D01*
X427967Y674999D02*
X429999Y677031D01*
X432031Y674999D01*
X429999Y672967D01*
X427967Y674999D01*
X387968Y695000D02*
X390000Y697032D01*
X392032Y695000D01*
X390000Y692968D01*
X387968Y695000D01*
X385468Y682500D02*
X387500Y684532D01*
X389532Y682500D01*
X387500Y680468D01*
X385468Y682500D01*
X260468Y285000D02*
X262500Y287032D01*
X264532Y285000D01*
X262500Y282968D01*
X260468Y285000D01*
X272968D02*
X275000Y287032D01*
X277032Y285000D01*
X275000Y282968D01*
X272968Y285000D01*
X285468D02*
X287500Y287032D01*
X289532Y285000D01*
X287500Y282968D01*
X285468Y285000D01*
X297968D02*
X300000Y287032D01*
X302032Y285000D01*
X300000Y282968D01*
X297968Y285000D01*
X310468D02*
X312500Y287032D01*
X314532Y285000D01*
X312500Y282968D01*
X310468Y285000D01*
X322968D02*
X325000Y287032D01*
X327032Y285000D01*
X325000Y282968D01*
X322968Y285000D01*
X262968Y200000D02*
X265000Y202032D01*
X267032Y200000D01*
X265000Y197968D01*
X262968Y200000D01*
X225467Y202500D02*
X227500Y204532D01*
X229531Y202500D01*
X227500Y200468D01*
X225467Y202500D01*
X242967Y192500D02*
X245000Y194532D01*
X247031Y192500D01*
X245000Y190468D01*
X242967Y192500D01*
X260468Y255000D02*
X262500Y257032D01*
X264532Y255000D01*
X262500Y252968D01*
X260468Y255000D01*
X272968D02*
X275000Y257032D01*
X277032Y255000D01*
X275000Y252968D01*
X272968Y255000D01*
X285468D02*
X287500Y257032D01*
X289532Y255000D01*
X287500Y252968D01*
X285468Y255000D01*
X297968D02*
X300000Y257032D01*
X302032Y255000D01*
X300000Y252968D01*
X297968Y255000D01*
X310468D02*
X312500Y257032D01*
X314532Y255000D01*
X312500Y252968D01*
X310468Y255000D01*
X322968D02*
X325000Y257032D01*
X327032Y255000D01*
X325000Y252968D01*
X322968Y255000D01*
X312968Y132500D02*
X315000Y134532D01*
X317032Y132500D01*
X315000Y130468D01*
X312968Y132500D01*
Y40000D02*
X315000Y42032D01*
X317032Y40000D01*
X315000Y37968D01*
X312968Y40000D01*
X282968Y135000D02*
X285000Y137032D01*
X287032Y135000D01*
X285000Y132968D01*
X282968Y135000D01*
X303718Y141750D02*
X305750Y143782D01*
X307782Y141750D01*
X305750Y139718D01*
X303718Y141750D01*
X760468Y57500D02*
X762500Y59532D01*
X764532Y57500D01*
X762500Y55468D01*
X760468Y57500D01*
X280468Y75000D02*
X282500Y77032D01*
X284532Y75000D01*
X282500Y72968D01*
X280468Y75000D01*
X200468Y76998D02*
X202500Y79030D01*
X204532Y76998D01*
X202500Y74966D01*
X200468Y76998D01*
X280468Y155000D02*
X282500Y157032D01*
X284532Y155000D01*
X282500Y152968D01*
X280468Y155000D01*
X277968Y90000D02*
X280000Y92032D01*
X282032Y90000D01*
X280000Y87968D01*
X277968Y90000D01*
X164968Y76998D02*
X167000Y79030D01*
X169032Y76998D01*
X167000Y74966D01*
X164968Y76998D01*
X832968Y45000D02*
X835000Y47032D01*
X837032Y45000D01*
X835000Y42968D01*
X832968Y45000D01*
X287218Y166750D02*
X289250Y168782D01*
X291282Y166750D01*
X289250Y164718D01*
X287218Y166750D01*
X295468Y125000D02*
X297500Y127032D01*
X299532Y125000D01*
X297500Y122968D01*
X295468Y125000D01*
X135968Y77000D02*
X138000Y79032D01*
X140032Y77000D01*
X138000Y74968D01*
X135968Y77000D01*
X254967Y108000D02*
X256999Y110032D01*
X259032Y108000D01*
X256999Y105968D01*
X254967Y108000D01*
X330468Y105000D02*
X332500Y107032D01*
X334532Y105000D01*
X332500Y102968D01*
X330468Y105000D01*
X792968Y45000D02*
X795000Y47032D01*
X797032Y45000D01*
X795000Y42968D01*
X792968Y45000D01*
X125468Y77000D02*
X127500Y79032D01*
X129532Y77000D01*
X127500Y74968D01*
X125468Y77000D01*
X242967Y70000D02*
X245000Y72032D01*
X247031Y70000D01*
X245000Y67968D01*
X242967Y70000D01*
X315467Y80000D02*
X317499Y82032D01*
X319531Y80000D01*
X317499Y77968D01*
X315467Y80000D01*
Y65000D02*
X317499Y67032D01*
X319531Y65000D01*
X317499Y62968D01*
X315467Y65000D01*
X210468Y107000D02*
X212500Y109032D01*
X214532Y107000D01*
X212500Y104968D01*
X210468Y107000D01*
X247468Y101117D02*
X249500Y103149D01*
X251532Y101117D01*
X249500Y99085D01*
X247468Y101117D01*
X434276Y498000D02*
X436308Y500032D01*
X438340Y498000D01*
X436308Y495968D01*
X434276Y498000D01*
X445467Y497499D02*
X447499Y499531D01*
X449531Y497499D01*
X447499Y495467D01*
X445467Y497499D01*
X430468Y507500D02*
X432500Y509532D01*
X434532Y507500D01*
X432500Y505468D01*
X430468Y507500D01*
X432968Y482500D02*
X435000Y484532D01*
X437032Y482500D01*
X435000Y480468D01*
X432968Y482500D01*
X390468Y492500D02*
X392500Y494532D01*
X394532Y492500D01*
X392500Y490468D01*
X390468Y492500D01*
Y480000D02*
X392500Y482032D01*
X394532Y480000D01*
X392500Y477968D01*
X390468Y480000D01*
Y467500D02*
X392500Y469532D01*
X394532Y467500D01*
X392500Y465468D01*
X390468Y467500D01*
Y455000D02*
X392500Y457032D01*
X394532Y455000D01*
X392500Y452968D01*
X390468Y455000D01*
X221719Y66251D02*
X223751Y68283D01*
X225783Y66251D01*
X223751Y64219D01*
X221719Y66251D01*
X881218Y101000D02*
X883250Y103032D01*
X885282Y101000D01*
X883250Y98968D01*
X881218Y101000D01*
X822968Y32500D02*
X825000Y34532D01*
X827032Y32500D01*
X825000Y30468D01*
X822968Y32500D01*
X825468Y54571D02*
X827500Y56603D01*
X829532Y54571D01*
X827500Y52539D01*
X825468Y54571D01*
X785468Y52500D02*
X787500Y54532D01*
X789532Y52500D01*
X787500Y50468D01*
X785468Y52500D01*
X775468Y57500D02*
X777500Y59532D01*
X779532Y57500D01*
X777500Y55468D01*
X775468Y57500D01*
X175468Y76998D02*
X177500Y79030D01*
X179532Y76998D01*
X177500Y74966D01*
X175468Y76998D01*
X832968Y30000D02*
X835000Y32032D01*
X837032Y30000D01*
X835000Y27968D01*
X832968Y30000D01*
X187968Y76998D02*
X190000Y79030D01*
X192032Y76998D01*
X190000Y74966D01*
X187968Y76998D01*
X752968Y30000D02*
X755000Y32032D01*
X757032Y30000D01*
X755000Y27968D01*
X752968Y30000D01*
X792968Y30000D02*
X795000Y32032D01*
X797032Y30000D01*
X795000Y27968D01*
X792968Y30000D01*
X950468Y72500D02*
X952500Y74532D01*
X954532Y72500D01*
X952500Y70468D01*
X950468Y72500D01*
X965468Y77500D02*
X967500Y79532D01*
X969532Y77500D01*
X967500Y75468D01*
X965468Y77500D01*
X957579Y66176D02*
X959611Y68208D01*
X961643Y66176D01*
X959611Y64144D01*
X957579Y66176D01*
X927968Y82500D02*
X930000Y84532D01*
X932032Y82500D01*
X930000Y80468D01*
X927968Y82500D01*
X917968D02*
X920000Y84532D01*
X922032Y82500D01*
X920000Y80468D01*
X917968Y82500D01*
X937968D02*
X940000Y84532D01*
X942032Y82500D01*
X940000Y80468D01*
X937968Y82500D01*
X940468Y72500D02*
X942500Y74532D01*
X944532Y72500D01*
X942500Y70468D01*
X940468Y72500D01*
X822968Y90000D02*
X825000Y92032D01*
X827032Y90000D01*
X825000Y87968D01*
X822968Y90000D01*
X812968Y107500D02*
X815000Y109532D01*
X817032Y107500D01*
X815000Y105468D01*
X812968Y107500D01*
X877968Y82500D02*
X880000Y84532D01*
X882032Y82500D01*
X880000Y80468D01*
X877968Y82500D01*
X875466Y72500D02*
X877498Y74532D01*
X879530Y72500D01*
X877498Y70468D01*
X875466Y72500D01*
X742968Y82500D02*
X745000Y84532D01*
X747032Y82500D01*
X745000Y80468D01*
X742968Y82500D01*
X987966Y85000D02*
X989998Y87032D01*
X992030Y85000D01*
X989998Y82968D01*
X987966Y85000D01*
X900468Y112500D02*
X902500Y114532D01*
X904532Y112500D01*
X902500Y110468D01*
X900468Y112500D01*
X1087968Y32500D02*
X1090000Y34532D01*
X1092032Y32500D01*
X1090000Y30468D01*
X1087968Y32500D01*
X1132968Y45000D02*
X1135000Y47032D01*
X1137032Y45000D01*
X1135000Y42968D01*
X1132968Y45000D01*
Y57500D02*
X1135000Y59532D01*
X1137032Y57500D01*
X1135000Y55468D01*
X1132968Y57500D01*
Y32500D02*
X1135000Y34532D01*
X1137032Y32500D01*
X1135000Y30468D01*
X1132968Y32500D01*
X1120468Y77500D02*
X1122500Y79532D01*
X1124532Y77500D01*
X1122500Y75468D01*
X1120468Y77500D01*
X1162968Y57500D02*
X1165000Y59532D01*
X1167032Y57500D01*
X1165000Y55468D01*
X1162968Y57500D01*
Y45000D02*
X1165000Y47032D01*
X1167032Y45000D01*
X1165000Y42968D01*
X1162968Y45000D01*
Y32500D02*
X1165000Y34532D01*
X1167032Y32500D01*
X1165000Y30468D01*
X1162968Y32500D01*
X1117968Y125000D02*
X1120000Y127032D01*
X1122032Y125000D01*
X1120000Y122968D01*
X1117968Y125000D01*
X1132968Y122500D02*
X1135000Y124532D01*
X1137032Y122500D01*
X1135000Y120468D01*
X1132968Y122500D01*
X1107968Y102500D02*
X1110000Y104532D01*
X1112032Y102500D01*
X1110000Y100468D01*
X1107968Y102500D01*
X1247968Y50000D02*
X1250000Y52032D01*
X1252032Y50000D01*
X1250000Y47968D01*
X1247968Y50000D01*
X1235468Y32500D02*
X1237500Y34532D01*
X1239532Y32500D01*
X1237500Y30468D01*
X1235468Y32500D01*
X1195468D02*
X1197500Y34532D01*
X1199532Y32500D01*
X1197500Y30468D01*
X1195468Y32500D01*
X905468Y657500D02*
X907500Y659532D01*
X909532Y657500D01*
X907500Y655468D01*
X905468Y657500D01*
X1202968Y687500D02*
X1205000Y689532D01*
X1207032Y687500D01*
X1205000Y685468D01*
X1202968Y687500D01*
X1217968Y687500D02*
X1220000Y689532D01*
X1222032Y687500D01*
X1220000Y685468D01*
X1217968Y687500D01*
X1290468Y690000D02*
X1292500Y692032D01*
X1294532Y690000D01*
X1292500Y687968D01*
X1290468Y690000D01*
X1272968Y692500D02*
X1275000Y694532D01*
X1277032Y692500D01*
X1275000Y690468D01*
X1272968Y692500D01*
X1247968Y720000D02*
X1250000Y722032D01*
X1252032Y720000D01*
X1250000Y717968D01*
X1247968Y720000D01*
Y752500D02*
X1250000Y754532D01*
X1252032Y752500D01*
X1250000Y750468D01*
X1247968Y752500D01*
X1235468Y800000D02*
X1237500Y802032D01*
X1239532Y800000D01*
X1237500Y797968D01*
X1235468Y800000D01*
X1225468D02*
X1227500Y802032D01*
X1229532Y800000D01*
X1227500Y797968D01*
X1225468Y800000D01*
X1215468D02*
X1217500Y802032D01*
X1219532Y800000D01*
X1217500Y797968D01*
X1215468Y800000D01*
X1202968Y785000D02*
X1205000Y787032D01*
X1207032Y785000D01*
X1205000Y782968D01*
X1202968Y785000D01*
X1250468Y475000D02*
X1252500Y477032D01*
X1254532Y475000D01*
X1252500Y472968D01*
X1250468Y475000D01*
Y465000D02*
X1252500Y467032D01*
X1254532Y465000D01*
X1252500Y462968D01*
X1250468Y465000D01*
X1265468Y450000D02*
X1267500Y452032D01*
X1269532Y450000D01*
X1267500Y447968D01*
X1265468Y450000D01*
X1262968Y515000D02*
X1265000Y517032D01*
X1267032Y515000D01*
X1265000Y512968D01*
X1262968Y515000D01*
X1265468Y532500D02*
X1267500Y534532D01*
X1269532Y532500D01*
X1267500Y530468D01*
X1265468Y532500D01*
X1370468Y280000D02*
X1372500Y282032D01*
X1374532Y280000D01*
X1372500Y277968D01*
X1370468Y280000D01*
X1447968Y250000D02*
X1450000Y252032D01*
X1452032Y250000D01*
X1450000Y247968D01*
X1447968Y250000D01*
X1437968D02*
X1440000Y252032D01*
X1442032Y250000D01*
X1440000Y247968D01*
X1437968Y250000D01*
X1427968D02*
X1430000Y252032D01*
X1432032Y250000D01*
X1430000Y247968D01*
X1427968Y250000D01*
X1417968D02*
X1420000Y252032D01*
X1422032Y250000D01*
X1420000Y247968D01*
X1417968Y250000D01*
X1395468Y267500D02*
X1397500Y269532D01*
X1399532Y267500D01*
X1397500Y265468D01*
X1395468Y267500D01*
X1385468D02*
X1387500Y269532D01*
X1389532Y267500D01*
X1387500Y265468D01*
X1385468Y267500D01*
X1382968Y370000D02*
X1385000Y372032D01*
X1387032Y370000D01*
X1385000Y367968D01*
X1382968Y370000D01*
X1290468Y392500D02*
X1292500Y394532D01*
X1294532Y392500D01*
X1292500Y390468D01*
X1290468Y392500D01*
X1252968Y354490D02*
X1255000Y356522D01*
X1257032Y354490D01*
X1255000Y352458D01*
X1252968Y354490D01*
X1262968D02*
X1265000Y356522D01*
X1267032Y354490D01*
X1265000Y352458D01*
X1262968Y354490D01*
X1272968D02*
X1275000Y356522D01*
X1277032Y354490D01*
X1275000Y352458D01*
X1272968Y354490D01*
X1245468Y344490D02*
X1247500Y346522D01*
X1249532Y344490D01*
X1247500Y342458D01*
X1245468Y344490D01*
Y326990D02*
X1247500Y329022D01*
X1249532Y326990D01*
X1247500Y324958D01*
X1245468Y326990D01*
Y280000D02*
X1247500Y282032D01*
X1249532Y280000D01*
X1247500Y277968D01*
X1245468Y280000D01*
Y297500D02*
X1247500Y299532D01*
X1249532Y297500D01*
X1247500Y295468D01*
X1245468Y297500D01*
X1272968Y307500D02*
X1275000Y309532D01*
X1277032Y307500D01*
X1275000Y305468D01*
X1272968Y307500D01*
X1262968D02*
X1265000Y309532D01*
X1267032Y307500D01*
X1265000Y305468D01*
X1262968Y307500D01*
X1252968D02*
X1255000Y309532D01*
X1257032Y307500D01*
X1255000Y305468D01*
X1252968Y307500D01*
X1272968Y270000D02*
X1275000Y272032D01*
X1277032Y270000D01*
X1275000Y267968D01*
X1272968Y270000D01*
X1252968D02*
X1255000Y272032D01*
X1257032Y270000D01*
X1255000Y267968D01*
X1252968Y270000D01*
X1262968D02*
X1265000Y272032D01*
X1267032Y270000D01*
X1265000Y267968D01*
X1262968Y270000D01*
X1255468Y405000D02*
X1257500Y407032D01*
X1259532Y405000D01*
X1257500Y402968D01*
X1255468Y405000D01*
X1272968Y415000D02*
X1275000Y417032D01*
X1277032Y415000D01*
X1275000Y412968D01*
X1272968Y415000D01*
X1282968D02*
X1285000Y417032D01*
X1287032Y415000D01*
X1285000Y412968D01*
X1282968Y415000D01*
X1197968Y467500D02*
X1200000Y469532D01*
X1202032Y467500D01*
X1200000Y465468D01*
X1197968Y467500D01*
X535468Y270000D02*
X537500Y272032D01*
X539532Y270000D01*
X537500Y267968D01*
X535468Y270000D01*
X672968Y375000D02*
X675000Y377032D01*
X677032Y375000D01*
X675000Y372968D01*
X672968Y375000D01*
X512968Y377500D02*
X515000Y379532D01*
X517032Y377500D01*
X515000Y375468D01*
X512968Y377500D01*
X522968Y327500D02*
X525000Y329532D01*
X527032Y327500D01*
X525000Y325468D01*
X522968Y327500D01*
X522968Y362500D02*
X525000Y364532D01*
X527032Y362500D01*
X525000Y360468D01*
X522968Y362500D01*
X781968Y420000D02*
X784000Y422032D01*
X786032Y420000D01*
X784000Y417968D01*
X781968Y420000D01*
X788968D02*
X791000Y422032D01*
X793032Y420000D01*
X791000Y417968D01*
X788968Y420000D01*
X796968Y618000D02*
X799000Y620032D01*
X801032Y618000D01*
X799000Y615968D01*
X796968Y618000D01*
X765430Y617538D02*
X767462Y619570D01*
X769494Y617538D01*
X767462Y615506D01*
X765430Y617538D01*
X796968Y627000D02*
X799000Y629032D01*
X801032Y627000D01*
X799000Y624968D01*
X796968Y627000D01*
X150468Y77000D02*
X152500Y79032D01*
X154532Y77000D01*
X152500Y74968D01*
X150468Y77000D01*
X57968Y133000D02*
X60000Y135032D01*
X62032Y133000D01*
X60000Y130968D01*
X57968Y133000D01*
X102968Y146000D02*
X105000Y148032D01*
X107032Y146000D01*
X105000Y143968D01*
X102968Y146000D01*
Y133500D02*
X105000Y135532D01*
X107032Y133500D01*
X105000Y131468D01*
X102968Y133500D01*
X150968Y107000D02*
X153000Y109032D01*
X155032Y107000D01*
X153000Y104968D01*
X150968Y107000D01*
X190968Y270000D02*
X193000Y272032D01*
X195032Y270000D01*
X193000Y267968D01*
X190968Y270000D01*
X185968Y232500D02*
X188000Y234532D01*
X190032Y232500D01*
X188000Y230468D01*
X185968Y232500D01*
X165968Y237500D02*
X168000Y239532D01*
X170032Y237500D01*
X168000Y235468D01*
X165968Y237500D01*
X170968Y459000D02*
X173000Y461032D01*
X175032Y459000D01*
X173000Y456968D01*
X170968Y459000D01*
X254968Y650000D02*
X257000Y652032D01*
X259032Y650000D01*
X257000Y647968D01*
X254968Y650000D01*
X248968Y288000D02*
X251000Y290032D01*
X253032Y288000D01*
X251000Y285968D01*
X248968Y288000D01*
Y297000D02*
X251000Y299032D01*
X253032Y297000D01*
X251000Y294968D01*
X248968Y297000D01*
X247968Y319000D02*
X250000Y321032D01*
X252032Y319000D01*
X250000Y316968D01*
X247968Y319000D01*
X215968D02*
X218000Y321032D01*
X220032Y319000D01*
X218000Y316968D01*
X215968Y319000D01*
X299968Y341000D02*
X302000Y343032D01*
X304032Y341000D01*
X302000Y338968D01*
X299968Y341000D01*
X289968D02*
X292000Y343032D01*
X294032Y341000D01*
X292000Y338968D01*
X289968Y341000D01*
X275968Y308000D02*
X278000Y310032D01*
X280032Y308000D01*
X278000Y305968D01*
X275968Y308000D01*
X266968D02*
X269000Y310032D01*
X271032Y308000D01*
X269000Y305968D01*
X266968Y308000D01*
X254968Y326000D02*
X257000Y328032D01*
X259032Y326000D01*
X257000Y323968D01*
X254968Y326000D01*
X127968Y372000D02*
X130000Y374032D01*
X132032Y372000D01*
X130000Y369968D01*
X127968Y372000D01*
X121968Y422000D02*
X124000Y424032D01*
X126032Y422000D01*
X124000Y419968D01*
X121968Y422000D01*
X148968Y436000D02*
X151000Y438032D01*
X153032Y436000D01*
X151000Y433968D01*
X148968Y436000D01*
X242968Y406000D02*
X245000Y408032D01*
X247032Y406000D01*
X245000Y403968D01*
X242968Y406000D01*
X163968Y407000D02*
X166000Y409032D01*
X168032Y407000D01*
X166000Y404968D01*
X163968Y407000D01*
X182968Y402000D02*
X185000Y404032D01*
X187032Y402000D01*
X185000Y399968D01*
X182968Y402000D01*
X174968D02*
X177000Y404032D01*
X179032Y402000D01*
X177000Y399968D01*
X174968Y402000D01*
X203968Y391000D02*
X206000Y393032D01*
X208032Y391000D01*
X206000Y388968D01*
X203968Y391000D01*
X193968D02*
X196000Y393032D01*
X198032Y391000D01*
X196000Y388968D01*
X193968Y391000D01*
X215968Y407000D02*
X218000Y409032D01*
X220032Y407000D01*
X218000Y404968D01*
X215968Y407000D01*
X223718Y675750D02*
X225750Y677782D01*
X227782Y675750D01*
X225750Y673718D01*
X223718Y675750D01*
X224968Y643000D02*
X227000Y645032D01*
X229032Y643000D01*
X227000Y640968D01*
X224968Y643000D01*
X221533Y653000D02*
X223565Y655032D01*
X225597Y653000D01*
X223565Y650968D01*
X221533Y653000D01*
X198968Y579000D02*
X201000Y581032D01*
X203032Y579000D01*
X201000Y576968D01*
X198968Y579000D01*
X184968D02*
X187000Y581032D01*
X189032Y579000D01*
X187000Y576968D01*
X184968Y579000D01*
X142968D02*
X145000Y581032D01*
X147032Y579000D01*
X145000Y576968D01*
X142968Y579000D01*
X149968Y588000D02*
X152000Y590032D01*
X154032Y588000D01*
X152000Y585968D01*
X149968Y588000D01*
X156968Y579000D02*
X159000Y581032D01*
X161032Y579000D01*
X159000Y576968D01*
X156968Y579000D01*
X163968Y588000D02*
X166000Y590032D01*
X168032Y588000D01*
X166000Y585968D01*
X163968Y588000D01*
X170968Y579000D02*
X173000Y581032D01*
X175032Y579000D01*
X173000Y576968D01*
X170968Y579000D01*
X222968Y714000D02*
X225000Y716032D01*
X227032Y714000D01*
X225000Y711968D01*
X222968Y714000D01*
Y701500D02*
X225000Y703532D01*
X227032Y701500D01*
X225000Y699468D01*
X222968Y701500D01*
Y664000D02*
X225000Y666032D01*
X227032Y664000D01*
X225000Y661968D01*
X222968Y664000D01*
Y689000D02*
X225000Y691032D01*
X227032Y689000D01*
X225000Y686968D01*
X222968Y689000D01*
X345968Y707500D02*
X348000Y709532D01*
X350032Y707500D01*
X348000Y705468D01*
X345968Y707500D01*
X345470Y695000D02*
X347502Y697032D01*
X349534Y695000D01*
X347502Y692968D01*
X345470Y695000D01*
Y682500D02*
X347502Y684532D01*
X349534Y682500D01*
X347502Y680468D01*
X345470Y682500D01*
Y670000D02*
X347502Y672032D01*
X349534Y670000D01*
X347502Y667968D01*
X345470Y670000D01*
Y657500D02*
X347502Y659532D01*
X349534Y657500D01*
X347502Y655468D01*
X345470Y657500D01*
X346662Y636500D02*
X348694Y638532D01*
X350726Y636500D01*
X348694Y634468D01*
X346662Y636500D01*
X309968Y640000D02*
X312000Y642032D01*
X314032Y640000D01*
X312000Y637968D01*
X309968Y640000D01*
X287968Y650000D02*
X290000Y652032D01*
X292032Y650000D01*
X290000Y647968D01*
X287968Y650000D01*
X286968Y669000D02*
X289000Y671032D01*
X291032Y669000D01*
X289000Y666968D01*
X286968Y669000D01*
X308968Y675000D02*
X311000Y677032D01*
X313032Y675000D01*
X311000Y672968D01*
X308968Y675000D01*
X286968Y682000D02*
X289000Y684032D01*
X291032Y682000D01*
X289000Y679968D01*
X286968Y682000D01*
X308968Y689000D02*
X311000Y691032D01*
X313032Y689000D01*
X311000Y686968D01*
X308968Y689000D01*
X286968Y695000D02*
X289000Y697032D01*
X291032Y695000D01*
X289000Y692968D01*
X286968Y695000D01*
X228968Y524000D02*
X231000Y526032D01*
X233032Y524000D01*
X231000Y521968D01*
X228968Y524000D01*
Y538000D02*
X231000Y540032D01*
X233032Y538000D01*
X231000Y535968D01*
X228968Y538000D01*
Y552000D02*
X231000Y554032D01*
X233032Y552000D01*
X231000Y549968D01*
X228968Y552000D01*
X228968Y489000D02*
X231000Y491032D01*
X233032Y489000D01*
X231000Y486968D01*
X228968Y489000D01*
X228968Y496000D02*
X231000Y498032D01*
X233032Y496000D01*
X231000Y493968D01*
X228968Y496000D01*
X280471Y520000D02*
X282503Y522032D01*
X284535Y520000D01*
X282503Y517968D01*
X280471Y520000D01*
X250465Y495000D02*
X252497Y497032D01*
X254529Y495000D01*
X252497Y492968D01*
X250465Y495000D01*
X250468Y507500D02*
X252500Y509532D01*
X254532Y507500D01*
X252500Y505468D01*
X250468Y507500D01*
X512968Y147500D02*
X515000Y149532D01*
X517032Y147500D01*
X515000Y145468D01*
X512968Y147500D01*
X472968Y610000D02*
X475000Y612032D01*
X477032Y610000D01*
X475000Y607968D01*
X472968Y610000D01*
X482968Y677500D02*
X485000Y679532D01*
X487032Y677500D01*
X485000Y675468D01*
X482968Y677500D01*
X462968Y620000D02*
X465000Y622032D01*
X467032Y620000D01*
X465000Y617968D01*
X462968Y620000D01*
X447968Y652500D02*
X450000Y654532D01*
X452032Y652500D01*
X450000Y650468D01*
X447968Y652500D01*
X425468Y570000D02*
X427500Y572032D01*
X429532Y570000D01*
X427500Y567968D01*
X425468Y570000D01*
X307968Y630000D02*
X310000Y632032D01*
X312032Y630000D01*
X310000Y627968D01*
X307968Y630000D01*
X450468Y692500D02*
X452500Y694532D01*
X454532Y692500D01*
X452500Y690468D01*
X450468Y692500D01*
X440468Y605000D02*
X442500Y607032D01*
X444532Y605000D01*
X442500Y602968D01*
X440468Y605000D01*
X380468Y657500D02*
X382500Y659532D01*
X384532Y657500D01*
X382500Y655468D01*
X380468Y657500D01*
X375468Y670000D02*
X377500Y672032D01*
X379532Y670000D01*
X377500Y667968D01*
X375468Y670000D01*
X392968Y587500D02*
X395000Y589532D01*
X397032Y587500D01*
X395000Y585468D01*
X392968Y587500D01*
X670468Y782500D02*
X672500Y784532D01*
X674532Y782500D01*
X672500Y780468D01*
X670468Y782500D01*
X387968Y632500D02*
X390000Y634532D01*
X392032Y632500D01*
X390000Y630468D01*
X387968Y632500D01*
Y645000D02*
X390000Y647032D01*
X392032Y645000D01*
X390000Y642968D01*
X387968Y645000D01*
X375468Y695000D02*
X377500Y697032D01*
X379532Y695000D01*
X377500Y692968D01*
X375468Y695000D01*
Y707500D02*
X377500Y709532D01*
X379532Y707500D01*
X377500Y705468D01*
X375468Y707500D01*
X905466Y614999D02*
X907498Y617031D01*
X909530Y614999D01*
X907498Y612967D01*
X905466Y614999D01*
X915466D02*
X917498Y617031D01*
X919530Y614999D01*
X917498Y612967D01*
X915466Y614999D01*
X922966Y622499D02*
X924998Y624531D01*
X927030Y622499D01*
X924998Y620467D01*
X922966Y622499D01*
X932966D02*
X934998Y624531D01*
X937030Y622499D01*
X934998Y620467D01*
X932966Y622499D01*
X940468Y615000D02*
X942500Y617032D01*
X944532Y615000D01*
X942500Y612968D01*
X940468Y615000D01*
X995466Y669999D02*
X997498Y672031D01*
X999530Y669999D01*
X997498Y667967D01*
X995466Y669999D01*
X985466D02*
X987498Y672031D01*
X989530Y669999D01*
X987498Y667967D01*
X985466Y669999D01*
X1010468Y627500D02*
X1012500Y629532D01*
X1014532Y627500D01*
X1012500Y625468D01*
X1010468Y627500D01*
X1020468D02*
X1022500Y629532D01*
X1024532Y627500D01*
X1022500Y625468D01*
X1020468Y627500D01*
X1030466Y627499D02*
X1032498Y629531D01*
X1034530Y627499D01*
X1032498Y625467D01*
X1030466Y627499D01*
X1065467Y627499D02*
X1067499Y629531D01*
X1069531Y627499D01*
X1067499Y625467D01*
X1065467Y627499D01*
X1060468Y695000D02*
X1062500Y697032D01*
X1064532Y695000D01*
X1062500Y692968D01*
X1060468Y695000D01*
X1042966Y694999D02*
X1044998Y697031D01*
X1047030Y694999D01*
X1044998Y692967D01*
X1042966Y694999D01*
X1035468Y687500D02*
X1037500Y689532D01*
X1039532Y687500D01*
X1037500Y685468D01*
X1035468Y687500D01*
X1017966Y697499D02*
X1019998Y699531D01*
X1022030Y697499D01*
X1019998Y695467D01*
X1017966Y697499D01*
X975468Y670000D02*
X977500Y672032D01*
X979532Y670000D01*
X977500Y667968D01*
X975468Y670000D01*
X975466Y659999D02*
X977498Y662031D01*
X979530Y659999D01*
X977498Y657967D01*
X975466Y659999D01*
X950466Y614999D02*
X952498Y617031D01*
X954530Y614999D01*
X952498Y612967D01*
X950466Y614999D01*
X960468Y605000D02*
X962500Y607032D01*
X964532Y605000D01*
X962500Y602968D01*
X960468Y605000D01*
X970468D02*
X972500Y607032D01*
X974532Y605000D01*
X972500Y602968D01*
X970468Y605000D01*
X990468D02*
X992500Y607032D01*
X994532Y605000D01*
X992500Y602968D01*
X990468Y605000D01*
X987968Y627500D02*
X990000Y629532D01*
X992032Y627500D01*
X990000Y625468D01*
X987968Y627500D01*
X902968Y605000D02*
X905000Y607032D01*
X907032Y605000D01*
X905000Y602968D01*
X902968Y605000D01*
X1007966Y697499D02*
X1009998Y699531D01*
X1012030Y697499D01*
X1009998Y695467D01*
X1007966Y697499D01*
X1000468Y690000D02*
X1002500Y692032D01*
X1004532Y690000D01*
X1002500Y687968D01*
X1000468Y690000D01*
Y680000D02*
X1002500Y682032D01*
X1004532Y680000D01*
X1002500Y677968D01*
X1000468Y680000D01*
X452968Y515000D02*
X455000Y517032D01*
X457032Y515000D01*
X455000Y512968D01*
X452968Y515000D01*
X445468Y475000D02*
X447500Y477032D01*
X449532Y475000D01*
X447500Y472968D01*
X445468Y475000D01*
X437968Y467500D02*
X440000Y469532D01*
X442032Y467500D01*
X440000Y465468D01*
X437968Y467500D01*
X340468Y202500D02*
X342500Y204532D01*
X344532Y202500D01*
X342500Y200468D01*
X340468Y202500D01*
X392968D02*
X395000Y204532D01*
X397032Y202500D01*
X395000Y200468D01*
X392968Y202500D01*
X377968D02*
X380000Y204532D01*
X382032Y202500D01*
X380000Y200468D01*
X377968Y202500D01*
X325468D02*
X327500Y204532D01*
X329532Y202500D01*
X327500Y200468D01*
X325468Y202500D01*
X425468Y410000D02*
X427500Y412032D01*
X429532Y410000D01*
X427500Y407968D01*
X425468Y410000D01*
X395468Y230000D02*
X397500Y232032D01*
X399532Y230000D01*
X397500Y227968D01*
X395468Y230000D01*
X435468Y220000D02*
X437500Y222032D01*
X439532Y220000D01*
X437500Y217968D01*
X435468Y220000D01*
X711468Y415000D02*
X713500Y417032D01*
X715532Y415000D01*
X713500Y412968D01*
X711468Y415000D01*
X557468Y360000D02*
X559500Y362032D01*
X561532Y360000D01*
X559500Y357968D01*
X557468Y360000D01*
X564968D02*
X567000Y362032D01*
X569032Y360000D01*
X567000Y357968D01*
X564968Y360000D01*
X727718Y405000D02*
X729750Y407032D01*
X731782Y405000D01*
X729750Y402968D01*
X727718Y405000D01*
X628468Y360000D02*
X630500Y362032D01*
X632532Y360000D01*
X630500Y357968D01*
X628468Y360000D01*
X735218Y405000D02*
X737250Y407032D01*
X739282Y405000D01*
X737250Y402968D01*
X735218Y405000D01*
X620968Y360000D02*
X623000Y362032D01*
X625032Y360000D01*
X623000Y357968D01*
X620968Y360000D01*
X977968Y627500D02*
X980000Y629532D01*
X982032Y627500D01*
X980000Y625468D01*
X977968Y627500D01*
X892968Y605000D02*
X895000Y607032D01*
X897032Y605000D01*
X895000Y602968D01*
X892968Y605000D01*
X980468D02*
X982500Y607032D01*
X984532Y605000D01*
X982500Y602968D01*
X980468Y605000D01*
X1067968Y687500D02*
X1070000Y689532D01*
X1072032Y687500D01*
X1070000Y685468D01*
X1067968Y687500D01*
X1050466Y687499D02*
X1052498Y689531D01*
X1054530Y687499D01*
X1052498Y685467D01*
X1050466Y687499D01*
X687967Y560999D02*
X689999Y563031D01*
X692031Y560999D01*
X689999Y558967D01*
X687967Y560999D01*
X269967Y179000D02*
X271999Y181032D01*
X274032Y179000D01*
X271999Y176968D01*
X269967Y179000D01*
X272968Y164000D02*
X275000Y166032D01*
X277032Y164000D01*
X275000Y161968D01*
X272968Y164000D01*
X157968Y295000D02*
X160000Y297032D01*
X162032Y295000D01*
X160000Y292968D01*
X157968Y295000D01*
X624468Y319000D02*
X626500Y321032D01*
X628532Y319000D01*
X626500Y316968D01*
X624468Y319000D01*
X897968Y425000D02*
X900000Y427032D01*
X902032Y425000D01*
X900000Y422968D01*
X897968Y425000D01*
X885468Y460000D02*
X887500Y462032D01*
X889532Y460000D01*
X887500Y457968D01*
X885468Y460000D01*
D207*
X1382032Y91000D02*
G03*
X1382032Y91000I-2032J0D01*
G01*
Y169000D02*
G03*
X1382032Y169000I-2032J0D01*
G01*
X1417032Y583000D02*
G03*
X1417032Y583000I-2032J0D01*
G01*
Y752000D02*
G03*
X1417032Y752000I-2032J0D01*
G01*
X122032Y681000D02*
G03*
X122032Y681000I-2032J0D01*
G01*
Y759000D02*
G03*
X122032Y759000I-2032J0D01*
G01*
D208*
X1416016Y583000D02*
G03*
X1416016Y583000I-1016J0D01*
G01*
Y752000D02*
G03*
X1416016Y752000I-1016J0D01*
G01*
M02*
