G04*
G04 #@! TF.GenerationSoftware,Altium Limited,Altium Designer,18.1.9 (240)*
G04*
G04 Layer_Color=65535*
%FSLAX44Y44*%
%MOMM*%
G71*
G01*
G75*
%ADD10C,0.1270*%
%ADD11C,0.2000*%
D10*
X157100Y3000D02*
Y117000D01*
Y2000D02*
Y118001D01*
X101101Y2000D02*
Y118001D01*
Y2000D02*
X157100D01*
X101101Y118001D02*
X157100D01*
X2900Y3000D02*
Y117000D01*
Y1999D02*
Y118000D01*
X58899Y1999D02*
Y118000D01*
X2900D02*
X58899D01*
X2900Y1999D02*
X58899D01*
D11*
X112290Y87940D02*
Y90939D01*
Y89439D01*
X103293D01*
X104792Y87940D01*
Y95438D02*
X103293Y96937D01*
Y99936D01*
X104792Y101436D01*
X110790D01*
X112290Y99936D01*
Y96937D01*
X110790Y95438D01*
X104792D01*
X112290Y28250D02*
Y31249D01*
Y29750D01*
X103293D01*
X104792Y28250D01*
X47710Y32060D02*
Y29061D01*
Y30561D01*
X56707D01*
X55208Y32060D01*
Y24562D02*
X56707Y23063D01*
Y20064D01*
X55208Y18564D01*
X49210D01*
X47710Y20064D01*
Y23063D01*
X49210Y24562D01*
X55208D01*
X47710Y91750D02*
Y88751D01*
Y90251D01*
X56707D01*
X55208Y91750D01*
M02*
