G04*
G04 #@! TF.GenerationSoftware,Altium Limited,Altium Designer,18.1.9 (240)*
G04*
G04 Layer_Physical_Order=1*
G04 Layer_Color=3162822*
%FSLAX44Y44*%
%MOMM*%
G71*
G01*
G75*
%ADD12R,1.2000X0.3000*%
%ADD13R,3.0000X2.7000*%
%ADD16C,0.1500*%
%ADD17C,0.6000*%
D12*
X110100Y37500D02*
D03*
Y42500D02*
D03*
Y47500D02*
D03*
Y52500D02*
D03*
Y57500D02*
D03*
Y62500D02*
D03*
Y67500D02*
D03*
Y72500D02*
D03*
Y77500D02*
D03*
Y82500D02*
D03*
X49900Y82500D02*
D03*
Y77500D02*
D03*
Y72500D02*
D03*
Y67500D02*
D03*
Y62500D02*
D03*
Y57500D02*
D03*
Y52500D02*
D03*
Y47500D02*
D03*
Y42500D02*
D03*
Y37500D02*
D03*
D13*
X129900Y18200D02*
D03*
Y101800D02*
D03*
X30100D02*
D03*
Y18200D02*
D03*
D16*
X90500Y47000D02*
X92000Y48500D01*
X50400Y47000D02*
X90500D01*
Y58000D02*
X92000Y56499D01*
X50400Y58000D02*
X90500D01*
X49900Y77500D02*
X50400Y78000D01*
X90500D01*
X49900Y67500D02*
X50149Y67251D01*
X90752D01*
X92000Y68499D01*
X100000Y67499D02*
X122000D01*
X100000Y76499D02*
X101000Y77499D01*
X92000Y76499D02*
X100000D01*
X90500Y78000D02*
X92000Y76499D01*
X99000Y68499D02*
X100000Y67499D01*
X92000Y68499D02*
X99000D01*
X100000Y56499D02*
X101000Y57499D01*
X92000Y56499D02*
X100000D01*
X87502Y52499D02*
X110099D01*
X110100Y52501D01*
X87500D02*
X87502Y52499D01*
X52400Y52500D02*
X52400Y52501D01*
X87500D01*
X110100Y57499D02*
X122000D01*
X101000Y77499D02*
X122000D01*
X52400Y57499D02*
X52402Y57501D01*
X101000Y57499D02*
X110100D01*
X95000Y62501D02*
X110100D01*
X52400D02*
X95000D01*
X52400Y82501D02*
X95000D01*
X110100D01*
X87502Y72499D02*
X110099D01*
X110100Y72501D01*
X87500D02*
X87502Y72499D01*
X52400Y72501D02*
X87500D01*
X99000Y48499D02*
X100000Y47499D01*
X92000Y48499D02*
X99000D01*
X100000Y36500D02*
X101000Y37500D01*
X92000Y36500D02*
X100000D01*
X90999Y37501D02*
X92000Y36500D01*
X110100Y37500D02*
X122000D01*
Y47499D02*
X122000Y47499D01*
X110100Y47499D02*
X122000D01*
X101000Y37500D02*
X110100D01*
X100000Y47499D02*
X110100D01*
X52400Y42501D02*
X95000D01*
X110100D01*
X52402Y37501D02*
X90999D01*
X52400Y37499D02*
X52402Y37501D01*
X52400Y47499D02*
X52400Y47499D01*
D17*
X87500Y52501D02*
D03*
X122000Y57499D02*
D03*
Y67499D02*
D03*
Y77499D02*
D03*
X95000Y62501D02*
D03*
Y82501D02*
D03*
X87500Y72501D02*
D03*
X122000Y37499D02*
D03*
Y47499D02*
D03*
X95000Y42501D02*
D03*
M02*
