G04*
G04 #@! TF.GenerationSoftware,Altium Limited,Altium Designer,18.1.9 (240)*
G04*
G04 Layer_Physical_Order=2*
G04 Layer_Color=16711680*
%FSLAX44Y44*%
%MOMM*%
G71*
G01*
G75*
%ADD12R,1.2000X0.3000*%
%ADD13R,3.0000X2.7000*%
%ADD16C,0.1500*%
%ADD17C,0.6000*%
D12*
X110100Y82500D02*
D03*
Y77500D02*
D03*
Y72500D02*
D03*
Y67500D02*
D03*
Y62500D02*
D03*
Y57500D02*
D03*
Y52500D02*
D03*
Y47500D02*
D03*
Y42500D02*
D03*
Y37500D02*
D03*
D13*
X129900Y101800D02*
D03*
Y18200D02*
D03*
D16*
X95000Y42501D02*
X110100D01*
X110100Y42500D01*
X110101Y37499D02*
X122000D01*
X110100Y37499D02*
X110101Y37499D01*
Y47499D02*
X122000D01*
X87500Y52501D02*
X110100D01*
X110101Y57499D02*
X122000D01*
X95000Y62501D02*
X110100D01*
X110101Y77499D02*
X122000D01*
X95000Y82501D02*
X110100D01*
X87500Y72501D02*
X110100D01*
X110101Y67499D02*
X122000D01*
D17*
X87500Y52501D02*
D03*
X122000Y57499D02*
D03*
Y67499D02*
D03*
Y77499D02*
D03*
X95000Y62501D02*
D03*
Y82501D02*
D03*
X87500Y72501D02*
D03*
X122000Y37499D02*
D03*
Y47499D02*
D03*
X95000Y42501D02*
D03*
M02*
