G04*
G04 #@! TF.GenerationSoftware,Altium Limited,Altium Designer,20.1.12 (249)*
G04*
G04 Layer_Color=8421504*
%FSLAX44Y44*%
%MOMM*%
G71*
G04*
G04 #@! TF.SameCoordinates,C66115CE-68B5-461B-9334-50AF4D89B24F*
G04*
G04*
G04 #@! TF.FilePolarity,Positive*
G04*
G01*
G75*
%ADD23R,0.6000X0.5000*%
%ADD24R,0.8000X0.9000*%
%ADD25R,3.0000X1.5000*%
%ADD26R,5.4000X6.2000*%
%ADD27O,0.7000X2.5000*%
%ADD28R,0.4000X1.5000*%
G04:AMPARAMS|DCode=29|XSize=3mm|YSize=5mm|CornerRadius=0.75mm|HoleSize=0mm|Usage=FLASHONLY|Rotation=270.000|XOffset=0mm|YOffset=0mm|HoleType=Round|Shape=RoundedRectangle|*
%AMROUNDEDRECTD29*
21,1,3.0000,3.5000,0,0,270.0*
21,1,1.5000,5.0000,0,0,270.0*
1,1,1.5000,-1.7500,-0.7500*
1,1,1.5000,-1.7500,0.7500*
1,1,1.5000,1.7500,0.7500*
1,1,1.5000,1.7500,-0.7500*
%
%ADD29ROUNDEDRECTD29*%
%ADD30R,0.5000X0.6000*%
%ADD31R,3.7000X2.4500*%
%ADD32R,2.4500X3.7000*%
%ADD33R,1.3000X1.0000*%
%ADD34R,1.7000X1.6500*%
D23*
X382321Y204242D02*
D03*
X392321D02*
D03*
X382395Y176729D02*
D03*
X392395D02*
D03*
X392432Y167432D02*
D03*
X382432D02*
D03*
X342500Y117500D02*
D03*
X352500D02*
D03*
X392432Y194932D02*
D03*
X382432D02*
D03*
X259432Y170500D02*
D03*
X269432D02*
D03*
X392500Y117500D02*
D03*
X382500D02*
D03*
X342500Y145000D02*
D03*
X352500D02*
D03*
X342432Y167432D02*
D03*
X352432D02*
D03*
X392500Y145000D02*
D03*
X382500D02*
D03*
X342432Y194932D02*
D03*
X352432D02*
D03*
D24*
X15498Y280000D02*
D03*
X29498D02*
D03*
X732002Y157500D02*
D03*
X718002D02*
D03*
D25*
X208250Y488750D02*
D03*
Y442750D02*
D03*
X588250Y488750D02*
D03*
Y442750D02*
D03*
D26*
X277750Y465750D02*
D03*
X657750D02*
D03*
D27*
X159400Y149000D02*
D03*
X184800D02*
D03*
X197500D02*
D03*
X210200D02*
D03*
X222900D02*
D03*
X235600D02*
D03*
X159400Y196000D02*
D03*
X172100D02*
D03*
X184800D02*
D03*
X197500D02*
D03*
X210200D02*
D03*
X222900D02*
D03*
X235600D02*
D03*
X172100Y149000D02*
D03*
D28*
X300000Y127500D02*
D03*
X305000D02*
D03*
X310000D02*
D03*
X315000D02*
D03*
X320000D02*
D03*
X300000Y177500D02*
D03*
X305000D02*
D03*
X310000D02*
D03*
X315000D02*
D03*
X320000D02*
D03*
D29*
X662500Y247500D02*
D03*
Y202500D02*
D03*
Y157500D02*
D03*
Y112500D02*
D03*
Y67500D02*
D03*
D30*
X372432Y184932D02*
D03*
Y194932D02*
D03*
X362500Y107500D02*
D03*
Y117500D02*
D03*
X372432Y157432D02*
D03*
Y167432D02*
D03*
X197500Y67500D02*
D03*
Y77500D02*
D03*
Y247500D02*
D03*
Y257500D02*
D03*
X170000Y247500D02*
D03*
Y257500D02*
D03*
X372500Y135000D02*
D03*
Y145000D02*
D03*
X187500Y225000D02*
D03*
Y235000D02*
D03*
X247500Y247500D02*
D03*
Y257500D02*
D03*
X222500Y67500D02*
D03*
Y77500D02*
D03*
X145000Y247500D02*
D03*
Y257500D02*
D03*
X222500Y247500D02*
D03*
Y257500D02*
D03*
X170000Y67500D02*
D03*
Y77500D02*
D03*
X247500Y70000D02*
D03*
Y80000D02*
D03*
X120000Y247500D02*
D03*
Y257500D02*
D03*
X456100Y295000D02*
D03*
Y305000D02*
D03*
X222500Y235000D02*
D03*
Y225000D02*
D03*
X197500Y100000D02*
D03*
Y90000D02*
D03*
X197500Y235000D02*
D03*
Y225000D02*
D03*
X76100Y292500D02*
D03*
Y302500D02*
D03*
X222500Y100000D02*
D03*
Y90000D02*
D03*
X147500Y67500D02*
D03*
Y77500D02*
D03*
X272500Y70000D02*
D03*
Y80000D02*
D03*
X362432Y194932D02*
D03*
Y184932D02*
D03*
X604000Y110000D02*
D03*
Y120000D02*
D03*
X372500Y117500D02*
D03*
Y107500D02*
D03*
X362500Y145000D02*
D03*
Y135000D02*
D03*
X140040Y201500D02*
D03*
Y191500D02*
D03*
X362432Y167432D02*
D03*
Y157432D02*
D03*
X310000Y195000D02*
D03*
Y205000D02*
D03*
D31*
X127000Y455000D02*
D03*
Y506500D02*
D03*
X36500Y455000D02*
D03*
Y506500D02*
D03*
X507000Y455000D02*
D03*
Y506500D02*
D03*
X416500Y455000D02*
D03*
Y506500D02*
D03*
D32*
X40750Y609000D02*
D03*
X92250D02*
D03*
X420750D02*
D03*
X472250D02*
D03*
D33*
X619000Y123000D02*
D03*
Y107000D02*
D03*
D34*
X456100Y421510D02*
D03*
X481500D02*
D03*
X506900D02*
D03*
Y324990D02*
D03*
X481500D02*
D03*
X456100D02*
D03*
X76100Y421510D02*
D03*
X101500D02*
D03*
X126900D02*
D03*
Y324990D02*
D03*
X101500D02*
D03*
X76100D02*
D03*
M02*
