G04*
G04 #@! TF.GenerationSoftware,Altium Limited,Altium Designer,20.1.12 (249)*
G04*
G04 Layer_Color=128*
%FSLAX44Y44*%
%MOMM*%
G71*
G04*
G04 #@! TF.SameCoordinates,C66115CE-68B5-461B-9334-50AF4D89B24F*
G04*
G04*
G04 #@! TF.FilePolarity,Positive*
G04*
G01*
G75*
%ADD67C,0.0508*%
D67*
X421250Y70000D02*
X433750D01*
X427500Y63750D02*
Y76250D01*
X471250Y105000D02*
X483750D01*
X477500Y98750D02*
Y111250D01*
X421250Y140000D02*
X433750D01*
X427500Y133750D02*
Y146250D01*
X421250Y210000D02*
X433750D01*
X427500Y203750D02*
Y216250D01*
X471250Y245000D02*
X483750D01*
X477500Y238750D02*
Y251250D01*
X471250Y175000D02*
X483750D01*
X477500Y168750D02*
Y181250D01*
X255000Y435750D02*
X258000D01*
X256500Y434250D02*
Y437250D01*
X265000Y435750D02*
X268000D01*
X266500Y434250D02*
Y437250D01*
X275000Y435750D02*
X278000D01*
X276500Y434250D02*
Y437250D01*
X285000Y435750D02*
X288000D01*
X286500Y434250D02*
Y437250D01*
X295000Y435750D02*
X298000D01*
X296500Y434250D02*
Y437250D01*
X305000Y435750D02*
X308000D01*
X306500Y434250D02*
Y437250D01*
X315000Y435750D02*
X318000D01*
X316500Y434250D02*
Y437250D01*
X325000Y435750D02*
X328000D01*
X326500Y434250D02*
Y437250D01*
X325000Y450750D02*
X328000D01*
X326500Y449250D02*
Y452250D01*
X315000Y450750D02*
X318000D01*
X316500Y449250D02*
Y452250D01*
X305000Y450750D02*
X308000D01*
X306500Y449250D02*
Y452250D01*
X295000Y450750D02*
X298000D01*
X296500Y449250D02*
Y452250D01*
X285000Y450750D02*
X288000D01*
X286500Y449250D02*
Y452250D01*
X275000Y450750D02*
X278000D01*
X276500Y449250D02*
Y452250D01*
X265000Y450750D02*
X268000D01*
X266500Y449250D02*
Y452250D01*
X255000Y450750D02*
X258000D01*
X256500Y449250D02*
Y452250D01*
X325000Y465750D02*
X328000D01*
X326500Y464250D02*
Y467250D01*
X315000Y465750D02*
X318000D01*
X316500Y464250D02*
Y467250D01*
X305000Y465750D02*
X308000D01*
X306500Y464250D02*
Y467250D01*
X295000Y465750D02*
X298000D01*
X296500Y464250D02*
Y467250D01*
X285000Y465750D02*
X288000D01*
X286500Y464250D02*
Y467250D01*
X275000Y465750D02*
X278000D01*
X276500Y464250D02*
Y467250D01*
X265000Y465750D02*
X268000D01*
X266500Y464250D02*
Y467250D01*
X255000Y465750D02*
X258000D01*
X256500Y464250D02*
Y467250D01*
X325000Y480750D02*
X328000D01*
X326500Y479250D02*
Y482250D01*
X315000Y480750D02*
X318000D01*
X316500Y479250D02*
Y482250D01*
X305000Y480750D02*
X308000D01*
X306500Y479250D02*
Y482250D01*
X295000Y480750D02*
X298000D01*
X296500Y479250D02*
Y482250D01*
X285000Y480750D02*
X288000D01*
X286500Y479250D02*
Y482250D01*
X275000Y480750D02*
X278000D01*
X276500Y479250D02*
Y482250D01*
X265000Y480750D02*
X268000D01*
X266500Y479250D02*
Y482250D01*
X255000Y480750D02*
X258000D01*
X256500Y479250D02*
Y482250D01*
X325000Y495750D02*
X328000D01*
X326500Y494250D02*
Y497250D01*
X315000Y495750D02*
X318000D01*
X316500Y494250D02*
Y497250D01*
X305000Y495750D02*
X308000D01*
X306500Y494250D02*
Y497250D01*
X295000Y495750D02*
X298000D01*
X296500Y494250D02*
Y497250D01*
X285000Y495750D02*
X288000D01*
X286500Y494250D02*
Y497250D01*
X275000Y495750D02*
X278000D01*
X276500Y494250D02*
Y497250D01*
X265000Y495750D02*
X268000D01*
X266500Y494250D02*
Y497250D01*
X255000Y495750D02*
X258000D01*
X256500Y494250D02*
Y497250D01*
X635000Y435750D02*
X638000D01*
X636500Y434250D02*
Y437250D01*
X645000Y435750D02*
X648000D01*
X646500Y434250D02*
Y437250D01*
X655000Y435750D02*
X658000D01*
X656500Y434250D02*
Y437250D01*
X665000Y435750D02*
X668000D01*
X666500Y434250D02*
Y437250D01*
X675000Y435750D02*
X678000D01*
X676500Y434250D02*
Y437250D01*
X685000Y435750D02*
X688000D01*
X686500Y434250D02*
Y437250D01*
X695000Y435750D02*
X698000D01*
X696500Y434250D02*
Y437250D01*
X705000Y435750D02*
X708000D01*
X706500Y434250D02*
Y437250D01*
X705000Y450750D02*
X708000D01*
X706500Y449250D02*
Y452250D01*
X695000Y450750D02*
X698000D01*
X696500Y449250D02*
Y452250D01*
X685000Y450750D02*
X688000D01*
X686500Y449250D02*
Y452250D01*
X675000Y450750D02*
X678000D01*
X676500Y449250D02*
Y452250D01*
X665000Y450750D02*
X668000D01*
X666500Y449250D02*
Y452250D01*
X655000Y450750D02*
X658000D01*
X656500Y449250D02*
Y452250D01*
X645000Y450750D02*
X648000D01*
X646500Y449250D02*
Y452250D01*
X635000Y450750D02*
X638000D01*
X636500Y449250D02*
Y452250D01*
X705000Y465750D02*
X708000D01*
X706500Y464250D02*
Y467250D01*
X695000Y465750D02*
X698000D01*
X696500Y464250D02*
Y467250D01*
X685000Y465750D02*
X688000D01*
X686500Y464250D02*
Y467250D01*
X675000Y465750D02*
X678000D01*
X676500Y464250D02*
Y467250D01*
X665000Y465750D02*
X668000D01*
X666500Y464250D02*
Y467250D01*
X655000Y465750D02*
X658000D01*
X656500Y464250D02*
Y467250D01*
X645000Y465750D02*
X648000D01*
X646500Y464250D02*
Y467250D01*
X635000Y465750D02*
X638000D01*
X636500Y464250D02*
Y467250D01*
X705000Y480750D02*
X708000D01*
X706500Y479250D02*
Y482250D01*
X695000Y480750D02*
X698000D01*
X696500Y479250D02*
Y482250D01*
X685000Y480750D02*
X688000D01*
X686500Y479250D02*
Y482250D01*
X675000Y480750D02*
X678000D01*
X676500Y479250D02*
Y482250D01*
X665000Y480750D02*
X668000D01*
X666500Y479250D02*
Y482250D01*
X655000Y480750D02*
X658000D01*
X656500Y479250D02*
Y482250D01*
X645000Y480750D02*
X648000D01*
X646500Y479250D02*
Y482250D01*
X635000Y480750D02*
X638000D01*
X636500Y479250D02*
Y482250D01*
X705000Y495750D02*
X708000D01*
X706500Y494250D02*
Y497250D01*
X695000Y495750D02*
X698000D01*
X696500Y494250D02*
Y497250D01*
X685000Y495750D02*
X688000D01*
X686500Y494250D02*
Y497250D01*
X675000Y495750D02*
X678000D01*
X676500Y494250D02*
Y497250D01*
X665000Y495750D02*
X668000D01*
X666500Y494250D02*
Y497250D01*
X655000Y495750D02*
X658000D01*
X656500Y494250D02*
Y497250D01*
X645000Y495750D02*
X648000D01*
X646500Y494250D02*
Y497250D01*
X635000Y495750D02*
X638000D01*
X636500Y494250D02*
Y497250D01*
X759000Y557500D02*
X791000D01*
X775000Y541500D02*
Y573500D01*
X-41000Y80000D02*
X-9000D01*
X-25000Y64000D02*
Y96000D01*
X759000Y80000D02*
X791000D01*
X775000Y64000D02*
Y96000D01*
X592503Y658250D02*
X605502D01*
X599002Y651750D02*
Y664750D01*
X642502Y658250D02*
X655502D01*
X649002Y651750D02*
Y664750D01*
X262502Y658250D02*
X275502D01*
X269002Y651750D02*
Y664750D01*
X212502Y658250D02*
X225502D01*
X219002Y651750D02*
Y664750D01*
X268800Y276100D02*
X276800D01*
X272800Y272100D02*
Y280100D01*
X243400Y276100D02*
X251400D01*
X247400Y272100D02*
Y280100D01*
X218000Y276100D02*
X226000D01*
X222000Y272100D02*
Y280100D01*
X192600Y276100D02*
X200600D01*
X196600Y272100D02*
Y280100D01*
X167200Y276100D02*
X175200D01*
X171200Y272100D02*
Y280100D01*
X141800Y276100D02*
X149800D01*
X145800Y272100D02*
Y280100D01*
X116400Y276100D02*
X124400D01*
X120400Y272100D02*
Y280100D01*
X91000Y276100D02*
X99000D01*
X95000Y272100D02*
Y280100D01*
X91000Y47500D02*
X99000D01*
X95000Y43500D02*
Y51500D01*
X116400Y47500D02*
X124400D01*
X120400Y43500D02*
Y51500D01*
X141800Y47500D02*
X149800D01*
X145800Y43500D02*
Y51500D01*
X167200Y47500D02*
X175200D01*
X171200Y43500D02*
Y51500D01*
X192600Y47500D02*
X200600D01*
X196600Y43500D02*
Y51500D01*
X218000Y47500D02*
X226000D01*
X222000Y43500D02*
Y51500D01*
X243400Y47500D02*
X251400D01*
X247400Y43500D02*
Y51500D01*
X268800Y47500D02*
X276800D01*
X272800Y43500D02*
Y51500D01*
X274750Y570250D02*
X283250D01*
X279000Y566000D02*
Y574500D01*
X199750Y546250D02*
X208250D01*
X204000Y542000D02*
Y550500D01*
X579750Y546250D02*
X588250D01*
X584000Y542000D02*
Y550500D01*
X654750Y570250D02*
X663250D01*
X659000Y566000D02*
Y574500D01*
X413000Y555750D02*
X420000D01*
X416500Y552250D02*
Y559250D01*
X513000Y555750D02*
X520000D01*
X516500Y552250D02*
Y559250D01*
X33000Y555750D02*
X40000D01*
X36500Y552250D02*
Y559250D01*
X133000Y555750D02*
X140000D01*
X136500Y552250D02*
Y559250D01*
X-41000Y555750D02*
X-9000D01*
X-25000Y539750D02*
Y571750D01*
X289596Y176583D02*
X292596D01*
X291096Y175083D02*
Y178083D01*
X330500Y176589D02*
X333500D01*
X332000Y175089D02*
Y178089D01*
X378499Y186000D02*
X381499D01*
X379999Y184500D02*
Y187500D01*
X254375Y97875D02*
X257375D01*
X255875Y96375D02*
Y99375D01*
X235475Y77250D02*
X238475D01*
X236975Y75750D02*
Y78750D01*
X209375Y77375D02*
X212375D01*
X210875Y75875D02*
Y78875D01*
X183175Y82750D02*
X186175D01*
X184675Y81250D02*
Y84250D01*
X157775Y82875D02*
X160775D01*
X159275Y81375D02*
Y84375D01*
X283804Y99875D02*
X286804D01*
X285304Y98375D02*
Y101375D01*
X257807Y79875D02*
X260807D01*
X259307Y78375D02*
Y81375D01*
X257807Y58875D02*
X260807D01*
X259307Y57375D02*
Y60375D01*
X468250Y294875D02*
X471250D01*
X469750Y293375D02*
Y296375D01*
X468375Y308875D02*
X471375D01*
X469875Y307375D02*
Y310375D01*
X440375Y306875D02*
X443375D01*
X441875Y305375D02*
Y308375D01*
X439375Y328875D02*
X442375D01*
X440875Y327375D02*
Y330375D01*
X640375Y281875D02*
X643375D01*
X641875Y280375D02*
Y283375D01*
X561163Y278875D02*
X564163D01*
X562663Y277375D02*
Y280375D01*
X495375Y288875D02*
X498375D01*
X496875Y287375D02*
Y290375D01*
X513375Y304750D02*
X516375D01*
X514875Y303250D02*
Y306250D01*
X494375Y304875D02*
X497375D01*
X495875Y303375D02*
Y306375D01*
X722375Y240875D02*
X725375D01*
X723875Y239375D02*
Y242375D01*
X721375Y280875D02*
X724375D01*
X722875Y279375D02*
Y282375D01*
X725375Y181875D02*
X728375D01*
X726875Y180375D02*
Y183375D01*
X724375Y132875D02*
X727375D01*
X725875Y131375D02*
Y134375D01*
X720875Y48875D02*
X723875D01*
X722375Y47375D02*
Y50375D01*
X704375Y28875D02*
X707375D01*
X705875Y27375D02*
Y30375D01*
X21125Y85875D02*
X24125D01*
X22625Y84375D02*
Y87375D01*
X53375Y93875D02*
X56375D01*
X54875Y92375D02*
Y95375D01*
X60375Y22750D02*
X63375D01*
X61875Y21250D02*
Y24250D01*
X21250Y22875D02*
X24250D01*
X22750Y21375D02*
Y24375D01*
X21250Y133875D02*
X24250D01*
X22750Y132375D02*
Y135375D01*
X21375Y180875D02*
X24375D01*
X22875Y179375D02*
Y182375D01*
X21250Y215875D02*
X24250D01*
X22750Y214375D02*
Y217375D01*
X20375Y247375D02*
X23375D01*
X21875Y245875D02*
Y248875D01*
X21375Y298375D02*
X24375D01*
X22875Y296875D02*
Y299875D01*
X58375Y300875D02*
X61375D01*
X59875Y299375D02*
Y302375D01*
X55375Y325875D02*
X58375D01*
X56875Y324375D02*
Y327375D01*
X157375Y253875D02*
X160375D01*
X158875Y252375D02*
Y255375D01*
X157650Y302250D02*
X160650D01*
X159150Y300750D02*
Y303750D01*
X116375Y304875D02*
X119375D01*
X117875Y303375D02*
Y306375D01*
X168275Y324740D02*
X171275D01*
X169775Y323240D02*
Y326240D01*
X145875Y324865D02*
X148875D01*
X147375Y323365D02*
Y326365D01*
X193375Y302375D02*
X196375D01*
X194875Y300875D02*
Y303875D01*
X23375Y324865D02*
X26375D01*
X24875Y323365D02*
Y326365D01*
X259875Y260875D02*
X262875D01*
X261375Y259375D02*
Y262375D01*
X114000Y211625D02*
X117000D01*
X115500Y210125D02*
Y213125D01*
X114125Y219875D02*
X117125D01*
X115625Y218375D02*
Y221375D01*
X114250Y189223D02*
X117250D01*
X115750Y187723D02*
Y190723D01*
X147375Y111951D02*
X150375D01*
X148875Y110451D02*
Y113451D01*
X114375Y125750D02*
X117375D01*
X115875Y124250D02*
Y127250D01*
X157775Y125875D02*
X160775D01*
X159275Y124375D02*
Y127375D01*
X257682Y128275D02*
X260682D01*
X259182Y126775D02*
Y129775D01*
X229375Y127299D02*
X232375D01*
X230875Y125799D02*
Y128799D01*
X262375Y217875D02*
X265375D01*
X263875Y216375D02*
Y219375D01*
X257807Y144875D02*
X260807D01*
X259307Y143375D02*
Y146375D01*
X234375Y172375D02*
X237375D01*
X235875Y170875D02*
Y173875D01*
X535676Y262176D02*
X538676D01*
X537177Y260676D02*
Y263676D01*
X584500Y261000D02*
X587500D01*
X586000Y259500D02*
Y262500D01*
X709500Y211000D02*
X712500D01*
X711000Y209500D02*
Y212500D01*
X709500Y111000D02*
X712500D01*
X711000Y109500D02*
Y112500D01*
X609500Y211000D02*
X612500D01*
X611000Y209500D02*
Y212500D01*
X584500Y161000D02*
X587500D01*
X586000Y159500D02*
Y162500D01*
X559500Y211000D02*
X562500D01*
X561000Y209500D02*
Y212500D01*
X534500Y161000D02*
X537500D01*
X536000Y159500D02*
Y162500D01*
X559500Y111000D02*
X562500D01*
X561000Y109500D02*
Y112500D01*
X534500Y61000D02*
X537500D01*
X536000Y59500D02*
Y62500D01*
X509500Y111000D02*
X512500D01*
X511000Y109500D02*
Y112500D01*
X384500Y261000D02*
X387500D01*
X386000Y259500D02*
Y262500D01*
X384500Y61000D02*
X387500D01*
X386000Y59500D02*
Y62500D01*
X334500Y261000D02*
X337500D01*
X336000Y259500D02*
Y262500D01*
X334500Y61000D02*
X337500D01*
X336000Y59500D02*
Y62500D01*
X284500Y261000D02*
X287500D01*
X286000Y259500D02*
Y262500D01*
X284500Y61000D02*
X287500D01*
X286000Y59500D02*
Y62500D01*
X234500Y261000D02*
X237500D01*
X236000Y259500D02*
Y262500D01*
X184500Y261000D02*
X187500D01*
X186000Y259500D02*
Y262500D01*
X134500Y161000D02*
X137500D01*
X136000Y159500D02*
Y162500D01*
X134500Y61000D02*
X137500D01*
X136000Y59500D02*
Y62500D01*
X34500Y261000D02*
X37500D01*
X36000Y259500D02*
Y262500D01*
X34500Y161000D02*
X37500D01*
X36000Y159500D02*
Y162500D01*
X34500Y61000D02*
X37500D01*
X36000Y59500D02*
Y62500D01*
X186000Y324990D02*
X189000D01*
X187500Y323490D02*
Y326490D01*
X418500Y277500D02*
X421500D01*
X420000Y276000D02*
Y279000D01*
X316000Y277500D02*
X319000D01*
X317500Y276000D02*
Y279000D01*
X573412Y6500D02*
X576412D01*
X574912Y5000D02*
Y8000D01*
X361038Y6500D02*
X364038D01*
X362538Y5000D02*
Y8000D01*
X245900Y6500D02*
X248900D01*
X247400Y5000D02*
Y8000D01*
X122576Y6500D02*
X125576D01*
X124076Y5000D02*
Y8000D01*
X35862Y6500D02*
X38862D01*
X37362Y5000D02*
Y8000D01*
X5000Y56676D02*
X8000D01*
X6500Y55176D02*
Y58176D01*
X5000Y169880D02*
X8000D01*
X6500Y168380D02*
Y171380D01*
X5000Y232440D02*
X8000D01*
X6500Y230940D02*
Y233940D01*
X35000Y341500D02*
X38000D01*
X36500Y340000D02*
Y343000D01*
X186000Y341500D02*
X189000D01*
X187500Y340000D02*
Y343000D01*
X207500Y319389D02*
X210500D01*
X209000Y317889D02*
Y320889D01*
X298348Y295000D02*
X301348D01*
X299848Y293500D02*
Y296500D01*
X336052Y295000D02*
X339052D01*
X337552Y293500D02*
Y296500D01*
X398516Y295000D02*
X401516D01*
X400015Y293500D02*
Y296500D01*
X561288Y300000D02*
X564288D01*
X562789Y298500D02*
Y301500D01*
X610892Y300000D02*
X613892D01*
X612392Y298500D02*
Y301500D01*
X661597Y300000D02*
X664597D01*
X663097Y298500D02*
Y301500D01*
X699075Y300000D02*
X702075D01*
X700575Y298500D02*
Y301500D01*
X741000Y270196D02*
X744000D01*
X742500Y268696D02*
Y271696D01*
X741000Y206766D02*
X744000D01*
X742500Y205266D02*
Y208267D01*
X741000Y45000D02*
X744000D01*
X742500Y43500D02*
Y46500D01*
X741000Y106993D02*
X744000D01*
X742500Y105493D02*
Y108493D01*
X5000Y328587D02*
X8000D01*
X6500Y327086D02*
Y330087D01*
X741000Y157500D02*
X744000D01*
X742500Y156000D02*
Y159000D01*
X5000Y279000D02*
X8000D01*
X6500Y277500D02*
Y280500D01*
X35000Y280000D02*
X38000D01*
X36500Y278500D02*
Y281500D01*
X136000Y100000D02*
X139000D01*
X137500Y98500D02*
Y101500D01*
X126000Y100000D02*
X129000D01*
X127500Y98500D02*
Y101500D01*
X250312Y232500D02*
X253312D01*
X251812Y231000D02*
Y234000D01*
X250432Y170000D02*
X253432D01*
X251932Y168500D02*
Y171500D01*
X602500Y127424D02*
X605500D01*
X604000Y125924D02*
Y128924D01*
X621000Y135000D02*
X624000D01*
X622500Y133500D02*
Y136500D01*
X613500Y135000D02*
X616500D01*
X615000Y133500D02*
Y136500D01*
X138540Y183598D02*
X141540D01*
X140040Y182098D02*
Y185098D01*
X316000Y205000D02*
X319000D01*
X317500Y203500D02*
Y206500D01*
X243500Y147500D02*
X246500D01*
X245000Y146000D02*
Y149000D01*
X241000Y225000D02*
X244000D01*
X242500Y223500D02*
Y226500D01*
X203500Y225000D02*
X206500D01*
X205000Y223500D02*
Y226500D01*
X188500Y100000D02*
X191500D01*
X190000Y98500D02*
Y101500D01*
X228500Y100000D02*
X231500D01*
X230000Y98500D02*
Y101500D01*
X176000Y215000D02*
X179000D01*
X177500Y213500D02*
Y216500D01*
X157900Y167432D02*
X160900D01*
X159400Y165932D02*
Y168932D01*
X276000Y145000D02*
X279000D01*
X277500Y143500D02*
Y146500D01*
X298500Y145000D02*
X301500D01*
X300000Y143500D02*
Y146500D01*
X308500Y107000D02*
X311500D01*
X310000Y105500D02*
Y108500D01*
X298348Y112000D02*
X301348D01*
X299848Y110500D02*
Y113500D01*
X308500Y159432D02*
X311500D01*
X310000Y157932D02*
Y160932D01*
X143500Y239000D02*
X146500D01*
X145000Y237500D02*
Y240500D01*
X118900Y239000D02*
X121900D01*
X120400Y237500D02*
Y240500D01*
X378432Y107500D02*
X381432D01*
X379932Y106000D02*
Y109000D01*
X353568Y107500D02*
X356568D01*
X355068Y106000D02*
Y109000D01*
X378432Y135000D02*
X381432D01*
X379932Y133500D02*
Y136500D01*
X353568Y135000D02*
X356568D01*
X355068Y133500D02*
Y136500D01*
X378364Y157432D02*
X381364D01*
X379864Y155932D02*
Y158932D01*
X353500Y157432D02*
X356500D01*
X355000Y155932D02*
Y158932D01*
X353500Y184932D02*
X356500D01*
X355000Y183432D02*
Y186432D01*
X196000Y130000D02*
X199000D01*
X197500Y128500D02*
Y131500D01*
X179250Y225000D02*
X182250D01*
X180750Y223500D02*
Y226500D01*
X186000Y242500D02*
X189000D01*
X187500Y241000D02*
Y244000D01*
X183300Y130000D02*
X186300D01*
X184800Y128500D02*
Y131500D01*
X157900Y215000D02*
X160900D01*
X159400Y213500D02*
Y216500D01*
X500000Y614000D02*
X503000D01*
X501500Y612500D02*
Y615500D01*
X510000Y614000D02*
X513000D01*
X511500Y612500D02*
Y615500D01*
X490000Y614000D02*
X493000D01*
X491500Y612500D02*
Y615500D01*
X509422Y604520D02*
X512422D01*
X510922Y603020D02*
Y606020D01*
X500000Y604000D02*
X503000D01*
X501500Y602500D02*
Y605500D01*
X490000Y604000D02*
X493000D01*
X491500Y602500D02*
Y605500D01*
X129422Y604520D02*
X132422D01*
X130922Y603020D02*
Y606020D01*
X130000Y614000D02*
X133000D01*
X131500Y612500D02*
Y615500D01*
X120000Y614000D02*
X123000D01*
X121500Y612500D02*
Y615500D01*
X120000Y604000D02*
X123000D01*
X121500Y602500D02*
Y605500D01*
X110000Y604000D02*
X113000D01*
X111500Y602500D02*
Y605500D01*
X110000Y614000D02*
X113000D01*
X111500Y612500D02*
Y615500D01*
M02*
