G04*
G04 #@! TF.GenerationSoftware,Altium Limited,Altium Designer,20.1.12 (249)*
G04*
G04 Layer_Color=5020405*
%FSLAX44Y44*%
%MOMM*%
G71*
G04*
G04 #@! TF.SameCoordinates,C66115CE-68B5-461B-9334-50AF4D89B24F*
G04*
G04*
G04 #@! TF.FilePolarity,Positive*
G04*
G01*
G75*
%ADD65C,0.1500*%
D65*
X775000Y44000D02*
G03*
X775000Y116000I0J36000D01*
G01*
Y521500D02*
G03*
X775000Y593500I0J36000D01*
G01*
X-25000Y591750D02*
G03*
X-25000Y519750I0J-36000D01*
G01*
Y116000D02*
G03*
X-25000Y44000I0J-36000D01*
G01*
X415000Y700000D02*
G03*
X395000Y680000I0J-20000D01*
G01*
X355000D02*
G03*
X335000Y700000I-20000J0D01*
G01*
X355000Y680000D02*
G03*
X395000Y680000I20000J0D01*
G01*
X750000Y660000D02*
G03*
X710000Y700000I-40000J0D01*
G01*
X40000D02*
G03*
X0Y660000I0J-40000D01*
G01*
X710000Y0D02*
G03*
X750000Y40000I0J40000D01*
G01*
X0Y10000D02*
G03*
X10000Y0I10000J0D01*
G01*
X231500Y327000D02*
X361500D01*
Y307000D02*
Y327000D01*
X231500Y307000D02*
X361500D01*
X231500D02*
Y327000D01*
X413000Y385000D02*
X543000D01*
Y365000D02*
Y385000D01*
X413000Y365000D02*
X543000D01*
X413000D02*
Y385000D01*
X33000Y365000D02*
Y385000D01*
Y365000D02*
X163000D01*
Y385000D01*
X33000D02*
X163000D01*
X0Y116000D02*
Y519750D01*
X-12500D02*
X0D01*
X-25000D02*
X-12500D01*
X0Y591750D02*
Y660000D01*
X-12500Y591750D02*
X0D01*
X-25000D02*
X-12500D01*
X758734Y521500D02*
X775000D01*
X750000D02*
X758734D01*
X750000D02*
X750000Y116000D01*
X762500Y593500D02*
X775000D01*
X750000D02*
X762500D01*
X750000D02*
Y660000D01*
X750000Y40000D02*
Y44000D01*
X762500D02*
X775000D01*
X750000D02*
X762500D01*
Y116000D02*
X775000D01*
X750000D02*
X762500D01*
X-25000D02*
X0D01*
Y10000D02*
Y44000D01*
X-25000D02*
X0D01*
X415000Y700000D02*
X710000D01*
X40000D02*
X335000D01*
X10000Y0D02*
X710000D01*
M02*
