G04*
G04 #@! TF.GenerationSoftware,Altium Limited,Altium Designer,20.1.12 (249)*
G04*
G04 Layer_Color=32896*
%FSLAX44Y44*%
%MOMM*%
G71*
G04*
G04 #@! TF.SameCoordinates,C66115CE-68B5-461B-9334-50AF4D89B24F*
G04*
G04*
G04 #@! TF.FilePolarity,Positive*
G04*
G01*
G75*
%ADD10C,0.2000*%
%ADD13C,0.2500*%
%ADD15C,0.1404*%
%ADD16C,0.1170*%
%ADD17C,0.2531*%
%ADD19C,0.3163*%
%ADD22C,0.1638*%
D10*
X243704Y397275D02*
Y388777D01*
Y397275D02*
X240871D01*
X239657Y396871D01*
X238848Y396061D01*
X238443Y395252D01*
X238038Y394038D01*
Y392015D01*
X238443Y390801D01*
X238848Y389991D01*
X239657Y389182D01*
X240871Y388777D01*
X243704D01*
Y361845D02*
Y353346D01*
Y361845D02*
X240062D01*
X238848Y361440D01*
X238443Y361035D01*
X238038Y360226D01*
Y359417D01*
X238443Y358607D01*
X238848Y358203D01*
X240062Y357798D01*
X243704D02*
X240062D01*
X238848Y357393D01*
X238443Y356988D01*
X238038Y356179D01*
Y354965D01*
X238443Y354156D01*
X238848Y353751D01*
X240062Y353346D01*
X243704D01*
D13*
X363753Y385494D02*
X369466Y400491D01*
X375179Y385494D01*
X373036Y390493D02*
X365895D01*
X349541Y396920D02*
X350256Y398348D01*
X351684Y399776D01*
X353112Y400491D01*
X355969D01*
X357397Y399776D01*
X358825Y398348D01*
X359539Y396920D01*
X360253Y394778D01*
Y391207D01*
X359539Y389064D01*
X358825Y387636D01*
X357397Y386208D01*
X355969Y385494D01*
X353112D01*
X351684Y386208D01*
X350256Y387636D01*
X349541Y389064D01*
X333545Y400491D02*
Y385494D01*
Y400491D02*
X327118D01*
X324975Y399776D01*
X324261Y399062D01*
X323547Y397634D01*
Y396206D01*
X324261Y394778D01*
X324975Y394063D01*
X327118Y393349D01*
X333545D01*
X328546D02*
X323547Y385494D01*
X320191Y391207D02*
X311621D01*
Y392635D01*
X312335Y394063D01*
X313049Y394778D01*
X314478Y395492D01*
X316620D01*
X318048Y394778D01*
X319477Y393349D01*
X320191Y391207D01*
Y389779D01*
X319477Y387636D01*
X318048Y386208D01*
X316620Y385494D01*
X314478D01*
X313049Y386208D01*
X311621Y387636D01*
X308407Y400491D02*
Y385494D01*
X296696Y395492D02*
Y385494D01*
Y393349D02*
X298124Y394778D01*
X299552Y395492D01*
X301695D01*
X303123Y394778D01*
X304551Y393349D01*
X305265Y391207D01*
Y389779D01*
X304551Y387636D01*
X303123Y386208D01*
X301695Y385494D01*
X299552D01*
X298124Y386208D01*
X296696Y387636D01*
X291982Y395492D02*
X287698Y385494D01*
X283413Y395492D02*
X287698Y385494D01*
X289126Y382637D01*
X290554Y381209D01*
X291982Y380495D01*
X292696D01*
X376000Y363640D02*
X369573D01*
X367430Y364354D01*
X366716Y365069D01*
X366002Y366497D01*
Y368639D01*
X366716Y370067D01*
X367430Y370782D01*
X369573Y371496D01*
X376000D01*
Y356499D01*
X362646Y366497D02*
Y356499D01*
Y362212D02*
X361932Y364354D01*
X360503Y365783D01*
X359075Y366497D01*
X356933D01*
X352005D02*
X353433Y365783D01*
X354862Y364354D01*
X355576Y362212D01*
Y360784D01*
X354862Y358641D01*
X353433Y357213D01*
X352005Y356499D01*
X349863D01*
X348434Y357213D01*
X347006Y358641D01*
X346292Y360784D01*
Y362212D01*
X347006Y364354D01*
X348434Y365783D01*
X349863Y366497D01*
X352005D01*
X340865Y371496D02*
Y359355D01*
X340151Y357213D01*
X338722Y356499D01*
X337294D01*
X343007Y366497D02*
X338008D01*
X331581D02*
X333009Y365783D01*
X334437Y364354D01*
X335152Y362212D01*
Y360784D01*
X334437Y358641D01*
X333009Y357213D01*
X331581Y356499D01*
X329439D01*
X328010Y357213D01*
X326582Y358641D01*
X325868Y360784D01*
Y362212D01*
X326582Y364354D01*
X328010Y365783D01*
X329439Y366497D01*
X331581D01*
X320440Y371496D02*
Y359355D01*
X319726Y357213D01*
X318298Y356499D01*
X316870D01*
X322583Y366497D02*
X317584D01*
X314013D02*
X309729Y356499D01*
X305444Y366497D02*
X309729Y356499D01*
X311157Y353642D01*
X312585Y352214D01*
X314013Y351500D01*
X314727D01*
X302944Y366497D02*
Y351500D01*
Y364354D02*
X301516Y365783D01*
X300088Y366497D01*
X297945D01*
X296517Y365783D01*
X295089Y364354D01*
X294375Y362212D01*
Y360784D01*
X295089Y358641D01*
X296517Y357213D01*
X297945Y356499D01*
X300088D01*
X301516Y357213D01*
X302944Y358641D01*
X291161Y362212D02*
X282591D01*
Y363640D01*
X283306Y365069D01*
X284020Y365783D01*
X285448Y366497D01*
X287590D01*
X289019Y365783D01*
X290447Y364354D01*
X291161Y362212D01*
Y360784D01*
X290447Y358641D01*
X289019Y357213D01*
X287590Y356499D01*
X285448D01*
X284020Y357213D01*
X282591Y358641D01*
X697118Y23764D02*
Y13766D01*
Y23764D02*
X692833D01*
X691405Y23288D01*
X690929Y22812D01*
X690453Y21860D01*
Y20907D01*
X690929Y19955D01*
X691405Y19479D01*
X692833Y19003D01*
X697118D01*
X693785D02*
X690453Y13766D01*
X682026Y23764D02*
X688215D01*
Y13766D01*
X682026D01*
X688215Y19003D02*
X684406D01*
X680360Y23764D02*
X676551Y13766D01*
X672742Y23764D02*
X676551Y13766D01*
X670981Y14718D02*
X671457Y14242D01*
X670981Y13766D01*
X670505Y14242D01*
X670981Y14718D01*
X660697Y13766D02*
X664506Y23764D01*
X668315Y13766D01*
X666886Y17099D02*
X662125D01*
D15*
X596599Y321864D02*
G03*
X596822Y321726I3079J4717D01*
G01*
X709802Y320972D02*
G03*
X709913Y320978I-230J5167D01*
G01*
X714410Y323737D02*
G03*
X714559Y323967I-7545J5057D01*
G01*
X711480Y321316D02*
G03*
X711573Y321353I-1846J4927D01*
G01*
X597491Y321390D02*
G03*
X597583Y321353I1990J4748D01*
G01*
X599466Y320968D02*
G03*
X599577Y320967I112J4986D01*
G01*
X712557Y321864D02*
G03*
X712698Y321959I-3116J4774D01*
G01*
X710135Y320997D02*
G03*
X710244Y321010I-582J5375D01*
G01*
X711188Y321217D02*
G03*
X711287Y321249I-1638J5261D01*
G01*
X597772Y321282D02*
G03*
X597869Y321249I1813J5132D01*
G01*
X594459Y324195D02*
G03*
X594597Y323967I7823J4593D01*
G01*
X599022Y320997D02*
G03*
X599132Y320987I574J5304D01*
G01*
X595409Y322884D02*
G03*
X595642Y322641I4769J4350D01*
G01*
X712698Y321959D02*
G03*
X712831Y322054I-3304J4748D01*
G01*
X594597Y323967D02*
G03*
X594747Y323737I7694J4827D01*
G01*
X711384Y321282D02*
G03*
X711480Y321316I-1785J5054D01*
G01*
X712335Y321726D02*
G03*
X712557Y321864I-2857J4855D01*
G01*
X711573Y321353D02*
G03*
X711665Y321390I-1898J4785D01*
G01*
X597677Y321316D02*
G03*
X597772Y321282I1881J5020D01*
G01*
X714945Y394523D02*
G03*
X714799Y394794I-9700J-5036D01*
G01*
X710244Y321010D02*
G03*
X710461Y321043I-703J5451D01*
G01*
X713876Y323028D02*
G03*
X713957Y323124I-4980J4277D01*
G01*
X595642Y322641D02*
G03*
X595743Y322544I4620J4678D01*
G01*
X718919Y356283D02*
G03*
X718928Y362088I-247192J3290D01*
G01*
X597401Y321429D02*
G03*
X597491Y321390I2050J4637D01*
G01*
X596459Y321959D02*
G03*
X596599Y321864I3256J4679D01*
G01*
X711665Y321390D02*
G03*
X711755Y321429I-1960J4676D01*
G01*
X597869Y321249D02*
G03*
X597968Y321217I1737J5229D01*
G01*
X600914Y394803D02*
G03*
X598449Y392521I1022J-3575D01*
G01*
X710461Y321043D02*
G03*
X710987Y321158I-940J5532D01*
G01*
X713748Y322884D02*
G03*
X713876Y323028I-4775J4355D01*
G01*
X597583Y321353D02*
G03*
X597677Y321316I1940J4891D01*
G01*
X599354Y320972D02*
G03*
X599466Y320968I226J5077D01*
G01*
X711287Y321249D02*
G03*
X711384Y321282I-1716J5166D01*
G01*
X595743Y322544D02*
G03*
X595849Y322446I4605J4866D01*
G01*
X709579Y320967D02*
G03*
X709691Y320968I-0J4988D01*
G01*
X710987Y321158D02*
G03*
X711188Y321217I-1457J5387D01*
G01*
X597968D02*
G03*
X598170Y321158I1659J5328D01*
G01*
X713308Y322446D02*
G03*
X713414Y322544I-4499J4964D01*
G01*
X599627Y399304D02*
G03*
X594061Y394148I2309J-8076D01*
G01*
X594357Y394794D02*
G03*
X594212Y394523I9554J-5307D01*
G01*
X713514Y322641D02*
G03*
X713748Y322884I-4536J4593D01*
G01*
X590228Y362088D02*
G03*
X590238Y356283I247201J-2515D01*
G01*
X713414Y322544D02*
G03*
X713514Y322641I-4520J4776D01*
G01*
X710707Y392521D02*
G03*
X708243Y394803I-3486J-1293D01*
G01*
X598170Y321158D02*
G03*
X598695Y321043I1465J5417D01*
G01*
X714559Y323967D02*
G03*
X714697Y324195I-7684J4821D01*
G01*
X598912Y321010D02*
G03*
X599022Y320997I691J5362D01*
G01*
X709914Y320978D02*
G03*
X710024Y320986I-346J5245D01*
G01*
X599243Y320978D02*
G03*
X599354Y320972I341J5160D01*
G01*
X710024Y320987D02*
G03*
X710135Y320997I-464J5315D01*
G01*
X596822Y321726D02*
G03*
X597401Y321429I2848J4842D01*
G01*
X711755D02*
G03*
X712335Y321726I-2269J5139D01*
G01*
X596325Y322054D02*
G03*
X596459Y321959I3438J4652D01*
G01*
X595281Y323028D02*
G03*
X595409Y322884I4903J4210D01*
G01*
X715096Y394148D02*
G03*
X709530Y399304I-7875J-2921D01*
G01*
X598695Y321043D02*
G03*
X598912Y321010I920J5419D01*
G01*
X595200Y323124D02*
G03*
X595281Y323028I5061J4181D01*
G01*
X599132Y320986D02*
G03*
X599243Y320978I457J5236D01*
G01*
X709691Y320968D02*
G03*
X709802Y320972I-114J5080D01*
G01*
X716477Y329127D02*
X716491Y329183D01*
X717263Y333176D02*
X717285Y333314D01*
X597081Y388292D02*
X597205Y388841D01*
X591723Y334298D02*
X591743Y334155D01*
X592177Y387646D02*
X592188Y387709D01*
X715638Y326250D02*
X715655Y326298D01*
X595012Y323362D02*
X595048Y323315D01*
X593074Y327625D02*
X593089Y327574D01*
X594977Y323410D02*
X595012Y323362D01*
X591262Y337938D02*
X591280Y337778D01*
X592692Y329070D02*
X592706Y329015D01*
X593642Y393247D02*
X593660Y393294D01*
X709661Y399294D02*
X709715Y399271D01*
X666397Y399235D02*
X668053Y399194D01*
X717937Y380831D02*
X717955Y380669D01*
X715900Y327022D02*
X715916Y327071D01*
X621306Y398180D02*
X622676Y398287D01*
X594210Y324647D02*
X594233Y324602D01*
X606671Y401154D02*
X606752Y401168D01*
X716621Y389415D02*
X716634Y389356D01*
X591743Y334155D02*
X591764Y334013D01*
X715962Y391949D02*
X715977Y391899D01*
X637566Y403769D02*
X638135Y403788D01*
X714379Y323690D02*
X714410Y323737D01*
X591600Y335170D02*
X591620Y335022D01*
X713167Y381384D02*
X713258Y380565D01*
X698533Y401764D02*
X698628Y401751D01*
X593321Y392344D02*
X593337Y392393D01*
X716699Y330108D02*
X716712Y330168D01*
X598997Y325910D02*
X599142Y325795D01*
X592165Y387582D02*
X592177Y387646D01*
X606997Y401210D02*
X607079Y401224D01*
X692808Y402433D02*
X693027Y402411D01*
X594257Y324557D02*
X594281Y324512D01*
X593030Y327779D02*
X593044Y327727D01*
X603189Y400441D02*
X603257Y400457D01*
X715441Y325737D02*
X715478Y325829D01*
X711951Y388841D02*
X712075Y388292D01*
X714697Y324195D02*
X714750Y324286D01*
X705207Y400616D02*
X705277Y400601D01*
X639461Y399147D02*
X641104Y399194D01*
X715788Y326680D02*
X715805Y326729D01*
X617678Y402562D02*
X617904Y402583D01*
X680913Y403346D02*
X681307Y403324D01*
X715754Y392586D02*
X715771Y392538D01*
X593753Y325645D02*
X593791Y325553D01*
X674532Y398974D02*
X676108Y398905D01*
X706030Y400426D02*
X706097Y400410D01*
X591046Y340069D02*
X591062Y339902D01*
X699462Y401634D02*
X699553Y401621D01*
X703587Y400951D02*
X703664Y400936D01*
X713157Y337703D02*
X713249Y338519D01*
X609872Y401659D02*
X610057Y401686D01*
X711432Y390747D02*
X711565Y390315D01*
X591571Y383779D02*
X591591Y383927D01*
X600709Y399743D02*
X600766Y399762D01*
X616341Y402432D02*
X616562Y402454D01*
X593809Y393662D02*
X593828Y393707D01*
X607079Y401224D02*
X607162Y401239D01*
X591077Y339735D02*
X591094Y339568D01*
X713796Y374315D02*
X713857Y373358D01*
X715103Y324963D02*
X715124Y325008D01*
X590228Y362088D02*
X590255Y363982D01*
X610618Y401763D02*
X610807Y401789D01*
X707192Y400125D02*
X707254Y400107D01*
X717997Y338908D02*
X718014Y339072D01*
X620697Y402827D02*
X620936Y402846D01*
X591070Y379352D02*
X591086Y379519D01*
X670441Y403806D02*
X671154Y403783D01*
X679319Y403434D02*
X679720Y403413D01*
X708445Y399744D02*
X708502Y399725D01*
X695984Y402087D02*
X696187Y402063D01*
X705486Y400554D02*
X705555Y400538D01*
X708952Y399569D02*
X709007Y399549D01*
X716980Y331523D02*
X716991Y331587D01*
X604231Y400678D02*
X604303Y400694D01*
X703277Y401009D02*
X703355Y400995D01*
X592084Y332039D02*
X592095Y331974D01*
X715787Y392490D02*
X715803Y392441D01*
X598271Y392173D02*
X598411Y392451D01*
X590932Y377823D02*
X590946Y377996D01*
X665087Y403946D02*
X666255Y403921D01*
X590853Y342304D02*
X590867Y342129D01*
X592395Y388763D02*
X592408Y388823D01*
X593089Y327574D02*
X593104Y327523D01*
X592496Y389239D02*
X592509Y389298D01*
X602660Y400309D02*
X602725Y400326D01*
X710035Y399131D02*
X710141Y399083D01*
X715585Y393061D02*
X715602Y393014D01*
X615257Y402320D02*
X615471Y402343D01*
X593503Y392873D02*
X593520Y392920D01*
X718030Y339237D02*
X718047Y339402D01*
X684651Y403112D02*
X685029Y403086D01*
X716920Y387962D02*
X716932Y387899D01*
X714282Y323551D02*
X714315Y323597D01*
X635031Y403675D02*
X635590Y403697D01*
X716214Y328092D02*
X716228Y328145D01*
X713071Y382181D02*
X713167Y381384D01*
X595653Y341087D02*
X595734Y340212D01*
X609689Y401633D02*
X609872Y401659D01*
X591692Y384657D02*
X591712Y384801D01*
X688214Y402847D02*
X688453Y402827D01*
X709875Y399202D02*
X709929Y399179D01*
X713021Y322201D02*
X713081Y322250D01*
X715268Y325325D02*
X715287Y325370D01*
X592107Y331909D02*
X592119Y331844D01*
X717814Y381946D02*
X717832Y381788D01*
X718180Y378338D02*
X718195Y378167D01*
X594011Y325053D02*
X594033Y325008D01*
X618661Y397952D02*
X619967Y398068D01*
X699001Y401699D02*
X699094Y401687D01*
X596401Y334656D02*
X596510Y333952D01*
X716156Y391287D02*
X716171Y391235D01*
X716582Y389589D02*
X716595Y389531D01*
X591861Y385786D02*
X591882Y385924D01*
X704923Y400678D02*
X704995Y400663D01*
X694532Y402252D02*
X694742Y402229D01*
X715803Y392441D02*
X715819Y392393D01*
X715931Y327121D02*
X715947Y327171D01*
X691245Y402584D02*
X691471Y402563D01*
X702723Y401111D02*
X702803Y401097D01*
X592971Y391182D02*
X592986Y391235D01*
X717841Y337461D02*
X717859Y337619D01*
X712197Y387716D02*
X712316Y387113D01*
X713512Y377991D02*
X713589Y377097D01*
X703199Y401024D02*
X703277Y401009D01*
X703893Y400891D02*
X703968Y400876D01*
X715328Y393707D02*
X715348Y393662D01*
X592445Y330168D02*
X592458Y330108D01*
X717576Y335317D02*
X717596Y335466D01*
X714851Y324467D02*
X714875Y324512D01*
X610430Y401737D02*
X610618Y401763D01*
X595726Y378868D02*
X595810Y379726D01*
X704995Y400663D02*
X705066Y400647D01*
X603461Y400505D02*
X603529Y400521D01*
X591807Y333731D02*
X591828Y333591D01*
X717350Y333731D02*
X717371Y333871D01*
X716142Y327831D02*
X716156Y327882D01*
X625007Y403146D02*
X625388Y403171D01*
X592560Y329640D02*
X592573Y329582D01*
X698344Y401790D02*
X698439Y401777D01*
X592816Y328574D02*
X592830Y328520D01*
X712766Y384440D02*
X712871Y383710D01*
X590621Y373533D02*
X590638Y373810D01*
X718893Y354691D02*
X718919Y356283D01*
X593848Y393753D02*
X593867Y393798D01*
X703934Y396103D02*
X704662Y395939D01*
X591521Y335765D02*
X591541Y335615D01*
X716836Y330772D02*
X716848Y330834D01*
X603185Y395605D02*
X603816Y395773D01*
X607495Y401295D02*
X607579Y401308D01*
X703664Y400936D02*
X703741Y400921D01*
X592886Y390865D02*
X592900Y390919D01*
X592284Y330957D02*
X592296Y330896D01*
X594033Y325008D02*
X594054Y324963D01*
X716956Y331396D02*
X716968Y331459D01*
X636293Y403723D02*
X636999Y403749D01*
X706296Y400360D02*
X706362Y400344D01*
X704852Y400694D02*
X704923Y400678D01*
X591904Y386061D02*
X591926Y386197D01*
X616562Y402454D02*
X616783Y402476D01*
X590992Y378509D02*
X591007Y378678D01*
X595426Y375257D02*
X595495Y376185D01*
X592986Y391235D02*
X593000Y391287D01*
X611590Y397171D02*
X612672Y397311D01*
X716423Y328903D02*
X716437Y328959D01*
X590961Y378167D02*
X590976Y378338D01*
X715478Y393340D02*
X715496Y393294D01*
X714255Y357949D02*
X714259Y359003D01*
X709205Y394202D02*
X709377Y394022D01*
X693027Y402411D02*
X693245Y402388D01*
X592613Y389761D02*
X592627Y389818D01*
X615043Y402297D02*
X615257Y402320D01*
X625772Y403196D02*
X626157Y403220D01*
X698154Y401815D02*
X698249Y401802D01*
X701402Y401337D02*
X701487Y401323D01*
X601590Y395089D02*
X602072Y395263D01*
X687492Y402904D02*
X687734Y402885D01*
X717920Y380992D02*
X717937Y380831D01*
X592693Y390100D02*
X592707Y390156D01*
X715496Y393294D02*
X715514Y393247D01*
X707439Y400055D02*
X707500Y400037D01*
X715550Y326015D02*
X715568Y326062D01*
X717186Y386467D02*
X717208Y386333D01*
X715405Y393524D02*
X715423Y393478D01*
X592774Y328738D02*
X592788Y328683D01*
X590746Y375446D02*
X590766Y375715D01*
X712871Y383710D02*
X712973Y382957D01*
X601056Y399856D02*
X601115Y399874D01*
X592224Y331270D02*
X592236Y331207D01*
X712755Y334656D02*
X712860Y335383D01*
X706427Y400328D02*
X706492Y400311D01*
X716083Y327625D02*
X716097Y327676D01*
X609551Y396881D02*
X610550Y397028D01*
X593164Y391849D02*
X593180Y391899D01*
X600595Y399705D02*
X600652Y399724D01*
X592561Y389531D02*
X592574Y389589D01*
X599287Y325713D02*
X599432Y325664D01*
X627322Y403292D02*
X627714Y403316D01*
X709227Y399467D02*
X709282Y399446D01*
X592534Y329756D02*
X592547Y329697D01*
X716608Y389473D02*
X716621Y389415D01*
X716543Y389761D02*
X716556Y389704D01*
X605876Y401009D02*
X605954Y401024D01*
X591733Y384944D02*
X591754Y385086D01*
X590867Y342129D02*
X590881Y341954D01*
X717832Y381788D02*
X717850Y381631D01*
X716711Y389002D02*
X716724Y388943D01*
X718111Y340069D02*
X718126Y340238D01*
X593849Y325416D02*
X593869Y325370D01*
X710141Y399083D02*
X710247Y399033D01*
X717073Y332039D02*
X717084Y332104D01*
X717955Y380669D02*
X717972Y380507D01*
X687975Y402866D02*
X688214Y402847D01*
X594054Y324963D02*
X594075Y324917D01*
X592038Y332301D02*
X592050Y332235D01*
X624077Y398390D02*
X625508Y398488D01*
X710871Y326966D02*
X711010Y327273D01*
X689866Y402708D02*
X690098Y402688D01*
X716991Y331587D02*
X717003Y331651D01*
X716896Y331082D02*
X716908Y331144D01*
X718496Y344995D02*
X718513Y345270D01*
X697185Y401940D02*
X697283Y401928D01*
X713724Y343816D02*
X713790Y344757D01*
X718345Y376338D02*
X718358Y376161D01*
X716127Y327779D02*
X716142Y327831D01*
X718188Y340917D02*
X718203Y341088D01*
X603947Y400616D02*
X604017Y400632D01*
X592706Y329015D02*
X592719Y328959D01*
X634473Y403652D02*
X635031Y403675D01*
X590839Y342480D02*
X590853Y342304D01*
X715365Y325553D02*
X715403Y325645D01*
X601775Y400071D02*
X601837Y400089D01*
X701571Y401310D02*
X701656Y401296D01*
X590526Y371855D02*
X590541Y372137D01*
X593044Y327727D02*
X593059Y327676D01*
X702963Y401068D02*
X703042Y401053D01*
X708728Y399648D02*
X708784Y399629D01*
X633365Y403605D02*
X633918Y403629D01*
X716556Y389704D02*
X716569Y389646D01*
X595299Y373358D02*
X595360Y374315D01*
X593554Y393014D02*
X593572Y393061D01*
X594875Y323551D02*
X594908Y323504D01*
X593607Y393154D02*
X593624Y393201D01*
X707861Y399930D02*
X707921Y399912D01*
X590488Y348073D02*
X590507Y347694D01*
X709062Y399529D02*
X709118Y399508D01*
X605261Y400891D02*
X605337Y400906D01*
X609145Y401554D02*
X609235Y401567D01*
X592788Y390487D02*
X592802Y390542D01*
X716724Y388943D02*
X716736Y388883D01*
X591015Y340407D02*
X591030Y340238D01*
X638135Y403788D02*
X638706Y403806D01*
X592038Y386867D02*
X592049Y386933D01*
X701990Y401239D02*
X702072Y401225D01*
X597332Y389361D02*
X597461Y389852D01*
X718173Y340746D02*
X718188Y340917D01*
X705828Y400474D02*
X705896Y400458D01*
X590546Y346941D02*
X590562Y346660D01*
X718704Y370337D02*
X718721Y369954D01*
X639278Y403824D02*
X639853Y403841D01*
X593452Y392730D02*
X593469Y392778D01*
X599577Y320967D02*
X709579D01*
X592900Y390919D02*
X592914Y390972D01*
X704342Y400801D02*
X704415Y400786D01*
X616154Y397707D02*
X617390Y397832D01*
X702883Y401082D02*
X702963Y401068D01*
X715771Y392538D02*
X715787Y392490D01*
X706230Y400377D02*
X706296Y400360D01*
X623375Y403032D02*
X623624Y403050D01*
X711284Y327980D02*
X711419Y328379D01*
X709007Y399549D02*
X709062Y399529D01*
X617005Y402497D02*
X617228Y402519D01*
X593195Y391949D02*
X593210Y391999D01*
X590766Y375715D02*
X590785Y375983D01*
X715367Y393616D02*
X715386Y393570D01*
X716354Y390542D02*
X716368Y390487D01*
X592370Y330528D02*
X592382Y330468D01*
X626932Y403269D02*
X627322Y403292D01*
X716774Y388702D02*
X716786Y388642D01*
X717635Y335765D02*
X717655Y335916D01*
X718552Y373256D02*
X718568Y372977D01*
X696388Y402038D02*
X696589Y402014D01*
X715014Y394387D02*
X715059Y394297D01*
X668053Y399194D02*
X669696Y399147D01*
X718047Y339402D02*
X718063Y339568D01*
X716023Y327421D02*
X716038Y327472D01*
X600538Y399686D02*
X600595Y399705D01*
X715837Y326826D02*
X715853Y326875D01*
X716896Y388087D02*
X716908Y388025D01*
X713914Y372387D02*
X713967Y371405D01*
X615471Y402343D02*
X615687Y402365D01*
X599225Y399178D02*
X599332Y399224D01*
X704118Y400846D02*
X704193Y400831D01*
X600313Y399607D02*
X600369Y399627D01*
X592432Y330227D02*
X592445Y330168D01*
X718290Y342129D02*
X718304Y342304D01*
X718095Y339902D02*
X718111Y340069D01*
X717912Y338098D02*
X717929Y338259D01*
X606429Y401111D02*
X606509Y401125D01*
X718753Y369184D02*
X718771Y368701D01*
X702339Y396423D02*
X703160Y396264D01*
X718530Y345546D02*
X718547Y345823D01*
X709579Y325648D02*
X709724Y325664D01*
X683892Y403163D02*
X684273Y403138D01*
X713957Y323125D02*
X713996Y323172D01*
X595195Y347663D02*
X595248Y346682D01*
X603876Y400600D02*
X603947Y400616D01*
X592358Y388581D02*
X592370Y388642D01*
X714347Y323644D02*
X714379Y323690D01*
X718831Y352224D02*
X718851Y352912D01*
X592470Y330049D02*
X592483Y329990D01*
X607834Y401350D02*
X607919Y401364D01*
X618360Y402625D02*
X618589Y402646D01*
X593948Y393980D02*
X593969Y394025D01*
X715145Y394116D02*
X715188Y394025D01*
X695368Y402158D02*
X695574Y402135D01*
X619051Y402687D02*
X619283Y402707D01*
X622145Y402941D02*
X622389Y402960D01*
X715821Y326777D02*
X715837Y326826D01*
X590734Y343905D02*
X590753Y343635D01*
X677663Y398832D02*
X679196Y398753D01*
X593149Y391799D02*
X593164Y391849D01*
X688453Y402827D02*
X688691Y402808D01*
X592142Y331715D02*
X592154Y331651D01*
X596852Y331993D02*
X596972Y331393D01*
X594187Y324692D02*
X594210Y324647D01*
X715166Y325098D02*
X715187Y325143D01*
X715772Y326632D02*
X715788Y326680D01*
X610550Y397028D02*
X611590Y397171D01*
X629960Y398753D02*
X631493Y398832D01*
X609056Y401540D02*
X609145Y401554D01*
X687851Y398180D02*
X689190Y398068D01*
X691767Y397832D02*
X693002Y397707D01*
X702562Y401140D02*
X702643Y401126D01*
X603122Y400424D02*
X603189Y400441D01*
X604088Y400647D02*
X604159Y400663D01*
X626543Y403245D02*
X626932Y403269D01*
X716271Y390865D02*
X716285Y390812D01*
X716171Y391235D02*
X716185Y391182D01*
X599708Y399380D02*
X599762Y399402D01*
X606509Y401125D02*
X606590Y401139D01*
X705555Y400538D02*
X705624Y400522D01*
X596135Y322201D02*
X596197Y322152D01*
X608789Y401500D02*
X608877Y401513D01*
X717050Y387260D02*
X717061Y387195D01*
X697283Y401928D02*
X697381Y401916D01*
X715722Y326488D02*
X715739Y326536D01*
X716477Y390044D02*
X716490Y389988D01*
X679196Y398753D02*
X680706Y398670D01*
X594902Y357949D02*
X594911Y356897D01*
X707085Y395263D02*
X707566Y395089D01*
X714096Y350673D02*
X714132Y351694D01*
X596621Y333274D02*
X596735Y332620D01*
X604159Y400663D02*
X604231Y400678D01*
X592236Y331207D02*
X592248Y331144D01*
X715977Y327270D02*
X715993Y327321D01*
X700538Y401474D02*
X700626Y401461D01*
X593402Y392586D02*
X593419Y392634D01*
X716142Y391339D02*
X716156Y391287D01*
X710303Y326057D02*
X710447Y326236D01*
X714801Y324376D02*
X714851Y324467D01*
X615687Y402365D02*
X615904Y402388D01*
X590562Y346660D02*
X590577Y346380D01*
X718261Y377391D02*
X718282Y377129D01*
X717868Y381472D02*
X717885Y381313D01*
X590453Y348834D02*
X590470Y348453D01*
X593272Y326973D02*
X593288Y326924D01*
X716884Y388150D02*
X716896Y388087D01*
X718391Y375715D02*
X718410Y375446D01*
X592027Y332368D02*
X592038Y332301D01*
X707980Y399893D02*
X708039Y399875D01*
X593889Y325325D02*
X593909Y325279D01*
X598553Y392698D02*
X598695Y392913D01*
X599762Y399402D02*
X599817Y399423D01*
X716228Y391025D02*
X716242Y390972D01*
X599871Y399444D02*
X599926Y399465D01*
X596735Y332620D02*
X596852Y331993D01*
X590507Y347694D02*
X590526Y347317D01*
X591926Y386197D02*
X591948Y386333D01*
X714945Y394523D02*
X715014Y394387D01*
X684273Y403138D02*
X684651Y403112D01*
X595576Y341980D02*
X595653Y341087D01*
X646706Y403993D02*
X648184Y404013D01*
X593369Y392490D02*
X593386Y392538D01*
X718650Y371478D02*
X718668Y371099D01*
X592248Y331144D02*
X592260Y331082D01*
X718584Y372698D02*
X718600Y372418D01*
X590999Y340576D02*
X591015Y340407D01*
X606915Y401196D02*
X606997Y401210D01*
X598982Y393246D02*
X599127Y393363D01*
X636219Y399037D02*
X637832Y399094D01*
X606590Y401139D02*
X606671Y401154D01*
X716884Y331020D02*
X716896Y331082D01*
X699187Y401673D02*
X699279Y401660D01*
X686517Y402979D02*
X686762Y402960D01*
X592189Y331459D02*
X592201Y331396D01*
X595097Y369406D02*
X595141Y370411D01*
X713908Y346682D02*
X713962Y347663D01*
X715930Y392049D02*
X715946Y391999D01*
X591671Y384513D02*
X591692Y384657D01*
X591143Y339072D02*
X591159Y338908D01*
X716097Y391493D02*
X716112Y391442D01*
X591202Y380669D02*
X591219Y380831D01*
X592679Y329127D02*
X592692Y329070D01*
X683125Y403213D02*
X683509Y403188D01*
X590661Y344995D02*
X590679Y344721D01*
X712647Y333952D02*
X712755Y334656D01*
X710589Y326447D02*
X710731Y326691D01*
X618132Y402604D02*
X618360Y402625D01*
X717208Y386333D02*
X717231Y386197D01*
X590381Y350567D02*
X590400Y350083D01*
X718861Y365864D02*
X718880Y365074D01*
X703121Y401039D02*
X703199Y401024D01*
X592383Y388702D02*
X592395Y388763D01*
X716569Y389646D02*
X716582Y389589D01*
X601898Y400106D02*
X601960Y400123D01*
X593928Y393935D02*
X593948Y393980D01*
X648184Y404013D02*
X650408Y404036D01*
X704415Y400786D02*
X704489Y400770D01*
X596075Y322250D02*
X596135Y322201D01*
X717360Y385369D02*
X717381Y385228D01*
X713589Y377097D02*
X713662Y376185D01*
X700800Y401433D02*
X700887Y401420D01*
X590577Y346380D02*
X590593Y346101D01*
X592599Y329467D02*
X592613Y329410D01*
X692366Y402477D02*
X692587Y402455D01*
X590679Y344721D02*
X590697Y344448D01*
X628900Y403383D02*
X629298Y403405D01*
X649481Y399347D02*
X651177Y399361D01*
X592957Y391130D02*
X592971Y391182D01*
X717026Y331779D02*
X717038Y331844D01*
X594075Y324917D02*
X594097Y324872D01*
X689399Y402748D02*
X689633Y402728D01*
X590306Y352912D02*
X590326Y352224D01*
X592345Y330650D02*
X592358Y330589D01*
X689633Y402728D02*
X689866Y402708D01*
X708502Y399725D02*
X708559Y399706D01*
X592872Y390812D02*
X592886Y390865D01*
X592761Y390378D02*
X592775Y390433D01*
X603392Y400489D02*
X603461Y400505D01*
X707130Y400142D02*
X707192Y400125D01*
X714072Y323268D02*
X714108Y323315D01*
X593908Y393889D02*
X593928Y393935D01*
X595048Y323315D02*
X595085Y323268D01*
X717674Y336067D02*
X717693Y336219D01*
X718410Y375446D02*
X718429Y375176D01*
X595645Y377991D02*
X595726Y378868D01*
X591054Y379184D02*
X591070Y379352D01*
X716257Y390919D02*
X716271Y390865D01*
X717465Y384657D02*
X717485Y384513D01*
X716068Y327574D02*
X716083Y327625D01*
X599780Y394022D02*
X599952Y394202D01*
X607748Y401336D02*
X607834Y401350D01*
X593970Y325143D02*
X593991Y325098D01*
X590556Y372418D02*
X590572Y372698D01*
X685279Y403069D02*
X685528Y403051D01*
X716409Y390322D02*
X716450Y390156D01*
X716823Y388458D02*
X716835Y388397D01*
X593536Y326203D02*
X593554Y326156D01*
X709282Y399446D02*
X709336Y399424D01*
X591271Y381313D02*
X591289Y381472D01*
X591786Y333871D02*
X591807Y333731D01*
X694952Y402205D02*
X695161Y402182D01*
X704707Y400724D02*
X704780Y400709D01*
X717015Y331715D02*
X717026Y331779D01*
X590604Y373256D02*
X590621Y373533D01*
X711825Y389361D02*
X711951Y388841D01*
X712896Y322103D02*
X712959Y322152D01*
X590954Y341088D02*
X590969Y340917D01*
X714015Y370411D02*
X714060Y369406D01*
X592747Y328848D02*
X592760Y328793D01*
X591227Y338259D02*
X591245Y338098D01*
X592072Y332104D02*
X592084Y332039D01*
X707561Y400020D02*
X707621Y400002D01*
X703510Y400965D02*
X703587Y400951D01*
X603529Y400521D02*
X603598Y400537D01*
X597724Y390747D02*
X597858Y391150D01*
X590874Y377129D02*
X590895Y377391D01*
X717616Y335615D02*
X717635Y335765D01*
X716007Y391799D02*
X716023Y391748D01*
X591818Y385509D02*
X591839Y385648D01*
X702155Y401211D02*
X702237Y401197D01*
X590404Y369184D02*
X590420Y369570D01*
X716112Y391442D02*
X716127Y391390D01*
X591102Y379685D02*
X591118Y379850D01*
X717096Y386999D02*
X717107Y386933D01*
X715015Y324782D02*
X715037Y324827D01*
X717989Y380344D02*
X718005Y380180D01*
X696484Y397311D02*
X697566Y397171D01*
X716410Y328848D02*
X716423Y328903D01*
X661367Y399327D02*
X663053Y399302D01*
X709553Y399338D02*
X709607Y399316D01*
X592640Y389875D02*
X592653Y389931D01*
X605337Y400906D02*
X605413Y400921D01*
X591937Y332904D02*
X591959Y332768D01*
X607919Y401364D02*
X608004Y401377D01*
X707254Y400107D02*
X707316Y400090D01*
X705341Y395773D02*
X705971Y395605D01*
X590673Y374359D02*
X590690Y374633D01*
X611189Y401840D02*
X611382Y401865D01*
X662000Y404000D02*
X663767Y403971D01*
X608091Y401391D02*
X608177Y401405D01*
X716023Y391748D02*
X716038Y391698D01*
X598695Y392913D02*
X598839Y393096D01*
X602856Y400359D02*
X602922Y400375D01*
X709173Y399487D02*
X709227Y399467D01*
X706557Y400294D02*
X706622Y400278D01*
X594097Y324872D02*
X594119Y324827D01*
X601160Y394914D02*
X601590Y395089D01*
X718210Y377996D02*
X718225Y377823D01*
X709769Y399248D02*
X709822Y399225D01*
X601115Y399874D02*
X601174Y399893D01*
X613168Y402086D02*
X613372Y402110D01*
X592061Y332170D02*
X592072Y332104D01*
X594054Y394207D02*
X594098Y394297D01*
X707004Y400176D02*
X707067Y400159D01*
X644427Y399272D02*
X646104Y399302D01*
X677701Y403516D02*
X678108Y403496D01*
X606817Y396423D02*
X607684Y396578D01*
X715899Y392148D02*
X715915Y392099D01*
X717152Y332500D02*
X717163Y332567D01*
X718519Y373810D02*
X718536Y373533D01*
X633049Y398905D02*
X634624Y398974D01*
X590588Y372977D02*
X590604Y373256D01*
X718429Y375176D02*
X718448Y374905D01*
X716327Y328520D02*
X716341Y328574D01*
X594233Y324602D02*
X594257Y324557D01*
X600824Y399781D02*
X600881Y399800D01*
X718547Y345823D02*
X718563Y346101D01*
X715514Y325922D02*
X715532Y325969D01*
X607162Y401239D02*
X607245Y401253D01*
X590507Y371478D02*
X590526Y371855D01*
X599660Y393842D02*
X599780Y394022D01*
X676108Y398905D02*
X677663Y398832D01*
X602402Y400243D02*
X602466Y400259D01*
X605954Y401024D02*
X606032Y401039D01*
X600176Y394382D02*
X600452Y394560D01*
X592971Y327987D02*
X592986Y327935D01*
X718513Y345270D02*
X718530Y345546D01*
X593589Y326062D02*
X593607Y326015D01*
X601352Y399947D02*
X601411Y399965D01*
X594990Y366340D02*
X595021Y367370D01*
X592957Y328039D02*
X592971Y327987D01*
X689164Y402768D02*
X689399Y402748D01*
X718345Y342833D02*
X718365Y343099D01*
X606032Y401039D02*
X606111Y401053D01*
X715637Y392920D02*
X715654Y392873D01*
X591464Y336219D02*
X591483Y336067D01*
X605186Y400876D02*
X605261Y400891D01*
X593537Y392967D02*
X593554Y393014D01*
X712316Y387113D02*
X712433Y386483D01*
X704044Y400861D02*
X704118Y400846D01*
X618820Y402667D02*
X619051Y402687D01*
X592236Y387962D02*
X592248Y388025D01*
X717371Y333871D02*
X717392Y334013D01*
X591334Y337303D02*
X591352Y337146D01*
X709496Y393842D02*
X709563Y393661D01*
X623874Y403068D02*
X624124Y403085D01*
X592667Y389988D02*
X592680Y390044D01*
X703817Y400906D02*
X703893Y400891D01*
X709607Y399316D02*
X709661Y399294D01*
X718789Y368215D02*
X718806Y367728D01*
X715403Y325645D02*
X715441Y325737D01*
X718649Y347694D02*
X718668Y348073D01*
X592458Y330108D02*
X592470Y330049D01*
X715835Y392344D02*
X715852Y392295D01*
X717980Y338745D02*
X717997Y338908D01*
X698721Y401738D02*
X698815Y401725D01*
X594908Y323504D02*
X594942Y323457D01*
X593867Y393798D02*
X593887Y393844D01*
X706941Y400193D02*
X707004Y400176D01*
X714947Y324647D02*
X714970Y324692D01*
X718384Y343367D02*
X718404Y343635D01*
X600201Y399567D02*
X600257Y399587D01*
X608877Y401513D02*
X608966Y401527D01*
X632266Y403555D02*
X632814Y403580D01*
X594143Y394387D02*
X594212Y394523D01*
X601960Y400123D02*
X602023Y400140D01*
X608177Y401405D02*
X608263Y401419D01*
X592333Y388458D02*
X592346Y388520D01*
X717702Y382875D02*
X717721Y382722D01*
X715145Y325053D02*
X715166Y325098D01*
X716761Y388763D02*
X716774Y388702D01*
X592420Y388883D02*
X592433Y388943D01*
X590436Y369954D02*
X590453Y370337D01*
X713249Y338519D02*
X713337Y339356D01*
X593320Y326826D02*
X593336Y326777D01*
X716860Y388274D02*
X716872Y388212D01*
X593696Y393386D02*
X593715Y393432D01*
X718721Y369954D02*
X718737Y369570D01*
X718423Y343905D02*
X718441Y344176D01*
X718737Y369570D02*
X718753Y369184D01*
X593089Y391596D02*
X593104Y391647D01*
X709929Y399179D02*
X710035Y399131D01*
X717740Y382568D02*
X717758Y382413D01*
X604303Y400694D02*
X604375Y400709D01*
X716860Y330896D02*
X716872Y330957D01*
X717972Y380507D02*
X717989Y380344D01*
X630503Y403469D02*
X630907Y403489D01*
X592095Y387195D02*
X592107Y387260D01*
X590753Y343635D02*
X590772Y343367D01*
X717683Y383028D02*
X717702Y382875D01*
X712185Y331393D02*
X712304Y331993D01*
X601837Y400089D02*
X601898Y400106D01*
X602530Y400276D02*
X602595Y400293D01*
X594281Y324512D02*
X594305Y324467D01*
X716622Y329756D02*
X716635Y329814D01*
X591151Y380180D02*
X591168Y380344D01*
X717084Y332104D02*
X717095Y332170D01*
X682739Y403237D02*
X683125Y403213D01*
X717795Y382102D02*
X717814Y381946D01*
X718630Y347317D02*
X718649Y347694D01*
X591661Y334730D02*
X591681Y334585D01*
X599272Y393449D02*
X599417Y393501D01*
X592358Y330589D02*
X592370Y330528D01*
X607328Y401267D02*
X607411Y401281D01*
X631493Y398832D02*
X633049Y398905D01*
X694107Y402298D02*
X694320Y402275D01*
X599926Y399465D02*
X599981Y399486D01*
X675645Y403611D02*
X676059Y403593D01*
X686025Y403015D02*
X686271Y402997D01*
X591702Y334441D02*
X591723Y334298D01*
X590277Y365074D02*
X590296Y365864D01*
X715947Y327171D02*
X715962Y327220D01*
X613372Y402110D02*
X613577Y402134D01*
X602085Y400158D02*
X602148Y400175D01*
X590526Y347317D02*
X590546Y346941D01*
X715478Y325829D02*
X715514Y325922D01*
X694201Y397579D02*
X695362Y397447D01*
X714180Y323410D02*
X714214Y323457D01*
X592004Y332500D02*
X592016Y332434D01*
X712963Y336134D02*
X713061Y336907D01*
X590727Y375176D02*
X590746Y375446D01*
X628451Y398670D02*
X629960Y398753D01*
X591135Y380015D02*
X591151Y380180D01*
X712075Y388292D02*
X712197Y387716D01*
X698249Y401802D02*
X698344Y401790D01*
X705971Y395605D02*
X706553Y395435D01*
X593074Y391545D02*
X593089Y391596D01*
X593519Y326250D02*
X593536Y326203D01*
X716083Y391545D02*
X716097Y391493D01*
X718126Y340238D02*
X718142Y340407D01*
X708784Y399629D02*
X708840Y399609D01*
X709445Y399382D02*
X709499Y399360D01*
X715187Y325143D02*
X715207Y325189D01*
X713790Y344757D02*
X713851Y345713D01*
X624627Y403120D02*
X625007Y403146D01*
X594942Y323457D02*
X594977Y323410D01*
X593678Y393340D02*
X593696Y393386D01*
X717556Y335170D02*
X717576Y335317D01*
X592026Y386801D02*
X592038Y386867D01*
X592914Y328198D02*
X592928Y328145D01*
X716340Y390596D02*
X716354Y390542D01*
X717645Y383330D02*
X717664Y383179D01*
X716673Y329990D02*
X716686Y330049D01*
X590785Y375983D02*
X590798Y376161D01*
X591094Y339568D02*
X591110Y339402D01*
X718317Y342480D02*
X718331Y342656D01*
X702481Y401154D02*
X702562Y401140D01*
X592886Y328304D02*
X592900Y328251D01*
X699644Y401608D02*
X699735Y401595D01*
X593352Y326729D02*
X593368Y326680D01*
X599593Y393661D02*
X599660Y393842D01*
X604887Y400816D02*
X604961Y400831D01*
X697673Y401878D02*
X697770Y401866D01*
X593256Y327022D02*
X593272Y326973D01*
X717963Y338582D02*
X717980Y338745D01*
X590488Y371099D02*
X590507Y371478D01*
X717777Y382258D02*
X717795Y382102D01*
X595959Y322348D02*
X596017Y322299D01*
X590385Y368701D02*
X590404Y369184D01*
X604375Y400709D02*
X604447Y400725D01*
X699094Y401687D02*
X699187Y401673D01*
X699371Y401647D02*
X699462Y401634D01*
X717505Y384368D02*
X717526Y384222D01*
X714132Y351694D02*
X714163Y352724D01*
X718225Y377823D02*
X718240Y377651D01*
X592471Y389121D02*
X592484Y389180D01*
X591445Y336372D02*
X591464Y336219D01*
X715852Y392295D02*
X715867Y392246D01*
X716595Y389531D02*
X716608Y389473D01*
X613794Y397447D02*
X614955Y397579D01*
X592260Y331082D02*
X592272Y331020D01*
X593289Y392246D02*
X593305Y392295D01*
X593715Y393432D02*
X593733Y393478D01*
X713654Y342890D02*
X713724Y343816D01*
X599817Y399423D02*
X599871Y399444D01*
X595908Y338519D02*
X595999Y337703D01*
X603257Y400457D02*
X603324Y400473D01*
X693002Y397707D02*
X694201Y397579D01*
X713662Y376185D02*
X713731Y375257D01*
X592272Y388150D02*
X592284Y388212D01*
X715706Y326440D02*
X715722Y326488D01*
X717130Y332368D02*
X717141Y332434D01*
X716762Y330407D02*
X716774Y330468D01*
X596296Y335383D02*
X596401Y334656D01*
X698628Y401751D02*
X698721Y401738D01*
X594941Y364261D02*
X594963Y365303D01*
X712063Y330819D02*
X712185Y331393D01*
X717392Y334013D02*
X717413Y334155D01*
X718448Y374905D02*
X718466Y374633D01*
X690098Y402688D02*
X690330Y402667D01*
X714233Y363215D02*
X714246Y362164D01*
X634624Y398974D02*
X636219Y399037D01*
X600452Y394560D02*
X600780Y394738D01*
X591176Y338745D02*
X591193Y338582D01*
X668141Y403874D02*
X669007Y403850D01*
X607245Y401253D02*
X607328Y401267D01*
X592719Y328959D02*
X592733Y328903D01*
X595305Y345713D02*
X595367Y344757D01*
X672854Y403723D02*
X673417Y403702D01*
X717566Y383927D02*
X717586Y383779D01*
X718595Y346660D02*
X718610Y346941D01*
X590364Y351053D02*
X590381Y350567D01*
X593104Y327523D02*
X593119Y327472D01*
X716968Y331459D02*
X716980Y331523D01*
X716285Y328358D02*
X716299Y328412D01*
X592107Y387260D02*
X592118Y387324D01*
X592395Y330407D02*
X592407Y330347D01*
X714215Y364261D02*
X714233Y363215D01*
X716932Y331270D02*
X716944Y331333D01*
X590419Y349601D02*
X590436Y349217D01*
X594993Y352724D02*
X595025Y351694D01*
X716242Y390972D02*
X716257Y390919D01*
X610057Y401686D02*
X610243Y401712D01*
X715689Y326393D02*
X715706Y326440D01*
X629298Y403405D02*
X629698Y403427D01*
X592733Y328903D02*
X592747Y328848D01*
X612672Y397311D02*
X613794Y397447D01*
X624124Y403085D02*
X624375Y403103D01*
X716450Y390156D02*
X716463Y390100D01*
X612965Y402062D02*
X613168Y402086D01*
X717434Y334298D02*
X717455Y334441D01*
X593909Y325279D02*
X593929Y325234D01*
X718071Y379519D02*
X718087Y379352D01*
X592680Y390044D02*
X592693Y390100D01*
X590798Y376161D02*
X590812Y376338D01*
X717049Y331909D02*
X717061Y331974D01*
X708376Y394738D02*
X708704Y394560D01*
X690330Y402667D02*
X690560Y402647D01*
X693462Y402366D02*
X693678Y402343D01*
X715867Y392246D02*
X715883Y392197D01*
X718195Y378167D02*
X718210Y377996D01*
X714249Y323504D02*
X714282Y323551D01*
X592587Y389646D02*
X592600Y389704D01*
X701317Y401351D02*
X701402Y401337D01*
X715423Y393478D02*
X715442Y393432D01*
X591435Y382722D02*
X591454Y382875D01*
X718304Y342304D02*
X718317Y342480D01*
X700095Y401541D02*
X700184Y401528D01*
X594305Y324467D02*
X594355Y324376D01*
X692587Y402455D02*
X692808Y402433D01*
X699825Y401581D02*
X699915Y401568D01*
X592200Y387773D02*
X592212Y387836D01*
X716749Y330347D02*
X716762Y330407D01*
X591168Y380344D02*
X591185Y380507D01*
X593104Y391647D02*
X593119Y391698D01*
X593134Y391748D01*
X716786Y388642D02*
X716798Y388581D01*
X713851Y345713D02*
X713908Y346682D01*
X717903Y381153D02*
X717920Y380992D01*
X718600Y372418D02*
X718615Y372137D01*
X596194Y336134D02*
X596296Y335383D01*
X592830Y328520D02*
X592844Y328465D01*
X592484Y389180D02*
X592496Y389239D01*
X592309Y388335D02*
X592321Y388397D01*
X592212Y387836D02*
X592224Y387899D01*
X715568Y326062D02*
X715585Y326109D01*
X710318Y393096D02*
X710461Y392913D01*
X708840Y399609D02*
X708896Y399589D01*
X592626Y329353D02*
X592639Y329296D01*
X657979Y399361D02*
X659676Y399347D01*
X704780Y400709D02*
X704852Y400694D01*
X591541Y335615D02*
X591560Y335466D01*
X592141Y387453D02*
X592153Y387518D01*
X592061Y386999D02*
X592072Y387064D01*
X715309Y393753D02*
X715328Y393707D01*
X674535Y403658D02*
X675091Y403635D01*
X677293Y403536D02*
X677701Y403516D01*
X592153Y387518D02*
X592165Y387582D01*
X716271Y328304D02*
X716285Y328358D01*
X715946Y391999D02*
X715962Y391949D01*
X716463Y390100D02*
X716477Y390044D01*
X704193Y400831D02*
X704268Y400816D01*
X706814Y400227D02*
X706878Y400210D01*
X680517Y403369D02*
X680913Y403346D01*
X715869Y326924D02*
X715884Y326973D01*
X713140Y322299D02*
X713197Y322348D01*
X592297Y388274D02*
X592309Y388335D01*
X593716Y325737D02*
X593753Y325645D01*
X595903Y322397D02*
X595959Y322348D01*
X591118Y379850D02*
X591135Y380015D01*
X591307Y381631D02*
X591325Y381788D01*
X714166Y366340D02*
X714193Y365303D01*
X591454Y382875D02*
X591473Y383028D01*
X705963Y400442D02*
X706030Y400426D01*
X640573Y403862D02*
X641295Y403881D01*
X713337Y339356D02*
X713422Y340212D01*
X716008Y327371D02*
X716023Y327421D01*
X591531Y383481D02*
X591551Y383630D01*
X590470Y370719D02*
X590488Y371099D01*
X717625Y383481D02*
X717645Y383330D01*
X714992Y324737D02*
X715015Y324782D01*
X593059Y391493D02*
X593074Y391545D01*
X708615Y399687D02*
X708672Y399668D01*
X607411Y401281D02*
X607495Y401295D01*
X715704Y392730D02*
X715721Y392682D01*
X592548Y389473D02*
X592561Y389531D01*
X598146Y327273D02*
X598285Y326966D01*
X701232Y401365D02*
X701317Y401351D01*
X715602Y393014D02*
X715619Y392967D01*
X716313Y328465D02*
X716327Y328520D01*
X608701Y401487D02*
X608789Y401500D01*
X596285Y383710D02*
X596390Y384440D01*
X686271Y402997D02*
X686517Y402979D01*
X717693Y336219D02*
X717712Y336372D01*
X716038Y391698D02*
X716053Y391647D01*
X644501Y403955D02*
X645528Y403974D01*
X596017Y322299D02*
X596075Y322250D01*
X626157Y403220D02*
X626543Y403245D01*
X592130Y331779D02*
X592142Y331715D01*
X704489Y400770D02*
X704562Y400755D01*
X716944Y331333D02*
X716956Y331396D01*
X718276Y341954D02*
X718290Y342129D01*
X706878Y400210D02*
X706941Y400193D01*
X716673Y389180D02*
X716686Y389121D01*
X647789Y399327D02*
X649481Y399347D01*
X688928Y402788D02*
X689164Y402768D01*
X617453Y402541D02*
X617678Y402562D01*
X711162Y391522D02*
X711298Y391150D01*
X714255Y361112D02*
X714259Y360058D01*
X593194Y327220D02*
X593210Y327171D01*
X706750Y400244D02*
X706814Y400227D01*
X706553Y395435D02*
X707085Y395263D01*
X712860Y335383D02*
X712963Y336134D01*
X664730Y399272D02*
X666397Y399235D01*
X591022Y378848D02*
X591038Y379016D01*
X706622Y400278D02*
X706686Y400261D01*
X716557Y329467D02*
X716570Y329524D01*
X714191Y353760D02*
X714213Y354801D01*
X715620Y326203D02*
X715638Y326250D01*
X710159Y325910D02*
X710303Y326057D01*
X593791Y325553D02*
X593830Y325461D01*
X716920Y331207D02*
X716932Y331270D01*
X715567Y393108D02*
X715585Y393061D01*
X715671Y392825D02*
X715687Y392778D01*
X592509Y389298D02*
X592522Y389356D01*
X599981Y399486D02*
X600036Y399506D01*
X652877Y399369D02*
X654578Y399372D01*
X600091Y399527D02*
X600146Y399547D01*
X716185Y391182D02*
X716199Y391130D01*
X700713Y401447D02*
X700800Y401433D01*
X717095Y332170D02*
X717107Y332235D01*
X706492Y400311D02*
X706557Y400294D01*
X590772Y343367D02*
X590792Y343099D01*
X593436Y392682D02*
X593452Y392730D01*
X718203Y341088D02*
X718218Y341260D01*
X591030Y340238D02*
X591046Y340069D01*
X716156Y327882D02*
X716171Y327935D01*
X593288Y326924D02*
X593304Y326875D01*
X715514Y393247D02*
X715532Y393201D01*
X716609Y329697D02*
X716622Y329756D01*
X710030Y393363D02*
X710174Y393246D01*
X713962Y347663D02*
X714011Y348656D01*
X717164Y386601D02*
X717186Y386467D01*
X711565Y390315D02*
X711696Y389852D01*
X603667Y400553D02*
X603737Y400569D01*
X701740Y401282D02*
X701823Y401268D01*
X711812Y329756D02*
X711938Y330274D01*
X716504Y329239D02*
X716517Y329296D01*
X715059Y394297D02*
X715103Y394207D01*
X711024Y391863D02*
X711162Y391522D01*
X718165Y378509D02*
X718180Y378338D01*
X597345Y329756D02*
X597474Y329268D01*
X592586Y329524D02*
X592599Y329467D01*
X716171Y327935D02*
X716185Y327987D01*
X715188Y394025D02*
X715208Y393980D01*
X603806Y400584D02*
X603876Y400600D01*
X717107Y386933D02*
X717119Y386867D01*
X591126Y339237D02*
X591143Y339072D01*
X717526Y384222D02*
X717546Y384075D01*
X590812Y376338D02*
X590853Y376867D01*
X686480Y398287D02*
X687851Y398180D01*
X601653Y400036D02*
X601714Y400054D01*
X716634Y389356D02*
X716647Y389298D01*
X709377Y394022D02*
X709496Y393842D01*
X714163Y352724D02*
X714191Y353760D01*
X716660Y389239D02*
X716673Y389180D01*
X701473Y396578D02*
X702339Y396423D01*
X594119Y324827D02*
X594142Y324782D01*
X715603Y326156D02*
X715620Y326203D01*
X593134Y327421D02*
X593149Y327371D01*
X702072Y401225D02*
X702155Y401211D01*
X592509Y329873D02*
X592521Y329814D01*
X715884Y326973D02*
X715900Y327022D01*
X718579Y346380D02*
X718595Y346660D01*
X591850Y333452D02*
X591871Y333314D01*
X675091Y403635D02*
X675645Y403611D01*
X708559Y399706D02*
X708615Y399687D01*
X604961Y400831D02*
X605036Y400846D01*
X714923Y324602D02*
X714947Y324647D01*
X593607Y326015D02*
X593624Y325969D01*
X717085Y387064D02*
X717096Y386999D01*
X592802Y390542D02*
X592816Y390596D01*
X591551Y383630D02*
X591571Y383779D01*
X717285Y333314D02*
X717307Y333452D01*
X716396Y328793D02*
X716410Y328848D01*
X595190Y371405D02*
X595242Y372387D01*
X590286Y353701D02*
X590306Y352912D01*
X594897Y359003D02*
X594902Y357949D01*
X707802Y399948D02*
X707861Y399930D01*
X642747Y403917D02*
X643623Y403937D01*
X707997Y394914D02*
X708376Y394738D01*
X593149Y327371D02*
X593164Y327321D01*
X716437Y328959D02*
X716451Y329015D01*
X614955Y397579D02*
X616154Y397707D01*
X590881Y341954D02*
X590895Y341780D01*
X707566Y395089D02*
X707997Y394914D01*
X611382Y401865D02*
X611576Y401890D01*
X591640Y334876D02*
X591661Y334730D01*
X592914Y390972D02*
X592928Y391025D01*
X716490Y389988D02*
X716503Y389931D01*
X601174Y399893D02*
X601233Y399911D01*
X717586Y383779D02*
X717606Y383630D01*
X594164Y324737D02*
X594187Y324692D01*
X715229Y393935D02*
X715249Y393889D01*
X717485Y384513D02*
X717505Y384368D01*
X717885Y381313D02*
X717903Y381153D01*
X717197Y332768D02*
X717219Y332904D01*
X591473Y383028D02*
X591493Y383179D01*
X590436Y349217D02*
X590453Y348834D01*
X718615Y372137D02*
X718630Y371855D01*
X715037Y324827D02*
X715059Y324872D01*
X605036Y400846D02*
X605111Y400861D01*
X705624Y400522D02*
X705692Y400506D01*
X716736Y388883D02*
X716749Y388823D01*
X713061Y336907D02*
X713157Y337703D01*
X715289Y393798D02*
X715309Y393753D01*
X715287Y325370D02*
X715307Y325416D01*
X680119Y403391D02*
X680517Y403369D01*
X716285Y390812D02*
X716299Y390758D01*
X708097Y399857D02*
X708156Y399838D01*
X650408Y404036D02*
X657849Y404043D01*
X612164Y401965D02*
X612363Y401989D01*
X716811Y388520D02*
X716823Y388458D01*
X591289Y381472D02*
X591307Y381631D01*
X592260Y388087D02*
X592272Y388150D01*
X590853Y376867D02*
X590874Y377129D01*
X700974Y401406D02*
X701060Y401392D01*
X594897Y360058D02*
X594897Y359003D01*
X605111Y400861D02*
X605186Y400876D01*
X614618Y402251D02*
X614830Y402274D01*
X605997Y396264D02*
X606817Y396423D01*
X621901Y402922D02*
X622145Y402941D01*
X716774Y330468D02*
X716786Y330528D01*
X609506Y401607D02*
X609689Y401633D01*
X591493Y383179D02*
X591512Y383330D01*
X593242Y392099D02*
X593257Y392148D01*
X709499Y399360D02*
X709553Y399338D01*
X592445Y389002D02*
X592458Y389062D01*
X592188Y387709D02*
X592200Y387773D01*
X715228Y325234D02*
X715248Y325279D01*
X611967Y401940D02*
X612164Y401965D01*
X716596Y329640D02*
X716609Y329697D01*
X711683Y329268D02*
X711812Y329756D01*
X717339Y385509D02*
X717360Y385369D01*
X707067Y400159D02*
X707130Y400142D01*
X717038Y331844D02*
X717049Y331909D01*
X595057Y368392D02*
X595097Y369406D01*
X715386Y393570D02*
X715405Y393524D01*
X711696Y389852D02*
X711825Y389361D01*
X590895Y377391D02*
X590917Y377651D01*
X718686Y348453D02*
X718704Y348834D01*
X591315Y337461D02*
X591334Y337303D01*
X717061Y387195D02*
X717073Y387130D01*
X712304Y331993D02*
X712421Y332620D01*
X714899Y324557D02*
X714923Y324602D01*
X715962Y327220D02*
X715977Y327270D01*
X689190Y398068D02*
X690496Y397952D01*
X716648Y329873D02*
X716661Y329931D01*
X698607Y397028D02*
X699606Y396881D01*
X597738Y328379D02*
X597872Y327980D01*
X678917Y403455D02*
X679319Y403434D01*
X592816Y390596D02*
X592830Y390650D01*
X591086Y379519D02*
X591102Y379685D01*
X595433Y343816D02*
X595502Y342890D01*
X713581Y341980D02*
X713654Y342890D01*
X592747Y390322D02*
X592761Y390378D01*
X593179Y327270D02*
X593194Y327220D01*
X593180Y391899D02*
X593195Y391949D01*
X708672Y399668D02*
X708728Y399648D01*
X592652Y329239D02*
X592666Y329183D01*
X596095Y336907D02*
X596194Y336134D01*
X714315Y323597D02*
X714347Y323644D01*
X717536Y335022D02*
X717556Y335170D01*
X592858Y328412D02*
X592872Y328358D01*
X595122Y323220D02*
X595161Y323172D01*
X717241Y333040D02*
X717263Y333176D01*
X592496Y329931D02*
X592509Y329873D01*
X593305Y392295D02*
X593321Y392344D01*
X619751Y402748D02*
X619986Y402768D01*
X622634Y402978D02*
X622880Y402996D01*
X718502Y374085D02*
X718519Y373810D01*
X714144Y323362D02*
X714180Y323410D01*
X718478Y344721D02*
X718496Y344995D01*
X702319Y401183D02*
X702400Y401169D01*
X717141Y332434D02*
X717152Y332500D01*
X595849Y322446D02*
X595903Y322397D01*
X611576Y401890D02*
X611771Y401915D01*
X604592Y400755D02*
X604666Y400771D01*
X717073Y387130D02*
X717085Y387064D01*
X612763Y402038D02*
X612965Y402062D01*
X717231Y386197D02*
X717253Y386061D01*
X700887Y401420D02*
X700974Y401406D01*
X592201Y331396D02*
X592212Y331333D01*
X715755Y326584D02*
X715772Y326632D01*
X593771Y393570D02*
X593790Y393616D01*
X646104Y399302D02*
X647789Y399327D01*
X717119Y386867D02*
X717130Y386801D01*
X595898Y380565D02*
X595990Y381384D01*
X602023Y400140D02*
X602085Y400158D01*
X716749Y388823D02*
X716761Y388763D01*
X591502Y335916D02*
X591521Y335765D01*
X620936Y402846D02*
X621176Y402865D01*
X594925Y355847D02*
X594943Y354801D01*
X599439Y399270D02*
X599492Y399292D01*
X594098Y394297D02*
X594143Y394387D01*
X592296Y330896D02*
X592309Y330834D01*
X717413Y334155D02*
X717434Y334298D01*
X702237Y401197D02*
X702319Y401183D01*
X705347Y400585D02*
X705416Y400569D01*
X715585Y326109D02*
X715603Y326156D01*
X716823Y330711D02*
X716836Y330772D01*
X709822Y399225D02*
X709875Y399202D01*
X600481Y399666D02*
X600538Y399686D01*
X590326Y352224D02*
X590344Y351637D01*
X671324Y399094D02*
X672937Y399037D01*
X594963Y365303D02*
X594990Y366340D01*
X697866Y401853D02*
X697962Y401840D01*
X592072Y387064D02*
X592084Y387130D01*
X673977Y403680D02*
X674535Y403658D01*
X710015Y325795D02*
X710159Y325910D01*
X715124Y325008D02*
X715145Y325053D01*
X715654Y392873D02*
X715671Y392825D01*
X598839Y393096D02*
X598982Y393246D01*
X592522Y389356D02*
X592535Y389415D01*
X591159Y338908D02*
X591176Y338745D01*
X590895Y341780D02*
X590910Y341606D01*
X593469Y392778D02*
X593486Y392825D01*
X592943Y391077D02*
X592957Y391130D01*
X699553Y401621D02*
X699644Y401608D01*
X615904Y402388D02*
X616341Y402432D01*
X713081Y322250D02*
X713140Y322299D01*
X605643Y400965D02*
X605720Y400980D01*
X590924Y341433D02*
X590939Y341260D01*
X718441Y344176D02*
X718460Y344448D01*
X591631Y384222D02*
X591651Y384368D01*
X595101Y349660D02*
X595146Y348656D01*
X602211Y400192D02*
X602274Y400209D01*
X717606Y383630D02*
X717625Y383481D01*
X712973Y382957D02*
X713071Y382181D01*
X592600Y389704D02*
X592613Y389761D01*
X659335Y404031D02*
X662000Y404000D01*
X592943Y328092D02*
X592957Y328039D01*
X678513Y403476D02*
X678917Y403455D01*
X715619Y392967D02*
X715637Y392920D01*
X716517Y389875D02*
X716530Y389818D01*
X603737Y400569D02*
X603806Y400584D01*
X593353Y392441D02*
X593369Y392490D01*
X713857Y373358D02*
X713914Y372387D01*
X716848Y330834D02*
X716860Y330896D01*
X591610Y384075D02*
X591631Y384222D01*
X592165Y331587D02*
X592177Y331523D01*
X717381Y385228D02*
X717402Y385086D01*
X714193Y365303D02*
X714215Y364261D01*
X599332Y399224D02*
X599385Y399247D01*
X717015Y387453D02*
X717027Y387389D01*
X716932Y387899D02*
X716944Y387836D01*
X592095Y331974D02*
X592107Y331909D01*
X602466Y400259D02*
X602530Y400276D01*
X593210Y327171D02*
X593225Y327121D01*
X592154Y331651D02*
X592165Y331587D01*
X715819Y392393D02*
X715835Y392344D01*
X606190Y401068D02*
X606270Y401082D01*
X592788Y328683D02*
X592802Y328628D01*
X599952Y394202D02*
X600176Y394382D01*
X599492Y399292D02*
X599546Y399314D01*
X591483Y336067D02*
X591502Y335916D01*
X601411Y399965D02*
X601471Y399983D01*
X716382Y390433D02*
X716395Y390378D01*
X591591Y383927D02*
X591610Y384075D01*
X714135Y367370D02*
X714166Y366340D01*
X593015Y327831D02*
X593030Y327779D01*
X596085Y382181D02*
X596184Y382957D01*
X715059Y324872D02*
X715081Y324917D01*
X591038Y379016D02*
X591054Y379184D01*
X593486Y392825D02*
X593503Y392873D01*
X590792Y343099D02*
X590812Y342833D01*
X597205Y388841D02*
X597332Y389361D01*
X595025Y351694D02*
X595061Y350673D01*
X685029Y403086D02*
X685279Y403069D01*
X600881Y399800D02*
X600939Y399819D01*
X715915Y392099D02*
X715930Y392049D01*
X693245Y402388D02*
X693462Y402366D01*
X700273Y401515D02*
X700362Y401501D01*
X619517Y402728D02*
X619751Y402748D01*
X718737Y349601D02*
X718757Y350083D01*
X714060Y369406D02*
X714100Y368392D01*
X617904Y402583D02*
X618132Y402604D01*
X717850Y381631D02*
X717868Y381472D01*
X715103Y394207D02*
X715145Y394116D01*
X602148Y400175D02*
X602211Y400192D01*
X711552Y328809D02*
X711683Y329268D01*
X590420Y369570D02*
X590436Y369954D01*
X632814Y403580D02*
X633365Y403605D01*
X605798Y400995D02*
X605876Y401009D01*
X683509Y403188D02*
X683892Y403163D01*
X626966Y398581D02*
X628451Y398670D01*
X717596Y335466D02*
X717616Y335615D01*
X713503Y341087D02*
X713581Y341980D01*
X604813Y400801D02*
X604887Y400816D01*
X697576Y401891D02*
X697673Y401878D01*
X715307Y325416D02*
X715327Y325461D01*
X596959Y387716D02*
X597081Y388292D01*
X606349Y401096D02*
X606429Y401111D01*
X715916Y327071D02*
X715931Y327121D01*
X597474Y329268D02*
X597605Y328809D01*
X597994Y391522D02*
X598132Y391863D01*
X705692Y400506D02*
X705760Y400490D01*
X610807Y401789D02*
X610998Y401814D01*
X592309Y330834D02*
X592321Y330772D01*
X593624Y393201D02*
X593642Y393247D01*
X715348Y393662D02*
X715367Y393616D01*
X715687Y392778D02*
X715704Y392730D01*
X609235Y401567D02*
X609325Y401580D01*
X715460Y393386D02*
X715478Y393340D01*
X600036Y399506D02*
X600091Y399527D01*
X707621Y400002D02*
X707682Y399984D01*
X716369Y328683D02*
X716382Y328738D01*
X597094Y330819D02*
X597218Y330274D01*
X617228Y402519D02*
X617453Y402541D01*
X715721Y392682D02*
X715738Y392634D01*
X716968Y387709D02*
X716980Y387646D01*
X623128Y403014D02*
X623375Y403032D01*
X710461Y392913D02*
X710604Y392698D01*
X692144Y402498D02*
X692366Y402477D01*
X596609Y385827D02*
X596723Y386483D01*
X717175Y332634D02*
X717186Y332701D01*
X592119Y331844D02*
X592130Y331779D01*
X663053Y399302D02*
X664730Y399272D01*
X714259Y359003D02*
X714259Y360058D01*
X603324Y400473D02*
X603392Y400489D01*
X699606Y396881D02*
X700561Y396731D01*
X672937Y399037D02*
X674532Y398974D01*
X593589Y393108D02*
X593607Y393154D01*
X593828Y393707D02*
X593848Y393753D01*
X592760Y328793D02*
X592774Y328738D01*
X696589Y402014D02*
X696789Y401990D01*
X718142Y340407D02*
X718157Y340576D01*
X713253Y322397D02*
X713308Y322446D01*
X707377Y400073D02*
X707439Y400055D01*
X716355Y328628D02*
X716369Y328683D01*
X592639Y329296D02*
X592652Y329239D01*
X693893Y402321D02*
X694107Y402298D01*
X595141Y370411D02*
X595190Y371405D01*
X591893Y333176D02*
X591915Y333040D01*
X700626Y401461D02*
X700713Y401447D01*
X595248Y346682D02*
X595305Y345713D01*
X593624Y325969D02*
X593643Y325922D01*
X713731Y375257D02*
X713796Y374315D01*
X718261Y341780D02*
X718276Y341954D01*
X659676Y399347D02*
X661367Y399327D01*
X709336Y399424D02*
X709391Y399403D01*
X592872Y328358D02*
X592886Y328304D01*
X601592Y400019D02*
X601653Y400036D01*
X593119Y327472D02*
X593134Y327421D01*
X642020Y403900D02*
X642747Y403917D01*
X716544Y329410D02*
X716557Y329467D01*
X592547Y329697D02*
X592560Y329640D01*
X698439Y401777D02*
X698533Y401764D01*
X620222Y402788D02*
X620459Y402807D01*
X705066Y400647D02*
X705136Y400632D01*
X590593Y346101D02*
X590610Y345823D01*
X591580Y335317D02*
X591600Y335170D01*
X716185Y327987D02*
X716199Y328039D01*
X596197Y322152D02*
X596260Y322103D01*
X592802Y328628D02*
X592816Y328574D01*
X715550Y393154D02*
X715567Y393108D01*
X717038Y387324D02*
X717050Y387260D01*
X718460Y344448D02*
X718478Y344721D01*
X592574Y389589D02*
X592587Y389646D01*
X641104Y399194D02*
X642760Y399235D01*
X591681Y334585D02*
X591702Y334441D01*
X590453Y370337D02*
X590470Y370719D01*
X717107Y332235D02*
X717118Y332301D01*
X716661Y329931D02*
X716673Y329990D01*
X716635Y329814D02*
X716648Y329873D01*
X591754Y385086D02*
X591775Y385228D01*
X715442Y393432D02*
X715460Y393386D01*
X716464Y329070D02*
X716477Y329127D01*
X701907Y401254D02*
X701990Y401239D01*
X711298Y391150D02*
X711432Y390747D01*
X625508Y398488D02*
X626966Y398581D01*
X591185Y380507D02*
X591202Y380669D01*
X601233Y399911D02*
X601292Y399929D01*
X591219Y380831D02*
X591236Y380992D01*
X676059Y403593D02*
X676472Y403574D01*
X701823Y401268D02*
X701907Y401254D01*
X709884Y393449D02*
X710030Y393363D01*
X654578Y399372D02*
X656280Y399369D01*
X691696Y402541D02*
X691920Y402520D01*
X713431Y378868D02*
X713512Y377991D01*
X666255Y403921D02*
X667273Y403896D01*
X716647Y389298D02*
X716660Y389239D01*
X702803Y401097D02*
X702883Y401082D01*
X595999Y337703D02*
X596095Y336907D01*
X717496Y334730D02*
X717516Y334876D01*
X608595Y396731D02*
X609551Y396881D01*
X697478Y401903D02*
X697576Y401891D01*
X707316Y400090D02*
X707377Y400073D01*
X716053Y391647D02*
X716068Y391596D01*
X593059Y327676D02*
X593074Y327625D01*
X685528Y403051D02*
X685777Y403033D01*
X604017Y400632D02*
X604088Y400647D01*
X718563Y346101D02*
X718579Y346380D01*
X609416Y401594D02*
X609506Y401607D01*
X591236Y380992D02*
X591254Y381153D01*
X699279Y401660D02*
X699371Y401647D01*
X590709Y374905D02*
X590727Y375176D01*
X718757Y350083D02*
X718775Y350567D01*
X601292Y399929D02*
X601352Y399947D01*
X705760Y400490D02*
X705828Y400474D01*
X592321Y388397D02*
X592333Y388458D01*
X716799Y330589D02*
X716811Y330650D01*
X698815Y401725D02*
X698908Y401712D01*
X716097Y327676D02*
X716112Y327727D01*
X593869Y325370D02*
X593889Y325325D01*
X616783Y402476D02*
X617005Y402497D01*
X591839Y385648D02*
X591861Y385786D01*
X714246Y362164D02*
X714255Y361112D01*
X712658Y385146D02*
X712766Y384440D01*
X607579Y401308D02*
X607664Y401322D01*
X716698Y389062D02*
X716711Y389002D01*
X709724Y325664D02*
X709870Y325713D01*
X717274Y385924D02*
X717296Y385786D01*
X716313Y390704D02*
X716327Y390650D01*
X591007Y378678D02*
X591022Y378848D01*
X592212Y331333D02*
X592224Y331270D01*
X590367Y368215D02*
X590385Y368701D01*
X714100Y368392D02*
X714135Y367370D01*
X712547Y385827D02*
X712658Y385146D01*
X697770Y401866D02*
X697866Y401853D01*
X592844Y390704D02*
X592858Y390758D01*
X716327Y390650D02*
X716340Y390596D01*
X708039Y399875D02*
X708097Y399857D01*
X718331Y342656D02*
X718345Y342833D01*
X716583Y329582D02*
X716596Y329640D01*
X612562Y402014D02*
X612763Y402038D01*
X593368Y326680D02*
X593385Y326632D01*
X620459Y402807D02*
X620697Y402827D01*
X714231Y355847D02*
X714245Y356897D01*
X602595Y400293D02*
X602660Y400309D01*
X592433Y388943D02*
X592445Y389002D01*
X718668Y371099D02*
X718686Y370719D01*
X716395Y390378D02*
X716409Y390322D01*
X712421Y332620D02*
X712535Y333274D01*
X686762Y402960D02*
X687007Y402942D01*
X592321Y330772D02*
X592333Y330711D01*
X718079Y339735D02*
X718095Y339902D01*
X614830Y402274D02*
X615043Y402297D01*
X606833Y401182D02*
X606915Y401196D01*
X592653Y389931D02*
X592667Y389988D01*
X718014Y339072D02*
X718030Y339237D01*
X593929Y325234D02*
X593949Y325189D01*
X715208Y393980D02*
X715229Y393935D01*
X631721Y403529D02*
X632266Y403555D01*
X593733Y393478D02*
X593752Y393524D01*
X700362Y401501D02*
X700450Y401488D01*
X711010Y327273D02*
X711148Y327611D01*
X590626Y345546D02*
X590644Y345270D01*
X717731Y336526D02*
X717749Y336680D01*
X612363Y401989D02*
X612562Y402014D01*
X705416Y400569D02*
X705486Y400554D01*
X596184Y382957D02*
X596285Y383710D01*
X590939Y341260D02*
X590954Y341088D01*
X596510Y333952D02*
X596621Y333274D01*
X717163Y332567D02*
X717175Y332634D01*
X595734Y340212D02*
X595819Y339356D01*
X606270Y401082D02*
X606349Y401096D01*
X703968Y400876D02*
X704044Y400861D01*
X718842Y366553D02*
X718861Y365864D01*
X718466Y374633D02*
X718484Y374359D01*
X593000Y391287D02*
X593015Y391339D01*
X702643Y401126D02*
X702723Y401111D01*
X593000Y327882D02*
X593015Y327831D01*
X718630Y371855D02*
X718650Y371478D01*
X592370Y388642D02*
X592383Y388702D01*
X718568Y372977D02*
X718584Y372698D01*
X710604Y392698D02*
X710745Y392451D01*
X591948Y386333D02*
X591970Y386467D01*
X715081Y324917D02*
X715103Y324963D01*
X717749Y336680D02*
X717768Y336835D01*
X609325Y401580D02*
X609416Y401594D01*
X598411Y392451D02*
X598553Y392698D01*
X718771Y368701D02*
X718789Y368215D01*
X716872Y330957D02*
X716884Y331020D01*
X593949Y325189D02*
X593970Y325143D01*
X607684Y396578D02*
X608595Y396731D01*
X716786Y330528D02*
X716799Y330589D01*
X708214Y399820D02*
X708272Y399801D01*
X704662Y395939D02*
X705341Y395773D01*
X701060Y401392D02*
X701146Y401379D01*
X691920Y402520D02*
X692144Y402498D01*
X596260Y322103D02*
X596325Y322054D01*
X716811Y330650D02*
X716823Y330711D01*
X716243Y328198D02*
X716257Y328251D01*
X702400Y401169D02*
X702481Y401154D01*
X594901Y361112D02*
X594910Y362164D01*
X717296Y385786D02*
X717318Y385648D01*
X708981Y394382D02*
X709205Y394202D01*
X706097Y400410D02*
X706164Y400393D01*
X595021Y367370D02*
X595057Y368392D01*
X690560Y402647D02*
X690789Y402626D01*
X591764Y334013D02*
X591786Y333871D01*
X713967Y371405D02*
X714015Y370411D01*
X641295Y403881D02*
X642020Y403900D01*
X717546Y384075D02*
X717566Y383927D01*
X592627Y389818D02*
X592640Y389875D01*
X591343Y381946D02*
X591361Y382102D01*
X593044Y391442D02*
X593059Y391493D01*
X693678Y402343D02*
X693893Y402321D01*
X591651Y384368D02*
X591671Y384513D01*
X627714Y403316D02*
X628108Y403338D01*
X597872Y327980D02*
X598008Y327611D01*
X592666Y329183D02*
X592679Y329127D01*
X717475Y334585D02*
X717496Y334730D01*
X590638Y373810D02*
X590655Y374085D01*
X714108Y323315D02*
X714144Y323362D01*
X594406Y324286D02*
X594459Y324195D01*
X598853Y326057D02*
X598997Y325910D01*
X591882Y385924D02*
X591904Y386061D01*
X706164Y400393D02*
X706230Y400377D01*
X613783Y402158D02*
X613990Y402181D01*
X600257Y399587D02*
X600313Y399607D01*
X594142Y324782D02*
X594164Y324737D01*
X595242Y372387D02*
X595299Y373358D01*
X704562Y400755D02*
X704635Y400740D01*
X682091Y403277D02*
X682739Y403237D01*
X717894Y337938D02*
X717912Y338098D01*
X713422Y340212D02*
X713503Y341087D01*
X593643Y325922D02*
X593679Y325829D01*
X592333Y330711D02*
X592345Y330650D01*
X710885Y392173D02*
X711024Y391863D01*
X703042Y401053D02*
X703121Y401039D01*
X642760Y399235D02*
X644427Y399272D01*
X591398Y382413D02*
X591417Y382568D01*
X593991Y325098D02*
X594011Y325053D01*
X591993Y386601D02*
X592015Y386735D01*
X595061Y350673D02*
X595101Y349660D01*
X606111Y401053D02*
X606190Y401068D01*
X593790Y393616D02*
X593809Y393662D01*
X718282Y377129D02*
X718304Y376867D01*
X593225Y327121D02*
X593241Y327071D01*
X594355Y324376D02*
X594406Y324286D01*
X718240Y377651D02*
X718261Y377391D01*
X690496Y397952D02*
X691767Y397832D01*
X710731Y326691D02*
X710871Y326966D01*
X709118Y399508D02*
X709173Y399487D01*
X695362Y397447D02*
X696484Y397311D01*
X592521Y329814D02*
X592534Y329756D01*
X590332Y367142D02*
X590351Y367728D01*
X700005Y401555D02*
X700095Y401541D01*
X712433Y386483D02*
X712547Y385827D01*
X591325Y381788D02*
X591343Y381946D01*
X669696Y399147D02*
X671324Y399094D01*
X592858Y390758D02*
X592872Y390812D01*
X592130Y387389D02*
X592141Y387453D01*
X590690Y374633D02*
X590709Y374905D01*
X701656Y401296D02*
X701740Y401282D01*
X678108Y403496D02*
X678513Y403476D01*
X716712Y330168D02*
X716724Y330227D01*
X699915Y401568D02*
X700005Y401555D01*
X598710Y326236D02*
X598853Y326057D01*
X600998Y399837D02*
X601056Y399856D01*
X600939Y399819D02*
X600998Y399837D01*
X593134Y391748D02*
X593149Y391799D01*
X651177Y399361D02*
X652877Y399369D01*
X590976Y378338D02*
X590992Y378509D01*
X602338Y400226D02*
X602402Y400243D01*
X714970Y324692D02*
X714992Y324737D01*
X593554Y326156D02*
X593571Y326109D01*
X595990Y381384D02*
X596085Y382181D01*
X614408Y402228D02*
X614618Y402251D01*
X691017Y402605D02*
X691245Y402584D01*
X717758Y382413D02*
X717777Y382258D01*
X716737Y330287D02*
X716749Y330347D01*
X596390Y384440D02*
X596498Y385146D01*
X636999Y403749D02*
X637566Y403769D01*
X599432Y325664D02*
X599577Y325648D01*
X594923Y363215D02*
X594941Y364261D01*
X716517Y329296D02*
X716531Y329353D01*
X591407Y336680D02*
X591426Y336526D01*
X592382Y330468D02*
X592395Y330407D01*
X716112Y327727D02*
X716127Y327779D01*
X716491Y329183D02*
X716504Y329239D01*
X590610Y345823D02*
X590626Y345546D01*
X593210Y391999D02*
X593226Y392049D01*
X716068Y391596D02*
X716083Y391545D01*
X629698Y403427D02*
X630100Y403448D01*
X613577Y402134D02*
X613783Y402158D01*
X717003Y331651D02*
X717015Y331715D01*
X715992Y391849D02*
X716007Y391799D01*
X594911Y356897D02*
X594925Y355847D01*
X590351Y367728D02*
X590367Y368215D01*
X590812Y342833D02*
X590825Y342656D01*
X703355Y400995D02*
X703433Y400980D01*
X596723Y386483D02*
X596840Y387113D01*
X621659Y402904D02*
X621901Y402922D01*
X590264Y354691D02*
X590286Y353701D01*
X590400Y350083D02*
X590419Y349601D01*
X590470Y348453D02*
X590488Y348073D01*
X705277Y400601D02*
X705347Y400585D01*
X717423Y384944D02*
X717444Y384801D01*
X591993Y332567D02*
X592004Y332500D01*
X596972Y331393D02*
X597094Y330819D01*
X716908Y388025D02*
X716920Y387962D01*
X591417Y382568D02*
X591435Y382722D01*
X717859Y337619D02*
X717877Y337778D01*
X713197Y322348D02*
X713253Y322397D01*
X593226Y392049D02*
X593242Y392099D01*
X590917Y377651D02*
X590932Y377823D01*
X599385Y399247D02*
X599439Y399270D01*
X602604Y395435D02*
X603185Y395605D01*
X594778Y323690D02*
X594809Y323644D01*
X631313Y403509D02*
X631721Y403529D01*
X718536Y373533D02*
X718552Y373256D01*
X593385Y326632D02*
X593401Y326584D01*
X605720Y400980D02*
X605798Y400995D01*
X592483Y329990D02*
X592496Y329931D01*
X716214Y391077D02*
X716228Y391025D01*
X715738Y392634D02*
X715754Y392586D01*
X604739Y400786D02*
X604813Y400801D01*
X592049Y386933D02*
X592061Y386999D01*
X592535Y389415D02*
X592548Y389473D01*
X591254Y381153D02*
X591271Y381313D01*
X685079Y398390D02*
X686480Y398287D01*
X716038Y327472D02*
X716053Y327523D01*
X645528Y403974D02*
X646706Y403993D01*
X710174Y393246D02*
X710318Y393096D01*
X698058Y401828D02*
X698154Y401815D01*
X716503Y389931D02*
X716517Y389875D01*
X708387Y399763D02*
X708445Y399744D01*
X593164Y327321D02*
X593179Y327270D01*
X718358Y376161D02*
X718371Y375983D01*
X679720Y403413D02*
X680119Y403391D01*
X712959Y322152D02*
X713021Y322201D01*
X593386Y392538D02*
X593402Y392586D01*
X681700Y403301D02*
X682091Y403277D01*
X592900Y328251D02*
X592914Y328198D01*
X717219Y332904D02*
X717241Y333040D01*
X602725Y400326D02*
X602790Y400342D01*
X604666Y400771D02*
X604739Y400786D01*
X717721Y382722D02*
X717740Y382568D01*
X590344Y351637D02*
X590364Y351053D01*
X694742Y402229D02*
X694952Y402205D01*
X716848Y388335D02*
X716860Y388274D01*
X717141Y386735D02*
X717164Y386601D01*
X630907Y403489D02*
X631313Y403509D01*
X595568Y377097D02*
X595645Y377991D01*
X716341Y328574D02*
X716355Y328628D01*
X715805Y326729D02*
X715821Y326777D01*
X594897Y360058D02*
X594901Y361112D01*
X687250Y402923D02*
X687492Y402904D01*
X592408Y388823D02*
X592420Y388883D01*
X716053Y327523D02*
X716068Y327574D01*
X595502Y342890D02*
X595576Y341980D01*
X717455Y334441D02*
X717475Y334585D01*
X592050Y332235D02*
X592061Y332170D01*
X591512Y383330D02*
X591531Y383481D01*
X707921Y399912D02*
X707980Y399893D01*
X595367Y344757D02*
X595433Y343816D01*
X591620Y335022D02*
X591640Y334876D01*
X717307Y333452D02*
X717328Y333591D01*
X593572Y393061D02*
X593589Y393108D01*
X619986Y402768D02*
X620222Y402788D01*
X592407Y330347D02*
X592420Y330287D01*
X717805Y337146D02*
X717823Y337303D01*
X715269Y393844D02*
X715289Y393798D01*
X600425Y399646D02*
X600481Y399666D01*
X676883Y403555D02*
X677293Y403536D01*
X613990Y402181D02*
X614198Y402205D01*
X708896Y399589D02*
X708952Y399569D01*
X639853Y403841D02*
X640573Y403862D01*
X717003Y387518D02*
X717015Y387453D01*
X593887Y393844D02*
X593908Y393889D01*
X716724Y330227D02*
X716737Y330287D01*
X709870Y325713D02*
X710015Y325795D01*
X592084Y387130D02*
X592095Y387195D01*
X592016Y332434D02*
X592027Y332368D01*
X716908Y331144D02*
X716920Y331207D01*
X714750Y324286D02*
X714801Y324376D01*
X621417Y402884D02*
X621659Y402904D01*
X718371Y375983D02*
X718391Y375715D01*
X718484Y374359D02*
X718502Y374085D01*
X717118Y332301D02*
X717130Y332368D01*
X591210Y338420D02*
X591227Y338259D01*
X676472Y403574D02*
X676883Y403555D01*
X697566Y397171D02*
X698607Y397028D01*
X599142Y325795D02*
X599287Y325713D01*
X656280Y399369D02*
X657979Y399361D01*
X590715Y344176D02*
X590734Y343905D01*
X618589Y402646D02*
X618820Y402667D01*
X602989Y400392D02*
X603055Y400408D01*
X608966Y401527D02*
X609056Y401540D01*
X610998Y401814D02*
X611189Y401840D01*
X718812Y351637D02*
X718831Y352224D01*
X663767Y403971D02*
X665087Y403946D01*
X700561Y396731D02*
X701473Y396578D01*
X708704Y394560D02*
X708981Y394382D01*
X591193Y338582D02*
X591210Y338420D01*
X714055Y349660D02*
X714096Y350673D01*
X718721Y349217D02*
X718737Y349601D01*
X715327Y325461D02*
X715365Y325553D01*
X717655Y335916D02*
X717674Y336067D01*
X718902Y363982D02*
X718928Y362088D01*
X714214Y323457D02*
X714249Y323504D01*
X715207Y325189D02*
X715228Y325234D01*
X718157Y340576D02*
X718173Y340746D01*
X717328Y333591D02*
X717350Y333731D01*
X717877Y337778D02*
X717894Y337938D01*
X691471Y402563D02*
X691696Y402541D01*
X708156Y399838D02*
X708214Y399820D01*
X717786Y336990D02*
X717805Y337146D01*
X596498Y385146D02*
X596609Y385827D01*
X713258Y380565D02*
X713346Y379726D01*
X695161Y402182D02*
X695368Y402158D01*
X593337Y392393D02*
X593353Y392441D01*
X593520Y392920D02*
X593537Y392967D01*
X592248Y388025D02*
X592260Y388087D01*
X635590Y403697D02*
X636293Y403723D01*
X718404Y343635D02*
X718423Y343905D01*
X717318Y385648D02*
X717339Y385509D01*
X599600Y399337D02*
X599654Y399358D01*
X590984Y340746D02*
X590999Y340576D01*
X718668Y348073D02*
X718686Y348453D01*
X595810Y379726D02*
X595898Y380565D01*
X667273Y403896D02*
X668141Y403874D01*
X705896Y400458D02*
X705963Y400442D01*
X716127Y391390D02*
X716142Y391339D01*
X700450Y401488D02*
X700538Y401474D01*
X605490Y400936D02*
X605566Y400951D01*
X606752Y401168D02*
X606833Y401182D01*
X624375Y403103D02*
X624627Y403120D01*
X681307Y403324D02*
X681700Y403301D01*
X591970Y386467D02*
X591993Y386601D01*
X713996Y323172D02*
X714034Y323220D01*
X718610Y346941D02*
X718630Y347317D01*
X697381Y401916D02*
X697478Y401903D01*
X716570Y329524D02*
X716583Y329582D01*
X604520Y400740D02*
X604592Y400755D01*
X591712Y384801D02*
X591733Y384944D01*
X594011Y394116D02*
X594054Y394207D01*
X705136Y400632D02*
X705207Y400616D01*
X590238Y356283D02*
X590264Y354691D01*
X601714Y400054D02*
X601775Y400071D01*
X695779Y402111D02*
X695984Y402087D01*
X619967Y398068D02*
X621306Y398180D01*
X592830Y390650D02*
X592844Y390704D01*
X694320Y402275D02*
X694532Y402252D01*
X630100Y403448D02*
X630503Y403469D01*
X710447Y326236D02*
X710589Y326447D01*
X715739Y326536D02*
X715755Y326584D01*
X590314Y366553D02*
X590332Y367142D01*
X716980Y387646D02*
X716992Y387582D01*
X717027Y387389D02*
X717038Y387324D01*
X682191Y398581D02*
X683649Y398488D01*
X595085Y323268D02*
X595122Y323220D01*
X595146Y348656D02*
X595195Y347663D01*
X704635Y400740D02*
X704707Y400724D01*
X591352Y337146D02*
X591370Y336990D01*
X717186Y332701D02*
X717197Y332768D01*
X592707Y390156D02*
X592747Y390322D01*
X716835Y388397D02*
X716848Y388335D01*
X590644Y345270D02*
X590661Y344995D01*
X715655Y326298D02*
X715672Y326345D01*
X591388Y336835D02*
X591407Y336680D01*
X690789Y402626D02*
X691017Y402605D01*
X716686Y330049D02*
X716699Y330108D01*
X598132Y391863D02*
X598271Y392173D01*
X621176Y402865D02*
X621417Y402884D01*
X594966Y353760D02*
X594993Y352724D01*
X602274Y400209D02*
X602338Y400226D01*
X590655Y374085D02*
X590673Y374359D01*
X716199Y391130D02*
X716214Y391077D01*
X711148Y327611D02*
X711284Y327980D01*
X590969Y340917D02*
X590984Y340746D01*
X718005Y380180D02*
X718022Y380015D01*
X604495Y395939D02*
X605222Y396103D01*
X591796Y385369D02*
X591818Y385509D01*
X607664Y401322D02*
X607748Y401336D01*
X595161Y323172D02*
X595200Y323125D01*
X590697Y344448D02*
X590715Y344176D01*
X687734Y402885D02*
X687975Y402866D01*
X718103Y379184D02*
X718119Y379016D01*
X718880Y365074D02*
X718902Y363982D01*
X592284Y388212D02*
X592297Y388274D01*
X593419Y392634D02*
X593436Y392682D01*
X697962Y401840D02*
X698058Y401828D01*
X593830Y325461D02*
X593849Y325416D01*
X597858Y391150D02*
X597994Y391522D01*
X714213Y354801D02*
X714231Y355847D01*
X716956Y387773D02*
X716968Y387709D01*
X707742Y399966D02*
X707802Y399948D01*
X717444Y384801D02*
X717465Y384657D01*
X716531Y329353D02*
X716544Y329410D01*
X718806Y367728D02*
X718825Y367142D01*
X600652Y399724D02*
X600709Y399743D01*
X604447Y400725D02*
X604520Y400740D01*
X701487Y401323D02*
X701571Y401310D01*
X707682Y399984D02*
X707742Y399966D01*
X592224Y387899D02*
X592236Y387962D01*
X590296Y365864D02*
X590314Y366553D01*
X592928Y328145D02*
X592943Y328092D01*
X717061Y331974D02*
X717073Y332039D01*
X591982Y332634D02*
X591993Y332567D01*
X592613Y329410D02*
X592626Y329353D01*
X603055Y400408D02*
X603122Y400424D01*
X718851Y352912D02*
X718871Y353701D01*
X717253Y386061D02*
X717274Y385924D01*
X714875Y324512D02*
X714899Y324557D01*
X591361Y382102D02*
X591380Y382258D01*
X718038Y379850D02*
X718055Y379685D01*
X594747Y323737D02*
X594778Y323690D01*
X715672Y326345D02*
X715689Y326393D01*
X591971Y332701D02*
X591982Y332634D01*
X592986Y327935D02*
X593000Y327882D01*
X625388Y403171D02*
X625772Y403196D01*
X711419Y328379D02*
X711552Y328809D01*
X708272Y399801D02*
X708330Y399782D01*
X709391Y399403D02*
X709445Y399382D01*
X591871Y333314D02*
X591893Y333176D01*
X591110Y339402D02*
X591126Y339237D01*
X603816Y395773D02*
X604495Y395939D01*
X716257Y328251D02*
X716271Y328304D01*
X706686Y400261D02*
X706750Y400244D01*
X687007Y402942D02*
X687250Y402923D01*
X683649Y398488D02*
X685079Y398390D01*
X591775Y385228D02*
X591796Y385369D01*
X716872Y388212D02*
X716884Y388150D01*
X717516Y334876D02*
X717536Y335022D01*
X590825Y342656D02*
X590839Y342480D01*
X718087Y379352D02*
X718103Y379184D01*
X590910Y341606D02*
X590924Y341433D01*
X593273Y392197D02*
X593289Y392246D01*
X591426Y336526D02*
X591445Y336372D01*
X599654Y399358D02*
X599708Y399380D01*
X657849Y404043D02*
X659335Y404031D01*
X593304Y326875D02*
X593320Y326826D01*
X603598Y400537D02*
X603667Y400553D01*
X594842Y323597D02*
X594875Y323551D01*
X713346Y379726D02*
X713431Y378868D01*
X699735Y401595D02*
X699825Y401581D01*
X680706Y398670D02*
X682191Y398581D01*
X592118Y387324D02*
X592130Y387389D01*
X715883Y392197D02*
X715899Y392148D01*
X601471Y399983D02*
X601532Y400001D01*
X715532Y393201D02*
X715550Y393154D01*
X591280Y337778D02*
X591298Y337619D01*
X633918Y403629D02*
X634473Y403652D01*
X669725Y403829D02*
X670441Y403806D01*
X716382Y328738D02*
X716396Y328793D01*
X610243Y401712D02*
X610430Y401737D01*
X716686Y389121D02*
X716698Y389062D01*
X718775Y350567D02*
X718793Y351053D01*
X715993Y327321D02*
X716008Y327371D01*
X718247Y341606D02*
X718261Y341780D01*
X715249Y393889D02*
X715269Y393844D01*
X717130Y386801D02*
X717141Y386735D01*
X600369Y399627D02*
X600425Y399646D01*
X591370Y336990D02*
X591388Y336835D01*
X717712Y336372D02*
X717731Y336526D01*
X617390Y397832D02*
X618661Y397952D01*
X594943Y354801D02*
X594966Y353760D01*
X597591Y390315D02*
X597724Y390747D01*
X591062Y339902D02*
X591077Y339735D01*
X593571Y326109D02*
X593589Y326062D01*
X717946Y338420D02*
X717963Y338582D01*
X712831Y322054D02*
X712896Y322103D01*
X718686Y370719D02*
X718704Y370337D01*
X716368Y390487D02*
X716382Y390433D01*
X714245Y356897D02*
X714255Y357949D01*
X605566Y400951D02*
X605643Y400965D01*
X718871Y353701D02*
X718893Y354691D01*
X703433Y400980D02*
X703510Y400965D01*
X590255Y363982D02*
X590277Y365074D01*
X714011Y348656D02*
X714055Y349660D01*
X593969Y394025D02*
X594011Y394116D01*
X590541Y372137D02*
X590556Y372418D01*
X714034Y323220D02*
X714072Y323268D01*
X698908Y401712D02*
X699001Y401699D01*
X718022Y380015D02*
X718038Y379850D01*
X695574Y402135D02*
X695779Y402111D01*
X597605Y328809D02*
X597738Y328379D01*
X593030Y391390D02*
X593044Y391442D01*
X716944Y387836D02*
X716956Y387773D01*
X614198Y402205D02*
X614408Y402228D01*
X595819Y339356D02*
X595908Y338519D01*
X591380Y382258D02*
X591398Y382413D01*
X718218Y341260D02*
X718232Y341433D01*
X669007Y403850D02*
X669725Y403829D01*
X707500Y400037D02*
X707561Y400020D01*
X715532Y325969D02*
X715550Y326015D01*
X717402Y385086D02*
X717423Y384944D01*
X716228Y328145D02*
X716243Y328198D01*
X608263Y401419D02*
X608350Y401432D01*
X592573Y329582D02*
X592586Y329524D01*
X595360Y374315D02*
X595426Y375257D01*
X672290Y403744D02*
X672854Y403723D01*
X637832Y399094D02*
X639461Y399147D01*
X623624Y403050D02*
X623874Y403068D01*
X638706Y403806D02*
X639278Y403824D01*
X593015Y391339D02*
X593030Y391390D01*
X608004Y401377D02*
X608091Y401391D01*
X718063Y339568D02*
X718079Y339735D01*
X718150Y378678D02*
X718165Y378509D01*
X592346Y388520D02*
X592358Y388581D01*
X718304Y376867D02*
X718345Y376338D01*
X591915Y333040D02*
X591937Y332904D01*
X696789Y401990D02*
X697185Y401940D01*
X712535Y333274D02*
X712647Y333952D01*
X600766Y399762D02*
X600824Y399781D01*
X608437Y401446D02*
X608525Y401459D01*
X685777Y403033D02*
X686025Y403015D01*
X596840Y387113D02*
X596959Y387716D01*
X716530Y389818D02*
X716543Y389761D01*
X718365Y343099D02*
X718384Y343367D01*
X600780Y394738D02*
X601160Y394914D01*
X592928Y391025D02*
X592943Y391077D01*
X715248Y325279D02*
X715268Y325325D01*
X715977Y391899D02*
X715992Y391849D01*
X591245Y338098D02*
X591262Y337938D01*
X602922Y400375D02*
X602989Y400392D01*
X593679Y325829D02*
X593716Y325737D01*
X622676Y398287D02*
X624077Y398390D01*
X592015Y386735D02*
X592026Y386801D01*
X591828Y333591D02*
X591850Y333452D01*
X591959Y332768D02*
X591971Y332701D01*
X628108Y403338D02*
X628503Y403361D01*
X673417Y403702D02*
X673977Y403680D01*
X718119Y379016D02*
X718134Y378848D01*
X602072Y395263D02*
X602604Y395435D01*
X701146Y401379D02*
X701232Y401365D01*
X592177Y331523D02*
X592189Y331459D01*
X717929Y338259D02*
X717946Y338420D01*
X628503Y403361D02*
X628900Y403383D01*
X704268Y400816D02*
X704342Y400801D01*
X717664Y383179D02*
X717683Y383028D01*
X671723Y403764D02*
X672290Y403744D01*
X590572Y372698D02*
X590588Y372977D01*
X591560Y335466D02*
X591580Y335317D01*
X600146Y399547D02*
X600201Y399567D01*
X710745Y392451D02*
X710885Y392173D01*
X595495Y376185D02*
X595568Y377097D01*
X599127Y393363D02*
X599272Y393449D01*
X599546Y399314D02*
X599600Y399337D01*
X592458Y389062D02*
X592471Y389121D01*
X592420Y330287D02*
X592432Y330227D01*
X716992Y387582D02*
X717003Y387518D01*
X597461Y389852D02*
X597591Y390315D01*
X622880Y402996D02*
X623128Y403014D01*
X593336Y326777D02*
X593352Y326729D01*
X605413Y400921D02*
X605490Y400936D01*
X716451Y329015D02*
X716464Y329070D01*
X709715Y399271D02*
X709769Y399248D01*
X716199Y328039D02*
X716214Y328092D01*
X703160Y396264D02*
X703934Y396103D01*
X715853Y326875D02*
X715869Y326924D01*
X608525Y401459D02*
X608613Y401473D01*
X605222Y396103D02*
X605997Y396264D01*
X593257Y392148D02*
X593273Y392197D01*
X590946Y377996D02*
X590961Y378167D01*
X696187Y402063D02*
X696388Y402038D01*
X671154Y403783D02*
X671723Y403764D01*
X700184Y401528D02*
X700273Y401515D01*
X717768Y336835D02*
X717786Y336990D01*
X708330Y399782D02*
X708387Y399763D01*
X592844Y328465D02*
X592858Y328412D01*
X592775Y390433D02*
X592788Y390487D01*
X706362Y400344D02*
X706427Y400328D01*
X718704Y348834D02*
X718721Y349217D01*
X599577Y325648D02*
X709579D01*
X608350Y401432D02*
X608437Y401446D01*
X716798Y388581D02*
X716811Y388520D01*
X602790Y400342D02*
X602856Y400359D01*
X717823Y337303D02*
X717841Y337461D01*
X593660Y393294D02*
X593678Y393340D01*
X597218Y330274D02*
X597345Y329756D01*
X718825Y367142D02*
X718842Y366553D01*
X601532Y400001D02*
X601592Y400019D01*
X622389Y402960D02*
X622634Y402978D01*
X718793Y351053D02*
X718812Y351637D01*
X591298Y337619D02*
X591315Y337461D01*
X718055Y379685D02*
X718071Y379519D01*
X711938Y330274D02*
X712063Y330819D01*
X619283Y402707D02*
X619517Y402728D01*
X594809Y323644D02*
X594842Y323597D01*
X593752Y393524D02*
X593771Y393570D01*
X608613Y401473D02*
X608701Y401487D01*
X718134Y378848D02*
X718150Y378678D01*
X643623Y403937D02*
X644501Y403955D01*
X593241Y327071D02*
X593256Y327022D01*
X703741Y400921D02*
X703817Y400906D01*
X718232Y341433D02*
X718247Y341606D01*
X598008Y327611D02*
X598146Y327273D01*
X716299Y390758D02*
X716313Y390704D01*
X688691Y402808D02*
X688928Y402788D01*
X716299Y328412D02*
X716313Y328465D01*
X592272Y331020D02*
X592284Y330957D01*
X594910Y362164D02*
X594923Y363215D01*
X611771Y401915D02*
X611967Y401940D01*
D16*
X645964Y344745D02*
G03*
X645991Y344689I1762J807D01*
G01*
X645798Y345411D02*
G03*
X645803Y345347I2022J121D01*
G01*
X645964Y386126D02*
G03*
X645938Y386068I1727J-791D01*
G01*
X646790Y343776D02*
G03*
X646851Y343731I2434J3214D01*
G01*
X627663Y332669D02*
G03*
X627663Y332669I-2341J0D01*
G01*
X632344Y365435D02*
G03*
X632344Y365435I-7021J0D01*
G01*
X702143Y383862D02*
G03*
X702023Y383976I-3840J-3925D01*
G01*
X645925Y384503D02*
G03*
X645947Y384431I4083J1186D01*
G01*
Y346441D02*
G03*
X645925Y346368I4061J-1259D01*
G01*
X646516Y365435D02*
G03*
X646516Y365435I-21194J0D01*
G01*
X645858Y345038D02*
G03*
X645894Y344919I1753J468D01*
G01*
X658372Y389189D02*
G03*
X657151Y389180I-228J-52792D01*
G01*
X702023Y383976D02*
G03*
X701900Y384086I-3767J-4091D01*
G01*
X645828Y345944D02*
G03*
X645818Y345875I2869J-458D01*
G01*
X646154Y344415D02*
G03*
X646193Y344362I1887J1331D01*
G01*
X646913Y387184D02*
G03*
X646851Y387140I2424J-3458D01*
G01*
X645925Y346368D02*
G03*
X645905Y346296I3860J-1122D01*
G01*
X646233Y344310D02*
G03*
X646275Y344259I1950J1545D01*
G01*
X646512Y344010D02*
G03*
X646564Y343962I2190J2342D01*
G01*
X646193Y386509D02*
G03*
X646154Y386456I1849J-1383D01*
G01*
X646564Y343962D02*
G03*
X646618Y343914I2236J2500D01*
G01*
X702143Y347009D02*
G03*
X702590Y347504I-3771J3857D01*
G01*
X645905Y346296D02*
G03*
X645886Y346224I3670J-993D01*
G01*
X652273Y373735D02*
G03*
X652171Y374022I-15283J-5246D01*
G01*
X652171D02*
G03*
X651371Y375850I-14832J-5402D01*
G01*
X645803Y385132D02*
G03*
X645810Y385064I2617J220D01*
G01*
X646851Y343731D02*
G03*
X646913Y343687I2486J3413D01*
G01*
X651371Y355021D02*
G03*
X652171Y356849I-14032J7230D01*
G01*
X646512Y386861D02*
G03*
X646461Y386813I2095J-2240D01*
G01*
X646233Y386561D02*
G03*
X646193Y386509I1877J-1487D01*
G01*
X645796Y385395D02*
G03*
X645795Y385330I2188J-64D01*
G01*
X646083Y344523D02*
G03*
X646118Y344469I1834J1138D01*
G01*
X645818Y384996D02*
G03*
X645828Y384927I2879J389D01*
G01*
X645905Y384575D02*
G03*
X645925Y384503I3880J1050D01*
G01*
X645796Y385265D02*
G03*
X645798Y385199I2388J70D01*
G01*
X645819Y345222D02*
G03*
X645858Y345038I1787J283D01*
G01*
X646050Y386294D02*
G03*
X646020Y386238I1761J-1020D01*
G01*
X646319Y344208D02*
G03*
X646365Y344157I2022J1783D01*
G01*
X646275Y386613D02*
G03*
X646233Y386561I1908J-1597D01*
G01*
X651371Y375850D02*
G03*
X651166Y376236I-14170J-7301D01*
G01*
X645886Y384647D02*
G03*
X645905Y384575I3689J921D01*
G01*
X646790Y387095D02*
G03*
X646731Y387049I2324J-3068D01*
G01*
X645796Y345606D02*
G03*
X645795Y345541I2283J-67D01*
G01*
X646976Y387228D02*
G03*
X646913Y387184I2476J-3666D01*
G01*
X645938Y344803D02*
G03*
X645964Y344745I1752J734D01*
G01*
X685412Y365435D02*
G03*
X685412Y365435I-3310J0D01*
G01*
X652369Y373447D02*
G03*
X652273Y373735I-15586J-5029D01*
G01*
X645818Y345875D02*
G03*
X645810Y345807I2736J-370D01*
G01*
X645796Y345476D02*
G03*
X645798Y345411I2102J62D01*
G01*
X659554Y341701D02*
G03*
X661806Y341811I-1374J50937D01*
G01*
X651166Y354635D02*
G03*
X651371Y355021I-13964J7687D01*
G01*
X646083Y386348D02*
G03*
X646050Y386294I1779J-1104D01*
G01*
X646674Y343868D02*
G03*
X646731Y343821I2333J2840D01*
G01*
X645810Y345284D02*
G03*
X645819Y345222I1881J235D01*
G01*
X646050Y344577D02*
G03*
X646083Y344523I1812J1049D01*
G01*
X645938Y386068D02*
G03*
X645915Y386010I1722J-721D01*
G01*
X704778Y370209D02*
G03*
X704778Y370307I-142894J51D01*
G01*
X646731Y343821D02*
G03*
X646790Y343776I2383J3022D01*
G01*
X645810Y385587D02*
G03*
X645803Y385524I1941J-242D01*
G01*
X645795Y345541D02*
G03*
X645796Y345476I2189J-1D01*
G01*
X701773Y384193D02*
G03*
X701643Y384296I-3641J-4455D01*
G01*
X611280Y332669D02*
G03*
X611280Y332669I-4681J0D01*
G01*
X646319Y386664D02*
G03*
X646275Y386613I1941J-1712D01*
G01*
X645803Y345347D02*
G03*
X645810Y345284I1948J179D01*
G01*
X648727Y332669D02*
G03*
X648727Y332669I-4681J0D01*
G01*
X701900Y384086D02*
G03*
X701773Y384193I-3701J-4268D01*
G01*
Y346678D02*
G03*
X701900Y346785I-3575J4374D01*
G01*
X645854Y346083D02*
G03*
X645840Y346013I3161J-652D01*
G01*
X645991Y344689D02*
G03*
X646020Y344633I1776J884D01*
G01*
X646913Y343687D02*
G03*
X646976Y343643I2539J3622D01*
G01*
X658089Y381819D02*
G03*
X658089Y381819I-2341J0D01*
G01*
X646618Y343914D02*
G03*
X646674Y343868I2284J2666D01*
G01*
X646851Y387140D02*
G03*
X646790Y387095I2374J-3259D01*
G01*
X645854Y384788D02*
G03*
X645869Y384718I3336J688D01*
G01*
X645798Y345673D02*
G03*
X645796Y345606I2385J-136D01*
G01*
X646275Y344259D02*
G03*
X646319Y344208I1985J1661D01*
G01*
X657151Y341691D02*
G03*
X658372Y341682I993J52783D01*
G01*
X646365Y344157D02*
G03*
X646412Y344107I2061J1912D01*
G01*
X645869Y346153D02*
G03*
X645854Y346083I3321J-758D01*
G01*
X608939Y332669D02*
G03*
X608939Y332669I-2341J0D01*
G01*
X646020Y344633D02*
G03*
X646050Y344577I1792J965D01*
G01*
X645915Y386010D02*
G03*
X645894Y385952I1721J-654D01*
G01*
X645803Y345740D02*
G03*
X645798Y345673I2494J-209D01*
G01*
Y385199D02*
G03*
X645803Y385132I2499J142D01*
G01*
X645795Y385330D02*
G03*
X645796Y385265I2284J1D01*
G01*
X645819Y385649D02*
G03*
X645810Y385587I1872J-297D01*
G01*
X645840Y384858D02*
G03*
X645854Y384788I3175J582D01*
G01*
X645915Y344861D02*
G03*
X645938Y344803I1745J663D01*
G01*
X645810Y385064D02*
G03*
X645818Y384996I2744J302D01*
G01*
X646193Y344362D02*
G03*
X646233Y344310I1917J1435D01*
G01*
X646118Y386402D02*
G03*
X646083Y386348I1799J-1192D01*
G01*
X645803Y385524D02*
G03*
X645798Y385460I2017J-185D01*
G01*
X702590Y383367D02*
G03*
X702143Y383862I-4218J-3362D01*
G01*
X701643Y346575D02*
G03*
X701773Y346678I-3511J4559D01*
G01*
X661806Y389060D02*
G03*
X659554Y389170I-3626J-50827D01*
G01*
X645858Y385833D02*
G03*
X645819Y385649I1749J-466D01*
G01*
X645869Y384718D02*
G03*
X645886Y384647I3508J801D01*
G01*
X702023Y346895D02*
G03*
X702143Y347009I-3719J4039D01*
G01*
X646387Y332669D02*
G03*
X646387Y332669I-2341J0D01*
G01*
X630003D02*
G03*
X630003Y332669I-4681J0D01*
G01*
X646118Y344469D02*
G03*
X646154Y344415I1859J1232D01*
G01*
X646564Y386909D02*
G03*
X646512Y386861I2138J-2390D01*
G01*
X646365Y386714D02*
G03*
X646319Y386664I1977J-1834D01*
G01*
X646412Y386764D02*
G03*
X646365Y386714I2014J-1962D01*
G01*
X646618Y386957D02*
G03*
X646564Y386909I2182J-2547D01*
G01*
X645798Y385460D02*
G03*
X645796Y385395I2099J-126D01*
G01*
X646020Y386238D02*
G03*
X645991Y386182I1747J-940D01*
G01*
X646461Y386813D02*
G03*
X646412Y386764I2053J-2097D01*
G01*
Y344107D02*
G03*
X646461Y344058I2103J2048D01*
G01*
X704778Y360564D02*
G03*
X704778Y360662I-142894J46D01*
G01*
X684861Y345135D02*
G03*
X682214Y345061I-215J-39635D01*
G01*
X645828Y384927D02*
G03*
X645840Y384858I3022J482D01*
G01*
X646154Y386456D02*
G03*
X646118Y386402I1823J-1285D01*
G01*
X652273Y357136D02*
G03*
X652369Y357424I-15490J5317D01*
G01*
X645991Y386182D02*
G03*
X645964Y386126I1735J-864D01*
G01*
X660429Y381819D02*
G03*
X660429Y381819I-4681J0D01*
G01*
X645840Y346013D02*
G03*
X645828Y345944I3011J-552D01*
G01*
X645894Y385952D02*
G03*
X645858Y385833I1717J-587D01*
G01*
X645810Y345807D02*
G03*
X645803Y345740I2611J-287D01*
G01*
X652171Y356849D02*
G03*
X652273Y357136I-15181J5534D01*
G01*
X637025Y365435D02*
G03*
X637025Y365435I-11702J0D01*
G01*
X646731Y387049D02*
G03*
X646674Y387003I2275J-2886D01*
G01*
X646461Y344058D02*
G03*
X646512Y344010I2146J2191D01*
G01*
X644046Y365435D02*
G03*
X644046Y365435I-18724J0D01*
G01*
X646674Y387003D02*
G03*
X646618Y386957I2228J-2713D01*
G01*
X682214Y385810D02*
G03*
X684861Y385736I2431J39561D01*
G01*
X648727Y365435D02*
G03*
X648727Y365435I-23405J0D01*
G01*
X645886Y346224D02*
G03*
X645869Y346153I3491J-872D01*
G01*
X701900Y346785D02*
G03*
X702023Y346895I-3644J4201D01*
G01*
X645894Y344919D02*
G03*
X645915Y344861I1742J596D01*
G01*
X676362Y344312D02*
X676451Y344328D01*
X675652Y344178D02*
X675741Y344195D01*
X653427Y365245D02*
X653430Y365340D01*
X704726Y365719D02*
X704727Y365813D01*
X653389Y366577D02*
X653393Y366482D01*
X704134Y351101D02*
X704156Y351199D01*
X666712Y342392D02*
X666808Y342408D01*
X701577Y346525D02*
X701643Y346575D01*
X704043Y350715D02*
X704066Y350811D01*
X681822Y385836D02*
X682214Y385810D01*
X652807Y359052D02*
X652828Y359147D01*
X668228Y388215D02*
X668321Y388198D01*
X667000Y388432D02*
X667095Y388416D01*
X704458Y377844D02*
X704470Y377739D01*
X704775Y369335D02*
X704775Y369432D01*
X654773Y389078D02*
X654899Y389086D01*
X655150Y341769D02*
X655275Y341762D01*
X704748Y363829D02*
X704750Y363734D01*
X698000Y345098D02*
X698094Y345115D01*
X650799Y342287D02*
X650911Y342265D01*
X700497Y384996D02*
X700574Y384958D01*
X687020Y385795D02*
X687130Y385799D01*
X674681Y386886D02*
X674769Y386869D01*
X652428Y342023D02*
X652549Y342007D01*
X701235Y384584D02*
X701305Y384538D01*
X675475Y386728D02*
X675564Y386711D01*
X653292Y368290D02*
X653299Y368195D01*
X693701Y344787D02*
X693810Y344787D01*
X653023Y370673D02*
X653038Y370578D01*
X686145Y385761D02*
X686254Y385765D01*
X704637Y375835D02*
X704643Y375728D01*
X694242Y386083D02*
X694350Y386082D01*
X704739Y366474D02*
X704741Y366569D01*
X670965Y387671D02*
X671055Y387652D01*
X647540Y343313D02*
X647616Y343274D01*
X691715Y344837D02*
X691826Y344832D01*
X674593Y343967D02*
X674681Y343985D01*
X704750Y367137D02*
X704751Y367232D01*
X661806Y389060D02*
X662668Y388991D01*
X693155Y386077D02*
X693264Y386079D01*
X685391Y345129D02*
X685498Y345127D01*
X665738Y388629D02*
X665935Y388600D01*
X593468Y326393D02*
X593485Y326345D01*
X704616Y376154D02*
X704623Y376048D01*
X704736Y366285D02*
X704737Y366380D01*
X646363Y383439D02*
X646404Y383360D01*
X672123Y343446D02*
X672211Y343465D01*
X686800Y385785D02*
X686909Y385790D01*
X686471Y385773D02*
X686581Y385777D01*
X653363Y367148D02*
X653367Y367053D01*
X646079Y384059D02*
X646109Y383984D01*
X663615Y388898D02*
X663926Y388864D01*
X653363Y363723D02*
X653367Y363818D01*
X673800Y343802D02*
X673888Y343821D01*
X694135Y386084D02*
X694242Y386083D01*
X674152Y386995D02*
X674240Y386977D01*
X700263Y345767D02*
X700342Y345802D01*
X677526Y386355D02*
X677616Y386340D01*
X652848Y371628D02*
X652868Y371533D01*
X695095Y386065D02*
X695200Y386061D01*
X647815Y381147D02*
X647879Y381057D01*
X671590Y343332D02*
X671679Y343351D01*
X692714Y344803D02*
X692825Y344800D01*
X690033Y385953D02*
X690145Y385959D01*
X646446Y383279D02*
X646490Y383199D01*
X676808Y386478D02*
X676898Y386463D01*
X650655Y377105D02*
X650714Y377008D01*
X666808Y342408D02*
X666904Y342424D01*
X703361Y382113D02*
X703399Y382031D01*
X704772Y371490D02*
X704773Y371391D01*
X662668Y341880D02*
X663197Y341930D01*
X674945Y386833D02*
X675033Y386815D01*
X672918Y343616D02*
X673007Y343634D01*
X699858Y385269D02*
X699940Y385237D01*
X652487Y373064D02*
X652543Y372872D01*
X649220Y379210D02*
X649288Y379116D01*
X650357Y342378D02*
X650467Y342355D01*
X671945Y343408D02*
X672034Y343427D01*
X704692Y374773D02*
X704696Y374667D01*
X704506Y377425D02*
X704517Y377320D01*
X704672Y375197D02*
X704678Y375091D01*
X700949Y384758D02*
X701021Y384716D01*
X679352Y386085D02*
X679538Y386061D01*
X704734Y366191D02*
X704736Y366285D01*
X692160Y386051D02*
X692271Y386055D01*
X668228Y342656D02*
X668321Y342673D01*
X651833Y388764D02*
X651951Y388781D01*
X676096Y386609D02*
X676184Y386592D01*
X652868Y371533D02*
X652887Y371437D01*
X704757Y363259D02*
X704758Y363164D01*
X698556Y345213D02*
X698646Y345234D01*
X691268Y344856D02*
X691379Y344851D01*
X703831Y380904D02*
X703860Y380812D01*
X650219Y377779D02*
X650283Y377683D01*
X704708Y374351D02*
X704712Y374246D01*
X647094Y382200D02*
X647150Y382114D01*
X704777Y361052D02*
X704777Y360954D01*
X694350Y386082D02*
X694457Y386081D01*
X647464Y387519D02*
X647540Y387558D01*
X694026Y386084D02*
X694135Y386084D01*
X688798Y385885D02*
X688911Y385891D01*
X681144Y344981D02*
X681434Y345005D01*
X667947Y342604D02*
X668041Y342621D01*
X672654Y387312D02*
X672742Y387293D01*
X680667Y385935D02*
X680857Y385916D01*
X653081Y370291D02*
X653095Y370196D01*
X651138Y388648D02*
X651252Y388668D01*
X704766Y362497D02*
X704768Y362401D01*
X647042Y343600D02*
X647109Y343557D01*
X677436Y386370D02*
X677526Y386355D01*
X655527Y341748D02*
X655652Y341741D01*
X704761Y367897D02*
X704762Y367992D01*
X701443Y346427D02*
X701510Y346476D01*
X668041Y342621D02*
X668134Y342638D01*
X653228Y361819D02*
X653237Y361914D01*
X648826Y388083D02*
X648921Y388114D01*
X688798Y344986D02*
X688911Y344980D01*
X653035Y388922D02*
X653157Y388936D01*
X704763Y358680D02*
X704766Y358881D01*
X671144Y387633D02*
X671233Y387614D01*
X669153Y388039D02*
X669245Y388022D01*
X648675Y379960D02*
X648743Y379867D01*
X645947Y384431D02*
X645970Y384357D01*
X670065Y387857D02*
X670155Y387839D01*
X649719Y342529D02*
X649824Y342503D01*
X675033Y344056D02*
X675122Y344073D01*
X704760Y367802D02*
X704761Y367897D01*
X680099Y344877D02*
X680288Y344897D01*
X677887Y386297D02*
X677978Y386282D01*
X687130Y385799D02*
X687240Y385804D01*
X675564Y344161D02*
X675652Y344178D01*
X653299Y362676D02*
X653306Y362771D01*
X700420Y385033D02*
X700497Y384996D01*
X704763Y362783D02*
X704764Y362688D01*
X650090Y377971D02*
X650155Y377875D01*
X647094Y348671D02*
X647150Y348757D01*
X646109Y346888D02*
X646142Y346964D01*
X652764Y372011D02*
X652786Y371915D01*
X648272Y350358D02*
X648338Y350450D01*
X648278Y342984D02*
X648366Y342950D01*
X652941Y359721D02*
X652959Y359816D01*
X704742Y366664D02*
X704744Y366758D01*
X693374Y386081D02*
X693483Y386082D01*
X647443Y381679D02*
X647503Y381591D01*
X653038Y370578D02*
X653053Y370482D01*
X693810Y344787D02*
X693918Y344787D01*
X704776Y369625D02*
X704777Y369722D01*
X676808Y344393D02*
X676898Y344408D01*
X686254Y345106D02*
X686362Y345103D01*
X652543Y372872D02*
X652596Y372680D01*
X649824Y342503D02*
X649929Y342477D01*
X704682Y355886D02*
X704687Y355992D01*
X704667Y375303D02*
X704672Y375197D01*
X693810Y386084D02*
X693918Y386084D01*
X697716Y385823D02*
X697811Y385807D01*
X673095Y387218D02*
X673183Y387199D01*
X704763Y368088D02*
X704764Y368183D01*
X702793Y383096D02*
X702842Y383026D01*
X650155Y352996D02*
X650219Y353092D01*
X653285Y362486D02*
X653292Y362581D01*
X704772Y359381D02*
X704773Y359480D01*
X695410Y344818D02*
X695514Y344824D01*
X704777Y361149D02*
X704777Y361052D01*
X647207Y348843D02*
X647265Y348930D01*
X652647Y358382D02*
X652695Y358573D01*
X703473Y349005D02*
X703509Y349089D01*
X653342Y367528D02*
X653347Y367433D01*
X704700Y356309D02*
X704704Y356414D01*
X655904Y389141D02*
X656154Y389151D01*
X667000Y342439D02*
X667095Y342455D01*
X696235Y386001D02*
X696337Y385992D01*
X649761Y378450D02*
X649827Y378355D01*
X704773Y371391D02*
X704774Y371291D01*
X667381Y388367D02*
X667476Y388350D01*
X652070Y342072D02*
X652189Y342056D01*
X653381Y366767D02*
X653385Y366672D01*
X647943Y349904D02*
X648008Y349994D01*
X704656Y375516D02*
X704661Y375409D01*
X661806Y341811D02*
X662668Y341880D01*
X672300Y387387D02*
X672388Y387368D01*
X703888Y380720D02*
X703915Y380628D01*
X677616Y386340D02*
X677707Y386325D01*
X669245Y388022D02*
X669336Y388003D01*
X685605Y385747D02*
X685713Y385749D01*
X653774Y388998D02*
X653898Y389009D01*
X671679Y343351D02*
X671768Y343370D01*
X664233Y342042D02*
X664539Y342080D01*
X653262Y362200D02*
X653270Y362295D01*
X704766Y368374D02*
X704768Y368470D01*
X648139Y380696D02*
X648205Y380604D01*
X655401Y341754D02*
X655527Y341748D01*
X688351Y385860D02*
X688463Y385867D01*
X704777Y360954D02*
X704777Y360857D01*
X699004Y345326D02*
X699092Y345351D01*
X670875Y387689D02*
X670965Y387671D01*
X670246Y343051D02*
X670336Y343069D01*
X704751Y363639D02*
X704753Y363544D01*
X699692Y385330D02*
X699776Y385299D01*
X649288Y351755D02*
X649356Y351850D01*
X700183Y345733D02*
X700263Y345767D01*
X685285Y345131D02*
X685391Y345129D01*
X677256Y344471D02*
X677346Y344486D01*
X646284Y383597D02*
X646323Y383518D01*
X668785Y342760D02*
X668877Y342778D01*
X703509Y349089D02*
X703545Y349174D01*
X675741Y386676D02*
X675829Y386659D01*
X651024Y342244D02*
X651138Y342223D01*
X704756Y372596D02*
X704760Y372393D01*
X668414Y388181D02*
X668507Y388163D01*
X674416Y386941D02*
X674504Y386922D01*
X704417Y352715D02*
X704431Y352819D01*
X649288Y379116D02*
X649356Y379021D01*
X650687Y342309D02*
X650799Y342287D01*
X648472Y380237D02*
X648540Y380145D01*
X648405Y350541D02*
X648472Y350634D01*
X649492Y378831D02*
X649559Y378736D01*
X701021Y346155D02*
X701093Y346198D01*
X691938Y344828D02*
X692049Y344824D01*
X704775Y371093D02*
X704776Y370994D01*
X695095Y344806D02*
X695200Y344810D01*
X648105Y343053D02*
X648191Y343018D01*
X689471Y344949D02*
X689584Y344943D01*
X670065Y343014D02*
X670155Y343032D01*
X669793Y342959D02*
X669883Y342977D01*
X704309Y378873D02*
X704326Y378772D01*
X653325Y363057D02*
X653331Y363152D01*
X664233Y388829D02*
X664539Y388792D01*
X648743Y351004D02*
X648811Y351097D01*
X687794Y345040D02*
X687905Y345034D01*
X703322Y382193D02*
X703361Y382113D01*
X647318Y343432D02*
X647390Y343392D01*
X669336Y388003D02*
X669428Y387985D01*
X675918Y386642D02*
X676007Y386625D01*
X699180Y385495D02*
X699267Y385469D01*
X668877Y388093D02*
X668969Y388075D01*
X703613Y349345D02*
X703646Y349432D01*
X646175Y383830D02*
X646210Y383753D01*
X690707Y385988D02*
X690819Y385994D01*
X704769Y359081D02*
X704770Y359181D01*
X704732Y373621D02*
X704738Y373414D01*
X650155Y377875D02*
X650219Y377779D01*
X650471Y353477D02*
X650533Y353573D01*
X672565Y343540D02*
X672654Y343559D01*
X690595Y385982D02*
X690707Y385988D01*
X668134Y342638D02*
X668228Y342656D01*
X676451Y386543D02*
X676540Y386526D01*
X652913Y388908D02*
X653035Y388922D01*
X704773Y369142D02*
X704774Y369239D01*
X646825Y348248D02*
X646877Y348332D01*
X653342Y363343D02*
X653347Y363438D01*
X703772Y381085D02*
X703802Y380995D01*
X650409Y353381D02*
X650471Y353477D01*
X673447Y343728D02*
X673536Y343747D01*
X646049Y346736D02*
X646079Y346812D01*
X704197Y379475D02*
X704217Y379375D01*
X667947Y388267D02*
X668041Y388250D01*
X701235Y346287D02*
X701305Y346333D01*
X703942Y350336D02*
X703968Y350430D01*
X694457Y344790D02*
X694564Y344792D01*
X653650Y341885D02*
X653774Y341873D01*
X690258Y385965D02*
X690370Y385971D01*
X681434Y385866D02*
X681822Y385836D01*
X674769Y386869D02*
X674857Y386851D01*
X703282Y348598D02*
X703322Y348678D01*
X652887Y359434D02*
X652905Y359530D01*
X699776Y345572D02*
X699858Y345602D01*
X691268Y386015D02*
X691379Y386020D01*
X685605Y345124D02*
X685713Y345122D01*
X653372Y363913D02*
X653376Y364009D01*
X687572Y345051D02*
X687683Y345045D01*
X645995Y384284D02*
X646021Y384209D01*
X703158Y348363D02*
X703200Y348440D01*
X667191Y342472D02*
X667286Y342488D01*
X676898Y386463D02*
X676987Y386447D01*
X650025Y378067D02*
X650090Y377971D01*
X653237Y361914D02*
X653246Y362010D01*
X652941Y371150D02*
X652959Y371055D01*
X648008Y380877D02*
X648074Y380786D01*
X593451Y326440D02*
X593468Y326393D01*
X700342Y385069D02*
X700420Y385033D01*
X653067Y370387D02*
X653081Y370291D01*
X676273Y386576D02*
X676362Y386559D01*
X692604Y344806D02*
X692714Y344803D01*
X704309Y351998D02*
X704326Y352099D01*
X704156Y351199D02*
X704176Y351298D01*
X704777Y360074D02*
X704777Y360172D01*
X696938Y385932D02*
X697037Y385920D01*
X688911Y344980D02*
X689023Y344974D01*
X679538Y386061D02*
X679725Y386038D01*
X653898Y389009D02*
X654023Y389020D01*
X688463Y385867D02*
X688575Y385873D01*
X689135Y344968D02*
X689247Y344961D01*
X675475Y344143D02*
X675564Y344161D01*
X649719Y388342D02*
X649824Y388368D01*
X649929Y342477D02*
X650034Y342451D01*
X652741Y358765D02*
X652764Y358861D01*
X704772Y361921D02*
X704773Y361825D01*
X652905Y359530D02*
X652924Y359625D01*
X676987Y386447D02*
X677077Y386431D01*
X676273Y344296D02*
X676362Y344312D01*
X703993Y350524D02*
X704018Y350619D01*
X667476Y342521D02*
X667570Y342537D01*
X646581Y347835D02*
X646627Y347916D01*
X704089Y379964D02*
X704112Y379867D01*
X704584Y354292D02*
X704593Y354398D01*
X653389Y364294D02*
X653393Y364389D01*
X652369Y373447D02*
X652429Y373255D01*
X647626Y381415D02*
X647689Y381326D01*
X704753Y367327D02*
X704754Y367422D01*
X671323Y387595D02*
X671412Y387576D01*
X650141Y388445D02*
X650249Y388469D01*
X648921Y342757D02*
X649017Y342727D01*
X704737Y364491D02*
X704739Y364397D01*
X671323Y343276D02*
X671412Y343295D01*
X663926Y388864D02*
X664233Y388829D01*
X649616Y388315D02*
X649719Y388342D01*
X653095Y360675D02*
X653108Y360770D01*
X701510Y384395D02*
X701577Y384346D01*
X653527Y388974D02*
X653650Y388986D01*
X669883Y342977D02*
X669974Y342995D01*
X675652Y386693D02*
X675741Y386676D01*
X704291Y351897D02*
X704309Y351998D01*
X676362Y386559D02*
X676451Y386543D01*
X653095Y370196D02*
X653108Y370101D01*
X673359Y343709D02*
X673447Y343728D01*
X677436Y344501D02*
X677526Y344516D01*
X680477Y385954D02*
X680667Y385935D01*
X653178Y361343D02*
X653189Y361438D01*
X649084Y379399D02*
X649152Y379305D01*
X680667Y344936D02*
X680857Y344955D01*
X593485Y326345D02*
X593502Y326298D01*
X665342Y342185D02*
X665541Y342213D01*
X704741Y366569D02*
X704742Y366664D01*
X686690Y345090D02*
X686800Y345086D01*
X701374Y384491D02*
X701443Y384444D01*
X700183Y385138D02*
X700263Y385104D01*
X699524Y385387D02*
X699608Y385359D01*
X686037Y345113D02*
X686145Y345110D01*
X693483Y386082D02*
X693592Y386083D01*
X652647Y372489D02*
X652695Y372298D01*
X698556Y385658D02*
X698646Y385637D01*
X700497Y345875D02*
X700574Y345913D01*
X704643Y355143D02*
X704650Y355249D01*
X703242Y382353D02*
X703282Y382273D01*
X685928Y345116D02*
X686037Y345113D01*
X652670Y341992D02*
X652791Y341977D01*
X647774Y387673D02*
X647855Y387710D01*
X647937Y387747D01*
X704774Y371192D02*
X704775Y371093D01*
X685072Y385738D02*
X685178Y385739D01*
X689359Y344955D02*
X689471Y344949D01*
X673271Y387180D02*
X673359Y387162D01*
X689023Y344974D02*
X689135Y344968D01*
X652975Y359912D02*
X652992Y360007D01*
X678616Y386186D02*
X678799Y386160D01*
X651951Y342090D02*
X652070Y342072D01*
X698187Y385737D02*
X698280Y385718D01*
X653774Y341873D02*
X653898Y341862D01*
X704291Y378974D02*
X704309Y378873D01*
X688017Y385843D02*
X688128Y385849D01*
X646490Y347672D02*
X646535Y347753D01*
X688911Y385891D02*
X689023Y385897D01*
X647616Y387597D02*
X647695Y387635D01*
X650714Y353863D02*
X650773Y353959D01*
X697330Y385882D02*
X697428Y385868D01*
X654773Y341793D02*
X654899Y341785D01*
X704731Y366002D02*
X704733Y366096D01*
X692714Y386068D02*
X692825Y386071D01*
X650655Y353766D02*
X650714Y353863D01*
X704342Y352201D02*
X704358Y352304D01*
X702889Y347916D02*
X702936Y347989D01*
X669061Y388057D02*
X669153Y388039D01*
X652791Y388894D02*
X652913Y388908D01*
X704772Y368950D02*
X704773Y369046D01*
X696938Y344939D02*
X697037Y344951D01*
X646404Y347511D02*
X646446Y347592D01*
X704757Y367612D02*
X704758Y367707D01*
X704527Y353657D02*
X704538Y353762D01*
X704255Y351695D02*
X704273Y351796D01*
X685498Y385744D02*
X685605Y385747D01*
X704696Y356204D02*
X704700Y356309D01*
X647774Y343198D02*
X647855Y343161D01*
X664943Y342131D02*
X665143Y342158D01*
X676629Y386510D02*
X676719Y386494D01*
X689359Y385916D02*
X689471Y385922D01*
X653393Y366482D02*
X653397Y366387D01*
X649627Y352230D02*
X649694Y352325D01*
X653376Y364009D02*
X653381Y364104D01*
X704217Y351496D02*
X704236Y351595D01*
X649694Y352325D02*
X649761Y352421D01*
X693045Y386075D02*
X693155Y386077D01*
X653416Y365911D02*
X653420Y365816D01*
X703772Y349786D02*
X703802Y349876D01*
X648607Y380052D02*
X648675Y379960D01*
X692049Y344824D02*
X692160Y344820D01*
X704729Y365908D02*
X704731Y366002D01*
X679725Y386038D02*
X679911Y386016D01*
X695928Y386023D02*
X696031Y386016D01*
X704726Y365152D02*
X704727Y365058D01*
X646404Y383360D02*
X646446Y383279D01*
X704773Y359480D02*
X704774Y359580D01*
X685498Y345127D02*
X685605Y345124D01*
X649213Y342668D02*
X649312Y342639D01*
X675829Y344212D02*
X675918Y344229D01*
X648547Y342883D02*
X648639Y342851D01*
X648675Y350911D02*
X648743Y351004D01*
X653353Y363533D02*
X653358Y363628D01*
X694135Y344787D02*
X694242Y344788D01*
X647815Y349724D02*
X647879Y349814D01*
X704777Y370503D02*
X704778Y370405D01*
X673712Y387087D02*
X673800Y387069D01*
X647038Y382285D02*
X647094Y382200D01*
X674416Y343930D02*
X674504Y343949D01*
X700342Y345802D02*
X700420Y345839D01*
X647109Y343557D02*
X647177Y343515D01*
X678433Y344658D02*
X678524Y344672D01*
X691491Y386025D02*
X691603Y386030D01*
X704538Y353762D02*
X704548Y353868D01*
X647265Y381941D02*
X647324Y381854D01*
X648205Y350267D02*
X648272Y350358D01*
X704737Y366380D02*
X704739Y366474D01*
X704358Y378568D02*
X704373Y378465D01*
X676898Y344408D02*
X676987Y344424D01*
X651252Y388668D02*
X651367Y388688D01*
X676987Y344424D02*
X677077Y344440D01*
X679167Y344762D02*
X679352Y344786D01*
X704623Y376048D02*
X704630Y375941D01*
X653403Y341909D02*
X653527Y341897D01*
X650533Y353573D02*
X650594Y353670D01*
X693045Y344796D02*
X693155Y344794D01*
X646877Y382539D02*
X646930Y382455D01*
X669611Y342922D02*
X669702Y342940D01*
X704066Y350811D02*
X704089Y350907D01*
X649761Y352421D02*
X649827Y352516D01*
X667759Y342571D02*
X667853Y342587D01*
X650687Y388562D02*
X650799Y388584D01*
X687683Y385826D02*
X687794Y385831D01*
X703072Y348210D02*
X703116Y348286D01*
X650346Y353284D02*
X650409Y353381D01*
X699353Y385443D02*
X699439Y385415D01*
X671857Y343389D02*
X671945Y343408D01*
X651058Y354442D02*
X651112Y354539D01*
X648456Y387955D02*
X648547Y387988D01*
X700103Y345699D02*
X700183Y345733D01*
X646930Y348416D02*
X646984Y348501D01*
X664943Y388740D02*
X665143Y388713D01*
X646246Y383675D02*
X646284Y383597D01*
X676184Y344279D02*
X676273Y344296D01*
X647265Y348930D02*
X647324Y349017D01*
X672654Y343559D02*
X672742Y343578D01*
X647383Y381767D02*
X647443Y381679D01*
X646323Y347353D02*
X646363Y347432D01*
X653053Y370482D02*
X653067Y370387D01*
X700949Y346113D02*
X701021Y346155D01*
X704777Y370601D02*
X704777Y370503D01*
X646142Y346964D02*
X646175Y347041D01*
X647752Y381237D02*
X647815Y381147D01*
X686690Y385781D02*
X686800Y385785D01*
X694883Y344799D02*
X694989Y344802D01*
X688575Y344999D02*
X688687Y344992D01*
X704754Y367422D02*
X704756Y367517D01*
X675210Y386780D02*
X675298Y386763D01*
X689023Y385897D02*
X689135Y385903D01*
X667095Y342455D02*
X667191Y342472D01*
X703116Y348286D02*
X703158Y348363D01*
X676451Y344328D02*
X676540Y344345D01*
X674064Y387014D02*
X674152Y386995D01*
X696133Y344862D02*
X696235Y344870D01*
X653412Y364865D02*
X653416Y364960D01*
X698373Y385699D02*
X698464Y385679D01*
X646049Y384135D02*
X646079Y384059D01*
X653434Y367776D02*
X679761D01*
X653313Y368004D02*
X653319Y367909D01*
X704389Y352509D02*
X704403Y352612D01*
X653385Y366672D02*
X653389Y366577D01*
X685928Y385755D02*
X686037Y385758D01*
X665143Y342158D02*
X665342Y342185D01*
X675564Y386711D02*
X675652Y386693D01*
X673095Y343653D02*
X673183Y343672D01*
X671233Y343257D02*
X671323Y343276D01*
X653393Y364389D02*
X653397Y364484D01*
X677256Y386400D02*
X677346Y386385D01*
X653008Y370769D02*
X653023Y370673D01*
X704482Y377635D02*
X704494Y377530D01*
X704548Y353868D02*
X704557Y353974D01*
X649084Y351472D02*
X649152Y351567D01*
X653246Y368862D02*
X653254Y368766D01*
X701374Y346380D02*
X701443Y346427D01*
X684442Y363095D02*
X704721D01*
X691156Y344861D02*
X691268Y344856D01*
X670696Y343144D02*
X670786Y343163D01*
X704667Y355568D02*
X704672Y355674D01*
X647689Y381326D02*
X647752Y381237D01*
X703322Y348678D02*
X703361Y348758D01*
X668969Y388075D02*
X669061Y388057D01*
X650946Y376622D02*
X651002Y376525D01*
X696639Y385964D02*
X696739Y385954D01*
X691379Y344851D02*
X691491Y344846D01*
X703860Y350059D02*
X703888Y350151D01*
X676719Y344377D02*
X676808Y344393D01*
X650577Y388540D02*
X650687Y388562D01*
X704719Y374037D02*
X704726Y373829D01*
X646109Y383984D02*
X646142Y383907D01*
X649413Y342611D02*
X649514Y342583D01*
X694564Y386079D02*
X694671Y386077D01*
X704738Y357457D02*
X704743Y357663D01*
X678799Y386160D02*
X678983Y386134D01*
X646581Y383036D02*
X646627Y382955D01*
X704650Y375622D02*
X704656Y375516D01*
X653278Y362391D02*
X653285Y362486D01*
X680288Y385974D02*
X680477Y385954D01*
X704752Y372799D02*
X704756Y372596D01*
X647937Y387747D02*
X648020Y387783D01*
X687240Y345066D02*
X687350Y345061D01*
X677978Y344589D02*
X678069Y344603D01*
X704778Y360467D02*
X704778Y360564D01*
X694777Y344796D02*
X694883Y344799D01*
X653278Y368480D02*
X653285Y368385D01*
X647207Y382028D02*
X647265Y381941D01*
X653353Y367338D02*
X653358Y367243D01*
X672477Y343521D02*
X672565Y343540D01*
X690370Y344900D02*
X690482Y344894D01*
X653270Y362295D02*
X653278Y362391D01*
X697524Y385854D02*
X697620Y385839D01*
X704777Y370699D02*
X704777Y370601D01*
X698187Y345134D02*
X698280Y345153D01*
X687794Y385831D02*
X687905Y385837D01*
X671412Y387576D02*
X671501Y387557D01*
X675741Y344195D02*
X675829Y344212D01*
X676629Y344361D02*
X676719Y344377D01*
X653358Y363628D02*
X653363Y363723D01*
X649356Y351850D02*
X649424Y351945D01*
X703915Y350243D02*
X703942Y350336D01*
X697135Y385908D02*
X697233Y385895D01*
X668692Y388128D02*
X668785Y388111D01*
X701305Y384538D02*
X701374Y384491D01*
X685412Y365435D02*
X704721D01*
X704739Y364397D02*
X704741Y364302D01*
X704745Y364018D02*
X704747Y363924D01*
X685820Y385752D02*
X685928Y385755D01*
X666712Y388479D02*
X666808Y388463D01*
X702842Y383026D02*
X702889Y382955D01*
X704771Y362018D02*
X704772Y361921D01*
X672211Y343465D02*
X672300Y343484D01*
X653081Y360580D02*
X653095Y360675D01*
X703473Y381866D02*
X703509Y381782D01*
X690258Y344906D02*
X690370Y344900D01*
X703116Y382585D02*
X703158Y382508D01*
X704567Y354080D02*
X704576Y354186D01*
X691044Y344866D02*
X691156Y344861D01*
X647689Y349545D02*
X647752Y349635D01*
X671857Y387482D02*
X671945Y387463D01*
X647177Y343515D02*
X647246Y343473D01*
X701165Y346242D02*
X701235Y346287D01*
X648732Y388052D02*
X648826Y388083D01*
X699692Y345541D02*
X699776Y345572D01*
X695200Y386061D02*
X695305Y386057D01*
X678983Y386134D02*
X679167Y386109D01*
X679725Y344833D02*
X679911Y344855D01*
X652070Y388798D02*
X652189Y388815D01*
X687683Y345045D02*
X687794Y345040D01*
X651716Y342126D02*
X651833Y342108D01*
X647150Y348757D02*
X647207Y348843D01*
X655401Y389117D02*
X655527Y389123D01*
X703027Y348135D02*
X703072Y348210D01*
X702642Y347570D02*
X702693Y347637D01*
X650357Y388493D02*
X650467Y388517D01*
X699439Y345456D02*
X699524Y345484D01*
X645947Y346441D02*
X645970Y346514D01*
X703158Y382508D02*
X703200Y382431D01*
X704726Y373829D02*
X704732Y373621D01*
X652764Y358861D02*
X652786Y358956D01*
X673712Y343784D02*
X673800Y343802D01*
X598567Y326447D02*
X598710Y326236D01*
X675829Y386659D02*
X675918Y386642D01*
X704601Y354504D02*
X704609Y354611D01*
X653306Y368100D02*
X653313Y368004D01*
X704774Y369239D02*
X704775Y369335D01*
X704736Y364586D02*
X704737Y364491D01*
X704747Y363924D02*
X704748Y363829D01*
X646210Y347118D02*
X646246Y347196D01*
X692160Y344820D02*
X692271Y344816D01*
X704775Y369432D02*
X704776Y369529D01*
X669974Y387876D02*
X670065Y387857D01*
X651058Y376429D02*
X651112Y376332D01*
X678524Y344672D02*
X678616Y344685D01*
X687130Y345072D02*
X687240Y345066D01*
X685391Y385742D02*
X685498Y385744D01*
X593401Y326584D02*
X593418Y326536D01*
X700651Y384920D02*
X700726Y384881D01*
X704760Y372393D02*
X704763Y372191D01*
X648191Y343018D02*
X648278Y342984D01*
X666904Y388447D02*
X667000Y388432D01*
X654648Y341802D02*
X654773Y341793D01*
X667853Y388284D02*
X667947Y388267D01*
X700022Y385205D02*
X700103Y385172D01*
X691491Y344846D02*
X691603Y344841D01*
X694671Y386077D02*
X694777Y386074D01*
X695825Y344841D02*
X695928Y344848D01*
X704273Y379075D02*
X704291Y378974D01*
X704538Y377109D02*
X704548Y377003D01*
X646490Y383199D02*
X646535Y383118D01*
X692382Y344813D02*
X692493Y344809D01*
X652924Y359625D02*
X652941Y359721D01*
X651599Y342144D02*
X651716Y342126D01*
X648366Y342950D02*
X648456Y342916D01*
X684861Y345135D02*
X684966Y345134D01*
X655024Y341777D02*
X655150Y341769D01*
X688239Y385854D02*
X688351Y385860D01*
X703545Y381697D02*
X703579Y381612D01*
X687240Y385804D02*
X687350Y385810D01*
X680288Y344897D02*
X680477Y344917D01*
X679911Y344855D02*
X680099Y344877D01*
X670786Y387708D02*
X670875Y387689D01*
X655527Y389123D02*
X655652Y389129D01*
X704043Y380156D02*
X704066Y380060D01*
X704750Y363734D02*
X704751Y363639D01*
X648879Y379680D02*
X648947Y379586D01*
X664539Y388792D02*
X664741Y388766D01*
X649959Y352708D02*
X650025Y352804D01*
X651716Y388745D02*
X651833Y388764D01*
X598426Y326691D02*
X598567Y326447D01*
X668785Y388111D02*
X668877Y388093D01*
X704773Y361729D02*
X704774Y361632D01*
X704682Y374985D02*
X704687Y374879D01*
X647324Y381854D02*
X647383Y381767D01*
X667381Y342504D02*
X667476Y342521D01*
X685178Y385739D02*
X685285Y385741D01*
X685072Y345133D02*
X685178Y345132D01*
X700875Y384800D02*
X700949Y384758D01*
X685713Y385749D02*
X685820Y385752D01*
X664539Y342080D02*
X664741Y342105D01*
X653313Y362867D02*
X653319Y362962D01*
X676096Y344262D02*
X676184Y344279D01*
X686581Y385777D02*
X686690Y385781D01*
X653219Y369147D02*
X653228Y369052D01*
X693918Y344787D02*
X694026Y344787D01*
X694350Y344789D02*
X694457Y344790D01*
X699092Y385520D02*
X699180Y385495D01*
X647695Y387635D02*
X647774Y387673D01*
X646627Y347916D02*
X646675Y347999D01*
X646323Y383518D02*
X646363Y383439D01*
X665935Y342271D02*
X666130Y342300D01*
X685285Y385741D02*
X685391Y385742D01*
X648205Y380604D02*
X648272Y380513D01*
X668321Y388198D02*
X668414Y388181D01*
X670336Y343069D02*
X670426Y343088D01*
X646675Y382872D02*
X646724Y382790D01*
X655150Y389102D02*
X655275Y389110D01*
X651112Y376332D02*
X651166Y376236D01*
X648639Y342851D02*
X648732Y342819D01*
X648074Y380786D02*
X648139Y380696D01*
X673800Y387069D02*
X673888Y387050D01*
X689921Y385947D02*
X690033Y385953D01*
X688687Y344992D02*
X688798Y344986D01*
X671055Y387652D02*
X671144Y387633D01*
X650467Y388517D02*
X650577Y388540D01*
X649514Y342583D02*
X649616Y342556D01*
X678433Y386213D02*
X678524Y386199D01*
X651367Y388688D02*
X651483Y388708D01*
X694026Y344787D02*
X694135Y344787D01*
X653401Y366292D02*
X653405Y366197D01*
X649017Y388144D02*
X649114Y388174D01*
X701305Y346333D02*
X701374Y346380D01*
X593502Y326298D02*
X593519Y326250D01*
X674152Y343876D02*
X674240Y343894D01*
X670155Y343032D02*
X670246Y343051D01*
X704593Y376473D02*
X704601Y376367D01*
X650773Y376912D02*
X650832Y376815D01*
X700801Y384841D02*
X700875Y384800D01*
X675122Y344073D02*
X675210Y344091D01*
X648607Y350819D02*
X648675Y350911D01*
X699608Y385359D02*
X699692Y385330D01*
X695618Y386042D02*
X695722Y386036D01*
X684966Y345134D02*
X685072Y345133D01*
X650034Y342451D02*
X650141Y342426D01*
X650283Y353188D02*
X650346Y353284D01*
X654272Y341830D02*
X654397Y341820D01*
X704771Y371590D02*
X704772Y371490D01*
X653423Y365150D02*
X653427Y365245D01*
X704774Y361632D02*
X704775Y361536D01*
X689921Y344924D02*
X690033Y344918D01*
X652741Y372106D02*
X652764Y372011D01*
X669519Y387967D02*
X669611Y387949D01*
X700726Y345990D02*
X700801Y346030D01*
X699940Y385237D02*
X700022Y385205D01*
X653157Y341935D02*
X653280Y341922D01*
X646021Y346662D02*
X646049Y346736D01*
X678160Y386254D02*
X678251Y386240D01*
X704403Y352612D02*
X704417Y352715D01*
X686800Y345086D02*
X686909Y345081D01*
X656904Y341696D02*
X657151Y341691D01*
X686362Y345103D02*
X686471Y345099D01*
X697233Y344976D02*
X697330Y344989D01*
X704754Y363450D02*
X704756Y363354D01*
X679538Y344810D02*
X679725Y344833D01*
X675122Y386798D02*
X675210Y386780D01*
X684442Y367776D02*
X704721D01*
X675033Y386815D02*
X675122Y386798D01*
X653420Y365055D02*
X653423Y365150D01*
X689471Y385922D02*
X689584Y385928D01*
X704176Y379573D02*
X704197Y379475D01*
X654147Y341840D02*
X654272Y341830D01*
X704482Y353236D02*
X704494Y353341D01*
X671412Y343295D02*
X671501Y343313D01*
X693264Y344792D02*
X693374Y344790D01*
X704593Y354398D02*
X704601Y354504D01*
X653898Y341862D02*
X654023Y341851D01*
X704761Y362974D02*
X704762Y362879D01*
X703579Y349259D02*
X703613Y349345D01*
X650471Y377394D02*
X650533Y377298D01*
X648338Y380421D02*
X648405Y380330D01*
X697524Y345017D02*
X697620Y345032D01*
X704494Y377530D02*
X704506Y377425D01*
X704255Y379176D02*
X704273Y379075D01*
X670426Y387783D02*
X670516Y387764D01*
X646724Y348081D02*
X646774Y348165D01*
X701165Y384629D02*
X701235Y384584D01*
X652924Y371246D02*
X652941Y371150D01*
X646535Y383118D02*
X646581Y383036D01*
X704775Y361536D02*
X704775Y361439D01*
X649017Y342727D02*
X649114Y342697D01*
X704769Y368566D02*
X704770Y368662D01*
X653209Y361628D02*
X653219Y361724D01*
X646825Y382623D02*
X646877Y382539D01*
X689696Y344936D02*
X689808Y344930D01*
X696438Y344888D02*
X696538Y344897D01*
X704197Y351396D02*
X704217Y351496D01*
X666325Y388541D02*
X666519Y388510D01*
X674240Y343894D02*
X674328Y343912D01*
X698915Y345302D02*
X699004Y345326D01*
X666808Y388463D02*
X666904Y388447D01*
X653381Y364104D02*
X653385Y364199D01*
X696235Y344870D02*
X696337Y344879D01*
X653325Y367814D02*
X653331Y367719D01*
X686254Y385765D02*
X686362Y385769D01*
X673536Y343747D02*
X673624Y343765D01*
X686037Y385758D02*
X686145Y385761D01*
X648020Y387783D02*
X648105Y387818D01*
X688128Y345022D02*
X688239Y345017D01*
X653038Y360293D02*
X653053Y360389D01*
X651112Y354539D02*
X651166Y354635D01*
X674328Y386959D02*
X674416Y386941D01*
X703742Y381174D02*
X703772Y381085D01*
X648191Y387853D02*
X648278Y387887D01*
X646774Y348165D02*
X646825Y348248D01*
X667476Y388350D02*
X667570Y388334D01*
X704557Y376897D02*
X704567Y376791D01*
X687905Y345034D02*
X688017Y345028D01*
X704517Y353551D02*
X704527Y353657D01*
X650594Y377201D02*
X650655Y377105D01*
X673183Y387199D02*
X673271Y387180D01*
X704773Y361825D02*
X704773Y361729D01*
X649015Y351378D02*
X649084Y351472D01*
X698280Y385718D02*
X698373Y385699D01*
X704775Y359778D02*
X704776Y359877D01*
X655275Y341762D02*
X655401Y341754D01*
X650832Y376815D02*
X650890Y376719D01*
X694989Y344802D02*
X695095Y344806D01*
X688351Y345011D02*
X688463Y345005D01*
X665342Y388686D02*
X665541Y388658D01*
X652428Y388848D02*
X652549Y388864D01*
X697037Y344951D02*
X697135Y344963D01*
X704584Y376579D02*
X704593Y376473D01*
X647503Y381591D02*
X647565Y381503D01*
X647616Y343274D02*
X647695Y343236D01*
X704217Y379375D02*
X704236Y379276D01*
X652791Y341977D02*
X652913Y341963D01*
X670246Y387820D02*
X670336Y387802D01*
X653167Y361247D02*
X653178Y361343D01*
X704576Y354186D02*
X704584Y354292D01*
X704112Y351004D02*
X704134Y351101D01*
X691715Y386034D02*
X691826Y386039D01*
X653401Y364579D02*
X653405Y364675D01*
X704747Y366948D02*
X704748Y367042D01*
X678069Y344603D02*
X678160Y344617D01*
X654522Y389060D02*
X654648Y389069D01*
X698646Y345234D02*
X698737Y345256D01*
X647626Y349456D02*
X647689Y349545D01*
X653347Y363438D02*
X653353Y363533D01*
X652596Y358191D02*
X652647Y358382D01*
X646446Y347592D02*
X646490Y347672D01*
X646984Y382370D02*
X647038Y382285D01*
X670606Y387746D02*
X670696Y387727D01*
X696639Y344907D02*
X696739Y344917D01*
X688239Y345017D02*
X688351Y345011D01*
X700263Y385104D02*
X700342Y385069D01*
X686145Y345110D02*
X686254Y345106D01*
X673007Y387237D02*
X673095Y387218D01*
X690931Y385999D02*
X691044Y386004D01*
X692935Y386073D02*
X693045Y386075D01*
X651002Y354346D02*
X651058Y354442D01*
X704776Y369529D02*
X704776Y369625D01*
X658372Y389189D02*
X658850Y389185D01*
X700574Y345913D02*
X700651Y345951D01*
X652807Y371819D02*
X652828Y371724D01*
X694671Y344794D02*
X694777Y344796D01*
X689247Y385910D02*
X689359Y385916D01*
X647879Y349814D02*
X647943Y349904D01*
X695618Y344829D02*
X695722Y344835D01*
X653367Y367053D02*
X653372Y366958D01*
X654272Y389041D02*
X654397Y389051D01*
X704744Y364113D02*
X704745Y364018D01*
X704726Y357042D02*
X704732Y357250D01*
X653430Y365340D02*
X653434Y365435D01*
X651138Y342223D02*
X651252Y342203D01*
X704661Y375409D02*
X704667Y375303D01*
X647937Y343125D02*
X648020Y343088D01*
X698464Y385679D02*
X698556Y385658D01*
X653189Y361438D02*
X653199Y361533D01*
X693483Y344789D02*
X693592Y344788D01*
X653120Y360866D02*
X653133Y360961D01*
X653430Y365531D02*
X653434Y365435D01*
X652848Y359243D02*
X652868Y359338D01*
X647695Y343236D02*
X647774Y343198D01*
X653319Y362962D02*
X653325Y363057D01*
X655904Y341730D02*
X656154Y341720D01*
X645970Y346514D02*
X645995Y346587D01*
X652786Y358956D02*
X652807Y359052D01*
X704777Y369819D02*
X704777Y369917D01*
X704721Y365435D02*
X704724Y365247D01*
X649152Y351567D02*
X649220Y351661D01*
X704672Y355674D02*
X704678Y355780D01*
X698826Y345279D02*
X698915Y345302D01*
X704733Y364775D02*
X704734Y364680D01*
X665738Y342242D02*
X665935Y342271D01*
X670696Y387727D02*
X670786Y387708D01*
X689696Y385934D02*
X689808Y385941D01*
X651483Y342163D02*
X651599Y342144D01*
X702590Y383367D02*
X702642Y383301D01*
X653237Y368957D02*
X653246Y368862D01*
X680857Y385916D02*
X681144Y385890D01*
X652369Y357424D02*
X652429Y357616D01*
X593418Y326536D02*
X593434Y326488D01*
X704745Y366853D02*
X704747Y366948D01*
X696031Y344855D02*
X696133Y344862D01*
X669336Y342868D02*
X669428Y342886D01*
X695928Y344848D02*
X696031Y344855D01*
X673888Y343821D02*
X673976Y343839D01*
X704389Y378362D02*
X704403Y378259D01*
X653145Y369814D02*
X653156Y369719D01*
X704134Y379770D02*
X704156Y379672D01*
X672123Y387425D02*
X672211Y387406D01*
X704431Y378052D02*
X704445Y377948D01*
X672742Y387293D02*
X672830Y387274D01*
X696839Y385943D02*
X696938Y385932D01*
X671768Y387501D02*
X671857Y387482D01*
X674064Y343857D02*
X674152Y343876D01*
X689808Y385941D02*
X689921Y385947D01*
X678251Y344631D02*
X678342Y344645D01*
X648947Y379586D02*
X649015Y379493D01*
X704774Y359679D02*
X704775Y359778D01*
X690819Y344877D02*
X690931Y344872D01*
X676184Y386592D02*
X676273Y386576D01*
X653337Y367624D02*
X653342Y367528D01*
X652308Y342039D02*
X652428Y342023D01*
X704719Y356834D02*
X704726Y357042D01*
X673359Y387162D02*
X673447Y387143D01*
X648540Y350726D02*
X648607Y350819D01*
X667286Y388383D02*
X667381Y388367D01*
X668414Y342690D02*
X668507Y342708D01*
X674240Y386977D02*
X674328Y386959D01*
X704756Y358275D02*
X704760Y358478D01*
X704708Y356520D02*
X704712Y356625D01*
X691826Y344832D02*
X691938Y344828D01*
X704643Y375728D02*
X704650Y375622D01*
X690145Y344912D02*
X690258Y344906D01*
X650249Y388469D02*
X650357Y388493D01*
X653397Y366387D02*
X653401Y366292D01*
X704358Y352304D02*
X704373Y352406D01*
X662668Y388991D02*
X663197Y388941D01*
X704777Y360857D02*
X704778Y360760D01*
X695722Y386036D02*
X695825Y386030D01*
X700103Y385172D02*
X700183Y385138D01*
X671945Y387463D02*
X672034Y387444D01*
X650467Y342355D02*
X650577Y342331D01*
X695514Y386048D02*
X695618Y386042D01*
X664741Y342105D02*
X664943Y342131D01*
X704609Y354611D02*
X704616Y354717D01*
X653262Y368671D02*
X653270Y368576D01*
X692049Y386047D02*
X692160Y386051D01*
X697811Y345064D02*
X697906Y345080D01*
X653133Y369910D02*
X653145Y369814D01*
X688463Y345005D02*
X688575Y344999D01*
X646021Y384209D02*
X646049Y384135D01*
X702982Y348062D02*
X703027Y348135D01*
X692604Y386065D02*
X692714Y386068D01*
X692825Y344800D02*
X692935Y344798D01*
X666519Y342361D02*
X666615Y342377D01*
X653405Y364675D02*
X653409Y364770D01*
X702842Y347845D02*
X702889Y347916D01*
X665143Y388713D02*
X665342Y388686D01*
X653157Y388936D02*
X653280Y388949D01*
X650911Y342265D02*
X651024Y342244D01*
X704637Y355036D02*
X704643Y355143D01*
X653167Y369624D02*
X653178Y369529D01*
X704729Y364964D02*
X704731Y364869D01*
X646535Y347753D02*
X646581Y347835D01*
X650090Y352900D02*
X650155Y352996D01*
X697428Y345003D02*
X697524Y345017D01*
X674857Y344020D02*
X674945Y344038D01*
X652992Y370864D02*
X653008Y370769D01*
X703993Y380346D02*
X704018Y380252D01*
X697906Y385791D02*
X698000Y385773D01*
X648272Y380513D02*
X648338Y380421D01*
X647246Y387398D02*
X647318Y387439D01*
X699353Y345428D02*
X699439Y345456D01*
X691938Y386043D02*
X692049Y386047D01*
X653254Y368766D02*
X653262Y368671D01*
X686581Y345094D02*
X686690Y345090D01*
X650890Y376719D02*
X650946Y376622D01*
X704774Y371291D02*
X704774Y371192D01*
X667853Y342587D02*
X667947Y342604D01*
X704656Y355355D02*
X704661Y355462D01*
X704763Y372191D02*
X704766Y371990D01*
X653367Y363818D02*
X653372Y363913D01*
X704778Y370111D02*
X704778Y370209D01*
X681822Y345035D02*
X682214Y345061D01*
X703831Y349967D02*
X703860Y350059D01*
X653067Y360484D02*
X653081Y360580D01*
X653337Y363247D02*
X653342Y363343D01*
X649356Y379021D02*
X649424Y378926D01*
X652189Y388815D02*
X652308Y388832D01*
X653319Y367909D02*
X653325Y367814D01*
X704768Y362401D02*
X704769Y362305D01*
X704758Y363164D02*
X704760Y363069D01*
X648105Y387818D02*
X648191Y387853D01*
X686909Y345081D02*
X687020Y345076D01*
X690033Y344918D02*
X690145Y344912D01*
X704774Y359580D02*
X704774Y359679D01*
X649559Y378736D02*
X649627Y378641D01*
X670786Y343163D02*
X670875Y343182D01*
X677166Y386416D02*
X677256Y386400D01*
X653650Y388986D02*
X653774Y388998D01*
X653434Y360755D02*
X704721D01*
X704727Y365058D02*
X704729Y364964D01*
X674504Y386922D02*
X674593Y386904D01*
X672388Y387368D02*
X672477Y387350D01*
X650249Y342402D02*
X650357Y342378D01*
X704776Y370896D02*
X704777Y370797D01*
X685820Y345119D02*
X685928Y345116D01*
X650141Y342426D02*
X650249Y342402D01*
X690595Y344889D02*
X690707Y344883D01*
X647383Y349104D02*
X647443Y349192D01*
X649220Y351661D02*
X649288Y351755D01*
X676007Y344246D02*
X676096Y344262D01*
X646976Y343643D02*
X647042Y343600D01*
X646984Y348501D02*
X647038Y348586D01*
X704743Y373208D02*
X704748Y373003D01*
X703679Y381351D02*
X703711Y381263D01*
X703915Y380628D02*
X703942Y380535D01*
X653423Y365721D02*
X653427Y365626D01*
X669611Y387949D02*
X669702Y387931D01*
X703742Y349697D02*
X703772Y349786D01*
X704724Y365624D02*
X704726Y365719D01*
X655275Y389110D02*
X655401Y389117D01*
X696438Y385984D02*
X696538Y385974D01*
X675387Y344126D02*
X675475Y344143D01*
X678251Y386240D02*
X678342Y386226D01*
X704756Y363354D02*
X704757Y363259D01*
X646246Y347196D02*
X646284Y347274D01*
X676540Y344345D02*
X676629Y344361D01*
X649694Y378546D02*
X649761Y378450D01*
X698373Y345172D02*
X698464Y345192D01*
X697037Y385920D02*
X697135Y385908D01*
X695825Y386030D02*
X695928Y386023D01*
X704417Y378156D02*
X704431Y378052D01*
X666519Y388510D02*
X666615Y388495D01*
X678524Y386199D02*
X678616Y386186D01*
X667570Y388334D02*
X667665Y388317D01*
X684966Y385737D02*
X685072Y385738D01*
X704777Y369917D02*
X704777Y370014D01*
X704342Y378670D02*
X704358Y378568D01*
X650533Y377298D02*
X650594Y377201D01*
X646877Y348332D02*
X646930Y348416D01*
X704758Y367707D02*
X704760Y367802D01*
X704769Y362305D02*
X704770Y362209D01*
X648540Y380145D02*
X648607Y380052D01*
X692382Y386058D02*
X692493Y386062D01*
X686471Y345099D02*
X686581Y345094D01*
X656655Y341703D02*
X656904Y341696D01*
X704773Y369046D02*
X704773Y369142D01*
X653372Y366958D02*
X653376Y366862D01*
X653178Y369529D02*
X653189Y369433D01*
X647150Y382114D02*
X647207Y382028D01*
X695305Y386057D02*
X695410Y386053D01*
X653145Y361057D02*
X653156Y361152D01*
X704741Y364302D02*
X704742Y364208D01*
X702693Y383234D02*
X702744Y383165D01*
X673976Y387032D02*
X674064Y387014D01*
X704678Y375091D02*
X704682Y374985D01*
X704744Y366758D02*
X704745Y366853D01*
X649413Y388260D02*
X649514Y388288D01*
X666130Y342300D02*
X666325Y342331D01*
X670426Y343088D02*
X670516Y343107D01*
X666615Y342377D02*
X666712Y342392D01*
X646627Y382955D02*
X646675Y382872D01*
X665541Y342213D02*
X665738Y342242D01*
X677077Y386431D02*
X677166Y386416D01*
X704778Y370405D02*
X704778Y370307D01*
X704727Y365813D02*
X704729Y365908D01*
X690931Y344872D02*
X691044Y344866D01*
X667665Y388317D02*
X667759Y388301D01*
X675298Y386763D02*
X675387Y386745D01*
X703242Y348518D02*
X703282Y348598D01*
X668600Y388146D02*
X668692Y388128D01*
X648811Y351097D02*
X648879Y351191D01*
X703711Y349608D02*
X703742Y349697D01*
X666130Y388571D02*
X666325Y388541D01*
X647390Y343392D02*
X647464Y343352D01*
X703968Y350430D02*
X703993Y350524D01*
X696739Y344917D02*
X696839Y344928D01*
X677526Y344516D02*
X677616Y344531D01*
X699524Y345484D02*
X699608Y345512D01*
X687020Y345076D02*
X687130Y345072D01*
X700651Y345951D02*
X700726Y345990D01*
X699267Y385469D02*
X699353Y385443D01*
X676719Y386494D02*
X676808Y386478D01*
X704630Y354930D02*
X704637Y355036D01*
X649114Y388174D02*
X649213Y388203D01*
X649893Y352612D02*
X649959Y352708D01*
X704768Y368470D02*
X704769Y368566D01*
X649616Y342556D02*
X649719Y342529D01*
X653331Y363152D02*
X653337Y363247D01*
X700875Y346071D02*
X700949Y346113D01*
X672034Y387444D02*
X672123Y387425D01*
X687572Y385820D02*
X687683Y385826D01*
X671590Y387539D02*
X671679Y387520D01*
X647246Y343473D02*
X647318Y343432D01*
X649827Y352516D02*
X649893Y352612D01*
X653133Y360961D02*
X653145Y361057D01*
X674328Y343912D02*
X674416Y343930D01*
X697135Y344963D02*
X697233Y344976D01*
X704777Y360369D02*
X704778Y360467D01*
X699004Y385545D02*
X699092Y385520D01*
X673624Y343765D02*
X673712Y343784D01*
X674945Y344038D02*
X675033Y344056D01*
X673536Y387124D02*
X673624Y387106D01*
X652549Y342007D02*
X652670Y341992D01*
X691156Y386010D02*
X691268Y386015D01*
X690482Y344894D02*
X690595Y344889D01*
X691379Y386020D02*
X691491Y386025D01*
X653285Y368385D02*
X653292Y368290D01*
X703361Y348758D02*
X703399Y348840D01*
X704753Y363544D02*
X704754Y363450D01*
X703200Y348440D02*
X703242Y348518D01*
X699267Y345402D02*
X699353Y345428D01*
X647855Y343161D02*
X647937Y343125D01*
X704748Y373003D02*
X704752Y372799D01*
X673888Y387050D02*
X673976Y387032D01*
X646079Y346812D02*
X646109Y346888D01*
X679167Y386109D02*
X679352Y386085D01*
X704704Y356414D02*
X704708Y356520D01*
X648732Y342819D02*
X648826Y342788D01*
X704764Y368183D02*
X704765Y368279D01*
X703613Y381526D02*
X703646Y381439D01*
X672565Y387331D02*
X672654Y387312D01*
X703072Y382661D02*
X703116Y382585D01*
X648921Y388114D02*
X649017Y388144D01*
X703282Y382273D02*
X703322Y382193D01*
X698094Y385756D02*
X698187Y385737D01*
X699180Y345376D02*
X699267Y345402D01*
X650714Y377008D02*
X650773Y376912D01*
X674769Y344002D02*
X674857Y344020D01*
X704494Y353341D02*
X704506Y353446D01*
X703711Y381263D02*
X703742Y381174D01*
X655652Y389129D02*
X655904Y389141D01*
X647943Y380967D02*
X648008Y380877D01*
X667095Y388416D02*
X667191Y388399D01*
X677978Y386282D02*
X678069Y386268D01*
X649893Y378259D02*
X649959Y378163D01*
X669883Y387894D02*
X669974Y387876D01*
X649114Y342697D02*
X649213Y342668D01*
X693592Y386083D02*
X693701Y386084D01*
X675210Y344091D02*
X675298Y344109D01*
X704724Y365247D02*
X704726Y365152D01*
X671768Y343370D02*
X671857Y343389D01*
X678983Y344737D02*
X679167Y344762D01*
X593434Y326488D02*
X593451Y326440D01*
X704470Y353132D02*
X704482Y353236D01*
X649152Y379305D02*
X649220Y379210D01*
X656405Y389160D02*
X656655Y389168D01*
X695305Y344814D02*
X695410Y344818D01*
X704326Y378772D02*
X704342Y378670D01*
X704112Y379867D02*
X704134Y379770D01*
X704716Y356729D02*
X704719Y356834D01*
X691044Y386004D02*
X691156Y386010D01*
X652828Y371724D02*
X652848Y371628D01*
X653306Y362771D02*
X653313Y362867D01*
X704712Y356625D02*
X704716Y356729D01*
X704548Y377003D02*
X704557Y376897D01*
X651483Y388708D02*
X651599Y388727D01*
X704403Y378259D02*
X704417Y378156D01*
X649514Y388288D02*
X649616Y388315D01*
X677797Y386311D02*
X677887Y386297D01*
X689135Y385903D02*
X689247Y385910D01*
X667759Y388301D02*
X667853Y388284D01*
X704066Y380060D02*
X704089Y379964D01*
X652549Y388864D02*
X652670Y388879D01*
X672300Y343484D02*
X672388Y343503D01*
X648743Y379867D02*
X648811Y379773D01*
X653299Y368195D02*
X653306Y368100D01*
X668969Y342796D02*
X669061Y342814D01*
X680099Y385995D02*
X680288Y385974D01*
X671501Y343313D02*
X671590Y343332D01*
X704678Y355780D02*
X704682Y355886D01*
X679911Y386016D02*
X680099Y385995D01*
X669245Y342850D02*
X669336Y342868D01*
X647318Y387439D02*
X647390Y387479D01*
X703579Y381612D02*
X703613Y381526D01*
X653376Y366862D02*
X653381Y366767D01*
X688017Y345028D02*
X688128Y345022D01*
X704431Y352819D02*
X704445Y352923D01*
X650346Y377587D02*
X650409Y377491D01*
X702889Y382955D02*
X702936Y382882D01*
X649424Y378926D02*
X649492Y378831D01*
X668507Y342708D02*
X668600Y342725D01*
X704576Y376685D02*
X704584Y376579D01*
X651367Y342183D02*
X651483Y342163D01*
X704777Y369722D02*
X704777Y369819D01*
X704762Y362879D02*
X704763Y362783D01*
X648547Y387988D02*
X648639Y388020D01*
X696337Y344879D02*
X696438Y344888D01*
X703802Y349876D02*
X703831Y349967D01*
X687461Y385815D02*
X687572Y385820D01*
X652868Y359338D02*
X652887Y359434D01*
Y371437D02*
X652905Y371342D01*
X654899Y389086D02*
X655024Y389095D01*
X668692Y342743D02*
X668785Y342760D01*
X653209Y369243D02*
X653219Y369147D01*
X648008Y349994D02*
X648074Y350085D01*
X665935Y388600D02*
X666130Y388571D01*
X703646Y349432D02*
X703679Y349520D01*
X688687Y385879D02*
X688798Y385885D01*
X669428Y342886D02*
X669519Y342904D01*
X704732Y357250D02*
X704738Y357457D01*
X679352Y344786D02*
X679538Y344810D01*
X653420Y365816D02*
X653423Y365721D01*
X648639Y388020D02*
X648732Y388052D01*
X648405Y380330D02*
X648472Y380237D01*
X651833Y342108D02*
X651951Y342090D01*
X648278Y387887D02*
X648366Y387921D01*
X650890Y354152D02*
X650946Y354249D01*
X701510Y346476D02*
X701577Y346525D01*
X652913Y341963D02*
X653035Y341949D01*
X696538Y344897D02*
X696639Y344907D01*
X691603Y386030D02*
X691715Y386034D01*
X654522Y341811D02*
X654648Y341802D01*
X671055Y343219D02*
X671144Y343238D01*
X670516Y387764D02*
X670606Y387746D01*
X652905Y371342D02*
X652924Y371246D01*
X704776Y359975D02*
X704777Y360074D01*
X700420Y345839D02*
X700497Y345875D01*
X673976Y343839D02*
X674064Y343857D01*
X689808Y344930D02*
X689921Y344924D01*
X649929Y388394D02*
X650034Y388420D01*
X686362Y385769D02*
X686471Y385773D01*
X650594Y353670D02*
X650655Y353766D01*
X704687Y355992D02*
X704692Y356098D01*
X668041Y388250D02*
X668134Y388233D01*
X691826Y386039D02*
X691938Y386043D01*
X678616Y344685D02*
X678799Y344711D01*
X653358Y367243D02*
X653363Y367148D01*
X704776Y361246D02*
X704777Y361149D01*
X648826Y342788D02*
X648921Y342757D01*
X685713Y345122D02*
X685820Y345119D01*
X652959Y359816D02*
X652975Y359912D01*
X704731Y364869D02*
X704733Y364775D01*
X704506Y353446D02*
X704517Y353551D01*
X676007Y386625D02*
X676096Y386609D01*
X703679Y349520D02*
X703711Y349608D01*
X704700Y374562D02*
X704704Y374457D01*
X702936Y382882D02*
X702982Y382809D01*
X697906Y345080D02*
X698000Y345098D01*
X652308Y388832D02*
X652428Y388848D01*
X668321Y342673D02*
X668414Y342690D01*
X704445Y352923D02*
X704458Y353027D01*
X704766Y371990D02*
X704769Y371790D01*
X697811Y385807D02*
X697906Y385791D01*
X693264Y386079D02*
X693374Y386081D01*
X669428Y387985D02*
X669519Y387967D01*
X687350Y385810D02*
X687461Y385815D01*
X704557Y353974D02*
X704567Y354080D01*
X702744Y383165D02*
X702793Y383096D01*
X704721Y365435D02*
X704724Y365624D01*
X677616Y344531D02*
X677707Y344546D01*
X704712Y374246D02*
X704716Y374142D01*
X704373Y352406D02*
X704389Y352509D01*
X663197Y388941D02*
X663615Y388898D01*
X704748Y367042D02*
X704750Y367137D01*
X646774Y382706D02*
X646825Y382623D01*
X653108Y360770D02*
X653120Y360866D01*
X654899Y341785D02*
X655024Y341777D01*
X652786Y371915D02*
X652807Y371819D01*
X678160Y344617D02*
X678251Y344631D01*
X675387Y386745D02*
X675475Y386728D01*
X647042Y387272D02*
X647109Y387314D01*
X692493Y386062D02*
X692604Y386065D01*
X698646Y385637D02*
X698737Y385615D01*
X693592Y344788D02*
X693701Y344787D01*
X677346Y344486D02*
X677436Y344501D01*
X700801Y346030D02*
X700875Y346071D01*
X650946Y354249D02*
X651002Y354346D01*
X688128Y385849D02*
X688239Y385854D01*
X692493Y344809D02*
X692604Y344806D01*
X647752Y349635D02*
X647815Y349724D01*
X704470Y377739D02*
X704482Y377635D01*
X704762Y367992D02*
X704763Y368088D01*
X694564Y344792D02*
X694671Y344794D01*
X695200Y344810D02*
X695305Y344814D01*
X665541Y388658D02*
X665738Y388629D01*
X652670Y388879D02*
X652791Y388894D01*
X653292Y362581D02*
X653299Y362676D01*
X704766Y358881D02*
X704769Y359081D01*
X704704Y374457D02*
X704708Y374351D01*
X649827Y378355D02*
X649893Y378259D01*
X653219Y361724D02*
X653228Y361819D01*
X677707Y386325D02*
X677797Y386311D01*
X696337Y385992D02*
X696438Y385984D01*
X704236Y379276D02*
X704255Y379176D01*
X696133Y386009D02*
X696235Y386001D01*
X701093Y384673D02*
X701165Y384629D01*
X668877Y342778D02*
X668969Y342796D01*
X704716Y374142D02*
X704719Y374037D01*
X701443Y384444D02*
X701510Y384395D01*
X701577Y384346D02*
X701643Y384296D01*
X704760Y363069D02*
X704761Y362974D01*
X653409Y366101D02*
X653412Y366006D01*
X656655Y389168D02*
X656904Y389175D01*
X688575Y385873D02*
X688687Y385879D01*
X653246Y362010D02*
X653254Y362105D01*
X650832Y354056D02*
X650890Y354152D01*
X704692Y356098D02*
X704696Y356204D01*
X690370Y385971D02*
X690482Y385977D01*
X652695Y358573D02*
X652741Y358765D01*
X704776Y361343D02*
X704776Y361246D01*
X704089Y350907D02*
X704112Y351004D01*
X649213Y388203D02*
X649312Y388232D01*
X650025Y352804D02*
X650090Y352900D01*
X686909Y385790D02*
X687020Y385795D01*
X655652Y341741D02*
X655904Y341730D01*
X704765Y368279D02*
X704766Y368374D01*
X650773Y353959D02*
X650832Y354056D01*
X704760Y358478D02*
X704763Y358680D01*
X653409Y364770D02*
X653412Y364865D01*
X651599Y388727D02*
X651716Y388745D01*
X653412Y366006D02*
X653416Y365911D01*
X703399Y382031D02*
X703437Y381949D01*
X648338Y350450D02*
X648405Y350541D01*
X697620Y345032D02*
X697716Y345048D01*
X694457Y386081D02*
X694564Y386079D01*
X704751Y367232D02*
X704753Y367327D01*
X670336Y387802D02*
X670426Y387783D01*
X697716Y345048D02*
X697811Y345064D01*
X704775Y361439D02*
X704776Y361343D01*
X653427Y365626D02*
X653430Y365531D01*
X653405Y366197D02*
X653409Y366101D01*
X694989Y386069D02*
X695095Y386065D01*
X698737Y385615D02*
X698826Y385592D01*
X704777Y360271D02*
X704777Y360369D01*
X704616Y354717D02*
X704623Y354823D01*
X652596Y372680D02*
X652647Y372489D01*
X653189Y369433D02*
X653199Y369338D01*
X677077Y344440D02*
X677166Y344455D01*
X652429Y357616D02*
X652487Y357808D01*
X676540Y386526D02*
X676629Y386510D01*
X670155Y387839D02*
X670246Y387820D01*
X704752Y358072D02*
X704756Y358275D01*
X704373Y378465D02*
X704389Y378362D01*
X667665Y342554D02*
X667759Y342571D01*
X704770Y368662D02*
X704770Y368758D01*
X700726Y384881D02*
X700801Y384841D01*
X653434Y363095D02*
X679761D01*
X690819Y385994D02*
X690931Y385999D01*
X658850Y341687D02*
X659554Y341701D01*
X694883Y386072D02*
X694989Y386069D01*
X704527Y377214D02*
X704538Y377109D01*
X653108Y370101D02*
X653120Y370005D01*
X704764Y362688D02*
X704765Y362592D01*
X648139Y350176D02*
X648205Y350267D01*
X664741Y388766D02*
X664943Y388740D01*
X685178Y345132D02*
X685285Y345131D01*
X653156Y369719D02*
X653167Y369624D01*
X704176Y351298D02*
X704197Y351396D01*
X681144Y385890D02*
X681434Y385866D01*
X653035Y341949D02*
X653157Y341935D01*
X653416Y364960D02*
X653420Y365055D01*
X687350Y345061D02*
X687461Y345056D01*
X654397Y341820D02*
X654522Y341811D01*
X656904Y389175D02*
X657151Y389180D01*
X696839Y344928D02*
X696938Y344939D01*
X645995Y346587D02*
X646021Y346662D01*
X678342Y344645D02*
X678433Y344658D01*
X650911Y388606D02*
X651024Y388627D01*
X672830Y343597D02*
X672918Y343616D01*
X652959Y371055D02*
X652975Y370960D01*
X650283Y377683D02*
X650346Y377587D01*
X663926Y342007D02*
X664233Y342042D01*
X649824Y388368D02*
X649929Y388394D01*
X704326Y352099D02*
X704342Y352201D01*
X668507Y388163D02*
X668600Y388146D01*
X703437Y381949D02*
X703473Y381866D01*
X704236Y351595D02*
X704255Y351695D01*
X652992Y360007D02*
X653008Y360103D01*
X703968Y380441D02*
X703993Y380346D01*
X684861Y385736D02*
X684966Y385737D01*
X671233Y387614D02*
X671323Y387595D01*
X703802Y380995D02*
X703831Y380904D01*
X647324Y349017D02*
X647383Y349104D01*
X650799Y388584D02*
X650911Y388606D01*
X704770Y362113D02*
X704771Y362018D01*
X646976Y387228D02*
X647042Y387272D01*
X697428Y385868D02*
X697524Y385854D01*
X704630Y375941D02*
X704637Y375835D01*
X667191Y388399D02*
X667286Y388383D01*
X699608Y345512D02*
X699692Y345541D01*
X649015Y379493D02*
X649084Y379399D01*
X647038Y348586D02*
X647094Y348671D01*
X704743Y357663D02*
X704748Y357868D01*
X674681Y343985D02*
X674769Y344002D01*
X654023Y389020D02*
X654147Y389031D01*
X646175Y347041D02*
X646210Y347118D01*
X702642Y383301D02*
X702693Y383234D01*
X653347Y367433D02*
X653353Y367338D01*
X673447Y387143D02*
X673536Y387124D01*
X654648Y389069D02*
X654773Y389078D01*
X646142Y383907D02*
X646175Y383830D01*
X700022Y345666D02*
X700103Y345699D01*
X695410Y386053D02*
X695514Y386048D01*
X701021Y384716D02*
X701093Y384673D01*
Y346198D02*
X701165Y346242D01*
X648366Y387921D02*
X648456Y387955D01*
X670965Y343200D02*
X671055Y343219D01*
X703027Y382735D02*
X703072Y382661D01*
X698915Y385569D02*
X699004Y385545D01*
X670606Y343125D02*
X670696Y343144D01*
X694242Y344788D02*
X694350Y344789D01*
X673624Y387106D02*
X673712Y387087D01*
X649559Y352135D02*
X649627Y352230D01*
X689247Y344961D02*
X689359Y344955D01*
X677797Y344560D02*
X677887Y344575D01*
X702744Y347706D02*
X702793Y347775D01*
X653228Y369052D02*
X653237Y368957D01*
X648879Y351191D02*
X648947Y351285D01*
X702693Y347637D02*
X702744Y347706D01*
X656154Y389151D02*
X656405Y389160D01*
X704567Y376791D02*
X704576Y376685D01*
X653434Y370116D02*
X704721D01*
X653403Y388962D02*
X653527Y388974D01*
X648472Y350634D02*
X648540Y350726D01*
X695722Y344835D02*
X695825Y344841D01*
X658372Y341682D02*
X658850Y341687D01*
X704733Y366096D02*
X704734Y366191D01*
X697620Y385839D02*
X697716Y385823D01*
X649424Y351945D02*
X649492Y352040D01*
X687905Y385837D02*
X688017Y385843D01*
X669974Y342995D02*
X670065Y343014D01*
X699776Y385299D02*
X699858Y385269D01*
X650577Y342331D02*
X650687Y342309D01*
X704687Y374879D02*
X704692Y374773D01*
X704458Y353027D02*
X704470Y353132D01*
X653199Y361533D02*
X653209Y361628D01*
X702590Y347504D02*
X702642Y347570D01*
X651002Y376525D02*
X651058Y376429D01*
X647464Y343352D02*
X647540Y343313D01*
X663615Y341973D02*
X663926Y342007D01*
X646363Y347432D02*
X646404Y347511D01*
X702936Y347989D02*
X702982Y348062D01*
X703200Y382431D02*
X703242Y382353D01*
X696739Y385954D02*
X696839Y385943D01*
X689584Y385928D02*
X689696Y385934D01*
X703509Y381782D02*
X703545Y381697D01*
X697330Y344989D02*
X697428Y345003D01*
X672918Y387255D02*
X673007Y387237D01*
X648947Y351285D02*
X649015Y351378D01*
X670875Y343182D02*
X670965Y343200D01*
X677346Y386385D02*
X677436Y386370D01*
X703399Y348840D02*
X703437Y348922D01*
X651024Y388627D02*
X651138Y388648D01*
X649627Y378641D02*
X649694Y378546D01*
X698464Y345192D02*
X698556Y345213D01*
X653434Y365435D02*
X678792D01*
X704734Y364680D02*
X704736Y364586D01*
X652189Y342056D02*
X652308Y342039D01*
X654023Y341851D02*
X654147Y341840D01*
X666325Y342331D02*
X666519Y342361D01*
X652487Y357808D02*
X652543Y357999D01*
X704756Y367517D02*
X704757Y367612D01*
X697233Y385895D02*
X697330Y385882D01*
X651252Y342203D02*
X651367Y342183D01*
X699092Y345351D02*
X699180Y345376D01*
X692271Y386055D02*
X692382Y386058D01*
X673007Y343634D02*
X673095Y343653D01*
X652975Y370960D02*
X652992Y370864D01*
X653008Y360103D02*
X653023Y360198D01*
X663197Y341930D02*
X663615Y341973D01*
X678799Y344711D02*
X678983Y344737D01*
X698280Y345153D02*
X698373Y345172D01*
X700574Y384958D02*
X700651Y384920D01*
X671144Y343238D02*
X671233Y343257D01*
X698000Y385773D02*
X698094Y385756D01*
X656154Y341720D02*
X656405Y341711D01*
X667570Y342537D02*
X667665Y342554D01*
X692935Y344798D02*
X693045Y344796D01*
X669519Y342904D02*
X669611Y342922D01*
X704517Y377320D02*
X704527Y377214D01*
X704623Y354823D02*
X704630Y354930D01*
X704776Y370994D02*
X704776Y370896D01*
X666615Y388495D02*
X666712Y388479D01*
X670516Y343107D02*
X670606Y343125D01*
X667286Y342488D02*
X667381Y342504D01*
X693701Y386084D02*
X693810Y386084D01*
X704748Y357868D02*
X704752Y358072D01*
X653254Y362105D02*
X653262Y362200D01*
X646210Y383753D02*
X646246Y383675D01*
X653156Y361152D02*
X653167Y361247D01*
X689584Y344943D02*
X689696Y344936D01*
X671501Y387557D02*
X671590Y387539D01*
X678069Y386268D02*
X678160Y386254D01*
X647879Y381057D02*
X647943Y380967D01*
X674857Y386851D02*
X674945Y386833D01*
X672388Y343503D02*
X672477Y343521D01*
X674593Y386904D02*
X674681Y386886D01*
X671679Y387520D02*
X671768Y387501D01*
X698094Y345115D02*
X698187Y345134D01*
X704661Y355462D02*
X704667Y355568D01*
X669702Y342940D02*
X669793Y342959D01*
X675298Y344109D02*
X675387Y344126D01*
X687461Y345056D02*
X687572Y345051D01*
X702982Y382809D02*
X703027Y382735D01*
X690145Y385959D02*
X690258Y385965D01*
X654147Y389031D02*
X654272Y389041D01*
X651951Y388781D02*
X652070Y388798D01*
X653280Y388949D02*
X653403Y388962D01*
X695514Y344824D02*
X695618Y344829D01*
X675918Y344229D02*
X676007Y344246D01*
X692825Y386071D02*
X692935Y386073D01*
X704770Y368758D02*
X704771Y368854D01*
X653397Y364484D02*
X653401Y364579D01*
X690482Y385977D02*
X690595Y385982D01*
X703646Y381439D02*
X703679Y381351D01*
X646284Y347274D02*
X646323Y347353D01*
X652543Y357999D02*
X652596Y358191D01*
X652429Y373255D02*
X652487Y373064D01*
X653385Y364199D02*
X653389Y364294D01*
X648456Y342916D02*
X648547Y342883D01*
X696031Y386016D02*
X696133Y386009D01*
X654397Y389051D02*
X654522Y389060D01*
X678342Y386226D02*
X678433Y386213D01*
X704738Y373414D02*
X704743Y373208D01*
X668134Y388233D02*
X668228Y388215D01*
X698826Y385592D02*
X698915Y385569D01*
X704769Y371790D02*
X704770Y371690D01*
X703942Y380535D02*
X703968Y380441D01*
X692271Y344816D02*
X692382Y344813D01*
X649959Y378163D02*
X650025Y378067D01*
X691603Y344841D02*
X691715Y344837D01*
X648811Y379773D02*
X648879Y379680D01*
X704601Y376367D02*
X704609Y376260D01*
X704650Y355249D02*
X704656Y355355D01*
X598285Y326966D02*
X598426Y326691D01*
X650034Y388420D02*
X650141Y388445D01*
X703860Y380812D02*
X703888Y380720D01*
X702793Y347775D02*
X702842Y347845D01*
X703545Y349174D02*
X703579Y349259D01*
X669702Y387931D02*
X669793Y387912D01*
X668600Y342725D02*
X668692Y342743D01*
X699858Y345602D02*
X699940Y345634D01*
X653053Y360389D02*
X653067Y360484D01*
X677166Y344455D02*
X677256Y344471D01*
X673183Y343672D02*
X673271Y343691D01*
X672034Y343427D02*
X672123Y343446D01*
X647503Y349280D02*
X647565Y349368D01*
X704771Y368854D02*
X704772Y368950D01*
X653120Y370005D02*
X653133Y369910D01*
X677887Y344575D02*
X677978Y344589D01*
X672477Y387350D02*
X672565Y387331D01*
X646930Y382455D02*
X646984Y382370D01*
X704778Y360760D02*
X704778Y360662D01*
X650219Y353092D02*
X650283Y353188D01*
X650409Y377491D02*
X650471Y377394D01*
X647565Y349368D02*
X647626Y349456D01*
X704771Y359281D02*
X704772Y359381D01*
X645970Y384357D02*
X645995Y384284D01*
X673271Y343691D02*
X673359Y343709D01*
X690707Y344883D02*
X690819Y344877D01*
X669153Y342832D02*
X669245Y342850D01*
X655024Y389095D02*
X655150Y389102D01*
X704776Y359877D02*
X704776Y359975D01*
X694777Y386074D02*
X694883Y386072D01*
X652828Y359147D02*
X652848Y359243D01*
X704777Y360172D02*
X704777Y360271D01*
X696538Y385974D02*
X696639Y385964D01*
X674504Y343949D02*
X674593Y343967D01*
X646675Y347999D02*
X646724Y348081D01*
X704770Y359181D02*
X704771Y359281D01*
X646724Y382790D02*
X646774Y382706D01*
X698737Y345256D02*
X698826Y345279D01*
X653270Y368576D02*
X653278Y368480D01*
X647177Y387356D02*
X647246Y387398D01*
X704696Y374667D02*
X704700Y374562D01*
X704777Y370797D02*
X704777Y370699D01*
X647390Y387479D02*
X647464Y387519D01*
X677707Y344546D02*
X677797Y344560D01*
X704445Y377948D02*
X704458Y377844D01*
X653331Y367719D02*
X653337Y367624D01*
X649312Y342639D02*
X649413Y342611D01*
X669061Y342814D02*
X669153Y342832D01*
X648074Y350085D02*
X648139Y350176D01*
X704609Y376260D02*
X704616Y376154D01*
X703437Y348922D02*
X703473Y349005D01*
X699439Y385415D02*
X699524Y385387D01*
X672830Y387274D02*
X672918Y387255D01*
X656405Y341711D02*
X656655Y341703D01*
X704770Y362209D02*
X704770Y362113D01*
X647443Y349192D02*
X647503Y349280D01*
X658850Y389185D02*
X659554Y389170D01*
X672211Y387406D02*
X672300Y387387D01*
X704018Y380252D02*
X704043Y380156D01*
X649312Y388232D02*
X649413Y388260D01*
X681434Y345005D02*
X681822Y345035D01*
X704765Y362592D02*
X704766Y362497D01*
X647565Y381503D02*
X647626Y381415D01*
X704018Y350619D02*
X704043Y350715D01*
X693374Y344790D02*
X693483Y344789D01*
X648020Y343088D02*
X648105Y343053D01*
X704273Y351796D02*
X704291Y351897D01*
X703888Y350151D02*
X703915Y350243D01*
X680857Y344955D02*
X681144Y344981D01*
X647109Y387314D02*
X647177Y387356D01*
X693155Y344794D02*
X693264Y344792D01*
X653280Y341922D02*
X653403Y341909D01*
X652695Y372298D02*
X652741Y372106D01*
X693918Y386084D02*
X694026Y386084D01*
X653527Y341897D02*
X653650Y341885D01*
X680477Y344917D02*
X680667Y344936D01*
X653023Y360198D02*
X653038Y360293D01*
X704770Y371690D02*
X704771Y371590D01*
X649492Y352040D02*
X649559Y352135D01*
X672742Y343578D02*
X672830Y343597D01*
X699940Y345634D02*
X700022Y345666D01*
X647540Y387558D02*
X647616Y387597D01*
X704777Y370014D02*
X704778Y370111D01*
X669793Y387912D02*
X669883Y387894D01*
X704742Y364208D02*
X704744Y364113D01*
X653199Y369338D02*
X653209Y369243D01*
X704156Y379672D02*
X704176Y379573D01*
X666904Y342424D02*
X667000Y342439D01*
D17*
X222560Y357362D02*
G03*
X222560Y357362I-3163J0D01*
G01*
X226356Y375077D02*
G03*
X226356Y375077I-3163J0D01*
G01*
X222560Y392793D02*
G03*
X222560Y392793I-3163J0D01*
G01*
D19*
X259888Y348504D02*
X262419D01*
X245969Y371281D02*
Y378873D01*
X240908Y371281D02*
Y378873D01*
X259888Y401650D02*
X262419D01*
X223192Y357362D02*
X232050D01*
X226989Y375077D02*
X235846D01*
X223192Y392793D02*
X232050D01*
X248500Y383935D02*
Y401650D01*
X232050Y383935D02*
Y401650D01*
X248500Y348504D02*
Y366220D01*
X232050Y348504D02*
Y366220D01*
X262419Y348504D02*
Y401650D01*
X259888Y348504D02*
Y401650D01*
X232050Y348504D02*
X248500D01*
X232050Y366220D02*
X248500D01*
X232050Y383935D02*
X248500D01*
X232050Y401650D02*
X248500D01*
D22*
X675605Y314947D02*
X676496Y315838D01*
X677833Y316284D01*
X679616D01*
X680953Y315838D01*
X681845Y314947D01*
Y314055D01*
X681399Y313164D01*
X680953Y312718D01*
X680062Y312273D01*
X677387Y311381D01*
X676496Y310935D01*
X676050Y310490D01*
X675605Y309598D01*
Y308261D01*
X676496Y307370D01*
X677833Y306924D01*
X679616D01*
X680953Y307370D01*
X681845Y308261D01*
X673064Y313164D02*
X670390Y306924D01*
X667716Y313164D02*
X670390Y306924D01*
X671281Y305141D01*
X672173Y304250D01*
X673064Y303804D01*
X673510D01*
X661253Y311827D02*
X661699Y312718D01*
X663036Y313164D01*
X664373D01*
X665710Y312718D01*
X666156Y311827D01*
X665710Y310935D01*
X664819Y310490D01*
X662590Y310044D01*
X661699Y309598D01*
X661253Y308707D01*
Y308261D01*
X661699Y307370D01*
X663036Y306924D01*
X664373D01*
X665710Y307370D01*
X666156Y308261D01*
X657955Y316284D02*
Y308707D01*
X657509Y307370D01*
X656618Y306924D01*
X655726D01*
X659292Y313164D02*
X656172D01*
X654389Y310490D02*
X649041D01*
Y311381D01*
X649486Y312273D01*
X649932Y312718D01*
X650823Y313164D01*
X652161D01*
X653052Y312718D01*
X653943Y311827D01*
X654389Y310490D01*
Y309598D01*
X653943Y308261D01*
X653052Y307370D01*
X652161Y306924D01*
X650823D01*
X649932Y307370D01*
X649041Y308261D01*
X647035Y313164D02*
Y306924D01*
Y311381D02*
X645698Y312718D01*
X644806Y313164D01*
X643469D01*
X642578Y312718D01*
X642132Y311381D01*
Y306924D01*
Y311381D02*
X640795Y312718D01*
X639904Y313164D01*
X638567D01*
X637675Y312718D01*
X637229Y311381D01*
Y306924D01*
X691206Y419264D02*
Y409904D01*
Y419264D02*
X688086D01*
X686749Y418818D01*
X685858Y417927D01*
X685412Y417035D01*
X684967Y415698D01*
Y413470D01*
X685412Y412133D01*
X685858Y411241D01*
X686749Y410350D01*
X688086Y409904D01*
X691206D01*
X682872Y419264D02*
Y409904D01*
Y419264D02*
X678860D01*
X677523Y418818D01*
X677077Y418373D01*
X676632Y417481D01*
Y416590D01*
X677077Y415698D01*
X677523Y415253D01*
X678860Y414807D01*
X682872D02*
X678860D01*
X677523Y414361D01*
X677077Y413916D01*
X676632Y413024D01*
Y411687D01*
X677077Y410796D01*
X677523Y410350D01*
X678860Y409904D01*
X682872D01*
X667183Y419264D02*
Y409904D01*
X660943Y419264D02*
Y409904D01*
X667183Y414807D02*
X660943D01*
X656129Y416144D02*
X657021Y415698D01*
X657912Y414807D01*
X658358Y413470D01*
Y412579D01*
X657912Y411241D01*
X657021Y410350D01*
X656129Y409904D01*
X654792D01*
X653901Y410350D01*
X653009Y411241D01*
X652564Y412579D01*
Y413470D01*
X653009Y414807D01*
X653901Y415698D01*
X654792Y416144D01*
X656129D01*
X650513D02*
Y409904D01*
Y414361D02*
X649176Y415698D01*
X648285Y416144D01*
X646948D01*
X646056Y415698D01*
X645611Y414361D01*
Y409904D01*
Y414361D02*
X644274Y415698D01*
X643382Y416144D01*
X642045D01*
X641154Y415698D01*
X640708Y414361D01*
Y409904D01*
X637766Y413470D02*
X632418D01*
Y414361D01*
X632864Y415253D01*
X633309Y415698D01*
X634201Y416144D01*
X635538D01*
X636429Y415698D01*
X637321Y414807D01*
X637766Y413470D01*
Y412579D01*
X637321Y411241D01*
X636429Y410350D01*
X635538Y409904D01*
X634201D01*
X633309Y410350D01*
X632418Y411241D01*
M02*
