M48
;Layer_Color=9474304
;FILE_FORMAT=4:4
METRIC,LZ
;TYPE=PLATED
T1F00S00C0.3000
T2F00S00C0.7000
T3F00S00C0.8000
T4F00S00C0.8500
T5F00S00C1.2500
T6F00S00C1.3000
T7F00S00C3.2000
%
T01
X00037362Y000065
X0002275Y00022875
X00061875Y0002275
X00036Y00061
X000065Y00056676
X00022625Y00085875
X00054875Y00093875
X0002275Y00133875
X00036Y00161
X00022875Y00180875
X000065Y0016988
X0002275Y00215875
X00021875Y00247375
X00036Y00261
X000365Y0028
X000065Y00279
X00022875Y00298375
X00024875Y00324865
X00056875Y00325875
X00059875Y00300875
X000065Y0023244
X001204Y00239
X00115625Y00219875
X001155Y00211625
X0011575Y00189223
X0014004Y00183598
X00136Y00161
X001594Y00167432
X00159275Y00125875
X00148875Y00111951
X001375Y001
X001275
X00115875Y0012575
X001848Y0013
X001975
X00230875Y00127299
X0023Y001
X00255875Y00097875
X00259307Y00079875
Y00058875
X00286Y00061
X00285304Y00099875
X00299848Y00112
X0031Y00107
X00355068Y001075
X00379932Y001075
X00379932Y00135
X00379864Y00157432
X00355Y00157432
X00355068Y00135
X00355Y00184932
X00379999Y00186
X00332Y00176589
X0031Y00159432
X003Y00145
X002775
X00259307Y00144875
X00259182Y00128275
X00245Y001475
X00251932Y0017
X00235875Y00172375
X002425Y00225
X00251812Y002325
X00263875Y00217875
X00261375Y00260875
X00286Y00261
X00299848Y00295
X003175Y002775
X00336Y00261
X00337552Y00295
X00400015
X0042Y002775
X00386Y00261
X00441875Y00306875
X00469875Y00308875
X0046975Y00294875
X003175Y00205
X00291096Y00176583
X00205Y00225
X0018075
X001775Y00215
X001594
X00145Y00239
X00158875Y00253875
X00186Y00261
X001875Y002425
X00236Y00261
X00194875Y00302375
X001875Y0032499
X00169775Y0032474
X00147375Y00324865
X0015915Y0030225
X00117875Y00304875
X00209Y00319389
X0019Y001
X00184675Y0008275
X00159275Y00082875
X00136Y00061
X00124076Y000065
X002474
X00236975Y0007725
X00210875Y00077375
X00336Y00061
X00386
X00362538Y000065
X00574912
X00536Y00061
X00561Y00111
X00511
X00536Y00161
X00586
X00604Y00127424
X00615Y00135
X006225
X00611Y00211
X00561
X00562663Y00278875
X00562789Y003
X00612392
X00641875Y00281875
X00663097Y003
X00700575
X00722875Y00280875
X007425Y00270196
X00723875Y00240875
X00711Y00211
X007425Y00206766
X00726875Y00181875
X007425Y001575
X00725875Y00132875
X00711Y00111
X007425Y00106993
Y00045
X00722375Y00048875
X00705875Y00028875
X00586Y00261
X00537177Y00262176
X00514875Y0030475
X00495875Y00304875
X00496875Y00288875
X006365Y0043575
X006465
X006565
X006665
X006765
X006865
X006965
X007065
Y0045075
X006965
X006865
X006765
X006665
X006565
X006465
X006365
Y0046575
X006465
X006565
X006665
X006765
X006865
X006965
X007065
Y0048075
X006965
X006865
X006765
X006665
X006565
X006465
X006365
Y0049575
X006465
X006565
X006665
X006765
X006865
X006965
X007065
X00510922Y0060452
X005015Y00604
Y00614
X005115
X004915
Y00604
X003265Y0049575
X003165
X003065
X002965
X002865
X002765
X002665
X002565
Y0048075
X002665
X002765
X002865
X002965
X003065
X003165
X003265
Y0046575
X003165
X003065
X002965
X002865
X002765
X002665
X002565
Y0045075
X002665
X002765
X002865
X002965
X003065
X003165
X003265
Y0043575
X003165
X003065
X002965
X002865
X002765
X002665
X002565
X001875Y003415
X00440875Y00328875
X00130922Y0060452
X001215Y00604
Y00614
X001315
X001115
Y00604
X000365Y003415
X000065Y00328587
T02
X005165Y0055575
X004165
X001365
X000365
T03
X00095Y000475
Y002761
X001204
X001458
X001712
X001966
X00222
X002474
X002728
Y000475
X002474
X00222
X001966
X001712
X001458
X001204
T04
X00584Y0054625
X00659Y0057025
X00279
X00204Y0054625
T05
X004275Y0007
Y0014
Y0021
X004775Y00245
Y00175
Y00105
T06
X00599002Y0065825
X00649002
X00269002
X00219002
T07
X-00025Y0008
X00775
Y005575
X-00025Y0055575
M30
