G04*
G04 #@! TF.GenerationSoftware,Altium Limited,Altium Designer,18.1.9 (240)*
G04*
G04 Layer_Color=128*
%FSLAX44Y44*%
%MOMM*%
G71*
G01*
G75*
%ADD21C,0.0508*%
D21*
X86000Y235001D02*
X89000D01*
X87500Y233501D02*
Y236501D01*
X86000Y215001D02*
X89000D01*
X87500Y213501D02*
Y216501D01*
X93500Y225001D02*
X96500D01*
X95000Y223501D02*
Y226501D01*
X93500Y205001D02*
X96500D01*
X95000Y203501D02*
Y206501D01*
X120500Y230000D02*
X123500D01*
X122000Y228500D02*
Y231500D01*
X120500Y220000D02*
X123500D01*
X122000Y218500D02*
Y221500D01*
X120500Y210000D02*
X123500D01*
X122000Y208500D02*
Y211500D01*
X120500Y200000D02*
X123500D01*
X122000Y198500D02*
Y201500D01*
X86000Y195001D02*
X89000D01*
X87500Y193501D02*
Y196501D01*
X86000Y155001D02*
X89000D01*
X87500Y153501D02*
Y156501D01*
X120500Y160000D02*
X123500D01*
X122000Y158500D02*
Y161500D01*
X120500Y170000D02*
X123500D01*
X122000Y168500D02*
Y171500D01*
X120500Y180000D02*
X123500D01*
X122000Y178500D02*
Y181500D01*
X120500Y190000D02*
X123500D01*
X122000Y188500D02*
Y191500D01*
X93500Y165001D02*
X96500D01*
X95000Y163501D02*
Y166501D01*
X93500Y185001D02*
X96500D01*
X95000Y183501D02*
Y186501D01*
X86000Y175001D02*
X89000D01*
X87500Y173501D02*
Y176501D01*
X120500Y140000D02*
X123500D01*
X122000Y138500D02*
Y141500D01*
X120500Y150000D02*
X123500D01*
X122000Y148500D02*
Y151500D01*
X93500Y145001D02*
X96500D01*
X95000Y143501D02*
Y146501D01*
X93500Y45002D02*
X96500D01*
X95000Y43502D02*
Y46501D01*
X120500Y50000D02*
X123500D01*
X122000Y48500D02*
Y51500D01*
X120500Y40000D02*
X123500D01*
X122000Y38500D02*
Y41500D01*
X86000Y75002D02*
X89000D01*
X87500Y73502D02*
Y76501D01*
X93500Y85001D02*
X96500D01*
X95000Y83501D02*
Y86501D01*
X93500Y65002D02*
X96500D01*
X95000Y63502D02*
Y66501D01*
X120500Y90000D02*
X123500D01*
X122000Y88500D02*
Y91500D01*
X120500Y80000D02*
X123500D01*
X122000Y78500D02*
Y81500D01*
X120500Y70000D02*
X123500D01*
X122000Y68500D02*
Y71500D01*
X120500Y60000D02*
X123500D01*
X122000Y58500D02*
Y61500D01*
X86000Y55002D02*
X89000D01*
X87500Y53502D02*
Y56501D01*
X86000Y95001D02*
X89000D01*
X87500Y93501D02*
Y96501D01*
X120500Y100000D02*
X123500D01*
X122000Y98500D02*
Y101500D01*
X120500Y110000D02*
X123500D01*
X122000Y108500D02*
Y111500D01*
X120500Y120000D02*
X123500D01*
X122000Y118500D02*
Y121500D01*
X120500Y130000D02*
X123500D01*
X122000Y128500D02*
Y131500D01*
X93500Y105001D02*
X96500D01*
X95000Y103501D02*
Y106501D01*
X93500Y125001D02*
X96500D01*
X95000Y123501D02*
Y126501D01*
X86000Y115001D02*
X89000D01*
X87500Y113501D02*
Y116501D01*
X86000Y135001D02*
X89000D01*
X87500Y133501D02*
Y136501D01*
M02*
