M48
;Layer_Color=9474304
;FILE_FORMAT=4:4
METRIC,LZ
;TYPE=PLATED
T1F00S00C0.3000
%
T01
X00095Y00045002
X000875Y00055002
X00095Y00065002
X000875Y00075002
X00095Y00085001
X000875Y00095001
X00095Y00105001
X000875Y00115001
X00095Y00125001
X000875Y00135001
X00095Y00145001
X00122Y0014
Y0013
Y0012
Y0011
Y001
Y0009
Y0008
Y0007
Y0006
Y0005
Y0004
Y0015
Y0016
Y0017
Y0018
Y0019
Y002
Y0021
Y0022
Y0023
X00095Y00225001
X000875Y00235001
Y00215001
X00095Y00205001
X000875Y00195001
X00095Y00185001
X000875Y00175001
X00095Y00165001
X000875Y00155001
M30
