G04*
G04 #@! TF.GenerationSoftware,Altium Limited,Altium Designer,18.1.9 (240)*
G04*
G04 Layer_Color=32896*
%FSLAX44Y44*%
%MOMM*%
G71*
G01*
G75*
%ADD10C,0.1270*%
G36*
X109613Y33351D02*
X109712Y33342D01*
X109793Y33315D01*
X109865Y33288D01*
X109929Y33261D01*
X109983Y33216D01*
X110028Y33180D01*
X110055Y33135D01*
X110100Y33053D01*
X110127Y32990D01*
X110136Y32936D01*
Y29645D01*
X110794D01*
X110902Y29636D01*
X110992Y29618D01*
X111074Y29591D01*
X111146Y29555D01*
X111200Y29510D01*
X111254Y29456D01*
X111326Y29347D01*
X111362Y29239D01*
X111389Y29140D01*
X111398Y29104D01*
Y29050D01*
X111389Y28942D01*
X111371Y28851D01*
X111344Y28761D01*
X111299Y28698D01*
X111254Y28635D01*
X111209Y28590D01*
X111092Y28509D01*
X110983Y28473D01*
X110884Y28446D01*
X110848Y28437D01*
X110821D01*
X110803D01*
X110794D01*
X110136D01*
Y27914D01*
X110127Y27806D01*
X110109Y27715D01*
X110082Y27625D01*
X110037Y27562D01*
X109992Y27499D01*
X109937Y27454D01*
X109829Y27373D01*
X109712Y27337D01*
X109622Y27310D01*
X109577Y27301D01*
X109550D01*
X109532D01*
X109523D01*
X109415Y27310D01*
X109324Y27328D01*
X109234Y27355D01*
X109171Y27400D01*
X109108Y27445D01*
X109063Y27490D01*
X108982Y27607D01*
X108946Y27715D01*
X108919Y27815D01*
X108910Y27860D01*
Y28437D01*
X107665D01*
X107557Y28446D01*
X107467Y28464D01*
X107386Y28491D01*
X107314Y28536D01*
X107260Y28581D01*
X107205Y28626D01*
X107133Y28743D01*
X107097Y28851D01*
X107070Y28951D01*
X107061Y28996D01*
Y29050D01*
X107070Y29158D01*
X107088Y29248D01*
X107115Y29329D01*
X107151Y29392D01*
X107205Y29456D01*
X107250Y29501D01*
X107359Y29573D01*
X107476Y29609D01*
X107566Y29636D01*
X107611Y29645D01*
X107638D01*
X107656D01*
X107665D01*
X108910D01*
Y31971D01*
X103887Y30204D01*
X103815Y30177D01*
X103743Y30168D01*
X103689Y30159D01*
X103680D01*
X103671D01*
X103581Y30168D01*
X103499Y30195D01*
X103427Y30222D01*
X103364Y30258D01*
X103310Y30303D01*
X103274Y30330D01*
X103256Y30357D01*
X103247Y30366D01*
X103184Y30438D01*
X103139Y30520D01*
X103112Y30592D01*
X103085Y30664D01*
X103076Y30718D01*
X103067Y30763D01*
Y30880D01*
X103085Y30952D01*
X103130Y31061D01*
X103202Y31160D01*
X103274Y31232D01*
X103346Y31295D01*
X103418Y31331D01*
X103463Y31349D01*
X103472Y31358D01*
X103481D01*
X108991Y33279D01*
X109189Y33324D01*
X109270Y33342D01*
X109351Y33351D01*
X109415D01*
X109460Y33360D01*
X109496D01*
X109505D01*
X109613Y33351D01*
D02*
G37*
G36*
X107575Y25885D02*
X107864Y25867D01*
X108134Y25831D01*
X108396Y25795D01*
X108630Y25750D01*
X108855Y25696D01*
X109054Y25632D01*
X109234Y25569D01*
X109405Y25515D01*
X109541Y25452D01*
X109667Y25398D01*
X109766Y25353D01*
X109847Y25317D01*
X109910Y25281D01*
X109946Y25263D01*
X109956Y25254D01*
X110217Y25109D01*
X110442Y24956D01*
X110641Y24803D01*
X110812Y24641D01*
X110956Y24478D01*
X111083Y24325D01*
X111182Y24172D01*
X111254Y24018D01*
X111317Y23883D01*
X111362Y23748D01*
X111398Y23640D01*
X111416Y23540D01*
X111434Y23459D01*
X111443Y23396D01*
Y23342D01*
X111425Y23126D01*
X111380Y22927D01*
X111308Y22738D01*
X111209Y22549D01*
X111101Y22386D01*
X110975Y22224D01*
X110839Y22080D01*
X110695Y21953D01*
X110560Y21836D01*
X110424Y21728D01*
X110298Y21638D01*
X110190Y21566D01*
X110091Y21503D01*
X110019Y21467D01*
X109974Y21439D01*
X109956Y21430D01*
X109757Y21313D01*
X109550Y21214D01*
X109333Y21133D01*
X109108Y21052D01*
X108883Y20989D01*
X108657Y20944D01*
X108441Y20898D01*
X108233Y20862D01*
X108035Y20835D01*
X107846Y20817D01*
X107683Y20799D01*
X107548Y20790D01*
X107431Y20781D01*
X107341D01*
X107287D01*
X107277D01*
X107268D01*
X106962Y20790D01*
X106664Y20808D01*
X106385Y20844D01*
X106123Y20889D01*
X105871Y20935D01*
X105627Y20989D01*
X105411Y21052D01*
X105213Y21115D01*
X105032Y21178D01*
X104870Y21241D01*
X104735Y21295D01*
X104618Y21340D01*
X104527Y21385D01*
X104455Y21421D01*
X104419Y21439D01*
X104401Y21449D01*
X104167Y21593D01*
X103959Y21737D01*
X103788Y21890D01*
X103635Y22053D01*
X103508Y22215D01*
X103400Y22368D01*
X103310Y22522D01*
X103238Y22666D01*
X103184Y22810D01*
X103148Y22936D01*
X103112Y23054D01*
X103094Y23153D01*
X103085Y23234D01*
X103076Y23288D01*
Y23342D01*
X103094Y23549D01*
X103139Y23757D01*
X103211Y23946D01*
X103310Y24127D01*
X103418Y24289D01*
X103545Y24451D01*
X103680Y24595D01*
X103824Y24722D01*
X103959Y24839D01*
X104094Y24938D01*
X104221Y25028D01*
X104338Y25100D01*
X104437Y25164D01*
X104509Y25200D01*
X104554Y25227D01*
X104572Y25236D01*
X104771Y25353D01*
X104987Y25452D01*
X105213Y25542D01*
X105438Y25614D01*
X105663Y25677D01*
X105889Y25732D01*
X106105Y25777D01*
X106313Y25813D01*
X106511Y25840D01*
X106691Y25858D01*
X106854Y25876D01*
X106998Y25885D01*
X107106D01*
X107196Y25894D01*
X107250D01*
X107260D01*
X107268D01*
X107575Y25885D01*
D02*
G37*
G36*
X110893Y245441D02*
X110983Y245423D01*
X111065Y245396D01*
X111128Y245360D01*
X111191Y245315D01*
X111236Y245261D01*
X111308Y245152D01*
X111344Y245044D01*
X111371Y244945D01*
X111380Y244909D01*
Y244855D01*
X111371Y244747D01*
X111353Y244657D01*
X111326Y244566D01*
X111290Y244503D01*
X111245Y244440D01*
X111191Y244395D01*
X111083Y244314D01*
X110975Y244278D01*
X110875Y244251D01*
X110839Y244242D01*
X110812D01*
X110794D01*
X110785D01*
X103680D01*
X103572Y244251D01*
X103481Y244269D01*
X103400Y244296D01*
X103328Y244341D01*
X103274Y244386D01*
X103220Y244431D01*
X103148Y244548D01*
X103112Y244657D01*
X103085Y244756D01*
X103076Y244801D01*
Y244855D01*
X103085Y244963D01*
X103103Y245053D01*
X103130Y245134D01*
X103166Y245198D01*
X103220Y245261D01*
X103265Y245306D01*
X103373Y245378D01*
X103490Y245414D01*
X103581Y245441D01*
X103626Y245450D01*
X103653D01*
X103671D01*
X103680D01*
X110785D01*
X110893Y245441D01*
D02*
G37*
%LPC*%
G36*
X107386Y24695D02*
X107323D01*
X107287D01*
X107268D01*
X107043D01*
X106836Y24677D01*
X106628Y24668D01*
X106439Y24641D01*
X106268Y24613D01*
X106105Y24587D01*
X105952Y24559D01*
X105817Y24523D01*
X105690Y24496D01*
X105582Y24469D01*
X105492Y24442D01*
X105420Y24415D01*
X105357Y24388D01*
X105312Y24379D01*
X105285Y24361D01*
X105276D01*
X105104Y24280D01*
X104951Y24199D01*
X104825Y24118D01*
X104717Y24027D01*
X104618Y23946D01*
X104536Y23856D01*
X104473Y23775D01*
X104419Y23703D01*
X104383Y23622D01*
X104356Y23558D01*
X104329Y23495D01*
X104320Y23441D01*
X104311Y23405D01*
X104302Y23369D01*
Y23342D01*
X104311Y23225D01*
X104338Y23117D01*
X104383Y23017D01*
X104446Y22918D01*
X104509Y22828D01*
X104590Y22747D01*
X104753Y22603D01*
X104915Y22485D01*
X104996Y22440D01*
X105059Y22404D01*
X105122Y22368D01*
X105168Y22350D01*
X105195Y22332D01*
X105204D01*
X105537Y22206D01*
X105880Y22116D01*
X106222Y22053D01*
X106394Y22026D01*
X106547Y22008D01*
X106700Y21990D01*
X106836Y21981D01*
X106953Y21971D01*
X107061D01*
X107142Y21962D01*
X107205D01*
X107241D01*
X107260D01*
X107485D01*
X107692Y21981D01*
X107900Y21999D01*
X108089Y22017D01*
X108269Y22044D01*
X108441Y22080D01*
X108594Y22116D01*
X108738Y22143D01*
X108874Y22179D01*
X108982Y22215D01*
X109081Y22242D01*
X109162Y22278D01*
X109225Y22296D01*
X109279Y22314D01*
X109306Y22332D01*
X109315D01*
X109478Y22404D01*
X109613Y22485D01*
X109730Y22576D01*
X109838Y22657D01*
X109920Y22738D01*
X110001Y22828D01*
X110055Y22909D01*
X110100Y22981D01*
X110145Y23063D01*
X110172Y23126D01*
X110190Y23189D01*
X110199Y23243D01*
X110208Y23279D01*
X110217Y23315D01*
Y23342D01*
X110208Y23450D01*
X110181Y23558D01*
X110136Y23658D01*
X110073Y23757D01*
X110010Y23847D01*
X109937Y23928D01*
X109766Y24063D01*
X109604Y24181D01*
X109532Y24226D01*
X109460Y24262D01*
X109405Y24298D01*
X109360Y24316D01*
X109333Y24325D01*
X109324Y24334D01*
X108991Y24451D01*
X108648Y24541D01*
X108305Y24604D01*
X108143Y24632D01*
X107981Y24650D01*
X107837Y24668D01*
X107701Y24677D01*
X107575Y24686D01*
X107476D01*
X107386Y24695D01*
D02*
G37*
%LPD*%
D10*
X101100Y4500D02*
X158000D01*
X101100Y270499D02*
X158000D01*
X101100Y4500D02*
Y270499D01*
X158000Y4500D02*
Y270499D01*
M02*
