G04*
G04 #@! TF.GenerationSoftware,Altium Limited,Altium Designer,18.1.9 (240)*
G04*
G04 Layer_Color=2752767*
%FSLAX44Y44*%
%MOMM*%
G71*
G01*
G75*
%ADD21C,0.0508*%
D21*
X85468Y232969D02*
Y237033D01*
X89532D01*
Y232969D01*
X85468D01*
Y212969D02*
Y217033D01*
X89532D01*
Y212969D01*
X85468D01*
X92968Y222969D02*
Y227033D01*
X97032D01*
Y222969D01*
X92968D01*
Y202969D02*
Y207033D01*
X97032D01*
Y202969D01*
X92968D01*
X119968Y227968D02*
Y232032D01*
X124032D01*
Y227968D01*
X119968D01*
Y217968D02*
Y222032D01*
X124032D01*
Y217968D01*
X119968D01*
Y207968D02*
Y212032D01*
X124032D01*
Y207968D01*
X119968D01*
Y197968D02*
Y202032D01*
X124032D01*
Y197968D01*
X119968D01*
X85468Y192969D02*
Y197033D01*
X89532D01*
Y192969D01*
X85468D01*
Y152969D02*
Y157033D01*
X89532D01*
Y152969D01*
X85468D01*
X119968Y157968D02*
Y162032D01*
X124032D01*
Y157968D01*
X119968D01*
Y167968D02*
Y172032D01*
X124032D01*
Y167968D01*
X119968D01*
Y177968D02*
Y182032D01*
X124032D01*
Y177968D01*
X119968D01*
Y187968D02*
Y192032D01*
X124032D01*
Y187968D01*
X119968D01*
X92968Y162969D02*
Y167033D01*
X97032D01*
Y162969D01*
X92968D01*
Y182969D02*
Y187033D01*
X97032D01*
Y182969D01*
X92968D01*
X85468Y172969D02*
Y177033D01*
X89532D01*
Y172969D01*
X85468D01*
X119968Y137968D02*
Y142032D01*
X124032D01*
Y137968D01*
X119968D01*
Y147968D02*
Y152032D01*
X124032D01*
Y147968D01*
X119968D01*
X92968Y142969D02*
Y147033D01*
X97032D01*
Y142969D01*
X92968D01*
Y42969D02*
Y47034D01*
X97032D01*
Y42969D01*
X92968D01*
X119968Y47968D02*
Y52032D01*
X124032D01*
Y47968D01*
X119968D01*
Y37968D02*
Y42032D01*
X124032D01*
Y37968D01*
X119968D01*
X85468Y72969D02*
Y77034D01*
X89532D01*
Y72969D01*
X85468D01*
X92968Y82969D02*
Y87033D01*
X97032D01*
Y82969D01*
X92968D01*
Y62969D02*
Y67034D01*
X97032D01*
Y62969D01*
X92968D01*
X119968Y87968D02*
Y92032D01*
X124032D01*
Y87968D01*
X119968D01*
Y77968D02*
Y82032D01*
X124032D01*
Y77968D01*
X119968D01*
Y67968D02*
Y72032D01*
X124032D01*
Y67968D01*
X119968D01*
Y57968D02*
Y62032D01*
X124032D01*
Y57968D01*
X119968D01*
X85468Y52969D02*
Y57034D01*
X89532D01*
Y52969D01*
X85468D01*
Y92969D02*
Y97033D01*
X89532D01*
Y92969D01*
X85468D01*
X119968Y97968D02*
Y102032D01*
X124032D01*
Y97968D01*
X119968D01*
Y107968D02*
Y112032D01*
X124032D01*
Y107968D01*
X119968D01*
Y117968D02*
Y122032D01*
X124032D01*
Y117968D01*
X119968D01*
Y127968D02*
Y132032D01*
X124032D01*
Y127968D01*
X119968D01*
X92968Y102969D02*
Y107033D01*
X97032D01*
Y102969D01*
X92968D01*
Y122969D02*
Y127033D01*
X97032D01*
Y122969D01*
X92968D01*
X85468Y112969D02*
Y117033D01*
X89532D01*
Y112969D01*
X85468D01*
Y132969D02*
Y137033D01*
X89532D01*
Y132969D01*
X85468D01*
M02*
