G04*
G04 #@! TF.GenerationSoftware,Altium Limited,Altium Designer,18.1.9 (240)*
G04*
G04 Layer_Physical_Order=2*
G04 Layer_Color=16711680*
%FSLAX44Y44*%
%MOMM*%
G71*
G01*
G75*
%ADD11R,1.2000X0.3000*%
%ADD12R,4.1000X2.7000*%
%ADD15C,0.1500*%
%ADD16C,0.5500*%
D11*
X110100Y235000D02*
D03*
Y229999D02*
D03*
Y225000D02*
D03*
Y219999D02*
D03*
Y215000D02*
D03*
Y209999D02*
D03*
Y205000D02*
D03*
Y199999D02*
D03*
Y195000D02*
D03*
Y189999D02*
D03*
Y185000D02*
D03*
Y179999D02*
D03*
Y175001D02*
D03*
Y169999D02*
D03*
Y165001D02*
D03*
Y159999D02*
D03*
Y155001D02*
D03*
Y149999D02*
D03*
Y145001D02*
D03*
Y139999D02*
D03*
Y135001D02*
D03*
Y129999D02*
D03*
Y125001D02*
D03*
Y119999D02*
D03*
Y115001D02*
D03*
Y109999D02*
D03*
Y105001D02*
D03*
Y99999D02*
D03*
Y95001D02*
D03*
Y90000D02*
D03*
Y85001D02*
D03*
Y79999D02*
D03*
Y75001D02*
D03*
Y69999D02*
D03*
Y65001D02*
D03*
Y59999D02*
D03*
Y55001D02*
D03*
Y49999D02*
D03*
Y45001D02*
D03*
Y40000D02*
D03*
D12*
X135000Y254299D02*
D03*
Y20701D02*
D03*
D15*
X110101Y70000D02*
X122000D01*
X87500Y75002D02*
X110099D01*
X110101Y90000D02*
X122000D01*
X87500Y95001D02*
X110099D01*
X110101Y110000D02*
X122000D01*
X87500Y115001D02*
X110099D01*
X110101Y130000D02*
X122000D01*
X87500Y135001D02*
X110099D01*
X110101Y150000D02*
X122000D01*
X87500Y155001D02*
X110099D01*
X110101Y170000D02*
X122000D01*
X87500Y175001D02*
X110099D01*
X110101Y190000D02*
X122000D01*
X87500Y195001D02*
X110099D01*
X110101Y210000D02*
X122000D01*
X87500Y215001D02*
X110099D01*
X87500Y235001D02*
X110099D01*
X110101Y230000D02*
X122000D01*
X95000Y225001D02*
X110099D01*
X110101Y220000D02*
X122000D01*
X95000Y205001D02*
X110099D01*
X110101Y200000D02*
X122000D01*
X95000Y185001D02*
X110099D01*
X110101Y180000D02*
X122000D01*
X94000Y165001D02*
X109099D01*
X109101Y160000D02*
X121000D01*
X95000Y145001D02*
X110099D01*
X110101Y140000D02*
X122000D01*
X95000Y125001D02*
X110099D01*
X110101Y120000D02*
X122000D01*
X95000Y105001D02*
X110099D01*
X110101Y100000D02*
X122000D01*
X95000Y85001D02*
X110099D01*
X110101Y80000D02*
X122000D01*
X95000Y65002D02*
X110099D01*
X110101Y60000D02*
X122000D01*
X87500Y55002D02*
X110099D01*
X110101Y50000D02*
X122000D01*
X110100Y40000D02*
X110101Y40000D01*
X122000D01*
X110099Y45002D02*
X110100Y45001D01*
X95000Y45002D02*
X110099D01*
D16*
X87500Y235001D02*
D03*
Y215001D02*
D03*
X95000Y225001D02*
D03*
Y205001D02*
D03*
X122000Y230000D02*
D03*
Y220000D02*
D03*
Y210000D02*
D03*
Y200000D02*
D03*
X87500Y195001D02*
D03*
Y155001D02*
D03*
X122000Y160000D02*
D03*
Y170000D02*
D03*
Y180000D02*
D03*
Y190000D02*
D03*
X95000Y165001D02*
D03*
Y185001D02*
D03*
X87500Y175001D02*
D03*
X122000Y140000D02*
D03*
Y150000D02*
D03*
X95000Y145001D02*
D03*
Y45002D02*
D03*
X122000Y50000D02*
D03*
Y40000D02*
D03*
X87500Y75002D02*
D03*
X95000Y85001D02*
D03*
Y65002D02*
D03*
X122000Y90000D02*
D03*
Y80000D02*
D03*
Y70000D02*
D03*
Y60000D02*
D03*
X87500Y55002D02*
D03*
Y95001D02*
D03*
X122000Y100000D02*
D03*
Y110000D02*
D03*
Y120000D02*
D03*
Y130000D02*
D03*
X95000Y105001D02*
D03*
Y125001D02*
D03*
X87500Y115001D02*
D03*
Y135001D02*
D03*
M02*
