G04*
G04 #@! TF.GenerationSoftware,Altium Limited,Altium Designer,18.1.9 (240)*
G04*
G04 Layer_Color=128*
%FSLAX44Y44*%
%MOMM*%
G71*
G01*
G75*
%ADD11R,1.2000X0.3000*%
%ADD12R,4.1000X2.7000*%
D11*
X110100Y235000D02*
D03*
Y229999D02*
D03*
Y225000D02*
D03*
Y219999D02*
D03*
Y215000D02*
D03*
Y209999D02*
D03*
Y205000D02*
D03*
Y199999D02*
D03*
Y195000D02*
D03*
Y189999D02*
D03*
Y185000D02*
D03*
Y179999D02*
D03*
Y175001D02*
D03*
Y169999D02*
D03*
Y165001D02*
D03*
Y159999D02*
D03*
Y155001D02*
D03*
Y149999D02*
D03*
Y145001D02*
D03*
Y139999D02*
D03*
Y135001D02*
D03*
Y129999D02*
D03*
Y125001D02*
D03*
Y119999D02*
D03*
Y115001D02*
D03*
Y109999D02*
D03*
Y105001D02*
D03*
Y99999D02*
D03*
Y95001D02*
D03*
Y90000D02*
D03*
Y85001D02*
D03*
Y79999D02*
D03*
Y75001D02*
D03*
Y69999D02*
D03*
Y65001D02*
D03*
Y59999D02*
D03*
Y55001D02*
D03*
Y49999D02*
D03*
Y45001D02*
D03*
Y40000D02*
D03*
D12*
X135000Y254299D02*
D03*
Y20701D02*
D03*
M02*
